<svg width="817" height="503" viewBox="0 0 817 503" fill="none" xmlns="http://www.w3.org/2000/svg">
<rect width="817" height="503" fill="white"/>
<rect width="420" height="24" transform="translate(264 123)" fill="#1E1B4B" fill-opacity="0.4"/>
<rect x="265" y="124" width="22" height="22" fill="#1E1B4B" fill-opacity="0.4" stroke="#1E1B4B" stroke-width="2"/>
<rect x="287" y="124" width="22" height="22" stroke="#1E1B4B" stroke-width="2"/>
<rect x="309" y="124" width="22" height="22" stroke="#1E1B4B" stroke-width="2"/>
<rect x="331" y="124" width="22" height="22" stroke="#1E1B4B" stroke-width="2"/>
<rect x="353" y="124" width="22" height="22" stroke="#1E1B4B" stroke-width="2"/>
<rect x="375" y="124" width="22" height="22" stroke="#1E1B4B" stroke-width="2"/>
<rect x="397" y="124" width="22" height="22" stroke="#1E1B4B" stroke-width="2"/>
<rect x="419" y="124" width="22" height="22" stroke="#1E1B4B" stroke-width="2"/>
<rect x="441" y="124" width="22" height="22" stroke="#1E1B4B" stroke-width="2"/>
<rect x="463" y="124" width="22" height="22" stroke="#1E1B4B" stroke-width="2"/>
<rect x="485" y="124" width="22" height="22" stroke="#1E1B4B" stroke-width="2"/>
<rect x="507" y="124" width="22" height="22" stroke="#1E1B4B" stroke-width="2"/>
<rect x="529" y="124" width="22" height="22" stroke="#1E1B4B" stroke-width="2"/>
<rect x="551" y="124" width="22" height="22" stroke="#1E1B4B" stroke-width="2"/>
<rect x="573" y="124" width="22" height="22" stroke="#1E1B4B" stroke-width="2"/>
<rect x="595" y="124" width="22" height="22" stroke="#1E1B4B" stroke-width="2"/>
<rect x="617" y="124" width="22" height="22" stroke="#1E1B4B" stroke-width="2"/>
<rect x="639" y="124" width="22" height="22" stroke="#1E1B4B" stroke-width="2"/>
<rect x="661" y="124" width="22" height="22" stroke="#1E1B4B" stroke-width="2"/>
<rect width="420" height="24" transform="translate(264 286)" fill="white"/>
<rect x="265" y="287" width="22" height="22" fill="#A5B4FC" stroke="#4F46E5" stroke-width="2"/>
<rect x="287" y="287" width="22" height="22" fill="#A5B4FC" fill-opacity="0.4" stroke="#4F46E5" stroke-width="2"/>
<rect x="309" y="287" width="22" height="22" fill="#A5B4FC" fill-opacity="0.4" stroke="#4F46E5" stroke-width="2"/>
<rect x="331" y="287" width="22" height="22" fill="#A5B4FC" fill-opacity="0.4" stroke="#4F46E5" stroke-width="2"/>
<rect x="353" y="287" width="22" height="22" fill="#A5B4FC" fill-opacity="0.4" stroke="#4F46E5" stroke-width="2"/>
<rect x="375" y="287" width="22" height="22" fill="#A5B4FC" fill-opacity="0.4" stroke="#4F46E5" stroke-width="2"/>
<rect x="397" y="287" width="22" height="22" fill="#A5B4FC" fill-opacity="0.4" stroke="#4F46E5" stroke-width="2"/>
<rect x="419" y="287" width="22" height="22" fill="#A5B4FC" fill-opacity="0.4" stroke="#4F46E5" stroke-width="2"/>
<rect x="441" y="287" width="22" height="22" fill="#A5B4FC" fill-opacity="0.4" stroke="#4F46E5" stroke-width="2"/>
<rect x="463" y="287" width="22" height="22" fill="#A5B4FC" fill-opacity="0.4" stroke="#4F46E5" stroke-width="2"/>
<rect x="507" y="287" width="22" height="22" fill="#A5B4FC" fill-opacity="0.4" stroke="#4F46E5" stroke-width="2"/>
<rect x="529" y="287" width="22" height="22" fill="#A5B4FC" fill-opacity="0.4" stroke="#4F46E5" stroke-width="2"/>
<rect x="551" y="287" width="22" height="22" fill="#A5B4FC" fill-opacity="0.4" stroke="#4F46E5" stroke-width="2"/>
<rect x="573" y="287" width="22" height="22" fill="#A5B4FC" fill-opacity="0.4" stroke="#4F46E5" stroke-width="2"/>
<rect x="617" y="287" width="22" height="22" fill="#A5B4FC" fill-opacity="0.4" stroke="#4F46E5" stroke-width="2"/>
<rect x="639" y="287" width="22" height="22" fill="#A5B4FC" fill-opacity="0.4" stroke="#4F46E5" stroke-width="2"/>
<rect x="661" y="287" width="22" height="22" fill="#A5B4FC" fill-opacity="0.4" stroke="#4F46E5" stroke-width="2"/>
<rect x="485" y="305" width="22" height="22" fill="#FCA5A5" stroke="#DC2626" stroke-width="2"/>
<rect x="595" y="305" width="22" height="22" fill="#FCA5A5" stroke="#DC2626" stroke-width="2"/>
<path d="M397.011 93.4545C397.011 94.8651 396.747 96.0732 396.218 97.0788C395.694 98.0803 394.978 98.8473 394.071 99.38C393.167 99.9126 392.142 100.179 390.996 100.179C389.85 100.179 388.823 99.9126 387.915 99.38C387.012 98.843 386.296 98.0739 385.767 97.0724C385.243 96.0668 384.981 94.8608 384.981 93.4545C384.981 92.044 385.243 90.8381 385.767 89.8366C386.296 88.831 387.012 88.0618 387.915 87.5291C388.823 86.9964 389.85 86.7301 390.996 86.7301C392.142 86.7301 393.167 86.9964 394.071 87.5291C394.978 88.0618 395.694 88.831 396.218 89.8366C396.747 90.8381 397.011 92.044 397.011 93.4545ZM394.627 93.4545C394.627 92.4616 394.471 91.6243 394.16 90.9425C393.853 90.2564 393.427 89.7386 392.882 89.3892C392.336 89.0355 391.708 88.8587 390.996 88.8587C390.285 88.8587 389.656 89.0355 389.111 89.3892C388.565 89.7386 388.137 90.2564 387.826 90.9425C387.519 91.6243 387.366 92.4616 387.366 93.4545C387.366 94.4474 387.519 95.2869 387.826 95.973C388.137 96.6548 388.565 97.1726 389.111 97.5263C389.656 97.8757 390.285 98.0504 390.996 98.0504C391.708 98.0504 392.336 97.8757 392.882 97.5263C393.427 97.1726 393.853 96.6548 394.16 95.973C394.471 95.2869 394.627 94.4474 394.627 93.4545ZM399.151 100V90.1818H401.394V91.8182H401.497C401.676 91.2514 401.983 90.8146 402.417 90.5078C402.856 90.1967 403.357 90.0412 403.919 90.0412C404.047 90.0412 404.19 90.0476 404.348 90.0604C404.509 90.0689 404.644 90.0838 404.75 90.1051V92.2337C404.652 92.1996 404.497 92.1697 404.284 92.1442C404.075 92.1143 403.872 92.0994 403.676 92.0994C403.255 92.0994 402.875 92.1911 402.539 92.3743C402.206 92.5533 401.944 92.8026 401.752 93.1222C401.561 93.4418 401.465 93.8104 401.465 94.228V100H399.151ZM406.288 100V90.1818H408.601V100H406.288ZM407.451 88.7884C407.084 88.7884 406.769 88.6669 406.505 88.424C406.241 88.1768 406.109 87.8807 406.109 87.5355C406.109 87.1861 406.241 86.8899 406.505 86.647C406.769 86.3999 407.084 86.2763 407.451 86.2763C407.822 86.2763 408.137 86.3999 408.397 86.647C408.661 86.8899 408.793 87.1861 408.793 87.5355C408.793 87.8807 408.661 88.1768 408.397 88.424C408.137 88.6669 407.822 88.7884 407.451 88.7884ZM415.251 103.886C414.42 103.886 413.706 103.773 413.109 103.548C412.513 103.326 412.033 103.028 411.671 102.653C411.309 102.278 411.058 101.862 410.917 101.406L413.001 100.901C413.095 101.093 413.231 101.283 413.41 101.47C413.589 101.662 413.83 101.82 414.132 101.943C414.439 102.071 414.825 102.135 415.289 102.135C415.945 102.135 416.489 101.975 416.919 101.656C417.35 101.34 417.565 100.82 417.565 100.096V98.2358H417.45C417.33 98.4744 417.156 98.7195 416.926 98.9709C416.7 99.2223 416.399 99.4332 416.024 99.6037C415.653 99.7741 415.187 99.8594 414.624 99.8594C413.87 99.8594 413.186 99.6825 412.573 99.3288C411.963 98.9709 411.477 98.4382 411.115 97.7308C410.757 97.0192 410.578 96.1286 410.578 95.0589C410.578 93.9808 410.757 93.071 411.115 92.3295C411.477 91.5838 411.965 91.0192 412.579 90.6357C413.193 90.2479 413.877 90.054 414.631 90.054C415.206 90.054 415.679 90.152 416.05 90.348C416.425 90.5398 416.723 90.772 416.945 91.0447C417.166 91.3132 417.335 91.5668 417.45 91.8054H417.578V90.1818H419.859V100.16C419.859 100.999 419.659 101.694 419.259 102.244C418.858 102.793 418.31 103.205 417.616 103.477C416.921 103.75 416.133 103.886 415.251 103.886ZM415.27 98.044C415.76 98.044 416.178 97.9247 416.523 97.6861C416.868 97.4474 417.13 97.1044 417.309 96.657C417.488 96.2095 417.578 95.6726 417.578 95.0462C417.578 94.4283 417.488 93.8871 417.309 93.4226C417.134 92.9581 416.874 92.598 416.529 92.3423C416.188 92.0824 415.769 91.9524 415.27 91.9524C414.754 91.9524 414.324 92.0866 413.979 92.3551C413.634 92.6236 413.374 92.9922 413.199 93.4609C413.024 93.9254 412.937 94.4538 412.937 95.0462C412.937 95.647 413.024 96.1733 413.199 96.625C413.378 97.0724 413.64 97.4219 413.985 97.6733C414.335 97.9205 414.763 98.044 415.27 98.044ZM422.231 100V90.1818H424.545V100H422.231ZM423.394 88.7884C423.028 88.7884 422.712 88.6669 422.448 88.424C422.184 88.1768 422.052 87.8807 422.052 87.5355C422.052 87.1861 422.184 86.8899 422.448 86.647C422.712 86.3999 423.028 86.2763 423.394 86.2763C423.765 86.2763 424.08 86.3999 424.34 86.647C424.604 86.8899 424.737 87.1861 424.737 87.5355C424.737 87.8807 424.604 88.1768 424.34 88.424C424.08 88.6669 423.765 88.7884 423.394 88.7884ZM429.238 94.2472V100H426.924V90.1818H429.136V91.8501H429.251C429.477 91.3004 429.837 90.8636 430.331 90.5398C430.83 90.2159 431.446 90.054 432.179 90.054C432.856 90.054 433.446 90.1989 433.949 90.4886C434.456 90.7784 434.848 91.1982 435.125 91.7479C435.407 92.2976 435.545 92.9645 435.541 93.7486V100H433.227V94.1065C433.227 93.4503 433.056 92.9368 432.715 92.5661C432.379 92.1953 431.912 92.0099 431.316 92.0099C430.911 92.0099 430.551 92.0994 430.235 92.2784C429.924 92.4531 429.679 92.7067 429.5 93.0391C429.326 93.3714 429.238 93.7741 429.238 94.2472ZM440.718 100.198C440.096 100.198 439.536 100.087 439.037 99.8658C438.543 99.6399 438.151 99.3075 437.861 98.8686C437.576 98.4297 437.433 97.8885 437.433 97.245C437.433 96.6911 437.535 96.233 437.74 95.8707C437.944 95.5085 438.223 95.2188 438.577 95.0014C438.931 94.7841 439.329 94.62 439.772 94.5092C440.22 94.3942 440.682 94.3111 441.159 94.2599C441.735 94.2003 442.201 94.147 442.559 94.1001C442.917 94.049 443.177 93.9723 443.339 93.87C443.505 93.7635 443.588 93.5994 443.588 93.3778V93.3395C443.588 92.858 443.446 92.4851 443.16 92.2209C442.875 91.9567 442.463 91.8246 441.926 91.8246C441.36 91.8246 440.91 91.9482 440.578 92.1953C440.25 92.4425 440.028 92.7344 439.913 93.071L437.752 92.7642C437.923 92.1676 438.204 91.669 438.596 91.2685C438.988 90.8636 439.468 90.5611 440.034 90.3608C440.601 90.1562 441.228 90.054 441.914 90.054C442.387 90.054 442.858 90.1094 443.326 90.2202C443.795 90.331 444.223 90.5142 444.611 90.7699C444.999 91.0213 445.31 91.3643 445.544 91.799C445.783 92.2337 445.902 92.777 445.902 93.429V100H443.678V98.6513H443.601C443.46 98.924 443.262 99.1797 443.007 99.4183C442.755 99.6527 442.438 99.8423 442.054 99.9872C441.675 100.128 441.23 100.198 440.718 100.198ZM441.319 98.4979C441.784 98.4979 442.186 98.4062 442.527 98.223C442.868 98.0355 443.13 97.7884 443.313 97.4815C443.501 97.1747 443.595 96.8402 443.595 96.478V95.321C443.522 95.3807 443.399 95.4361 443.224 95.4872C443.054 95.5384 442.862 95.5831 442.649 95.6214C442.436 95.6598 442.225 95.6939 442.016 95.7237C441.807 95.7536 441.626 95.7791 441.473 95.8004C441.127 95.8473 440.818 95.924 440.546 96.0305C440.273 96.1371 440.058 96.2862 439.9 96.478C439.742 96.6655 439.664 96.9084 439.664 97.2067C439.664 97.6328 439.819 97.9545 440.13 98.1719C440.441 98.3892 440.838 98.4979 441.319 98.4979ZM450.543 86.9091V100H448.229V86.9091H450.543ZM457.489 100V86.9091H459.861V98.0121H465.627V100H457.489ZM467.582 100V90.1818H469.896V100H467.582ZM468.746 88.7884C468.379 88.7884 468.064 88.6669 467.8 88.424C467.536 88.1768 467.403 87.8807 467.403 87.5355C467.403 87.1861 467.536 86.8899 467.8 86.647C468.064 86.3999 468.379 86.2763 468.746 86.2763C469.117 86.2763 469.432 86.3999 469.692 86.647C469.956 86.8899 470.088 87.1861 470.088 87.5355C470.088 87.8807 469.956 88.1768 469.692 88.424C469.432 88.6669 469.117 88.7884 468.746 88.7884ZM474.59 94.2472V100H472.276V90.1818H474.487V91.8501H474.603C474.828 91.3004 475.188 90.8636 475.683 90.5398C476.181 90.2159 476.797 90.054 477.53 90.054C478.208 90.054 478.798 90.1989 479.301 90.4886C479.808 90.7784 480.2 91.1982 480.477 91.7479C480.758 92.2976 480.897 92.9645 480.892 93.7486V100H478.578V94.1065C478.578 93.4503 478.408 92.9368 478.067 92.5661C477.73 92.1953 477.264 92.0099 476.667 92.0099C476.262 92.0099 475.902 92.0994 475.587 92.2784C475.276 92.4531 475.031 92.7067 474.852 93.0391C474.677 93.3714 474.59 93.7741 474.59 94.2472ZM485.354 96.919L485.348 94.1257H485.718L489.247 90.1818H491.951L487.61 95.0142H487.131L485.354 96.919ZM483.245 100V86.9091H485.559V100H483.245ZM489.407 100L486.21 95.532L487.77 93.902L492.174 100H489.407ZM497.435 100.192C496.451 100.192 495.6 99.9872 494.884 99.5781C494.173 99.1648 493.625 98.581 493.242 97.8267C492.858 97.0682 492.666 96.1754 492.666 95.1484C492.666 94.1385 492.858 93.2521 493.242 92.4893C493.63 91.7223 494.171 91.1257 494.865 90.6996C495.56 90.2692 496.376 90.054 497.313 90.054C497.919 90.054 498.49 90.152 499.027 90.348C499.568 90.5398 500.045 90.8381 500.458 91.2429C500.876 91.6477 501.204 92.1634 501.443 92.7898C501.681 93.4119 501.801 94.1534 501.801 95.0142V95.7237H493.753V94.1641H499.583C499.578 93.7209 499.483 93.3267 499.295 92.9815C499.108 92.6321 498.845 92.3572 498.509 92.157C498.176 91.9567 497.789 91.8565 497.345 91.8565C496.872 91.8565 496.457 91.9716 496.099 92.2017C495.741 92.4276 495.462 92.7259 495.262 93.0966C495.066 93.4631 494.965 93.8658 494.961 94.3047V95.6662C494.961 96.2372 495.066 96.7273 495.274 97.1364C495.483 97.5412 495.775 97.8523 496.15 98.0696C496.525 98.2827 496.964 98.3892 497.467 98.3892C497.804 98.3892 498.108 98.3423 498.381 98.2486C498.654 98.1506 498.89 98.0078 499.09 97.8203C499.291 97.6328 499.442 97.4006 499.544 97.1236L501.705 97.3665C501.568 97.9375 501.309 98.4361 500.925 98.8622C500.546 99.2841 500.06 99.6122 499.468 99.8466C498.875 100.077 498.198 100.192 497.435 100.192ZM507.402 100.173C506.63 100.173 505.94 99.9744 505.331 99.5781C504.721 99.1818 504.24 98.6065 503.886 97.8523C503.532 97.098 503.356 96.1818 503.356 95.1037C503.356 94.0128 503.535 93.0923 503.892 92.3423C504.255 91.5881 504.743 91.0192 505.356 90.6357C505.97 90.2479 506.654 90.054 507.408 90.054C507.983 90.054 508.456 90.152 508.827 90.348C509.198 90.5398 509.492 90.772 509.709 91.0447C509.927 91.3132 510.095 91.5668 510.214 91.8054H510.31V86.9091H512.63V100H510.355V98.4531H510.214C510.095 98.6918 509.922 98.9453 509.696 99.2138C509.471 99.478 509.172 99.7038 508.802 99.8913C508.431 100.079 507.964 100.173 507.402 100.173ZM508.047 98.2741C508.537 98.2741 508.955 98.142 509.3 97.8778C509.645 97.6094 509.907 97.2365 510.086 96.7592C510.265 96.282 510.355 95.7259 510.355 95.0909C510.355 94.456 510.265 93.9041 510.086 93.4354C509.912 92.9666 509.652 92.6023 509.307 92.3423C508.966 92.0824 508.546 91.9524 508.047 91.9524C507.532 91.9524 507.101 92.0866 506.756 92.3551C506.411 92.6236 506.151 92.9943 505.976 93.4673C505.802 93.9403 505.714 94.4815 505.714 95.0909C505.714 95.7045 505.802 96.2521 505.976 96.7337C506.155 97.2109 506.417 97.5881 506.763 97.8651C507.112 98.1378 507.54 98.2741 508.047 98.2741ZM519.663 100V86.9091H522.035V98.0121H527.8V100H519.663ZM529.756 100V90.1818H532.07V100H529.756ZM530.92 88.7884C530.553 88.7884 530.238 88.6669 529.974 88.424C529.709 88.1768 529.577 87.8807 529.577 87.5355C529.577 87.1861 529.709 86.8899 529.974 86.647C530.238 86.3999 530.553 86.2763 530.92 86.2763C531.29 86.2763 531.606 86.3999 531.866 86.647C532.13 86.8899 532.262 87.1861 532.262 87.5355C532.262 87.8807 532.13 88.1768 531.866 88.424C531.606 88.6669 531.29 88.7884 530.92 88.7884ZM542.21 92.777L540.1 93.0071C540.041 92.794 539.936 92.5938 539.787 92.4062C539.642 92.2188 539.446 92.0675 539.199 91.9524C538.952 91.8374 538.649 91.7798 538.291 91.7798C537.81 91.7798 537.405 91.8842 537.077 92.093C536.753 92.3018 536.593 92.5724 536.597 92.9048C536.593 93.1903 536.698 93.4226 536.911 93.6016C537.128 93.7805 537.486 93.9276 537.984 94.0426L539.659 94.4006C540.588 94.6009 541.278 94.9183 541.73 95.353C542.186 95.7876 542.416 96.3565 542.421 97.0597C542.416 97.6776 542.235 98.223 541.877 98.696C541.524 99.1648 541.031 99.5312 540.401 99.7955C539.77 100.06 539.046 100.192 538.227 100.192C537.026 100.192 536.058 99.9403 535.325 99.4375C534.592 98.9304 534.156 98.2251 534.015 97.3217L536.271 97.1044C536.374 97.5476 536.591 97.8821 536.923 98.108C537.256 98.3338 537.688 98.4467 538.221 98.4467C538.771 98.4467 539.212 98.3338 539.544 98.108C539.881 97.8821 540.049 97.603 540.049 97.2706C540.049 96.9893 539.94 96.7571 539.723 96.5739C539.51 96.3906 539.178 96.25 538.726 96.152L537.051 95.8004C536.109 95.6044 535.413 95.2741 534.961 94.8097C534.509 94.3409 534.286 93.7486 534.29 93.0327C534.286 92.4276 534.45 91.9034 534.782 91.4602C535.119 91.0128 535.585 90.6676 536.182 90.4247C536.783 90.1776 537.475 90.054 538.259 90.054C539.41 90.054 540.315 90.299 540.976 90.7891C541.641 91.2791 542.052 91.9418 542.21 92.777ZM549.231 90.1818V91.9716H543.587V90.1818H549.231ZM544.981 87.8295H547.294V97.0469C547.294 97.358 547.341 97.5966 547.435 97.7628C547.533 97.9247 547.661 98.0355 547.819 98.0952C547.976 98.1548 548.151 98.1847 548.343 98.1847C548.488 98.1847 548.62 98.174 548.739 98.1527C548.863 98.1314 548.956 98.1122 549.02 98.0952L549.41 99.9041C549.287 99.9467 549.11 99.9936 548.88 100.045C548.654 100.096 548.377 100.126 548.049 100.134C547.469 100.151 546.947 100.064 546.483 99.8722C546.018 99.6761 545.65 99.3736 545.377 98.9645C545.108 98.5554 544.976 98.044 544.981 97.4304V87.8295Z" fill="#1E1B4B"/>
<path d="M173.634 188.508C173.574 187.95 173.323 187.515 172.88 187.204C172.441 186.893 171.87 186.737 171.167 186.737C170.672 186.737 170.248 186.812 169.895 186.961C169.541 187.11 169.27 187.312 169.083 187.568C168.895 187.824 168.8 188.116 168.795 188.444C168.795 188.717 168.857 188.953 168.981 189.153C169.108 189.354 169.281 189.524 169.498 189.665C169.716 189.801 169.956 189.916 170.221 190.01C170.485 190.104 170.751 190.183 171.02 190.246L172.247 190.553C172.741 190.668 173.216 190.824 173.672 191.02C174.133 191.216 174.544 191.463 174.906 191.761C175.273 192.06 175.562 192.42 175.775 192.842C175.988 193.263 176.095 193.758 176.095 194.325C176.095 195.092 175.899 195.767 175.507 196.351C175.115 196.93 174.548 197.384 173.807 197.712C173.069 198.036 172.177 198.198 171.128 198.198C170.11 198.198 169.226 198.04 168.476 197.725C167.73 197.41 167.146 196.95 166.724 196.344C166.307 195.739 166.081 195.002 166.047 194.133H168.38C168.414 194.589 168.555 194.968 168.802 195.271C169.049 195.573 169.371 195.799 169.767 195.948C170.167 196.097 170.615 196.172 171.109 196.172C171.625 196.172 172.077 196.095 172.464 195.942C172.856 195.784 173.163 195.567 173.385 195.29C173.606 195.009 173.719 194.68 173.724 194.305C173.719 193.964 173.619 193.683 173.423 193.462C173.227 193.236 172.952 193.048 172.599 192.899C172.249 192.746 171.84 192.609 171.371 192.49L169.882 192.107C168.804 191.83 167.952 191.41 167.325 190.847C166.703 190.281 166.392 189.528 166.392 188.591C166.392 187.82 166.601 187.144 167.018 186.565C167.44 185.985 168.013 185.536 168.738 185.216C169.462 184.892 170.282 184.73 171.199 184.73C172.128 184.73 172.942 184.892 173.64 185.216C174.344 185.536 174.895 185.981 175.296 186.552C175.697 187.119 175.903 187.771 175.916 188.508H173.634ZM180.133 198L177.359 188.182H179.718L181.444 195.085H181.533L183.297 188.182H185.63L187.395 195.047H187.49L189.191 188.182H191.556L188.775 198H186.365L184.525 191.365H184.39L182.549 198H180.133ZM195.997 198.198C195.374 198.198 194.814 198.087 194.316 197.866C193.821 197.64 193.429 197.308 193.139 196.869C192.854 196.43 192.711 195.888 192.711 195.245C192.711 194.691 192.813 194.233 193.018 193.871C193.222 193.509 193.502 193.219 193.855 193.001C194.209 192.784 194.607 192.62 195.051 192.509C195.498 192.394 195.96 192.311 196.438 192.26C197.013 192.2 197.48 192.147 197.838 192.1C198.195 192.049 198.455 191.972 198.617 191.87C198.784 191.763 198.867 191.599 198.867 191.378V191.339C198.867 190.858 198.724 190.485 198.438 190.221C198.153 189.957 197.742 189.825 197.205 189.825C196.638 189.825 196.188 189.948 195.856 190.195C195.528 190.442 195.306 190.734 195.191 191.071L193.031 190.764C193.201 190.168 193.482 189.669 193.874 189.268C194.267 188.864 194.746 188.561 195.313 188.361C195.879 188.156 196.506 188.054 197.192 188.054C197.665 188.054 198.136 188.109 198.605 188.22C199.073 188.331 199.502 188.514 199.889 188.77C200.277 189.021 200.588 189.364 200.823 189.799C201.061 190.234 201.181 190.777 201.181 191.429V198H198.956V196.651H198.879C198.739 196.924 198.541 197.18 198.285 197.418C198.034 197.653 197.716 197.842 197.333 197.987C196.953 198.128 196.508 198.198 195.997 198.198ZM196.597 196.498C197.062 196.498 197.465 196.406 197.806 196.223C198.146 196.036 198.409 195.788 198.592 195.482C198.779 195.175 198.873 194.84 198.873 194.478V193.321C198.801 193.381 198.677 193.436 198.502 193.487C198.332 193.538 198.14 193.583 197.927 193.621C197.714 193.66 197.503 193.694 197.294 193.724C197.085 193.754 196.904 193.779 196.751 193.8C196.406 193.847 196.097 193.924 195.824 194.031C195.551 194.137 195.336 194.286 195.178 194.478C195.021 194.665 194.942 194.908 194.942 195.207C194.942 195.633 195.097 195.955 195.409 196.172C195.72 196.389 196.116 196.498 196.597 196.498ZM203.507 201.682V188.182H205.783V189.805H205.917C206.036 189.567 206.205 189.313 206.422 189.045C206.639 188.772 206.933 188.54 207.304 188.348C207.675 188.152 208.148 188.054 208.723 188.054C209.482 188.054 210.166 188.248 210.775 188.636C211.389 189.019 211.874 189.588 212.232 190.342C212.595 191.092 212.776 192.013 212.776 193.104C212.776 194.182 212.599 195.098 212.245 195.852C211.892 196.607 211.41 197.182 210.801 197.578C210.191 197.974 209.501 198.173 208.73 198.173C208.167 198.173 207.7 198.079 207.33 197.891C206.959 197.704 206.661 197.478 206.435 197.214C206.213 196.945 206.041 196.692 205.917 196.453H205.821V201.682H203.507ZM205.776 193.091C205.776 193.726 205.866 194.282 206.045 194.759C206.228 195.237 206.49 195.609 206.831 195.878C207.176 196.142 207.594 196.274 208.084 196.274C208.595 196.274 209.024 196.138 209.369 195.865C209.714 195.588 209.974 195.211 210.149 194.734C210.328 194.252 210.417 193.705 210.417 193.091C210.417 192.482 210.33 191.94 210.155 191.467C209.98 190.994 209.72 190.624 209.375 190.355C209.03 190.087 208.6 189.952 208.084 189.952C207.59 189.952 207.17 190.082 206.825 190.342C206.48 190.602 206.218 190.967 206.039 191.435C205.864 191.904 205.776 192.456 205.776 193.091ZM219.324 198V184.909H221.696V190.451H227.762V184.909H230.14V198H227.762V192.439H221.696V198H219.324ZM236.963 198.192C235.979 198.192 235.129 197.987 234.413 197.578C233.701 197.165 233.154 196.581 232.77 195.827C232.387 195.068 232.195 194.175 232.195 193.148C232.195 192.138 232.387 191.252 232.77 190.489C233.158 189.722 233.699 189.126 234.394 188.7C235.088 188.269 235.904 188.054 236.842 188.054C237.447 188.054 238.018 188.152 238.555 188.348C239.096 188.54 239.573 188.838 239.987 189.243C240.404 189.648 240.732 190.163 240.971 190.79C241.21 191.412 241.329 192.153 241.329 193.014V193.724H233.281V192.164H239.111C239.107 191.721 239.011 191.327 238.823 190.982C238.636 190.632 238.374 190.357 238.037 190.157C237.705 189.957 237.317 189.857 236.874 189.857C236.401 189.857 235.985 189.972 235.627 190.202C235.269 190.428 234.99 190.726 234.79 191.097C234.594 191.463 234.494 191.866 234.49 192.305V193.666C234.49 194.237 234.594 194.727 234.803 195.136C235.012 195.541 235.303 195.852 235.678 196.07C236.053 196.283 236.492 196.389 236.995 196.389C237.332 196.389 237.637 196.342 237.909 196.249C238.182 196.151 238.419 196.008 238.619 195.82C238.819 195.633 238.97 195.401 239.073 195.124L241.233 195.366C241.097 195.937 240.837 196.436 240.453 196.862C240.074 197.284 239.588 197.612 238.996 197.847C238.404 198.077 237.726 198.192 236.963 198.192ZM246.112 198.198C245.49 198.198 244.929 198.087 244.431 197.866C243.936 197.64 243.544 197.308 243.255 196.869C242.969 196.43 242.826 195.888 242.826 195.245C242.826 194.691 242.929 194.233 243.133 193.871C243.338 193.509 243.617 193.219 243.971 193.001C244.324 192.784 244.723 192.62 245.166 192.509C245.613 192.394 246.076 192.311 246.553 192.26C247.128 192.2 247.595 192.147 247.953 192.1C248.311 192.049 248.571 191.972 248.733 191.87C248.899 191.763 248.982 191.599 248.982 191.378V191.339C248.982 190.858 248.839 190.485 248.554 190.221C248.268 189.957 247.857 189.825 247.32 189.825C246.753 189.825 246.304 189.948 245.971 190.195C245.643 190.442 245.422 190.734 245.306 191.071L243.146 190.764C243.316 190.168 243.598 189.669 243.99 189.268C244.382 188.864 244.861 188.561 245.428 188.361C245.995 188.156 246.621 188.054 247.307 188.054C247.78 188.054 248.251 188.109 248.72 188.22C249.189 188.331 249.617 188.514 250.005 188.77C250.392 189.021 250.703 189.364 250.938 189.799C251.176 190.234 251.296 190.777 251.296 191.429V198H249.071V196.651H248.995C248.854 196.924 248.656 197.18 248.4 197.418C248.149 197.653 247.831 197.842 247.448 197.987C247.069 198.128 246.623 198.198 246.112 198.198ZM246.713 196.498C247.177 196.498 247.58 196.406 247.921 196.223C248.262 196.036 248.524 195.788 248.707 195.482C248.895 195.175 248.988 194.84 248.988 194.478V193.321C248.916 193.381 248.792 193.436 248.618 193.487C248.447 193.538 248.255 193.583 248.042 193.621C247.829 193.66 247.618 193.694 247.409 193.724C247.201 193.754 247.02 193.779 246.866 193.8C246.521 193.847 246.212 193.924 245.939 194.031C245.667 194.137 245.451 194.286 245.294 194.478C245.136 194.665 245.057 194.908 245.057 195.207C245.057 195.633 245.213 195.955 245.524 196.172C245.835 196.389 246.231 196.498 246.713 196.498ZM257.266 198.173C256.495 198.173 255.804 197.974 255.195 197.578C254.586 197.182 254.104 196.607 253.75 195.852C253.397 195.098 253.22 194.182 253.22 193.104C253.22 192.013 253.399 191.092 253.757 190.342C254.119 189.588 254.607 189.019 255.221 188.636C255.834 188.248 256.518 188.054 257.272 188.054C257.848 188.054 258.321 188.152 258.691 188.348C259.062 188.54 259.356 188.772 259.574 189.045C259.791 189.313 259.959 189.567 260.078 189.805H260.174V184.909H262.495V198H260.219V196.453H260.078C259.959 196.692 259.787 196.945 259.561 197.214C259.335 197.478 259.037 197.704 258.666 197.891C258.295 198.079 257.828 198.173 257.266 198.173ZM257.912 196.274C258.402 196.274 258.819 196.142 259.164 195.878C259.51 195.609 259.772 195.237 259.951 194.759C260.13 194.282 260.219 193.726 260.219 193.091C260.219 192.456 260.13 191.904 259.951 191.435C259.776 190.967 259.516 190.602 259.171 190.342C258.83 190.082 258.41 189.952 257.912 189.952C257.396 189.952 256.966 190.087 256.62 190.355C256.275 190.624 256.015 190.994 255.841 191.467C255.666 191.94 255.578 192.482 255.578 193.091C255.578 193.705 255.666 194.252 255.841 194.734C256.02 195.211 256.282 195.588 256.627 195.865C256.976 196.138 257.404 196.274 257.912 196.274Z" fill="#4F46E5"/>
<path d="M77.3967 141V127.909H82.3058C83.3114 127.909 84.1552 128.084 84.837 128.433C85.5231 128.783 86.0408 129.273 86.3903 129.903C86.744 130.53 86.9208 131.261 86.9208 132.096C86.9208 132.935 86.7418 133.664 86.3839 134.282C86.0302 134.896 85.5082 135.371 84.8178 135.707C84.1275 136.04 83.2795 136.206 82.2738 136.206H78.7773V134.237H81.9542C82.5423 134.237 83.0238 134.156 83.3988 133.994C83.7738 133.828 84.0508 133.587 84.2298 133.272C84.413 132.952 84.5046 132.56 84.5046 132.096C84.5046 131.631 84.413 131.235 84.2298 130.907C84.0465 130.575 83.7674 130.323 83.3924 130.153C83.0174 129.978 82.5337 129.891 81.9414 129.891H79.7681V141H77.3967ZM84.1594 135.068L87.4002 141H84.7539L81.5707 135.068H84.1594ZM93.2074 141.192C92.223 141.192 91.3729 140.987 90.657 140.578C89.9453 140.165 89.3977 139.581 89.0142 138.827C88.6307 138.068 88.4389 137.175 88.4389 136.148C88.4389 135.138 88.6307 134.252 89.0142 133.489C89.402 132.722 89.9432 132.126 90.6378 131.7C91.3324 131.269 92.1484 131.054 93.0859 131.054C93.6911 131.054 94.2621 131.152 94.799 131.348C95.3402 131.54 95.8175 131.838 96.2308 132.243C96.6484 132.648 96.9766 133.163 97.2152 133.79C97.4538 134.412 97.5732 135.153 97.5732 136.014V136.724H89.5256V135.164H95.3551C95.3509 134.721 95.255 134.327 95.0675 133.982C94.88 133.632 94.6179 133.357 94.2812 133.157C93.9489 132.957 93.5611 132.857 93.1179 132.857C92.6449 132.857 92.2294 132.972 91.8714 133.202C91.5135 133.428 91.2344 133.726 91.0341 134.097C90.8381 134.463 90.7379 134.866 90.7337 135.305V136.666C90.7337 137.237 90.8381 137.727 91.0469 138.136C91.2557 138.541 91.5476 138.852 91.9226 139.07C92.2976 139.283 92.7365 139.389 93.2393 139.389C93.576 139.389 93.8807 139.342 94.1534 139.249C94.4261 139.151 94.6626 139.008 94.8629 138.82C95.0632 138.633 95.2145 138.401 95.3168 138.124L97.4773 138.366C97.3409 138.937 97.081 139.436 96.6974 139.862C96.3182 140.284 95.8324 140.612 95.2401 140.847C94.6477 141.077 93.9702 141.192 93.2074 141.192ZM102.356 141.198C101.734 141.198 101.173 141.087 100.675 140.866C100.181 140.64 99.7885 140.308 99.4988 139.869C99.2132 139.43 99.0705 138.888 99.0705 138.245C99.0705 137.691 99.1728 137.233 99.3773 136.871C99.5819 136.509 99.861 136.219 100.215 136.001C100.568 135.784 100.967 135.62 101.41 135.509C101.857 135.394 102.32 135.311 102.797 135.26C103.372 135.2 103.839 135.147 104.197 135.1C104.555 135.049 104.815 134.972 104.977 134.87C105.143 134.763 105.226 134.599 105.226 134.378V134.339C105.226 133.858 105.083 133.485 104.798 133.221C104.512 132.957 104.101 132.825 103.564 132.825C102.997 132.825 102.548 132.948 102.215 133.195C101.887 133.442 101.666 133.734 101.551 134.071L99.3901 133.764C99.5605 133.168 99.8418 132.669 100.234 132.268C100.626 131.864 101.105 131.561 101.672 131.361C102.239 131.156 102.865 131.054 103.551 131.054C104.024 131.054 104.495 131.109 104.964 131.22C105.433 131.331 105.861 131.514 106.249 131.77C106.637 132.021 106.948 132.364 107.182 132.799C107.421 133.234 107.54 133.777 107.54 134.429V141H105.316V139.651H105.239C105.098 139.924 104.9 140.18 104.644 140.418C104.393 140.653 104.075 140.842 103.692 140.987C103.313 141.128 102.867 141.198 102.356 141.198ZM102.957 139.498C103.421 139.498 103.824 139.406 104.165 139.223C104.506 139.036 104.768 138.788 104.951 138.482C105.139 138.175 105.232 137.84 105.232 137.478V136.321C105.16 136.381 105.036 136.436 104.862 136.487C104.691 136.538 104.499 136.583 104.286 136.621C104.073 136.66 103.862 136.694 103.654 136.724C103.445 136.754 103.264 136.779 103.11 136.8C102.765 136.847 102.456 136.924 102.183 137.031C101.911 137.137 101.695 137.286 101.538 137.478C101.38 137.665 101.301 137.908 101.301 138.207C101.301 138.633 101.457 138.955 101.768 139.172C102.079 139.389 102.475 139.498 102.957 139.498ZM113.51 141.173C112.739 141.173 112.048 140.974 111.439 140.578C110.83 140.182 110.348 139.607 109.994 138.852C109.641 138.098 109.464 137.182 109.464 136.104C109.464 135.013 109.643 134.092 110.001 133.342C110.363 132.588 110.851 132.019 111.465 131.636C112.078 131.248 112.762 131.054 113.517 131.054C114.092 131.054 114.565 131.152 114.936 131.348C115.306 131.54 115.6 131.772 115.818 132.045C116.035 132.313 116.203 132.567 116.323 132.805H116.419V127.909H118.739V141H116.463V139.453H116.323C116.203 139.692 116.031 139.945 115.805 140.214C115.579 140.478 115.281 140.704 114.91 140.891C114.539 141.079 114.073 141.173 113.51 141.173ZM114.156 139.274C114.646 139.274 115.063 139.142 115.409 138.878C115.754 138.609 116.016 138.237 116.195 137.759C116.374 137.282 116.463 136.726 116.463 136.091C116.463 135.456 116.374 134.904 116.195 134.435C116.02 133.967 115.76 133.602 115.415 133.342C115.074 133.082 114.654 132.952 114.156 132.952C113.64 132.952 113.21 133.087 112.865 133.355C112.519 133.624 112.259 133.994 112.085 134.467C111.91 134.94 111.823 135.482 111.823 136.091C111.823 136.705 111.91 137.252 112.085 137.734C112.264 138.211 112.526 138.588 112.871 138.865C113.22 139.138 113.649 139.274 114.156 139.274ZM128.964 133.777L126.855 134.007C126.795 133.794 126.691 133.594 126.542 133.406C126.397 133.219 126.201 133.067 125.954 132.952C125.707 132.837 125.404 132.78 125.046 132.78C124.565 132.78 124.16 132.884 123.832 133.093C123.508 133.302 123.348 133.572 123.352 133.905C123.348 134.19 123.452 134.423 123.665 134.602C123.883 134.781 124.241 134.928 124.739 135.043L126.414 135.401C127.343 135.601 128.033 135.918 128.485 136.353C128.941 136.788 129.171 137.357 129.175 138.06C129.171 138.678 128.99 139.223 128.632 139.696C128.278 140.165 127.786 140.531 127.156 140.795C126.525 141.06 125.8 141.192 124.982 141.192C123.781 141.192 122.813 140.94 122.08 140.438C121.347 139.93 120.911 139.225 120.77 138.322L123.026 138.104C123.129 138.548 123.346 138.882 123.678 139.108C124.011 139.334 124.443 139.447 124.976 139.447C125.526 139.447 125.967 139.334 126.299 139.108C126.636 138.882 126.804 138.603 126.804 138.271C126.804 137.989 126.695 137.757 126.478 137.574C126.265 137.391 125.933 137.25 125.481 137.152L123.806 136.8C122.864 136.604 122.168 136.274 121.716 135.81C121.264 135.341 121.04 134.749 121.045 134.033C121.04 133.428 121.205 132.903 121.537 132.46C121.874 132.013 122.34 131.668 122.937 131.425C123.538 131.178 124.23 131.054 125.014 131.054C126.165 131.054 127.07 131.299 127.731 131.789C128.396 132.279 128.807 132.942 128.964 133.777Z" fill="#1E1B4B"/>
<path d="M461.504 408V394.909H466.413C467.419 394.909 468.263 395.084 468.944 395.433C469.631 395.783 470.148 396.273 470.498 396.903C470.851 397.53 471.028 398.261 471.028 399.096C471.028 399.935 470.849 400.664 470.491 401.282C470.138 401.896 469.616 402.371 468.925 402.707C468.235 403.04 467.387 403.206 466.381 403.206H462.885V401.237H466.062C466.65 401.237 467.131 401.156 467.506 400.994C467.881 400.828 468.158 400.587 468.337 400.272C468.52 399.952 468.612 399.56 468.612 399.096C468.612 398.631 468.52 398.235 468.337 397.907C468.154 397.575 467.875 397.323 467.5 397.153C467.125 396.978 466.641 396.891 466.049 396.891H463.876V408H461.504ZM468.267 402.068L471.508 408H468.861L465.678 402.068H468.267ZM477.315 408.192C476.33 408.192 475.48 407.987 474.764 407.578C474.053 407.165 473.505 406.581 473.122 405.827C472.738 405.068 472.546 404.175 472.546 403.148C472.546 402.138 472.738 401.252 473.122 400.489C473.509 399.722 474.051 399.126 474.745 398.7C475.44 398.269 476.256 398.054 477.193 398.054C477.798 398.054 478.369 398.152 478.906 398.348C479.448 398.54 479.925 398.838 480.338 399.243C480.756 399.648 481.084 400.163 481.323 400.79C481.561 401.412 481.681 402.153 481.681 403.014V403.724H473.633V402.164H479.463C479.458 401.721 479.362 401.327 479.175 400.982C478.987 400.632 478.725 400.357 478.389 400.157C478.056 399.957 477.669 399.857 477.225 399.857C476.752 399.857 476.337 399.972 475.979 400.202C475.621 400.428 475.342 400.726 475.142 401.097C474.945 401.463 474.845 401.866 474.841 402.305V403.666C474.841 404.237 474.945 404.727 475.154 405.136C475.363 405.541 475.655 405.852 476.03 406.07C476.405 406.283 476.844 406.389 477.347 406.389C477.683 406.389 477.988 406.342 478.261 406.249C478.534 406.151 478.77 406.008 478.97 405.82C479.171 405.633 479.322 405.401 479.424 405.124L481.585 405.366C481.448 405.937 481.188 406.436 480.805 406.862C480.426 407.284 479.94 407.612 479.347 407.847C478.755 408.077 478.078 408.192 477.315 408.192ZM483.638 411.682V398.182H485.914V399.805H486.048C486.167 399.567 486.336 399.313 486.553 399.045C486.77 398.772 487.064 398.54 487.435 398.348C487.806 398.152 488.279 398.054 488.854 398.054C489.613 398.054 490.297 398.248 490.906 398.636C491.52 399.019 492.005 399.588 492.363 400.342C492.725 401.092 492.907 402.013 492.907 403.104C492.907 404.182 492.73 405.098 492.376 405.852C492.022 406.607 491.541 407.182 490.931 407.578C490.322 407.974 489.632 408.173 488.86 408.173C488.298 408.173 487.831 408.079 487.461 407.891C487.09 407.704 486.792 407.478 486.566 407.214C486.344 406.945 486.172 406.692 486.048 406.453H485.952V411.682H483.638ZM485.907 403.091C485.907 403.726 485.997 404.282 486.176 404.759C486.359 405.237 486.621 405.609 486.962 405.878C487.307 406.142 487.725 406.274 488.215 406.274C488.726 406.274 489.154 406.138 489.5 405.865C489.845 405.588 490.105 405.211 490.279 404.734C490.458 404.252 490.548 403.705 490.548 403.091C490.548 402.482 490.461 401.94 490.286 401.467C490.111 400.994 489.851 400.624 489.506 400.355C489.161 400.087 488.73 399.952 488.215 399.952C487.721 399.952 487.301 400.082 486.956 400.342C486.61 400.602 486.348 400.967 486.169 401.435C485.995 401.904 485.907 402.456 485.907 403.091ZM497.202 394.909V408H494.888V394.909H497.202ZM502.407 408.198C501.785 408.198 501.224 408.087 500.726 407.866C500.231 407.64 499.839 407.308 499.55 406.869C499.264 406.43 499.121 405.888 499.121 405.245C499.121 404.691 499.224 404.233 499.428 403.871C499.633 403.509 499.912 403.219 500.265 403.001C500.619 402.784 501.018 402.62 501.461 402.509C501.908 402.394 502.371 402.311 502.848 402.26C503.423 402.2 503.89 402.147 504.248 402.1C504.606 402.049 504.866 401.972 505.028 401.87C505.194 401.763 505.277 401.599 505.277 401.378V401.339C505.277 400.858 505.134 400.485 504.849 400.221C504.563 399.957 504.152 399.825 503.615 399.825C503.048 399.825 502.599 399.948 502.266 400.195C501.938 400.442 501.716 400.734 501.601 401.071L499.441 400.764C499.611 400.168 499.893 399.669 500.285 399.268C500.677 398.864 501.156 398.561 501.723 398.361C502.29 398.156 502.916 398.054 503.602 398.054C504.075 398.054 504.546 398.109 505.015 398.22C505.483 398.331 505.912 398.514 506.3 398.77C506.687 399.021 506.998 399.364 507.233 399.799C507.471 400.234 507.591 400.777 507.591 401.429V408H505.366V406.651H505.29C505.149 406.924 504.951 407.18 504.695 407.418C504.444 407.653 504.126 407.842 503.743 407.987C503.363 408.128 502.918 408.198 502.407 408.198ZM503.008 406.498C503.472 406.498 503.875 406.406 504.216 406.223C504.557 406.036 504.819 405.788 505.002 405.482C505.189 405.175 505.283 404.84 505.283 404.478V403.321C505.211 403.381 505.087 403.436 504.912 403.487C504.742 403.538 504.55 403.583 504.337 403.621C504.124 403.66 503.913 403.694 503.704 403.724C503.496 403.754 503.314 403.779 503.161 403.8C502.816 403.847 502.507 403.924 502.234 404.031C501.961 404.137 501.746 404.286 501.589 404.478C501.431 404.665 501.352 404.908 501.352 405.207C501.352 405.633 501.508 405.955 501.819 406.172C502.13 406.389 502.526 406.498 503.008 406.498ZM514.2 408.192C513.22 408.192 512.378 407.977 511.675 407.546C510.976 407.116 510.437 406.521 510.058 405.763C509.683 405 509.496 404.122 509.496 403.129C509.496 402.132 509.687 401.252 510.071 400.489C510.454 399.722 510.996 399.126 511.694 398.7C512.398 398.269 513.229 398.054 514.187 398.054C514.984 398.054 515.689 398.201 516.303 398.495C516.921 398.785 517.413 399.196 517.78 399.729C518.146 400.257 518.355 400.875 518.406 401.582H516.194C516.105 401.109 515.892 400.715 515.555 400.4C515.223 400.08 514.778 399.92 514.219 399.92C513.746 399.92 513.331 400.048 512.973 400.304C512.615 400.555 512.336 400.918 512.135 401.391C511.939 401.864 511.841 402.43 511.841 403.091C511.841 403.76 511.939 404.335 512.135 404.817C512.331 405.294 512.606 405.663 512.96 405.923C513.318 406.178 513.738 406.306 514.219 406.306C514.56 406.306 514.865 406.242 515.133 406.114C515.406 405.982 515.634 405.793 515.817 405.545C516.001 405.298 516.126 404.998 516.194 404.644H518.406C518.351 405.339 518.146 405.955 517.792 406.491C517.439 407.024 516.957 407.442 516.348 407.744C515.738 408.043 515.023 408.192 514.2 408.192ZM524.653 408.192C523.668 408.192 522.818 407.987 522.102 407.578C521.391 407.165 520.843 406.581 520.46 405.827C520.076 405.068 519.884 404.175 519.884 403.148C519.884 402.138 520.076 401.252 520.46 400.489C520.847 399.722 521.388 399.126 522.083 398.7C522.778 398.269 523.594 398.054 524.531 398.054C525.136 398.054 525.707 398.152 526.244 398.348C526.786 398.54 527.263 398.838 527.676 399.243C528.094 399.648 528.422 400.163 528.661 400.79C528.899 401.412 529.018 402.153 529.018 403.014V403.724H520.971V402.164H526.8C526.796 401.721 526.7 401.327 526.513 400.982C526.325 400.632 526.063 400.357 525.727 400.157C525.394 399.957 525.006 399.857 524.563 399.857C524.09 399.857 523.675 399.972 523.317 400.202C522.959 400.428 522.68 400.726 522.479 401.097C522.283 401.463 522.183 401.866 522.179 402.305V403.666C522.179 404.237 522.283 404.727 522.492 405.136C522.701 405.541 522.993 405.852 523.368 406.07C523.743 406.283 524.182 406.389 524.685 406.389C525.021 406.389 525.326 406.342 525.599 406.249C525.871 406.151 526.108 406.008 526.308 405.82C526.509 405.633 526.66 405.401 526.762 405.124L528.923 405.366C528.786 405.937 528.526 406.436 528.143 406.862C527.763 407.284 527.278 407.612 526.685 407.847C526.093 408.077 525.415 408.192 524.653 408.192Z" fill="#DC2626"/>
<path d="M573.504 408V394.909H578.413C579.419 394.909 580.263 395.084 580.944 395.433C581.631 395.783 582.148 396.273 582.498 396.903C582.851 397.53 583.028 398.261 583.028 399.096C583.028 399.935 582.849 400.664 582.491 401.282C582.138 401.896 581.616 402.371 580.925 402.707C580.235 403.04 579.387 403.206 578.381 403.206H574.885V401.237H578.062C578.65 401.237 579.131 401.156 579.506 400.994C579.881 400.828 580.158 400.587 580.337 400.272C580.52 399.952 580.612 399.56 580.612 399.096C580.612 398.631 580.52 398.235 580.337 397.907C580.154 397.575 579.875 397.323 579.5 397.153C579.125 396.978 578.641 396.891 578.049 396.891H575.876V408H573.504ZM580.267 402.068L583.508 408H580.861L577.678 402.068H580.267ZM589.315 408.192C588.33 408.192 587.48 407.987 586.764 407.578C586.053 407.165 585.505 406.581 585.122 405.827C584.738 405.068 584.546 404.175 584.546 403.148C584.546 402.138 584.738 401.252 585.122 400.489C585.509 399.722 586.051 399.126 586.745 398.7C587.44 398.269 588.256 398.054 589.193 398.054C589.798 398.054 590.369 398.152 590.906 398.348C591.448 398.54 591.925 398.838 592.338 399.243C592.756 399.648 593.084 400.163 593.323 400.79C593.561 401.412 593.681 402.153 593.681 403.014V403.724H585.633V402.164H591.463C591.458 401.721 591.362 401.327 591.175 400.982C590.987 400.632 590.725 400.357 590.389 400.157C590.056 399.957 589.669 399.857 589.225 399.857C588.752 399.857 588.337 399.972 587.979 400.202C587.621 400.428 587.342 400.726 587.142 401.097C586.945 401.463 586.845 401.866 586.841 402.305V403.666C586.841 404.237 586.945 404.727 587.154 405.136C587.363 405.541 587.655 405.852 588.03 406.07C588.405 406.283 588.844 406.389 589.347 406.389C589.683 406.389 589.988 406.342 590.261 406.249C590.534 406.151 590.77 406.008 590.97 405.82C591.171 405.633 591.322 405.401 591.424 405.124L593.585 405.366C593.448 405.937 593.188 406.436 592.805 406.862C592.426 407.284 591.94 407.612 591.347 407.847C590.755 408.077 590.078 408.192 589.315 408.192ZM595.638 411.682V398.182H597.914V399.805H598.048C598.167 399.567 598.336 399.313 598.553 399.045C598.77 398.772 599.064 398.54 599.435 398.348C599.806 398.152 600.279 398.054 600.854 398.054C601.613 398.054 602.297 398.248 602.906 398.636C603.52 399.019 604.005 399.588 604.363 400.342C604.725 401.092 604.907 402.013 604.907 403.104C604.907 404.182 604.73 405.098 604.376 405.852C604.022 406.607 603.541 407.182 602.931 407.578C602.322 407.974 601.632 408.173 600.86 408.173C600.298 408.173 599.831 408.079 599.461 407.891C599.09 407.704 598.792 407.478 598.566 407.214C598.344 406.945 598.172 406.692 598.048 406.453H597.952V411.682H595.638ZM597.907 403.091C597.907 403.726 597.997 404.282 598.176 404.759C598.359 405.237 598.621 405.609 598.962 405.878C599.307 406.142 599.725 406.274 600.215 406.274C600.726 406.274 601.154 406.138 601.5 405.865C601.845 405.588 602.105 405.211 602.279 404.734C602.458 404.252 602.548 403.705 602.548 403.091C602.548 402.482 602.461 401.94 602.286 401.467C602.111 400.994 601.851 400.624 601.506 400.355C601.161 400.087 600.73 399.952 600.215 399.952C599.721 399.952 599.301 400.082 598.956 400.342C598.61 400.602 598.348 400.967 598.169 401.435C597.995 401.904 597.907 402.456 597.907 403.091ZM609.202 394.909V408H606.888V394.909H609.202ZM614.407 408.198C613.785 408.198 613.224 408.087 612.726 407.866C612.231 407.64 611.839 407.308 611.55 406.869C611.264 406.43 611.121 405.888 611.121 405.245C611.121 404.691 611.224 404.233 611.428 403.871C611.633 403.509 611.912 403.219 612.265 403.001C612.619 402.784 613.018 402.62 613.461 402.509C613.908 402.394 614.371 402.311 614.848 402.26C615.423 402.2 615.89 402.147 616.248 402.1C616.606 402.049 616.866 401.972 617.028 401.87C617.194 401.763 617.277 401.599 617.277 401.378V401.339C617.277 400.858 617.134 400.485 616.849 400.221C616.563 399.957 616.152 399.825 615.615 399.825C615.048 399.825 614.599 399.948 614.266 400.195C613.938 400.442 613.716 400.734 613.601 401.071L611.441 400.764C611.611 400.168 611.893 399.669 612.285 399.268C612.677 398.864 613.156 398.561 613.723 398.361C614.29 398.156 614.916 398.054 615.602 398.054C616.075 398.054 616.546 398.109 617.015 398.22C617.483 398.331 617.912 398.514 618.3 398.77C618.687 399.021 618.998 399.364 619.233 399.799C619.471 400.234 619.591 400.777 619.591 401.429V408H617.366V406.651H617.29C617.149 406.924 616.951 407.18 616.695 407.418C616.444 407.653 616.126 407.842 615.743 407.987C615.363 408.128 614.918 408.198 614.407 408.198ZM615.008 406.498C615.472 406.498 615.875 406.406 616.216 406.223C616.557 406.036 616.819 405.788 617.002 405.482C617.189 405.175 617.283 404.84 617.283 404.478V403.321C617.211 403.381 617.087 403.436 616.912 403.487C616.742 403.538 616.55 403.583 616.337 403.621C616.124 403.66 615.913 403.694 615.704 403.724C615.496 403.754 615.314 403.779 615.161 403.8C614.816 403.847 614.507 403.924 614.234 404.031C613.961 404.137 613.746 404.286 613.589 404.478C613.431 404.665 613.352 404.908 613.352 405.207C613.352 405.633 613.508 405.955 613.819 406.172C614.13 406.389 614.526 406.498 615.008 406.498ZM626.2 408.192C625.22 408.192 624.378 407.977 623.675 407.546C622.976 407.116 622.437 406.521 622.058 405.763C621.683 405 621.496 404.122 621.496 403.129C621.496 402.132 621.687 401.252 622.071 400.489C622.454 399.722 622.996 399.126 623.694 398.7C624.398 398.269 625.229 398.054 626.187 398.054C626.984 398.054 627.689 398.201 628.303 398.495C628.921 398.785 629.413 399.196 629.78 399.729C630.146 400.257 630.355 400.875 630.406 401.582H628.194C628.105 401.109 627.892 400.715 627.555 400.4C627.223 400.08 626.778 399.92 626.219 399.92C625.746 399.92 625.331 400.048 624.973 400.304C624.615 400.555 624.336 400.918 624.135 401.391C623.939 401.864 623.841 402.43 623.841 403.091C623.841 403.76 623.939 404.335 624.135 404.817C624.331 405.294 624.606 405.663 624.96 405.923C625.318 406.178 625.738 406.306 626.219 406.306C626.56 406.306 626.865 406.242 627.133 406.114C627.406 405.982 627.634 405.793 627.817 405.545C628.001 405.298 628.126 404.998 628.194 404.644H630.406C630.351 405.339 630.146 405.955 629.792 406.491C629.439 407.024 628.957 407.442 628.348 407.744C627.738 408.043 627.023 408.192 626.2 408.192ZM636.653 408.192C635.668 408.192 634.818 407.987 634.102 407.578C633.391 407.165 632.843 406.581 632.46 405.827C632.076 405.068 631.884 404.175 631.884 403.148C631.884 402.138 632.076 401.252 632.46 400.489C632.847 399.722 633.388 399.126 634.083 398.7C634.778 398.269 635.594 398.054 636.531 398.054C637.136 398.054 637.707 398.152 638.244 398.348C638.786 398.54 639.263 398.838 639.676 399.243C640.094 399.648 640.422 400.163 640.661 400.79C640.899 401.412 641.018 402.153 641.018 403.014V403.724H632.971V402.164H638.8C638.796 401.721 638.7 401.327 638.513 400.982C638.325 400.632 638.063 400.357 637.727 400.157C637.394 399.957 637.006 399.857 636.563 399.857C636.09 399.857 635.675 399.972 635.317 400.202C634.959 400.428 634.68 400.726 634.479 401.097C634.283 401.463 634.183 401.866 634.179 402.305V403.666C634.179 404.237 634.283 404.727 634.492 405.136C634.701 405.541 634.993 405.852 635.368 406.07C635.743 406.283 636.182 406.389 636.685 406.389C637.021 406.389 637.326 406.342 637.599 406.249C637.871 406.151 638.108 406.008 638.308 405.82C638.509 405.633 638.66 405.401 638.762 405.124L640.923 405.366C640.786 405.937 640.526 406.436 640.143 406.862C639.763 407.284 639.278 407.612 638.685 407.847C638.093 408.077 637.415 408.192 636.653 408.192Z" fill="#DC2626"/>
<path d="M399.735 257.326H397.344C397.276 256.934 397.15 256.587 396.967 256.284C396.784 255.977 396.556 255.717 396.283 255.504C396.01 255.291 395.699 255.131 395.35 255.025C395.005 254.914 394.632 254.859 394.231 254.859C393.52 254.859 392.889 255.038 392.339 255.396C391.789 255.749 391.359 256.269 391.048 256.955C390.737 257.637 390.581 258.47 390.581 259.455C390.581 260.456 390.737 261.3 391.048 261.986C391.363 262.668 391.794 263.183 392.339 263.533C392.889 263.878 393.517 264.05 394.225 264.05C394.617 264.05 394.983 263.999 395.324 263.897C395.669 263.79 395.978 263.635 396.251 263.43C396.528 263.226 396.76 262.974 396.948 262.676C397.14 262.378 397.272 262.037 397.344 261.653L399.735 261.666C399.645 262.288 399.451 262.872 399.153 263.418C398.859 263.963 398.473 264.445 397.996 264.862C397.519 265.276 396.961 265.599 396.321 265.834C395.682 266.064 394.973 266.179 394.193 266.179C393.042 266.179 392.015 265.913 391.112 265.38C390.208 264.847 389.497 264.078 388.977 263.072C388.457 262.067 388.197 260.861 388.197 259.455C388.197 258.044 388.459 256.838 388.983 255.837C389.507 254.831 390.221 254.062 391.125 253.529C392.028 252.996 393.051 252.73 394.193 252.73C394.922 252.73 395.599 252.832 396.225 253.037C396.852 253.241 397.41 253.542 397.9 253.938C398.39 254.33 398.793 254.812 399.108 255.383C399.428 255.95 399.637 256.597 399.735 257.326ZM406.087 266.192C405.128 266.192 404.297 265.981 403.594 265.559C402.891 265.137 402.345 264.547 401.958 263.788C401.574 263.03 401.382 262.143 401.382 261.129C401.382 260.115 401.574 259.227 401.958 258.464C402.345 257.701 402.891 257.109 403.594 256.687C404.297 256.265 405.128 256.054 406.087 256.054C407.046 256.054 407.877 256.265 408.58 256.687C409.283 257.109 409.826 257.701 410.21 258.464C410.597 259.227 410.791 260.115 410.791 261.129C410.791 262.143 410.597 263.03 410.21 263.788C409.826 264.547 409.283 265.137 408.58 265.559C407.877 265.981 407.046 266.192 406.087 266.192ZM406.1 264.338C406.619 264.338 407.054 264.195 407.404 263.91C407.753 263.62 408.013 263.232 408.183 262.746C408.358 262.261 408.445 261.719 408.445 261.123C408.445 260.522 408.358 259.979 408.183 259.493C408.013 259.003 407.753 258.613 407.404 258.323C407.054 258.033 406.619 257.888 406.1 257.888C405.567 257.888 405.124 258.033 404.77 258.323C404.421 258.613 404.159 259.003 403.984 259.493C403.813 259.979 403.728 260.522 403.728 261.123C403.728 261.719 403.813 262.261 403.984 262.746C404.159 263.232 404.421 263.62 404.77 263.91C405.124 264.195 405.567 264.338 406.1 264.338ZM412.755 269.682V256.182H415.031V257.805H415.165C415.284 257.567 415.453 257.313 415.67 257.045C415.887 256.772 416.181 256.54 416.552 256.348C416.923 256.152 417.396 256.054 417.971 256.054C418.73 256.054 419.414 256.248 420.023 256.636C420.637 257.019 421.123 257.588 421.48 258.342C421.843 259.092 422.024 260.013 422.024 261.104C422.024 262.182 421.847 263.098 421.493 263.852C421.14 264.607 420.658 265.182 420.049 265.578C419.439 265.974 418.749 266.173 417.978 266.173C417.415 266.173 416.949 266.079 416.578 265.891C416.207 265.704 415.909 265.478 415.683 265.214C415.461 264.945 415.289 264.692 415.165 264.453H415.069V269.682H412.755ZM415.025 261.091C415.025 261.726 415.114 262.282 415.293 262.759C415.476 263.237 415.738 263.609 416.079 263.878C416.424 264.142 416.842 264.274 417.332 264.274C417.843 264.274 418.272 264.138 418.617 263.865C418.962 263.588 419.222 263.211 419.397 262.734C419.576 262.252 419.665 261.705 419.665 261.091C419.665 260.482 419.578 259.94 419.403 259.467C419.228 258.994 418.968 258.624 418.623 258.355C418.278 258.087 417.848 257.952 417.332 257.952C416.838 257.952 416.418 258.082 416.073 258.342C415.728 258.602 415.466 258.967 415.287 259.435C415.112 259.904 415.025 260.456 415.025 261.091ZM424.005 266V256.182H426.319V266H424.005ZM425.169 254.788C424.802 254.788 424.487 254.667 424.223 254.424C423.958 254.177 423.826 253.881 423.826 253.536C423.826 253.186 423.958 252.89 424.223 252.647C424.487 252.4 424.802 252.276 425.169 252.276C425.539 252.276 425.855 252.4 426.115 252.647C426.379 252.89 426.511 253.186 426.511 253.536C426.511 253.881 426.379 254.177 426.115 254.424C425.855 254.667 425.539 254.788 425.169 254.788ZM433.045 266.192C432.061 266.192 431.211 265.987 430.495 265.578C429.783 265.165 429.236 264.581 428.852 263.827C428.469 263.068 428.277 262.175 428.277 261.148C428.277 260.138 428.469 259.252 428.852 258.489C429.24 257.722 429.781 257.126 430.476 256.7C431.17 256.269 431.986 256.054 432.924 256.054C433.529 256.054 434.1 256.152 434.637 256.348C435.178 256.54 435.655 256.838 436.069 257.243C436.486 257.648 436.814 258.163 437.053 258.79C437.292 259.412 437.411 260.153 437.411 261.014V261.724H429.363V260.164H435.193C435.189 259.721 435.093 259.327 434.905 258.982C434.718 258.632 434.456 258.357 434.119 258.157C433.787 257.957 433.399 257.857 432.956 257.857C432.483 257.857 432.067 257.972 431.709 258.202C431.351 258.428 431.072 258.726 430.872 259.097C430.676 259.463 430.576 259.866 430.572 260.305V261.666C430.572 262.237 430.676 262.727 430.885 263.136C431.094 263.541 431.385 263.852 431.76 264.07C432.135 264.283 432.574 264.389 433.077 264.389C433.414 264.389 433.719 264.342 433.991 264.249C434.264 264.151 434.501 264.008 434.701 263.82C434.901 263.633 435.052 263.401 435.155 263.124L437.315 263.366C437.179 263.937 436.919 264.436 436.535 264.862C436.156 265.284 435.67 265.612 435.078 265.847C434.486 266.077 433.808 266.192 433.045 266.192ZM443.012 266.173C442.241 266.173 441.55 265.974 440.941 265.578C440.332 265.182 439.85 264.607 439.496 263.852C439.143 263.098 438.966 262.182 438.966 261.104C438.966 260.013 439.145 259.092 439.503 258.342C439.865 257.588 440.353 257.019 440.967 256.636C441.58 256.248 442.264 256.054 443.018 256.054C443.594 256.054 444.067 256.152 444.438 256.348C444.808 256.54 445.102 256.772 445.32 257.045C445.537 257.313 445.705 257.567 445.825 257.805H445.92V252.909H448.241V266H445.965V264.453H445.825C445.705 264.692 445.533 264.945 445.307 265.214C445.081 265.478 444.783 265.704 444.412 265.891C444.041 266.079 443.575 266.173 443.012 266.173ZM443.658 264.274C444.148 264.274 444.565 264.142 444.911 263.878C445.256 263.609 445.518 263.237 445.697 262.759C445.876 262.282 445.965 261.726 445.965 261.091C445.965 260.456 445.876 259.904 445.697 259.435C445.522 258.967 445.262 258.602 444.917 258.342C444.576 258.082 444.156 257.952 443.658 257.952C443.142 257.952 442.712 258.087 442.366 258.355C442.021 258.624 441.761 258.994 441.587 259.467C441.412 259.94 441.325 260.482 441.325 261.091C441.325 261.705 441.412 262.252 441.587 262.734C441.766 263.211 442.028 263.588 442.373 263.865C442.722 264.138 443.151 264.274 443.658 264.274ZM455.274 266V252.909H457.645V264.012H463.411V266H455.274ZM465.367 266V256.182H467.681V266H465.367ZM466.53 254.788C466.164 254.788 465.848 254.667 465.584 254.424C465.32 254.177 465.188 253.881 465.188 253.536C465.188 253.186 465.32 252.89 465.584 252.647C465.848 252.4 466.164 252.276 466.53 252.276C466.901 252.276 467.216 252.4 467.476 252.647C467.74 252.89 467.872 253.186 467.872 253.536C467.872 253.881 467.74 254.177 467.476 254.424C467.216 254.667 466.901 254.788 466.53 254.788ZM472.374 260.247V266H470.06V256.182H472.272V257.85H472.387C472.613 257.3 472.973 256.864 473.467 256.54C473.966 256.216 474.581 256.054 475.314 256.054C475.992 256.054 476.582 256.199 477.085 256.489C477.592 256.778 477.984 257.198 478.261 257.748C478.542 258.298 478.681 258.964 478.676 259.749V266H476.363V260.107C476.363 259.45 476.192 258.937 475.851 258.566C475.515 258.195 475.048 258.01 474.451 258.01C474.047 258.01 473.686 258.099 473.371 258.278C473.06 258.453 472.815 258.707 472.636 259.039C472.461 259.371 472.374 259.774 472.374 260.247ZM483.138 262.919L483.132 260.126H483.502L487.031 256.182H489.735L485.395 261.014H484.915L483.138 262.919ZM481.029 266V252.909H483.343V266H481.029ZM487.191 266L483.995 261.532L485.554 259.902L489.958 266H487.191ZM495.219 266.192C494.235 266.192 493.385 265.987 492.669 265.578C491.957 265.165 491.409 264.581 491.026 263.827C490.642 263.068 490.451 262.175 490.451 261.148C490.451 260.138 490.642 259.252 491.026 258.489C491.414 257.722 491.955 257.126 492.65 256.7C493.344 256.269 494.16 256.054 495.098 256.054C495.703 256.054 496.274 256.152 496.811 256.348C497.352 256.54 497.829 256.838 498.243 257.243C498.66 257.648 498.988 258.163 499.227 258.79C499.466 259.412 499.585 260.153 499.585 261.014V261.724H491.537V260.164H497.367C497.363 259.721 497.267 259.327 497.079 258.982C496.892 258.632 496.63 258.357 496.293 258.157C495.961 257.957 495.573 257.857 495.13 257.857C494.657 257.857 494.241 257.972 493.883 258.202C493.525 258.428 493.246 258.726 493.046 259.097C492.85 259.463 492.75 259.866 492.745 260.305V261.666C492.745 262.237 492.85 262.727 493.059 263.136C493.267 263.541 493.559 263.852 493.934 264.07C494.309 264.283 494.748 264.389 495.251 264.389C495.588 264.389 495.892 264.342 496.165 264.249C496.438 264.151 496.674 264.008 496.875 263.82C497.075 263.633 497.226 263.401 497.328 263.124L499.489 263.366C499.353 263.937 499.093 264.436 498.709 264.862C498.33 265.284 497.844 265.612 497.252 265.847C496.659 266.077 495.982 266.192 495.219 266.192ZM505.186 266.173C504.415 266.173 503.724 265.974 503.115 265.578C502.506 265.182 502.024 264.607 501.67 263.852C501.317 263.098 501.14 262.182 501.14 261.104C501.14 260.013 501.319 259.092 501.677 258.342C502.039 257.588 502.527 257.019 503.14 256.636C503.754 256.248 504.438 256.054 505.192 256.054C505.768 256.054 506.241 256.152 506.611 256.348C506.982 256.54 507.276 256.772 507.493 257.045C507.711 257.313 507.879 257.567 507.998 257.805H508.094V252.909H510.415V266H508.139V264.453H507.998C507.879 264.692 507.706 264.945 507.481 265.214C507.255 265.478 506.956 265.704 506.586 265.891C506.215 266.079 505.748 266.173 505.186 266.173ZM505.831 264.274C506.322 264.274 506.739 264.142 507.084 263.878C507.43 263.609 507.692 263.237 507.871 262.759C508.05 262.282 508.139 261.726 508.139 261.091C508.139 260.456 508.05 259.904 507.871 259.435C507.696 258.967 507.436 258.602 507.091 258.342C506.75 258.082 506.33 257.952 505.831 257.952C505.316 257.952 504.885 258.087 504.54 258.355C504.195 258.624 503.935 258.994 503.76 259.467C503.586 259.94 503.498 260.482 503.498 261.091C503.498 261.705 503.586 262.252 503.76 262.734C503.939 263.211 504.202 263.588 504.547 263.865C504.896 264.138 505.324 264.274 505.831 264.274ZM517.447 266V252.909H519.819V264.012H525.585V266H517.447ZM527.54 266V256.182H529.854V266H527.54ZM528.704 254.788C528.337 254.788 528.022 254.667 527.758 254.424C527.494 254.177 527.362 253.881 527.362 253.536C527.362 253.186 527.494 252.89 527.758 252.647C528.022 252.4 528.337 252.276 528.704 252.276C529.075 252.276 529.39 252.4 529.65 252.647C529.914 252.89 530.046 253.186 530.046 253.536C530.046 253.881 529.914 254.177 529.65 254.424C529.39 254.667 529.075 254.788 528.704 254.788ZM539.994 258.777L537.884 259.007C537.825 258.794 537.72 258.594 537.571 258.406C537.426 258.219 537.23 258.067 536.983 257.952C536.736 257.837 536.433 257.78 536.075 257.78C535.594 257.78 535.189 257.884 534.861 258.093C534.537 258.302 534.377 258.572 534.382 258.905C534.377 259.19 534.482 259.423 534.695 259.602C534.912 259.781 535.27 259.928 535.769 260.043L537.443 260.401C538.372 260.601 539.063 260.918 539.514 261.353C539.97 261.788 540.2 262.357 540.205 263.06C540.2 263.678 540.019 264.223 539.661 264.696C539.308 265.165 538.816 265.531 538.185 265.795C537.554 266.06 536.83 266.192 536.012 266.192C534.81 266.192 533.843 265.94 533.11 265.438C532.377 264.93 531.94 264.225 531.799 263.322L534.056 263.104C534.158 263.548 534.375 263.882 534.708 264.108C535.04 264.334 535.472 264.447 536.005 264.447C536.555 264.447 536.996 264.334 537.328 264.108C537.665 263.882 537.833 263.603 537.833 263.271C537.833 262.989 537.725 262.757 537.507 262.574C537.294 262.391 536.962 262.25 536.51 262.152L534.835 261.8C533.894 261.604 533.197 261.274 532.745 260.81C532.294 260.341 532.07 259.749 532.074 259.033C532.07 258.428 532.234 257.903 532.566 257.46C532.903 257.013 533.369 256.668 533.966 256.425C534.567 256.178 535.259 256.054 536.044 256.054C537.194 256.054 538.1 256.299 538.76 256.789C539.425 257.279 539.836 257.942 539.994 258.777ZM547.015 256.182V257.972H541.371V256.182H547.015ZM542.765 253.83H545.079V263.047C545.079 263.358 545.126 263.597 545.219 263.763C545.317 263.925 545.445 264.036 545.603 264.095C545.76 264.155 545.935 264.185 546.127 264.185C546.272 264.185 546.404 264.174 546.523 264.153C546.647 264.131 546.741 264.112 546.805 264.095L547.194 265.904C547.071 265.947 546.894 265.994 546.664 266.045C546.438 266.096 546.161 266.126 545.833 266.134C545.253 266.151 544.731 266.064 544.267 265.872C543.802 265.676 543.434 265.374 543.161 264.964C542.893 264.555 542.76 264.044 542.765 263.43V253.83Z" fill="#4F46E5"/>
<path d="M467.689 184.326H465.298C465.23 183.934 465.104 183.587 464.921 183.284C464.738 182.977 464.51 182.717 464.237 182.504C463.964 182.291 463.653 182.131 463.304 182.025C462.959 181.914 462.586 181.859 462.185 181.859C461.474 181.859 460.843 182.038 460.293 182.396C459.744 182.749 459.313 183.269 459.002 183.955C458.691 184.637 458.535 185.47 458.535 186.455C458.535 187.456 458.691 188.3 459.002 188.986C459.317 189.668 459.748 190.183 460.293 190.533C460.843 190.878 461.472 191.05 462.179 191.05C462.571 191.05 462.937 190.999 463.278 190.897C463.623 190.79 463.932 190.635 464.205 190.43C464.482 190.226 464.714 189.974 464.902 189.676C465.094 189.378 465.226 189.037 465.298 188.653L467.689 188.666C467.599 189.288 467.405 189.872 467.107 190.418C466.813 190.963 466.427 191.445 465.95 191.862C465.473 192.276 464.915 192.599 464.275 192.834C463.636 193.064 462.927 193.179 462.147 193.179C460.996 193.179 459.969 192.913 459.066 192.38C458.163 191.847 457.451 191.078 456.931 190.072C456.411 189.067 456.151 187.861 456.151 186.455C456.151 185.044 456.413 183.838 456.937 182.837C457.462 181.831 458.175 181.062 459.079 180.529C459.982 179.996 461.005 179.73 462.147 179.73C462.876 179.73 463.553 179.832 464.18 180.037C464.806 180.241 465.364 180.542 465.854 180.938C466.344 181.33 466.747 181.812 467.062 182.383C467.382 182.95 467.591 183.597 467.689 184.326ZM474.041 193.192C473.082 193.192 472.251 192.981 471.548 192.559C470.845 192.137 470.299 191.547 469.912 190.788C469.528 190.03 469.336 189.143 469.336 188.129C469.336 187.115 469.528 186.227 469.912 185.464C470.299 184.701 470.845 184.109 471.548 183.687C472.251 183.265 473.082 183.054 474.041 183.054C475 183.054 475.831 183.265 476.534 183.687C477.237 184.109 477.78 184.701 478.164 185.464C478.552 186.227 478.745 187.115 478.745 188.129C478.745 189.143 478.552 190.03 478.164 190.788C477.78 191.547 477.237 192.137 476.534 192.559C475.831 192.981 475 193.192 474.041 193.192ZM474.054 191.338C474.574 191.338 475.008 191.195 475.358 190.91C475.707 190.62 475.967 190.232 476.138 189.746C476.312 189.261 476.4 188.719 476.4 188.123C476.4 187.522 476.312 186.979 476.138 186.493C475.967 186.003 475.707 185.613 475.358 185.323C475.008 185.033 474.574 184.888 474.054 184.888C473.521 184.888 473.078 185.033 472.724 185.323C472.375 185.613 472.113 186.003 471.938 186.493C471.767 186.979 471.682 187.522 471.682 188.123C471.682 188.719 471.767 189.261 471.938 189.746C472.113 190.232 472.375 190.62 472.724 190.91C473.078 191.195 473.521 191.338 474.054 191.338ZM480.709 196.682V183.182H482.985V184.805H483.119C483.239 184.567 483.407 184.313 483.624 184.045C483.842 183.772 484.136 183.54 484.506 183.348C484.877 183.152 485.35 183.054 485.925 183.054C486.684 183.054 487.368 183.248 487.977 183.636C488.591 184.019 489.077 184.588 489.435 185.342C489.797 186.092 489.978 187.013 489.978 188.104C489.978 189.182 489.801 190.098 489.447 190.852C489.094 191.607 488.612 192.182 488.003 192.578C487.393 192.974 486.703 193.173 485.932 193.173C485.369 193.173 484.903 193.079 484.532 192.891C484.161 192.704 483.863 192.478 483.637 192.214C483.415 191.945 483.243 191.692 483.119 191.453H483.023V196.682H480.709ZM482.979 188.091C482.979 188.726 483.068 189.282 483.247 189.759C483.43 190.237 483.692 190.609 484.033 190.878C484.378 191.142 484.796 191.274 485.286 191.274C485.797 191.274 486.226 191.138 486.571 190.865C486.916 190.588 487.176 190.211 487.351 189.734C487.53 189.252 487.619 188.705 487.619 188.091C487.619 187.482 487.532 186.94 487.357 186.467C487.182 185.994 486.922 185.624 486.577 185.355C486.232 185.087 485.802 184.952 485.286 184.952C484.792 184.952 484.372 185.082 484.027 185.342C483.682 185.602 483.42 185.967 483.241 186.435C483.066 186.904 482.979 187.456 482.979 188.091ZM493.064 196.682C492.748 196.682 492.456 196.656 492.188 196.605C491.924 196.558 491.713 196.503 491.555 196.439L492.092 194.636C492.429 194.734 492.729 194.781 492.993 194.777C493.258 194.773 493.49 194.69 493.69 194.528C493.895 194.37 494.067 194.106 494.208 193.735L494.406 193.205L490.846 183.182H493.3L495.563 190.597H495.665L497.934 183.182H500.395L496.464 194.189C496.281 194.709 496.038 195.154 495.736 195.525C495.433 195.9 495.062 196.185 494.623 196.381C494.189 196.582 493.669 196.682 493.064 196.682Z" fill="#4F46E5"/>
<path d="M275.47 277.53C275.763 277.823 276.237 277.823 276.53 277.53L281.303 272.757C281.596 272.464 281.596 271.99 281.303 271.697C281.01 271.404 280.536 271.404 280.243 271.697L276 275.939L271.757 271.697C271.464 271.404 270.99 271.404 270.697 271.697C270.404 271.99 270.404 272.464 270.697 272.757L275.47 277.53ZM276.53 155.47C276.237 155.177 275.763 155.177 275.47 155.47L270.697 160.243C270.404 160.536 270.404 161.01 270.697 161.303C270.99 161.596 271.464 161.596 271.757 161.303L276 157.061L280.243 161.303C280.536 161.596 281.01 161.596 281.303 161.303C281.596 161.01 281.596 160.536 281.303 160.243L276.53 155.47ZM276 277H276.75V156H276H275.25V277H276Z" fill="#4F46E5"/>
<path d="M476.97 222.551C477.263 222.843 477.737 222.843 478.03 222.551L482.803 217.778C483.096 217.485 483.096 217.01 482.803 216.717C482.51 216.424 482.036 216.424 481.743 216.717L477.5 220.96L473.257 216.717C472.964 216.424 472.49 216.424 472.197 216.717C471.904 217.01 471.904 217.485 472.197 217.778L476.97 222.551ZM477.5 222.02H478.25V201.988H477.5H476.75V222.02H477.5Z" fill="#5046E5"/>
<path d="M477 176.033V156" stroke="#5046E5" stroke-width="1.5"/>
<path d="M252.53 135.53C252.823 135.237 252.823 134.763 252.53 134.47L247.757 129.697C247.464 129.404 246.99 129.404 246.697 129.697C246.404 129.99 246.404 130.464 246.697 130.757L250.939 135L246.697 139.243C246.404 139.536 246.404 140.01 246.697 140.303C246.99 140.596 247.464 140.596 247.757 140.303L252.53 135.53ZM138 135V135.75H252V135V134.25H138V135Z" fill="black"/>
<path d="M496.53 337.47C496.237 337.177 495.763 337.177 495.47 337.47L490.697 342.243C490.404 342.536 490.404 343.01 490.697 343.303C490.99 343.596 491.464 343.596 491.757 343.303L496 339.061L500.243 343.303C500.536 343.596 501.01 343.596 501.303 343.303C501.596 343.01 501.596 342.536 501.303 342.243L496.53 337.47ZM496 388H496.75V338H496H495.25V388H496Z" fill="#DC2626"/>
<path d="M607.53 337.47C607.237 337.177 606.763 337.177 606.47 337.47L601.697 342.243C601.404 342.536 601.404 343.01 601.697 343.303C601.99 343.596 602.464 343.596 602.757 343.303L607 339.061L611.243 343.303C611.536 343.596 612.01 343.596 612.303 343.303C612.596 343.01 612.596 342.536 612.303 342.243L607.53 337.47ZM607 388.01H607.75V338H607H606.25V388.01H607Z" fill="#DC2626"/>
<rect x="233" y="231" width="467" height="116" rx="15" stroke="#5046E5" stroke-width="2" stroke-dasharray="4 4"/>
</svg>
