<svg width="1000" height="533" viewBox="0 0 1000 533" fill="none" xmlns="http://www.w3.org/2000/svg">
<rect width="1000" height="533" fill="white"/>
<rect x="73" y="72" width="338" height="365" rx="15" stroke="#5046E5" stroke-width="2" stroke-dasharray="4 4"/>
<path d="M194.767 110V96.9091H199.676C200.682 96.9091 201.525 97.0966 202.207 97.4716C202.893 97.8466 203.411 98.3622 203.76 99.0185C204.114 99.6705 204.291 100.412 204.291 101.243C204.291 102.082 204.114 102.828 203.76 103.48C203.407 104.132 202.885 104.646 202.194 105.021C201.504 105.391 200.654 105.577 199.644 105.577H196.39V103.627H199.324C199.912 103.627 200.394 103.525 200.769 103.32C201.144 103.116 201.421 102.835 201.6 102.477C201.783 102.119 201.875 101.707 201.875 101.243C201.875 100.778 201.783 100.369 201.6 100.016C201.421 99.6619 201.142 99.3871 200.763 99.1911C200.388 98.9908 199.904 98.8906 199.312 98.8906H197.138V110H194.767ZM206.248 110V100.182H208.492V101.818H208.594C208.773 101.251 209.08 100.815 209.515 100.508C209.954 100.197 210.454 100.041 211.017 100.041C211.145 100.041 211.288 100.048 211.445 100.06C211.607 100.069 211.741 100.084 211.848 100.105V102.234C211.75 102.2 211.594 102.17 211.381 102.144C211.172 102.114 210.97 102.099 210.774 102.099C210.352 102.099 209.973 102.191 209.636 102.374C209.304 102.553 209.042 102.803 208.85 103.122C208.658 103.442 208.562 103.81 208.562 104.228V110H206.248ZM213.385 110V100.182H215.699V110H213.385ZM214.549 98.7884C214.182 98.7884 213.867 98.6669 213.603 98.424C213.338 98.1768 213.206 97.8807 213.206 97.5355C213.206 97.1861 213.338 96.8899 213.603 96.647C213.867 96.3999 214.182 96.2763 214.549 96.2763C214.919 96.2763 215.235 96.3999 215.495 96.647C215.759 96.8899 215.891 97.1861 215.891 97.5355C215.891 97.8807 215.759 98.1768 215.495 98.424C215.235 98.6669 214.919 98.7884 214.549 98.7884ZM218.079 110V100.182H220.29V101.85H220.405C220.61 101.288 220.949 100.849 221.422 100.533C221.895 100.214 222.459 100.054 223.116 100.054C223.78 100.054 224.341 100.216 224.797 100.54C225.257 100.859 225.581 101.296 225.768 101.85H225.87C226.088 101.305 226.454 100.87 226.97 100.546C227.49 100.218 228.106 100.054 228.817 100.054C229.721 100.054 230.458 100.339 231.029 100.911C231.6 101.482 231.885 102.315 231.885 103.41V110H229.565V103.768C229.565 103.158 229.403 102.713 229.079 102.432C228.755 102.146 228.359 102.004 227.89 102.004C227.332 102.004 226.895 102.178 226.58 102.528C226.269 102.873 226.113 103.322 226.113 103.876V110H223.844V103.672C223.844 103.165 223.691 102.76 223.384 102.457C223.081 102.155 222.685 102.004 222.195 102.004C221.863 102.004 221.56 102.089 221.287 102.259C221.015 102.425 220.797 102.662 220.635 102.969C220.473 103.271 220.392 103.625 220.392 104.03V110H218.079ZM237.058 110.198C236.436 110.198 235.876 110.087 235.377 109.866C234.883 109.64 234.491 109.308 234.201 108.869C233.915 108.43 233.773 107.888 233.773 107.245C233.773 106.691 233.875 106.233 234.079 105.871C234.284 105.509 234.563 105.219 234.917 105.001C235.271 104.784 235.669 104.62 236.112 104.509C236.56 104.394 237.022 104.311 237.499 104.26C238.074 104.2 238.541 104.147 238.899 104.1C239.257 104.049 239.517 103.972 239.679 103.87C239.845 103.763 239.928 103.599 239.928 103.378V103.339C239.928 102.858 239.785 102.485 239.5 102.221C239.214 101.957 238.803 101.825 238.266 101.825C237.699 101.825 237.25 101.948 236.918 102.195C236.589 102.442 236.368 102.734 236.253 103.071L234.092 102.764C234.263 102.168 234.544 101.669 234.936 101.268C235.328 100.864 235.807 100.561 236.374 100.361C236.941 100.156 237.567 100.054 238.253 100.054C238.726 100.054 239.197 100.109 239.666 100.22C240.135 100.331 240.563 100.514 240.951 100.77C241.339 101.021 241.65 101.364 241.884 101.799C242.123 102.234 242.242 102.777 242.242 103.429V110H240.018V108.651H239.941C239.8 108.924 239.602 109.18 239.347 109.418C239.095 109.653 238.778 109.842 238.394 109.987C238.015 110.128 237.57 110.198 237.058 110.198ZM237.659 108.498C238.123 108.498 238.526 108.406 238.867 108.223C239.208 108.036 239.47 107.788 239.653 107.482C239.841 107.175 239.935 106.84 239.935 106.478V105.321C239.862 105.381 239.739 105.436 239.564 105.487C239.393 105.538 239.202 105.583 238.989 105.621C238.775 105.66 238.565 105.694 238.356 105.724C238.147 105.754 237.966 105.779 237.812 105.8C237.467 105.847 237.158 105.924 236.886 106.031C236.613 106.137 236.398 106.286 236.24 106.478C236.082 106.665 236.003 106.908 236.003 107.207C236.003 107.633 236.159 107.955 236.47 108.172C236.781 108.389 237.177 108.498 237.659 108.498ZM244.569 110V100.182H246.812V101.818H246.915C247.094 101.251 247.4 100.815 247.835 100.508C248.274 100.197 248.775 100.041 249.337 100.041C249.465 100.041 249.608 100.048 249.766 100.06C249.927 100.069 250.062 100.084 250.168 100.105V102.234C250.07 102.2 249.915 102.17 249.702 102.144C249.493 102.114 249.29 102.099 249.094 102.099C248.672 102.099 248.293 102.191 247.957 102.374C247.624 102.553 247.362 102.803 247.17 103.122C246.979 103.442 246.883 103.81 246.883 104.228V110H244.569ZM253.443 113.682C253.127 113.682 252.835 113.656 252.567 113.605C252.303 113.558 252.092 113.503 251.934 113.439L252.471 111.636C252.808 111.734 253.108 111.781 253.372 111.777C253.636 111.773 253.869 111.69 254.069 111.528C254.274 111.37 254.446 111.106 254.587 110.735L254.785 110.205L251.225 100.182H253.679L255.942 107.597H256.044L258.313 100.182H260.774L256.843 111.189C256.66 111.709 256.417 112.154 256.114 112.525C255.812 112.9 255.441 113.185 255.002 113.381C254.568 113.582 254.048 113.682 253.443 113.682ZM271.379 110H266.943V96.9091H271.468C272.768 96.9091 273.884 97.1712 274.818 97.6953C275.755 98.2152 276.475 98.9631 276.978 99.9389C277.481 100.915 277.732 102.082 277.732 103.442C277.732 104.805 277.479 105.977 276.972 106.957C276.469 107.937 275.742 108.69 274.792 109.214C273.846 109.738 272.708 110 271.379 110ZM269.314 107.948H271.264C272.176 107.948 272.936 107.782 273.546 107.45C274.155 107.113 274.613 106.612 274.92 105.947C275.227 105.278 275.38 104.443 275.38 103.442C275.38 102.44 275.227 101.609 274.92 100.949C274.613 100.284 274.159 99.7876 273.558 99.4595C272.962 99.1271 272.22 98.9609 271.334 98.9609H269.314V107.948ZM279.986 110V96.9091H284.997C285.943 96.9091 286.729 97.0582 287.356 97.3565C287.986 97.6506 288.457 98.0533 288.768 98.5646C289.084 99.076 289.241 99.6555 289.241 100.303C289.241 100.836 289.139 101.292 288.934 101.671C288.73 102.046 288.455 102.351 288.11 102.585C287.765 102.82 287.379 102.988 286.953 103.09V103.218C287.417 103.244 287.863 103.386 288.289 103.646C288.719 103.902 289.071 104.264 289.343 104.733C289.616 105.202 289.753 105.768 289.753 106.433C289.753 107.111 289.589 107.72 289.26 108.261C288.932 108.798 288.438 109.222 287.777 109.533C287.117 109.844 286.286 110 285.285 110H279.986ZM282.357 108.018H284.907C285.768 108.018 286.388 107.854 286.767 107.526C287.151 107.194 287.343 106.768 287.343 106.248C287.343 105.86 287.247 105.511 287.055 105.2C286.863 104.884 286.591 104.637 286.237 104.458C285.883 104.275 285.461 104.183 284.971 104.183H282.357V108.018ZM282.357 102.477H284.703C285.112 102.477 285.481 102.402 285.809 102.253C286.137 102.099 286.395 101.884 286.582 101.607C286.774 101.326 286.87 100.994 286.87 100.61C286.87 100.103 286.691 99.6854 286.333 99.3572C285.979 99.0291 285.453 98.8651 284.754 98.8651H282.357V102.477Z" fill="#4F46E5"/>
<path d="M195.428 457H192.897L197.506 443.909H200.433L205.048 457H202.517L199.021 446.594H198.918L195.428 457ZM195.511 451.867H202.415V453.772H195.511V451.867ZM206.67 460.682V447.182H208.946V448.805H209.08C209.199 448.567 209.368 448.313 209.585 448.045C209.802 447.772 210.097 447.54 210.467 447.348C210.838 447.152 211.311 447.054 211.886 447.054C212.645 447.054 213.329 447.248 213.938 447.636C214.552 448.019 215.038 448.588 215.396 449.342C215.758 450.092 215.939 451.013 215.939 452.104C215.939 453.182 215.762 454.098 215.408 454.852C215.055 455.607 214.573 456.182 213.964 456.578C213.354 456.974 212.664 457.173 211.893 457.173C211.33 457.173 210.864 457.079 210.493 456.891C210.122 456.704 209.824 456.478 209.598 456.214C209.376 455.945 209.204 455.692 209.08 455.453H208.984V460.682H206.67ZM208.94 452.091C208.94 452.726 209.029 453.282 209.208 453.759C209.391 454.237 209.653 454.609 209.994 454.878C210.339 455.142 210.757 455.274 211.247 455.274C211.758 455.274 212.187 455.138 212.532 454.865C212.877 454.588 213.137 454.211 213.312 453.734C213.491 453.252 213.58 452.705 213.58 452.091C213.58 451.482 213.493 450.94 213.318 450.467C213.143 449.994 212.883 449.624 212.538 449.355C212.193 449.087 211.763 448.952 211.247 448.952C210.753 448.952 210.333 449.082 209.988 449.342C209.643 449.602 209.381 449.967 209.202 450.435C209.027 450.904 208.94 451.456 208.94 452.091ZM217.92 460.682V447.182H220.196V448.805H220.33C220.449 448.567 220.618 448.313 220.835 448.045C221.052 447.772 221.347 447.54 221.717 447.348C222.088 447.152 222.561 447.054 223.136 447.054C223.895 447.054 224.579 447.248 225.188 447.636C225.802 448.019 226.288 448.588 226.646 449.342C227.008 450.092 227.189 451.013 227.189 452.104C227.189 453.182 227.012 454.098 226.658 454.852C226.305 455.607 225.823 456.182 225.214 456.578C224.604 456.974 223.914 457.173 223.143 457.173C222.58 457.173 222.114 457.079 221.743 456.891C221.372 456.704 221.074 456.478 220.848 456.214C220.626 455.945 220.454 455.692 220.33 455.453H220.234V460.682H217.92ZM220.19 452.091C220.19 452.726 220.279 453.282 220.458 453.759C220.641 454.237 220.903 454.609 221.244 454.878C221.589 455.142 222.007 455.274 222.497 455.274C223.008 455.274 223.437 455.138 223.782 454.865C224.127 454.588 224.387 454.211 224.562 453.734C224.741 453.252 224.83 452.705 224.83 452.091C224.83 451.482 224.743 450.94 224.568 450.467C224.393 449.994 224.133 449.624 223.788 449.355C223.443 449.087 223.013 448.952 222.497 448.952C222.003 448.952 221.583 449.082 221.238 449.342C220.893 449.602 220.631 449.967 220.452 450.435C220.277 450.904 220.19 451.456 220.19 452.091ZM231.484 443.909V457H229.17V443.909H231.484ZM233.864 457V447.182H236.178V457H233.864ZM235.027 445.788C234.661 445.788 234.345 445.667 234.081 445.424C233.817 445.177 233.685 444.881 233.685 444.536C233.685 444.186 233.817 443.89 234.081 443.647C234.345 443.4 234.661 443.276 235.027 443.276C235.398 443.276 235.713 443.4 235.973 443.647C236.237 443.89 236.369 444.186 236.369 444.536C236.369 444.881 236.237 445.177 235.973 445.424C235.713 445.667 235.398 445.788 235.027 445.788ZM242.84 457.192C241.86 457.192 241.018 456.977 240.315 456.546C239.616 456.116 239.077 455.521 238.698 454.763C238.323 454 238.135 453.122 238.135 452.129C238.135 451.132 238.327 450.252 238.71 449.489C239.094 448.722 239.635 448.126 240.334 447.7C241.037 447.269 241.868 447.054 242.827 447.054C243.624 447.054 244.329 447.201 244.943 447.495C245.561 447.785 246.053 448.196 246.419 448.729C246.786 449.257 246.995 449.875 247.046 450.582H244.834C244.745 450.109 244.532 449.715 244.195 449.4C243.862 449.08 243.417 448.92 242.859 448.92C242.386 448.92 241.97 449.048 241.612 449.304C241.255 449.555 240.975 449.918 240.775 450.391C240.579 450.864 240.481 451.43 240.481 452.091C240.481 452.76 240.579 453.335 240.775 453.817C240.971 454.294 241.246 454.663 241.6 454.923C241.958 455.178 242.377 455.306 242.859 455.306C243.2 455.306 243.505 455.242 243.773 455.114C244.046 454.982 244.274 454.793 244.457 454.545C244.64 454.298 244.766 453.998 244.834 453.644H247.046C246.99 454.339 246.786 454.955 246.432 455.491C246.078 456.024 245.597 456.442 244.987 456.744C244.378 457.043 243.662 457.192 242.84 457.192ZM251.771 457.198C251.149 457.198 250.589 457.087 250.09 456.866C249.596 456.64 249.204 456.308 248.914 455.869C248.628 455.43 248.486 454.888 248.486 454.245C248.486 453.691 248.588 453.233 248.792 452.871C248.997 452.509 249.276 452.219 249.63 452.001C249.983 451.784 250.382 451.62 250.825 451.509C251.272 451.394 251.735 451.311 252.212 451.26C252.787 451.2 253.254 451.147 253.612 451.1C253.97 451.049 254.23 450.972 254.392 450.87C254.558 450.763 254.641 450.599 254.641 450.378V450.339C254.641 449.858 254.498 449.485 254.213 449.221C253.927 448.957 253.516 448.825 252.979 448.825C252.412 448.825 251.963 448.948 251.63 449.195C251.302 449.442 251.081 449.734 250.966 450.071L248.805 449.764C248.976 449.168 249.257 448.669 249.649 448.268C250.041 447.864 250.52 447.561 251.087 447.361C251.654 447.156 252.28 447.054 252.966 447.054C253.439 447.054 253.91 447.109 254.379 447.22C254.848 447.331 255.276 447.514 255.664 447.77C256.052 448.021 256.363 448.364 256.597 448.799C256.836 449.234 256.955 449.777 256.955 450.429V457H254.731V455.651H254.654C254.513 455.924 254.315 456.18 254.059 456.418C253.808 456.653 253.491 456.842 253.107 456.987C252.728 457.128 252.282 457.198 251.771 457.198ZM252.372 455.498C252.836 455.498 253.239 455.406 253.58 455.223C253.921 455.036 254.183 454.788 254.366 454.482C254.554 454.175 254.647 453.84 254.647 453.478V452.321C254.575 452.381 254.451 452.436 254.277 452.487C254.106 452.538 253.915 452.583 253.701 452.621C253.488 452.66 253.277 452.694 253.069 452.724C252.86 452.754 252.679 452.779 252.525 452.8C252.18 452.847 251.871 452.924 251.598 453.031C251.326 453.137 251.111 453.286 250.953 453.478C250.795 453.665 250.716 453.908 250.716 454.207C250.716 454.633 250.872 454.955 251.183 455.172C251.494 455.389 251.89 455.498 252.372 455.498ZM264.184 447.182V448.972H258.54V447.182H264.184ZM259.934 444.83H262.248V454.047C262.248 454.358 262.294 454.597 262.388 454.763C262.486 454.925 262.614 455.036 262.772 455.095C262.929 455.155 263.104 455.185 263.296 455.185C263.441 455.185 263.573 455.174 263.692 455.153C263.816 455.131 263.91 455.112 263.973 455.095L264.363 456.904C264.24 456.947 264.063 456.994 263.833 457.045C263.607 457.096 263.33 457.126 263.002 457.134C262.422 457.151 261.9 457.064 261.436 456.872C260.971 456.676 260.603 456.374 260.33 455.964C260.062 455.555 259.929 455.044 259.934 454.43V444.83ZM266.12 457V447.182H268.434V457H266.12ZM267.283 445.788C266.916 445.788 266.601 445.667 266.337 445.424C266.073 445.177 265.941 444.881 265.941 444.536C265.941 444.186 266.073 443.89 266.337 443.647C266.601 443.4 266.916 443.276 267.283 443.276C267.654 443.276 267.969 443.4 268.229 443.647C268.493 443.89 268.625 444.186 268.625 444.536C268.625 444.881 268.493 445.177 268.229 445.424C267.969 445.667 267.654 445.788 267.283 445.788ZM275.096 457.192C274.137 457.192 273.306 456.981 272.603 456.559C271.9 456.137 271.354 455.547 270.966 454.788C270.583 454.03 270.391 453.143 270.391 452.129C270.391 451.115 270.583 450.227 270.966 449.464C271.354 448.701 271.9 448.109 272.603 447.687C273.306 447.265 274.137 447.054 275.096 447.054C276.054 447.054 276.885 447.265 277.589 447.687C278.292 448.109 278.835 448.701 279.218 449.464C279.606 450.227 279.8 451.115 279.8 452.129C279.8 453.143 279.606 454.03 279.218 454.788C278.835 455.547 278.292 456.137 277.589 456.559C276.885 456.981 276.054 457.192 275.096 457.192ZM275.108 455.338C275.628 455.338 276.063 455.195 276.412 454.91C276.762 454.62 277.022 454.232 277.192 453.746C277.367 453.261 277.454 452.719 277.454 452.123C277.454 451.522 277.367 450.979 277.192 450.493C277.022 450.003 276.762 449.613 276.412 449.323C276.063 449.033 275.628 448.888 275.108 448.888C274.576 448.888 274.133 449.033 273.779 449.323C273.429 449.613 273.167 450.003 272.993 450.493C272.822 450.979 272.737 451.522 272.737 452.123C272.737 452.719 272.822 453.261 272.993 453.746C273.167 454.232 273.429 454.62 273.779 454.91C274.133 455.195 274.576 455.338 275.108 455.338ZM284.078 451.247V457H281.764V447.182H283.976V448.85H284.091C284.317 448.3 284.677 447.864 285.171 447.54C285.67 447.216 286.285 447.054 287.018 447.054C287.696 447.054 288.286 447.199 288.789 447.489C289.296 447.778 289.688 448.198 289.965 448.748C290.246 449.298 290.385 449.964 290.381 450.749V457H288.067V451.107C288.067 450.45 287.896 449.937 287.555 449.566C287.219 449.195 286.752 449.01 286.155 449.01C285.751 449.01 285.391 449.099 285.075 449.278C284.764 449.453 284.519 449.707 284.34 450.039C284.165 450.371 284.078 450.774 284.078 451.247Z" fill="white"/>
<rect x="586" y="73" width="338" height="365" rx="15" stroke="#1E1B4B" stroke-width="2" stroke-dasharray="4 4"/>
<path d="M713.464 100.508C713.404 99.9496 713.153 99.5149 712.71 99.2038C712.271 98.8928 711.7 98.7372 710.997 98.7372C710.502 98.7372 710.078 98.8118 709.725 98.9609C709.371 99.1101 709.1 99.3125 708.913 99.5682C708.725 99.8239 708.63 100.116 708.625 100.444C708.625 100.717 708.687 100.953 708.811 101.153C708.939 101.354 709.111 101.524 709.328 101.665C709.546 101.801 709.787 101.916 710.051 102.01C710.315 102.104 710.581 102.183 710.85 102.246L712.077 102.553C712.571 102.668 713.047 102.824 713.502 103.02C713.963 103.216 714.374 103.463 714.736 103.761C715.103 104.06 715.392 104.42 715.605 104.842C715.819 105.263 715.925 105.758 715.925 106.325C715.925 107.092 715.729 107.767 715.337 108.351C714.945 108.93 714.378 109.384 713.637 109.712C712.9 110.036 712.007 110.198 710.958 110.198C709.94 110.198 709.056 110.04 708.306 109.725C707.56 109.41 706.976 108.95 706.554 108.344C706.137 107.739 705.911 107.002 705.877 106.133H708.21C708.244 106.589 708.385 106.968 708.632 107.271C708.879 107.573 709.201 107.799 709.597 107.948C709.998 108.097 710.445 108.172 710.939 108.172C711.455 108.172 711.907 108.095 712.294 107.942C712.686 107.784 712.993 107.567 713.215 107.29C713.436 107.009 713.549 106.68 713.554 106.305C713.549 105.964 713.449 105.683 713.253 105.462C713.057 105.236 712.782 105.048 712.429 104.899C712.079 104.746 711.67 104.609 711.201 104.49L709.712 104.107C708.634 103.83 707.782 103.41 707.155 102.847C706.533 102.281 706.222 101.528 706.222 100.591C706.222 99.8196 706.431 99.1442 706.848 98.5646C707.27 97.9851 707.843 97.5355 708.568 97.2159C709.292 96.892 710.113 96.7301 711.029 96.7301C711.958 96.7301 712.772 96.892 713.471 97.2159C714.174 97.5355 714.725 97.9808 715.126 98.5518C715.527 99.1186 715.733 99.7706 715.746 100.508H713.464ZM722.84 100.182V101.972H717.195V100.182H722.84ZM718.589 97.8295H720.903V107.047C720.903 107.358 720.95 107.597 721.044 107.763C721.142 107.925 721.269 108.036 721.427 108.095C721.585 108.155 721.759 108.185 721.951 108.185C722.096 108.185 722.228 108.174 722.347 108.153C722.471 108.131 722.565 108.112 722.629 108.095L723.019 109.904C722.895 109.947 722.718 109.994 722.488 110.045C722.262 110.096 721.985 110.126 721.657 110.134C721.078 110.151 720.556 110.064 720.091 109.872C719.627 109.676 719.258 109.374 718.985 108.964C718.717 108.555 718.585 108.044 718.589 107.43V97.8295ZM727.6 110.198C726.978 110.198 726.418 110.087 725.919 109.866C725.425 109.64 725.033 109.308 724.743 108.869C724.457 108.43 724.315 107.888 724.315 107.245C724.315 106.691 724.417 106.233 724.621 105.871C724.826 105.509 725.105 105.219 725.459 105.001C725.813 104.784 726.211 104.62 726.654 104.509C727.102 104.394 727.564 104.311 728.041 104.26C728.616 104.2 729.083 104.147 729.441 104.1C729.799 104.049 730.059 103.972 730.221 103.87C730.387 103.763 730.47 103.599 730.47 103.378V103.339C730.47 102.858 730.327 102.485 730.042 102.221C729.756 101.957 729.345 101.825 728.808 101.825C728.241 101.825 727.792 101.948 727.46 102.195C727.131 102.442 726.91 102.734 726.795 103.071L724.634 102.764C724.805 102.168 725.086 101.669 725.478 101.268C725.87 100.864 726.349 100.561 726.916 100.361C727.483 100.156 728.109 100.054 728.795 100.054C729.268 100.054 729.739 100.109 730.208 100.22C730.677 100.331 731.105 100.514 731.493 100.77C731.881 101.021 732.192 101.364 732.426 101.799C732.665 102.234 732.784 102.777 732.784 103.429V110H730.56V108.651H730.483C730.342 108.924 730.144 109.18 729.888 109.418C729.637 109.653 729.32 109.842 728.936 109.987C728.557 110.128 728.112 110.198 727.6 110.198ZM728.201 108.498C728.665 108.498 729.068 108.406 729.409 108.223C729.75 108.036 730.012 107.788 730.195 107.482C730.383 107.175 730.477 106.84 730.477 106.478V105.321C730.404 105.381 730.281 105.436 730.106 105.487C729.935 105.538 729.744 105.583 729.531 105.621C729.317 105.66 729.107 105.694 728.898 105.724C728.689 105.754 728.508 105.779 728.354 105.8C728.009 105.847 727.7 105.924 727.428 106.031C727.155 106.137 726.94 106.286 726.782 106.478C726.624 106.665 726.545 106.908 726.545 107.207C726.545 107.633 726.701 107.955 727.012 108.172C727.323 108.389 727.719 108.498 728.201 108.498ZM737.425 104.247V110H735.111V100.182H737.322V101.85H737.438C737.663 101.3 738.023 100.864 738.518 100.54C739.016 100.216 739.632 100.054 740.365 100.054C741.043 100.054 741.633 100.199 742.136 100.489C742.643 100.778 743.035 101.198 743.312 101.748C743.593 102.298 743.732 102.964 743.727 103.749V110H741.413V104.107C741.413 103.45 741.243 102.937 740.902 102.566C740.565 102.195 740.099 102.01 739.502 102.01C739.097 102.01 738.737 102.099 738.422 102.278C738.111 102.453 737.866 102.707 737.687 103.039C737.512 103.371 737.425 103.774 737.425 104.247ZM749.723 110.173C748.952 110.173 748.261 109.974 747.652 109.578C747.043 109.182 746.561 108.607 746.207 107.852C745.854 107.098 745.677 106.182 745.677 105.104C745.677 104.013 745.856 103.092 746.214 102.342C746.576 101.588 747.064 101.019 747.678 100.636C748.291 100.248 748.975 100.054 749.729 100.054C750.305 100.054 750.778 100.152 751.148 100.348C751.519 100.54 751.813 100.772 752.031 101.045C752.248 101.313 752.416 101.567 752.536 101.805H752.631V96.9091H754.952V110H752.676V108.453H752.536C752.416 108.692 752.244 108.945 752.018 109.214C751.792 109.478 751.494 109.704 751.123 109.891C750.752 110.079 750.286 110.173 749.723 110.173ZM750.369 108.274C750.859 108.274 751.276 108.142 751.621 107.878C751.967 107.609 752.229 107.237 752.408 106.759C752.587 106.282 752.676 105.726 752.676 105.091C752.676 104.456 752.587 103.904 752.408 103.435C752.233 102.967 751.973 102.602 751.628 102.342C751.287 102.082 750.867 101.952 750.369 101.952C749.853 101.952 749.423 102.087 749.077 102.355C748.732 102.624 748.472 102.994 748.298 103.467C748.123 103.94 748.036 104.482 748.036 105.091C748.036 105.705 748.123 106.252 748.298 106.734C748.477 107.211 748.739 107.588 749.084 107.865C749.433 108.138 749.862 108.274 750.369 108.274ZM757.52 110V96.9091H759.834V101.805H759.93C760.049 101.567 760.217 101.313 760.434 101.045C760.652 100.772 760.946 100.54 761.317 100.348C761.687 100.152 762.16 100.054 762.736 100.054C763.494 100.054 764.178 100.248 764.787 100.636C765.401 101.019 765.887 101.588 766.245 102.342C766.607 103.092 766.788 104.013 766.788 105.104C766.788 106.182 766.611 107.098 766.258 107.852C765.904 108.607 765.422 109.182 764.813 109.578C764.204 109.974 763.513 110.173 762.742 110.173C762.18 110.173 761.713 110.079 761.342 109.891C760.971 109.704 760.673 109.478 760.447 109.214C760.226 108.945 760.053 108.692 759.93 108.453H759.795V110H757.52ZM759.789 105.091C759.789 105.726 759.878 106.282 760.057 106.759C760.241 107.237 760.503 107.609 760.844 107.878C761.189 108.142 761.606 108.274 762.096 108.274C762.608 108.274 763.036 108.138 763.381 107.865C763.726 107.588 763.986 107.211 764.161 106.734C764.34 106.252 764.43 105.705 764.43 105.091C764.43 104.482 764.342 103.94 764.167 103.467C763.993 102.994 763.733 102.624 763.388 102.355C763.042 102.087 762.612 101.952 762.096 101.952C761.602 101.952 761.182 102.082 760.837 102.342C760.492 102.602 760.23 102.967 760.051 103.435C759.876 103.904 759.789 104.456 759.789 105.091ZM769.86 113.682C769.544 113.682 769.252 113.656 768.984 113.605C768.72 113.558 768.509 113.503 768.351 113.439L768.888 111.636C769.225 111.734 769.525 111.781 769.789 111.777C770.053 111.773 770.286 111.69 770.486 111.528C770.691 111.37 770.863 111.106 771.004 110.735L771.202 110.205L767.642 100.182H770.096L772.359 107.597H772.461L774.73 100.182H777.191L773.26 111.189C773.077 111.709 772.834 112.154 772.531 112.525C772.229 112.9 771.858 113.185 771.419 113.381C770.985 113.582 770.465 113.682 769.86 113.682ZM787.796 110H783.36V96.9091H787.885C789.185 96.9091 790.301 97.1712 791.235 97.6953C792.172 98.2152 792.892 98.9631 793.395 99.9389C793.898 100.915 794.149 102.082 794.149 103.442C794.149 104.805 793.896 105.977 793.389 106.957C792.886 107.937 792.159 108.69 791.209 109.214C790.263 109.738 789.125 110 787.796 110ZM785.731 107.948H787.681C788.593 107.948 789.353 107.782 789.963 107.45C790.572 107.113 791.03 106.612 791.337 105.947C791.644 105.278 791.797 104.443 791.797 103.442C791.797 102.44 791.644 101.609 791.337 100.949C791.03 100.284 790.576 99.7876 789.975 99.4595C789.379 99.1271 788.637 98.9609 787.751 98.9609H785.731V107.948ZM796.403 110V96.9091H801.414C802.36 96.9091 803.146 97.0582 803.773 97.3565C804.403 97.6506 804.874 98.0533 805.185 98.5646C805.501 99.076 805.658 99.6555 805.658 100.303C805.658 100.836 805.556 101.292 805.351 101.671C805.147 102.046 804.872 102.351 804.527 102.585C804.182 102.82 803.796 102.988 803.37 103.09V103.218C803.834 103.244 804.28 103.386 804.706 103.646C805.136 103.902 805.488 104.264 805.76 104.733C806.033 105.202 806.17 105.768 806.17 106.433C806.17 107.111 806.006 107.72 805.677 108.261C805.349 108.798 804.855 109.222 804.194 109.533C803.534 109.844 802.703 110 801.702 110H796.403ZM798.774 108.018H801.324C802.185 108.018 802.805 107.854 803.184 107.526C803.568 107.194 803.76 106.768 803.76 106.248C803.76 105.86 803.664 105.511 803.472 105.2C803.28 104.884 803.008 104.637 802.654 104.458C802.3 104.275 801.878 104.183 801.388 104.183H798.774V108.018ZM798.774 102.477H801.12C801.529 102.477 801.898 102.402 802.226 102.253C802.554 102.099 802.812 101.884 802.999 101.607C803.191 101.326 803.287 100.994 803.287 100.61C803.287 100.103 803.108 99.6854 802.75 99.3572C802.396 99.0291 801.87 98.8651 801.171 98.8651H798.774V102.477Z" fill="#1E1B4B"/>
<path opacity="0.5" d="M712.428 456H709.897L714.506 442.909H717.433L722.048 456H719.517L716.021 445.594H715.918L712.428 456ZM712.511 450.867H719.415V452.772H712.511V450.867ZM723.67 459.682V446.182H725.946V447.805H726.08C726.199 447.567 726.368 447.313 726.585 447.045C726.802 446.772 727.097 446.54 727.467 446.348C727.838 446.152 728.311 446.054 728.886 446.054C729.645 446.054 730.329 446.248 730.938 446.636C731.552 447.019 732.038 447.588 732.396 448.342C732.758 449.092 732.939 450.013 732.939 451.104C732.939 452.182 732.762 453.098 732.408 453.852C732.055 454.607 731.573 455.182 730.964 455.578C730.354 455.974 729.664 456.173 728.893 456.173C728.33 456.173 727.864 456.079 727.493 455.891C727.122 455.704 726.824 455.478 726.598 455.214C726.376 454.945 726.204 454.692 726.08 454.453H725.984V459.682H723.67ZM725.94 451.091C725.94 451.726 726.029 452.282 726.208 452.759C726.391 453.237 726.653 453.609 726.994 453.878C727.339 454.142 727.757 454.274 728.247 454.274C728.758 454.274 729.187 454.138 729.532 453.865C729.877 453.588 730.137 453.211 730.312 452.734C730.491 452.252 730.58 451.705 730.58 451.091C730.58 450.482 730.493 449.94 730.318 449.467C730.143 448.994 729.883 448.624 729.538 448.355C729.193 448.087 728.763 447.952 728.247 447.952C727.753 447.952 727.333 448.082 726.988 448.342C726.643 448.602 726.381 448.967 726.202 449.435C726.027 449.904 725.94 450.456 725.94 451.091ZM734.92 459.682V446.182H737.196V447.805H737.33C737.449 447.567 737.618 447.313 737.835 447.045C738.052 446.772 738.347 446.54 738.717 446.348C739.088 446.152 739.561 446.054 740.136 446.054C740.895 446.054 741.579 446.248 742.188 446.636C742.802 447.019 743.288 447.588 743.646 448.342C744.008 449.092 744.189 450.013 744.189 451.104C744.189 452.182 744.012 453.098 743.658 453.852C743.305 454.607 742.823 455.182 742.214 455.578C741.604 455.974 740.914 456.173 740.143 456.173C739.58 456.173 739.114 456.079 738.743 455.891C738.372 455.704 738.074 455.478 737.848 455.214C737.626 454.945 737.454 454.692 737.33 454.453H737.234V459.682H734.92ZM737.19 451.091C737.19 451.726 737.279 452.282 737.458 452.759C737.641 453.237 737.903 453.609 738.244 453.878C738.589 454.142 739.007 454.274 739.497 454.274C740.008 454.274 740.437 454.138 740.782 453.865C741.127 453.588 741.387 453.211 741.562 452.734C741.741 452.252 741.83 451.705 741.83 451.091C741.83 450.482 741.743 449.94 741.568 449.467C741.393 448.994 741.133 448.624 740.788 448.355C740.443 448.087 740.013 447.952 739.497 447.952C739.003 447.952 738.583 448.082 738.238 448.342C737.893 448.602 737.631 448.967 737.452 449.435C737.277 449.904 737.19 450.456 737.19 451.091ZM748.484 442.909V456H746.17V442.909H748.484ZM750.864 456V446.182H753.178V456H750.864ZM752.027 444.788C751.661 444.788 751.345 444.667 751.081 444.424C750.817 444.177 750.685 443.881 750.685 443.536C750.685 443.186 750.817 442.89 751.081 442.647C751.345 442.4 751.661 442.276 752.027 442.276C752.398 442.276 752.713 442.4 752.973 442.647C753.237 442.89 753.369 443.186 753.369 443.536C753.369 443.881 753.237 444.177 752.973 444.424C752.713 444.667 752.398 444.788 752.027 444.788ZM759.84 456.192C758.86 456.192 758.018 455.977 757.315 455.546C756.616 455.116 756.077 454.521 755.698 453.763C755.323 453 755.135 452.122 755.135 451.129C755.135 450.132 755.327 449.252 755.71 448.489C756.094 447.722 756.635 447.126 757.334 446.7C758.037 446.269 758.868 446.054 759.827 446.054C760.624 446.054 761.329 446.201 761.943 446.495C762.561 446.785 763.053 447.196 763.419 447.729C763.786 448.257 763.995 448.875 764.046 449.582H761.834C761.745 449.109 761.532 448.715 761.195 448.4C760.862 448.08 760.417 447.92 759.859 447.92C759.386 447.92 758.97 448.048 758.612 448.304C758.255 448.555 757.975 448.918 757.775 449.391C757.579 449.864 757.481 450.43 757.481 451.091C757.481 451.76 757.579 452.335 757.775 452.817C757.971 453.294 758.246 453.663 758.6 453.923C758.958 454.178 759.377 454.306 759.859 454.306C760.2 454.306 760.505 454.242 760.773 454.114C761.046 453.982 761.274 453.793 761.457 453.545C761.64 453.298 761.766 452.998 761.834 452.644H764.046C763.99 453.339 763.786 453.955 763.432 454.491C763.078 455.024 762.597 455.442 761.987 455.744C761.378 456.043 760.662 456.192 759.84 456.192ZM768.771 456.198C768.149 456.198 767.589 456.087 767.09 455.866C766.596 455.64 766.204 455.308 765.914 454.869C765.628 454.43 765.486 453.888 765.486 453.245C765.486 452.691 765.588 452.233 765.792 451.871C765.997 451.509 766.276 451.219 766.63 451.001C766.983 450.784 767.382 450.62 767.825 450.509C768.272 450.394 768.735 450.311 769.212 450.26C769.787 450.2 770.254 450.147 770.612 450.1C770.97 450.049 771.23 449.972 771.392 449.87C771.558 449.763 771.641 449.599 771.641 449.378V449.339C771.641 448.858 771.498 448.485 771.213 448.221C770.927 447.957 770.516 447.825 769.979 447.825C769.412 447.825 768.963 447.948 768.63 448.195C768.302 448.442 768.081 448.734 767.966 449.071L765.805 448.764C765.976 448.168 766.257 447.669 766.649 447.268C767.041 446.864 767.52 446.561 768.087 446.361C768.654 446.156 769.28 446.054 769.966 446.054C770.439 446.054 770.91 446.109 771.379 446.22C771.848 446.331 772.276 446.514 772.664 446.77C773.052 447.021 773.363 447.364 773.597 447.799C773.836 448.234 773.955 448.777 773.955 449.429V456H771.731V454.651H771.654C771.513 454.924 771.315 455.18 771.059 455.418C770.808 455.653 770.491 455.842 770.107 455.987C769.728 456.128 769.282 456.198 768.771 456.198ZM769.372 454.498C769.836 454.498 770.239 454.406 770.58 454.223C770.921 454.036 771.183 453.788 771.366 453.482C771.554 453.175 771.647 452.84 771.647 452.478V451.321C771.575 451.381 771.451 451.436 771.277 451.487C771.106 451.538 770.915 451.583 770.701 451.621C770.488 451.66 770.277 451.694 770.069 451.724C769.86 451.754 769.679 451.779 769.525 451.8C769.18 451.847 768.871 451.924 768.598 452.031C768.326 452.137 768.111 452.286 767.953 452.478C767.795 452.665 767.716 452.908 767.716 453.207C767.716 453.633 767.872 453.955 768.183 454.172C768.494 454.389 768.89 454.498 769.372 454.498ZM781.184 446.182V447.972H775.54V446.182H781.184ZM776.934 443.83H779.248V453.047C779.248 453.358 779.294 453.597 779.388 453.763C779.486 453.925 779.614 454.036 779.772 454.095C779.929 454.155 780.104 454.185 780.296 454.185C780.441 454.185 780.573 454.174 780.692 454.153C780.816 454.131 780.91 454.112 780.973 454.095L781.363 455.904C781.24 455.947 781.063 455.994 780.833 456.045C780.607 456.096 780.33 456.126 780.002 456.134C779.422 456.151 778.9 456.064 778.436 455.872C777.971 455.676 777.603 455.374 777.33 454.964C777.062 454.555 776.929 454.044 776.934 453.43V443.83ZM783.12 456V446.182H785.434V456H783.12ZM784.283 444.788C783.916 444.788 783.601 444.667 783.337 444.424C783.073 444.177 782.941 443.881 782.941 443.536C782.941 443.186 783.073 442.89 783.337 442.647C783.601 442.4 783.916 442.276 784.283 442.276C784.654 442.276 784.969 442.4 785.229 442.647C785.493 442.89 785.625 443.186 785.625 443.536C785.625 443.881 785.493 444.177 785.229 444.424C784.969 444.667 784.654 444.788 784.283 444.788ZM792.096 456.192C791.137 456.192 790.306 455.981 789.603 455.559C788.9 455.137 788.354 454.547 787.966 453.788C787.583 453.03 787.391 452.143 787.391 451.129C787.391 450.115 787.583 449.227 787.966 448.464C788.354 447.701 788.9 447.109 789.603 446.687C790.306 446.265 791.137 446.054 792.096 446.054C793.054 446.054 793.885 446.265 794.589 446.687C795.292 447.109 795.835 447.701 796.218 448.464C796.606 449.227 796.8 450.115 796.8 451.129C796.8 452.143 796.606 453.03 796.218 453.788C795.835 454.547 795.292 455.137 794.589 455.559C793.885 455.981 793.054 456.192 792.096 456.192ZM792.108 454.338C792.628 454.338 793.063 454.195 793.412 453.91C793.762 453.62 794.022 453.232 794.192 452.746C794.367 452.261 794.454 451.719 794.454 451.123C794.454 450.522 794.367 449.979 794.192 449.493C794.022 449.003 793.762 448.613 793.412 448.323C793.063 448.033 792.628 447.888 792.108 447.888C791.576 447.888 791.133 448.033 790.779 448.323C790.429 448.613 790.167 449.003 789.993 449.493C789.822 449.979 789.737 450.522 789.737 451.123C789.737 451.719 789.822 452.261 789.993 452.746C790.167 453.232 790.429 453.62 790.779 453.91C791.133 454.195 791.576 454.338 792.108 454.338ZM801.078 450.247V456H798.764V446.182H800.976V447.85H801.091C801.317 447.3 801.677 446.864 802.171 446.54C802.67 446.216 803.285 446.054 804.018 446.054C804.696 446.054 805.286 446.199 805.789 446.489C806.296 446.778 806.688 447.198 806.965 447.748C807.246 448.298 807.385 448.964 807.381 449.749V456H805.067V450.107C805.067 449.45 804.896 448.937 804.555 448.566C804.219 448.195 803.752 448.01 803.155 448.01C802.751 448.01 802.391 448.099 802.075 448.278C801.764 448.453 801.519 448.707 801.34 449.039C801.165 449.371 801.078 449.774 801.078 450.247Z" fill="white"/>
<rect x="255" y="174" width="22" height="22" stroke="#4F46E5" stroke-width="2"/>
<rect x="277" y="174" width="22" height="22" stroke="#4F46E5" stroke-width="2"/>
<rect x="326" y="174" width="22" height="22" stroke="#4F46E5" stroke-width="2"/>
<rect x="348" y="174" width="22" height="22" stroke="#4F46E5" stroke-width="2"/>
<rect x="280" y="236" width="22" height="22" stroke="#4F46E5" stroke-width="2"/>
<rect x="302" y="236" width="22" height="22" stroke="#4F46E5" stroke-width="2"/>
<rect x="324" y="236" width="22" height="22" stroke="#4F46E5" stroke-width="2"/>
<rect x="189" y="298" width="22" height="22" stroke="#4F46E5" stroke-width="2"/>
<rect x="211" y="298" width="22" height="22" stroke="#4F46E5" stroke-width="2"/>
<rect x="233" y="298" width="22" height="22" stroke="#4F46E5" stroke-width="2"/>
<rect x="255" y="298" width="22" height="22" stroke="#4F46E5" stroke-width="2"/>
<rect x="277" y="298" width="22" height="22" stroke="#4F46E5" stroke-width="2"/>
<path opacity="0.8" d="M329.008 227.624C329.076 228.172 329.576 228.561 330.124 228.492L339.055 227.376C339.603 227.307 339.991 226.808 339.923 226.26C339.854 225.712 339.354 225.323 338.806 225.391L330.868 226.384L329.876 218.445C329.807 217.897 329.308 217.509 328.76 217.577C328.212 217.646 327.823 218.146 327.891 218.694L329.008 227.624ZM347.5 205L346.711 204.386L329.211 226.886L330 227.5L330.789 228.114L348.289 205.614L347.5 205Z" fill="black"/>
<path opacity="0.8" d="M299.008 289.624C299.076 290.172 299.576 290.561 300.124 290.492L309.055 289.376C309.603 289.307 309.991 288.808 309.923 288.26C309.854 287.712 309.354 287.323 308.806 287.391L300.868 288.384L299.876 280.445C299.807 279.897 299.308 279.509 298.76 279.577C298.212 279.646 297.823 280.146 297.891 280.694L299.008 289.624ZM317.5 267L316.711 266.386L299.211 288.886L300 289.5L300.789 290.114L318.289 267.614L317.5 267Z" fill="black"/>
<path opacity="0.8" d="M295.492 227.624C295.424 228.172 294.924 228.561 294.376 228.492L285.445 227.376C284.897 227.307 284.509 226.808 284.577 226.26C284.646 225.712 285.146 225.323 285.694 225.391L293.632 226.384L294.624 218.445C294.693 217.897 295.192 217.509 295.74 217.577C296.288 217.646 296.677 218.146 296.609 218.694L295.492 227.624ZM277 205L277.789 204.386L295.289 226.886L294.5 227.5L293.711 228.114L276.211 205.614L277 205Z" fill="black"/>
<rect x="113" y="174" width="22" height="22" stroke="#4F46E5" stroke-width="2"/>
<rect x="135" y="174" width="22" height="22" stroke="#4F46E5" stroke-width="2"/>
<rect x="184" y="174" width="22" height="22" stroke="#4F46E5" stroke-width="2"/>
<rect x="206" y="174" width="22" height="22" stroke="#4F46E5" stroke-width="2"/>
<rect x="138" y="236" width="22" height="22" stroke="#4F46E5" stroke-width="2"/>
<rect x="160" y="236" width="22" height="22" stroke="#4F46E5" stroke-width="2"/>
<rect x="182" y="236" width="22" height="22" stroke="#4F46E5" stroke-width="2"/>
<path opacity="0.8" d="M187.008 227.624C187.076 228.172 187.576 228.561 188.124 228.492L197.055 227.376C197.603 227.307 197.991 226.808 197.923 226.26C197.854 225.712 197.354 225.323 196.806 225.391L188.868 226.384L187.876 218.445C187.807 217.897 187.308 217.509 186.76 217.577C186.212 217.646 185.823 218.146 185.891 218.694L187.008 227.624ZM205.5 205L204.711 204.386L187.211 226.886L188 227.5L188.789 228.114L206.289 205.614L205.5 205Z" fill="black"/>
<path opacity="0.8" d="M153.492 227.624C153.424 228.172 152.924 228.561 152.376 228.492L143.445 227.376C142.897 227.307 142.509 226.808 142.577 226.26C142.646 225.712 143.146 225.323 143.694 225.391L151.632 226.384L152.624 218.445C152.693 217.897 153.192 217.509 153.74 217.577C154.288 217.646 154.677 218.146 154.609 218.694L153.492 227.624ZM135 205L135.789 204.386L153.289 226.886L152.5 227.5L151.711 228.114L134.211 205.614L135 205Z" fill="black"/>
<path opacity="0.8" d="M188.492 289.624C188.424 290.172 187.924 290.561 187.376 290.492L178.445 289.376C177.897 289.307 177.509 288.808 177.577 288.26C177.646 287.712 178.146 287.323 178.694 287.391L186.632 288.384L187.624 280.445C187.693 279.897 188.192 279.509 188.74 279.577C189.288 279.646 189.677 280.146 189.609 280.694L188.492 289.624ZM170 267L170.789 266.386L188.289 288.886L187.5 289.5L186.711 290.114L169.211 267.614L170 267Z" fill="black"/>
<mask id="mask0_13_5" style="mask-type:alpha" maskUnits="userSpaceOnUse" x="618" y="142" width="279" height="200">
<rect x="618" y="142" width="279" height="200" fill="url(#paint0_linear_13_5)"/>
</mask>
<g mask="url(#mask0_13_5)">
<rect x="769" y="173" width="22" height="22" stroke="#4F46E5" stroke-width="2"/>
<rect x="791" y="173" width="22" height="22" stroke="#4F46E5" stroke-width="2"/>
<rect x="840" y="173" width="22" height="22" stroke="#4F46E5" stroke-width="2"/>
<rect x="862" y="173" width="22" height="22" stroke="#4F46E5" stroke-width="2"/>
<rect x="794" y="235" width="22" height="22" stroke="#4F46E5" stroke-width="2"/>
<rect x="816" y="235" width="22" height="22" stroke="#4F46E5" stroke-width="2"/>
<rect x="838" y="235" width="22" height="22" stroke="#4F46E5" stroke-width="2"/>
<rect x="703" y="297" width="22" height="22" stroke="#4F46E5" stroke-width="2"/>
<rect x="725" y="297" width="22" height="22" stroke="#4F46E5" stroke-width="2"/>
<rect x="747" y="297" width="22" height="22" stroke="#4F46E5" stroke-width="2"/>
<rect x="769" y="297" width="22" height="22" stroke="#4F46E5" stroke-width="2"/>
<rect x="791" y="297" width="22" height="22" stroke="#4F46E5" stroke-width="2"/>
<path opacity="0.8" d="M843.008 226.624C843.076 227.172 843.576 227.561 844.124 227.492L853.055 226.376C853.603 226.307 853.991 225.808 853.923 225.26C853.854 224.712 853.354 224.323 852.806 224.391L844.868 225.384L843.876 217.445C843.807 216.897 843.308 216.509 842.76 216.577C842.212 216.646 841.823 217.146 841.891 217.694L843.008 226.624ZM861.5 204L860.711 203.386L843.211 225.886L844 226.5L844.789 227.114L862.289 204.614L861.5 204Z" fill="black"/>
<path opacity="0.8" d="M813.008 288.624C813.076 289.172 813.576 289.561 814.124 289.492L823.055 288.376C823.603 288.307 823.991 287.808 823.923 287.26C823.854 286.712 823.354 286.323 822.806 286.391L814.868 287.384L813.876 279.445C813.807 278.897 813.308 278.509 812.76 278.577C812.212 278.646 811.823 279.146 811.891 279.694L813.008 288.624ZM831.5 266L830.711 265.386L813.211 287.886L814 288.5L814.789 289.114L832.289 266.614L831.5 266Z" fill="black"/>
<path opacity="0.8" d="M809.492 226.624C809.424 227.172 808.924 227.561 808.376 227.492L799.445 226.376C798.897 226.307 798.509 225.808 798.577 225.26C798.646 224.712 799.146 224.323 799.694 224.391L807.632 225.384L808.624 217.445C808.693 216.897 809.192 216.509 809.74 216.577C810.288 216.646 810.677 217.146 810.609 217.694L809.492 226.624ZM791 204L791.789 203.386L809.289 225.886L808.5 226.5L807.711 227.114L790.211 204.614L791 204Z" fill="black"/>
<rect x="627" y="173" width="22" height="22" stroke="#4F46E5" stroke-width="2"/>
<rect x="649" y="173" width="22" height="22" stroke="#4F46E5" stroke-width="2"/>
<rect x="698" y="173" width="22" height="22" stroke="#4F46E5" stroke-width="2"/>
<rect x="720" y="173" width="22" height="22" stroke="#4F46E5" stroke-width="2"/>
<rect x="652" y="235" width="22" height="22" stroke="#4F46E5" stroke-width="2"/>
<rect x="674" y="235" width="22" height="22" stroke="#4F46E5" stroke-width="2"/>
<rect x="696" y="235" width="22" height="22" stroke="#4F46E5" stroke-width="2"/>
<path opacity="0.8" d="M701.008 226.624C701.076 227.172 701.576 227.561 702.124 227.492L711.055 226.376C711.603 226.307 711.991 225.808 711.923 225.26C711.854 224.712 711.354 224.323 710.806 224.391L702.868 225.384L701.876 217.445C701.807 216.897 701.308 216.509 700.76 216.577C700.212 216.646 699.823 217.146 699.891 217.694L701.008 226.624ZM719.5 204L718.711 203.386L701.211 225.886L702 226.5L702.789 227.114L720.289 204.614L719.5 204Z" fill="black"/>
<path opacity="0.8" d="M667.492 226.624C667.424 227.172 666.924 227.561 666.376 227.492L657.445 226.376C656.897 226.307 656.509 225.808 656.577 225.26C656.646 224.712 657.146 224.323 657.694 224.391L665.632 225.384L666.624 217.445C666.693 216.897 667.192 216.509 667.74 216.577C668.288 216.646 668.677 217.146 668.609 217.694L667.492 226.624ZM649 204L649.789 203.386L667.289 225.886L666.5 226.5L665.711 227.114L648.211 204.614L649 204Z" fill="black"/>
<path opacity="0.8" d="M702.492 288.624C702.424 289.172 701.924 289.561 701.376 289.492L692.445 288.376C691.897 288.307 691.509 287.808 691.577 287.26C691.646 286.712 692.146 286.323 692.694 286.391L700.632 287.384L701.624 279.445C701.693 278.897 702.192 278.509 702.74 278.577C703.288 278.646 703.677 279.146 703.609 279.694L702.492 288.624ZM684 266L684.789 265.386L702.289 287.886L701.5 288.5L700.711 289.114L683.211 266.614L684 266Z" fill="black"/>
</g>
<path d="M623.323 268.323C624.053 267.592 624.053 266.408 623.323 265.677L611.417 253.771C610.686 253.041 609.502 253.041 608.771 253.771C608.041 254.502 608.041 255.686 608.771 256.417L619.354 267L608.771 277.583C608.041 278.314 608.041 279.498 608.771 280.229C609.502 280.959 610.686 280.959 611.417 280.229L623.323 268.323ZM377 267V268.871H622V267V265.129H377V267Z" fill="#4F46E5"/>
<rect width="59.2857" height="82.5238" transform="translate(469 228)" fill="white"/>
<path d="M495.689 274.158V273.829C495.697 272.305 495.84 271.092 496.118 270.191C496.404 269.29 496.809 268.566 497.331 268.018C497.853 267.463 498.489 266.953 499.238 266.49C499.752 266.17 500.211 265.821 500.615 265.442C501.028 265.054 501.352 264.625 501.588 264.153C501.823 263.673 501.941 263.138 501.941 262.549C501.941 261.884 501.786 261.307 501.474 260.818C501.162 260.33 500.741 259.951 500.211 259.681C499.689 259.412 499.103 259.277 498.455 259.277C497.857 259.277 497.289 259.408 496.75 259.669C496.219 259.921 495.777 260.309 495.423 260.831C495.078 261.345 494.884 261.997 494.842 262.789H490.345C490.387 261.189 490.775 259.85 491.507 258.772C492.248 257.694 493.225 256.886 494.438 256.347C495.659 255.808 497.006 255.538 498.48 255.538C500.089 255.538 501.503 255.82 502.724 256.384C503.954 256.949 504.91 257.753 505.592 258.797C506.282 259.833 506.628 261.062 506.628 262.486C506.628 263.446 506.472 264.305 506.16 265.063C505.857 265.821 505.423 266.494 504.859 267.084C504.295 267.673 503.626 268.2 502.851 268.663C502.169 269.084 501.609 269.522 501.171 269.976C500.741 270.431 500.421 270.966 500.211 271.581C500.009 272.187 499.903 272.936 499.895 273.829V274.158H495.689ZM497.886 282.04C497.129 282.04 496.476 281.77 495.929 281.231C495.381 280.692 495.107 280.036 495.107 279.261C495.107 278.503 495.381 277.854 495.929 277.316C496.476 276.777 497.129 276.507 497.886 276.507C498.636 276.507 499.284 276.777 499.832 277.316C500.388 277.854 500.665 278.503 500.665 279.261C500.665 279.775 500.535 280.242 500.274 280.663C500.021 281.084 499.684 281.421 499.263 281.674C498.851 281.918 498.392 282.04 497.886 282.04Z" fill="#4F46E5"/>
<defs>
<linearGradient id="paint0_linear_13_5" x1="757.5" y1="142" x2="758" y2="338" gradientUnits="userSpaceOnUse">
<stop stop-color="white"/>
<stop offset="1" stop-color="white" stop-opacity="0"/>
</linearGradient>
</defs>
</svg>
