<svg width="1000" height="503" viewBox="0 0 1000 503" fill="none" xmlns="http://www.w3.org/2000/svg">
<rect width="1000" height="503" fill="white"/>
<g filter="url(#filter0_d_1_5)">
<rect x="366.5" y="41" width="267" height="42" rx="21" fill="#E0E7FF" shape-rendering="crispEdges"/>
<path d="M396.204 69V55.9091H400.628C401.655 55.9091 402.494 56.0945 403.146 56.4652C403.802 56.8317 404.288 57.3281 404.604 57.9545C404.919 58.581 405.077 59.2798 405.077 60.0511C405.077 60.8224 404.919 61.5234 404.604 62.1541C404.292 62.7848 403.811 63.2876 403.159 63.6626C402.507 64.0334 401.672 64.2188 400.653 64.2188H397.483V62.8125H400.602C401.305 62.8125 401.87 62.6911 402.296 62.4482C402.722 62.2053 403.031 61.8771 403.223 61.4638C403.419 61.0462 403.517 60.5753 403.517 60.0511C403.517 59.527 403.419 59.0582 403.223 58.6449C403.031 58.2315 402.72 57.9077 402.29 57.6733C401.859 57.4347 401.288 57.3153 400.577 57.3153H397.79V69H396.204ZM411.309 69.2045C410.422 69.2045 409.645 68.9936 408.976 68.5717C408.311 68.1499 407.791 67.5597 407.416 66.8011C407.045 66.0426 406.86 65.1562 406.86 64.142C406.86 63.1193 407.045 62.2266 407.416 61.4638C407.791 60.701 408.311 60.1087 408.976 59.6868C409.645 59.2649 410.422 59.054 411.309 59.054C412.195 59.054 412.971 59.2649 413.635 59.6868C414.305 60.1087 414.824 60.701 415.195 61.4638C415.57 62.2266 415.758 63.1193 415.758 64.142C415.758 65.1562 415.57 66.0426 415.195 66.8011C414.824 67.5597 414.305 68.1499 413.635 68.5717C412.971 68.9936 412.195 69.2045 411.309 69.2045ZM411.309 67.8494C411.982 67.8494 412.536 67.6768 412.971 67.3317C413.405 66.9865 413.727 66.5327 413.936 65.9702C414.145 65.4077 414.249 64.7983 414.249 64.142C414.249 63.4858 414.145 62.8743 413.936 62.3075C413.727 61.7408 413.405 61.2827 412.971 60.9332C412.536 60.5838 411.982 60.4091 411.309 60.4091C410.635 60.4091 410.081 60.5838 409.647 60.9332C409.212 61.2827 408.89 61.7408 408.682 62.3075C408.473 62.8743 408.368 63.4858 408.368 64.142C408.368 64.7983 408.473 65.4077 408.682 65.9702C408.89 66.5327 409.212 66.9865 409.647 67.3317C410.081 67.6768 410.635 67.8494 411.309 67.8494ZM425.015 61.3807L423.66 61.7642C423.575 61.5384 423.449 61.3189 423.283 61.1058C423.121 60.8885 422.899 60.7095 422.618 60.5689C422.337 60.4283 421.977 60.358 421.538 60.358C420.937 60.358 420.436 60.4964 420.036 60.7734C419.639 61.0462 419.441 61.3935 419.441 61.8153C419.441 62.1903 419.577 62.4865 419.85 62.7038C420.123 62.9212 420.549 63.1023 421.129 63.2472L422.586 63.6051C423.464 63.8182 424.118 64.1442 424.548 64.5831C424.979 65.0178 425.194 65.5781 425.194 66.2642C425.194 66.8267 425.032 67.3295 424.708 67.7727C424.388 68.2159 423.941 68.5653 423.366 68.821C422.79 69.0767 422.121 69.2045 421.359 69.2045C420.357 69.2045 419.528 68.9872 418.872 68.5526C418.216 68.1179 417.8 67.483 417.626 66.6477L419.058 66.2898C419.194 66.8182 419.452 67.2145 419.831 67.4787C420.214 67.7429 420.715 67.875 421.333 67.875C422.036 67.875 422.594 67.7259 423.008 67.4276C423.425 67.125 423.634 66.7628 423.634 66.3409C423.634 66 423.515 65.7145 423.276 65.4844C423.038 65.25 422.671 65.0753 422.177 64.9602L420.54 64.5767C419.641 64.3636 418.981 64.0334 418.559 63.5859C418.141 63.1342 417.933 62.5696 417.933 61.892C417.933 61.3381 418.088 60.848 418.399 60.4219C418.714 59.9957 419.143 59.6612 419.684 59.4183C420.229 59.1754 420.847 59.054 421.538 59.054C422.509 59.054 423.272 59.267 423.826 59.6932C424.384 60.1193 424.781 60.6818 425.015 61.3807ZM431.735 59.1818V60.4602H426.646V59.1818H431.735ZM428.129 56.8295H429.638V66.1875C429.638 66.6136 429.7 66.9332 429.823 67.1463C429.951 67.3551 430.113 67.4957 430.309 67.5682C430.509 67.6364 430.72 67.6705 430.942 67.6705C431.108 67.6705 431.244 67.6619 431.351 67.6449C431.458 67.6236 431.543 67.6065 431.607 67.5938L431.914 68.9489C431.811 68.9872 431.669 69.0256 431.485 69.0639C431.302 69.1065 431.07 69.1278 430.789 69.1278C430.362 69.1278 429.945 69.0362 429.536 68.853C429.131 68.6697 428.794 68.3906 428.526 68.0156C428.262 67.6406 428.129 67.1676 428.129 66.5966V56.8295ZM437.861 72.8864C437.133 72.8864 436.506 72.7926 435.982 72.6051C435.458 72.4219 435.021 72.179 434.672 71.8764C434.327 71.5781 434.052 71.2585 433.847 70.9176L435.049 70.0739C435.185 70.2528 435.358 70.4574 435.567 70.6875C435.775 70.9219 436.061 71.1243 436.423 71.2947C436.79 71.4695 437.269 71.5568 437.861 71.5568C438.654 71.5568 439.308 71.3651 439.824 70.9815C440.339 70.598 440.597 69.9972 440.597 69.179V67.1847H440.469C440.358 67.3636 440.201 67.5852 439.996 67.8494C439.796 68.1094 439.506 68.3416 439.127 68.5462C438.752 68.7464 438.245 68.8466 437.606 68.8466C436.813 68.8466 436.101 68.6591 435.471 68.2841C434.844 67.9091 434.348 67.3636 433.981 66.6477C433.619 65.9318 433.438 65.0625 433.438 64.0398C433.438 63.0341 433.615 62.1584 433.969 61.4126C434.322 60.6626 434.814 60.0831 435.445 59.674C436.076 59.2607 436.805 59.054 437.631 59.054C438.27 59.054 438.778 59.1605 439.153 59.3736C439.532 59.5824 439.822 59.821 440.022 60.0895C440.226 60.3537 440.384 60.571 440.495 60.7415H440.648V59.1818H442.106V69.2812C442.106 70.125 441.914 70.8111 441.53 71.3395C441.151 71.8722 440.64 72.2621 439.996 72.5092C439.357 72.7607 438.645 72.8864 437.861 72.8864ZM437.81 67.4915C438.415 67.4915 438.927 67.353 439.344 67.076C439.762 66.799 440.079 66.4006 440.297 65.8807C440.514 65.3608 440.623 64.7386 440.623 64.0142C440.623 63.3068 440.516 62.6825 440.303 62.1413C440.09 61.6001 439.775 61.1761 439.357 60.8693C438.939 60.5625 438.424 60.4091 437.81 60.4091C437.171 60.4091 436.638 60.571 436.212 60.8949C435.79 61.2187 435.473 61.6534 435.26 62.1989C435.051 62.7443 434.947 63.3494 434.947 64.0142C434.947 64.696 435.053 65.299 435.266 65.8232C435.483 66.343 435.803 66.7521 436.225 67.0504C436.651 67.3445 437.18 67.4915 437.81 67.4915ZM444.867 69V59.1818H446.324V60.6648H446.427C446.606 60.179 446.93 59.7848 447.398 59.4822C447.867 59.1797 448.395 59.0284 448.983 59.0284C449.094 59.0284 449.233 59.0305 449.399 59.0348C449.565 59.0391 449.691 59.0455 449.776 59.054V60.5881C449.725 60.5753 449.608 60.5561 449.425 60.5305C449.246 60.5007 449.056 60.4858 448.856 60.4858C448.378 60.4858 447.952 60.5859 447.577 60.7862C447.206 60.9822 446.912 61.255 446.695 61.6044C446.482 61.9496 446.376 62.3437 446.376 62.7869V69H444.867ZM455.382 69.2045C454.436 69.2045 453.62 68.9957 452.934 68.5781C452.252 68.1562 451.726 67.5682 451.355 66.8139C450.988 66.0554 450.805 65.1733 450.805 64.1676C450.805 63.1619 450.988 62.2756 451.355 61.5085C451.726 60.7372 452.241 60.1364 452.902 59.706C453.567 59.2713 454.342 59.054 455.229 59.054C455.74 59.054 456.245 59.1392 456.743 59.3097C457.242 59.4801 457.696 59.7571 458.105 60.1406C458.514 60.5199 458.84 61.0227 459.083 61.6491C459.326 62.2756 459.447 63.0469 459.447 63.9631V64.6023H451.879V63.2983H457.913C457.913 62.7443 457.802 62.25 457.581 61.8153C457.363 61.3807 457.052 61.0376 456.648 60.7862C456.247 60.5348 455.774 60.4091 455.229 60.4091C454.628 60.4091 454.108 60.5582 453.669 60.8565C453.234 61.1506 452.9 61.5341 452.665 62.0071C452.431 62.4801 452.314 62.9872 452.314 63.5284V64.3977C452.314 65.1392 452.442 65.7678 452.697 66.2834C452.957 66.7947 453.317 67.1847 453.778 67.4531C454.238 67.7173 454.773 67.8494 455.382 67.8494C455.778 67.8494 456.136 67.794 456.456 67.6832C456.78 67.5682 457.059 67.3977 457.293 67.1719C457.528 66.9418 457.709 66.6562 457.836 66.3153L459.294 66.7244C459.14 67.2188 458.883 67.6534 458.52 68.0284C458.158 68.3991 457.711 68.6889 457.178 68.8977C456.645 69.1023 456.047 69.2045 455.382 69.2045ZM468.697 61.3807L467.341 61.7642C467.256 61.5384 467.131 61.3189 466.964 61.1058C466.802 60.8885 466.581 60.7095 466.3 60.5689C466.018 60.4283 465.658 60.358 465.219 60.358C464.618 60.358 464.118 60.4964 463.717 60.7734C463.321 61.0462 463.123 61.3935 463.123 61.8153C463.123 62.1903 463.259 62.4865 463.532 62.7038C463.805 62.9212 464.231 63.1023 464.81 63.2472L466.268 63.6051C467.145 63.8182 467.8 64.1442 468.23 64.5831C468.66 65.0178 468.876 65.5781 468.876 66.2642C468.876 66.8267 468.714 67.3295 468.39 67.7727C468.07 68.2159 467.623 68.5653 467.047 68.821C466.472 69.0767 465.803 69.2045 465.04 69.2045C464.039 69.2045 463.21 68.9872 462.554 68.5526C461.898 68.1179 461.482 67.483 461.307 66.6477L462.739 66.2898C462.876 66.8182 463.133 67.2145 463.513 67.4787C463.896 67.7429 464.397 67.875 465.015 67.875C465.718 67.875 466.276 67.7259 466.689 67.4276C467.107 67.125 467.316 66.7628 467.316 66.3409C467.316 66 467.197 65.7145 466.958 65.4844C466.719 65.25 466.353 65.0753 465.858 64.9602L464.222 64.5767C463.323 64.3636 462.662 64.0334 462.241 63.5859C461.823 63.1342 461.614 62.5696 461.614 61.892C461.614 61.3381 461.77 60.848 462.081 60.4219C462.396 59.9957 462.824 59.6612 463.366 59.4183C463.911 59.1754 464.529 59.054 465.219 59.054C466.191 59.054 466.954 59.267 467.508 59.6932C468.066 60.1193 468.462 60.6818 468.697 61.3807ZM475.697 57.3153V55.9091H485.516V57.3153H481.399V69H479.814V57.3153H475.697ZM492.609 64.9858V59.1818H494.118V69H492.609V67.3381H492.507C492.277 67.8366 491.919 68.2607 491.433 68.6101C490.947 68.9553 490.334 69.1278 489.592 69.1278C488.979 69.1278 488.433 68.9936 487.956 68.7251C487.479 68.4524 487.104 68.0433 486.831 67.4979C486.558 66.9482 486.422 66.2557 486.422 65.4205V59.1818H487.93V65.3182C487.93 66.0341 488.131 66.6051 488.531 67.0312C488.936 67.4574 489.452 67.6705 490.078 67.6705C490.453 67.6705 490.834 67.5746 491.222 67.3828C491.614 67.1911 491.942 66.897 492.206 66.5007C492.475 66.1044 492.609 65.5994 492.609 64.9858ZM496.881 72.6818V59.1818H498.338V60.7415H498.517C498.628 60.571 498.781 60.3537 498.977 60.0895C499.178 59.821 499.463 59.5824 499.834 59.3736C500.209 59.1605 500.716 59.054 501.355 59.054C502.182 59.054 502.911 59.2607 503.541 59.674C504.172 60.0874 504.664 60.6733 505.018 61.4318C505.371 62.1903 505.548 63.0852 505.548 64.1165C505.548 65.1562 505.371 66.0575 505.018 66.8203C504.664 67.5788 504.174 68.1669 503.548 68.5845C502.921 68.9979 502.199 69.2045 501.381 69.2045C500.75 69.2045 500.245 69.1001 499.866 68.8913C499.487 68.6783 499.195 68.4375 498.99 68.169C498.786 67.8963 498.628 67.6705 498.517 67.4915H498.389V72.6818H496.881ZM498.364 64.0909C498.364 64.8324 498.472 65.4865 498.69 66.0533C498.907 66.6158 499.224 67.0568 499.642 67.3764C500.06 67.6918 500.571 67.8494 501.176 67.8494C501.807 67.8494 502.333 67.6832 502.755 67.3509C503.181 67.0142 503.501 66.5625 503.714 65.9957C503.931 65.4247 504.04 64.7898 504.04 64.0909C504.04 63.4006 503.933 62.7784 503.72 62.2244C503.511 61.6662 503.194 61.2251 502.768 60.9013C502.346 60.5732 501.815 60.4091 501.176 60.4091C500.563 60.4091 500.047 60.5646 499.629 60.8757C499.212 61.1825 498.896 61.6129 498.683 62.1669C498.47 62.7166 498.364 63.358 498.364 64.0909ZM509.358 55.9091V69H507.849V55.9091H509.358ZM516.237 69.2045C515.291 69.2045 514.475 68.9957 513.789 68.5781C513.107 68.1562 512.581 67.5682 512.21 66.8139C511.844 66.0554 511.661 65.1733 511.661 64.1676C511.661 63.1619 511.844 62.2756 512.21 61.5085C512.581 60.7372 513.097 60.1364 513.757 59.706C514.422 59.2713 515.198 59.054 516.084 59.054C516.595 59.054 517.1 59.1392 517.599 59.3097C518.097 59.4801 518.551 59.7571 518.96 60.1406C519.369 60.5199 519.695 61.0227 519.938 61.6491C520.181 62.2756 520.303 63.0469 520.303 63.9631V64.6023H512.735V63.2983H518.769C518.769 62.7443 518.658 62.25 518.436 61.8153C518.219 61.3807 517.908 61.0376 517.503 60.7862C517.102 60.5348 516.629 60.4091 516.084 60.4091C515.483 60.4091 514.963 60.5582 514.524 60.8565C514.09 61.1506 513.755 61.5341 513.521 62.0071C513.286 62.4801 513.169 62.9872 513.169 63.5284V64.3977C513.169 65.1392 513.297 65.7678 513.553 66.2834C513.813 66.7947 514.173 67.1847 514.633 67.4531C515.093 67.7173 515.628 67.8494 516.237 67.8494C516.634 67.8494 516.992 67.794 517.311 67.6832C517.635 67.5682 517.914 67.3977 518.149 67.1719C518.383 66.9418 518.564 66.6562 518.692 66.3153L520.149 66.7244C519.996 67.2188 519.738 67.6534 519.376 68.0284C519.014 68.3991 518.566 68.6889 518.034 68.8977C517.501 69.1023 516.902 69.2045 516.237 69.2045ZM535.024 59.1818C534.947 58.5341 534.636 58.0312 534.09 57.6733C533.545 57.3153 532.876 57.1364 532.083 57.1364C531.504 57.1364 530.997 57.2301 530.562 57.4176C530.132 57.6051 529.795 57.8629 529.552 58.1911C529.313 58.5192 529.194 58.892 529.194 59.3097C529.194 59.6591 529.277 59.9595 529.443 60.2109C529.614 60.4581 529.831 60.6648 530.095 60.831C530.36 60.9929 530.637 61.1271 530.926 61.2337C531.216 61.3359 531.482 61.419 531.725 61.483L533.055 61.8409C533.396 61.9304 533.775 62.054 534.193 62.2116C534.615 62.3693 535.017 62.5845 535.401 62.8572C535.789 63.1257 536.108 63.4709 536.36 63.8928C536.611 64.3146 536.737 64.8324 536.737 65.446C536.737 66.1534 536.551 66.7926 536.181 67.3636C535.814 67.9347 535.277 68.3885 534.57 68.7251C533.867 69.0618 533.012 69.2301 532.007 69.2301C531.069 69.2301 530.257 69.0788 529.571 68.7763C528.889 68.4737 528.352 68.0518 527.96 67.5107C527.573 66.9695 527.353 66.3409 527.302 65.625H528.938C528.981 66.1193 529.147 66.5284 529.437 66.8523C529.731 67.1719 530.102 67.4105 530.549 67.5682C531.001 67.7216 531.487 67.7983 532.007 67.7983C532.612 67.7983 533.155 67.7003 533.637 67.5043C534.118 67.304 534.499 67.027 534.781 66.6733C535.062 66.3153 535.203 65.8977 535.203 65.4205C535.203 64.9858 535.081 64.6321 534.838 64.3594C534.595 64.0866 534.276 63.8651 533.879 63.6946C533.483 63.5241 533.055 63.375 532.595 63.2472L530.984 62.7869C529.961 62.4929 529.151 62.0732 528.555 61.5277C527.958 60.9822 527.66 60.2685 527.66 59.3864C527.66 58.6534 527.858 58.0142 528.254 57.4688C528.655 56.919 529.192 56.4929 529.865 56.1903C530.543 55.8835 531.299 55.7301 532.134 55.7301C532.978 55.7301 533.728 55.8814 534.384 56.1839C535.041 56.4822 535.561 56.8913 535.944 57.4112C536.332 57.9311 536.536 58.5213 536.558 59.1818H535.024ZM543.408 59.1818V60.4602H538.32V59.1818H543.408ZM539.803 56.8295H541.312V66.1875C541.312 66.6136 541.374 66.9332 541.497 67.1463C541.625 67.3551 541.787 67.4957 541.983 67.5682C542.183 67.6364 542.394 67.6705 542.616 67.6705C542.782 67.6705 542.918 67.6619 543.025 67.6449C543.131 67.6236 543.217 67.6065 543.281 67.5938L543.587 68.9489C543.485 68.9872 543.342 69.0256 543.159 69.0639C542.976 69.1065 542.744 69.1278 542.462 69.1278C542.036 69.1278 541.619 69.0362 541.21 68.853C540.805 68.6697 540.468 68.3906 540.2 68.0156C539.935 67.6406 539.803 67.1676 539.803 66.5966V56.8295ZM545.678 69V59.1818H547.135V60.6648H547.237C547.416 60.179 547.74 59.7848 548.209 59.4822C548.678 59.1797 549.206 59.0284 549.794 59.0284C549.905 59.0284 550.043 59.0305 550.21 59.0348C550.376 59.0391 550.501 59.0455 550.587 59.054V60.5881C550.536 60.5753 550.418 60.5561 550.235 60.5305C550.056 60.5007 549.866 60.4858 549.666 60.4858C549.189 60.4858 548.763 60.5859 548.388 60.7862C548.017 60.9822 547.723 61.255 547.506 61.6044C547.293 61.9496 547.186 62.3437 547.186 62.7869V69H545.678ZM558.562 64.9858V59.1818H560.071V69H558.562V67.3381H558.46C558.23 67.8366 557.872 68.2607 557.386 68.6101C556.9 68.9553 556.287 69.1278 555.545 69.1278C554.932 69.1278 554.386 68.9936 553.909 68.7251C553.432 68.4524 553.057 68.0433 552.784 67.4979C552.511 66.9482 552.375 66.2557 552.375 65.4205V59.1818H553.883V65.3182C553.883 66.0341 554.084 66.6051 554.484 67.0312C554.889 67.4574 555.405 67.6705 556.031 67.6705C556.406 67.6705 556.787 67.5746 557.175 67.3828C557.567 67.1911 557.895 66.897 558.16 66.5007C558.428 66.1044 558.562 65.5994 558.562 64.9858ZM566.822 69.2045C565.902 69.2045 565.109 68.9872 564.445 68.5526C563.78 68.1179 563.268 67.5192 562.911 66.7564C562.553 65.9936 562.374 65.1222 562.374 64.142C562.374 63.1449 562.557 62.2649 562.923 61.5021C563.294 60.7351 563.81 60.1364 564.47 59.706C565.135 59.2713 565.911 59.054 566.797 59.054C567.487 59.054 568.109 59.1818 568.663 59.4375C569.217 59.6932 569.671 60.0511 570.025 60.5114C570.379 60.9716 570.598 61.5085 570.683 62.1222H569.175C569.06 61.6747 568.804 61.2784 568.408 60.9332C568.016 60.5838 567.487 60.4091 566.822 60.4091C566.234 60.4091 565.719 60.5625 565.276 60.8693C564.837 61.1719 564.494 61.6001 564.246 62.1541C564.004 62.7038 563.882 63.3494 563.882 64.0909C563.882 64.8494 564.001 65.5099 564.24 66.0724C564.483 66.6349 564.824 67.0717 565.263 67.3828C565.706 67.6939 566.226 67.8494 566.822 67.8494C567.214 67.8494 567.57 67.7812 567.89 67.6449C568.21 67.5085 568.48 67.3125 568.702 67.0568C568.923 66.8011 569.081 66.4943 569.175 66.1364H570.683C570.598 66.7159 570.387 67.2379 570.05 67.7024C569.718 68.1626 569.277 68.5291 568.727 68.8018C568.182 69.0703 567.547 69.2045 566.822 69.2045ZM577.158 59.1818V60.4602H572.07V59.1818H577.158ZM573.553 56.8295H575.062V66.1875C575.062 66.6136 575.124 66.9332 575.247 67.1463C575.375 67.3551 575.537 67.4957 575.733 67.5682C575.933 67.6364 576.144 67.6705 576.366 67.6705C576.532 67.6705 576.668 67.6619 576.775 67.6449C576.881 67.6236 576.967 67.6065 577.031 67.5938L577.337 68.9489C577.235 68.9872 577.092 69.0256 576.909 69.0639C576.726 69.1065 576.494 69.1278 576.212 69.1278C575.786 69.1278 575.369 69.0362 574.96 68.853C574.555 68.6697 574.218 68.3906 573.95 68.0156C573.685 67.6406 573.553 67.1676 573.553 66.5966V56.8295ZM585.615 64.9858V59.1818H587.124V69H585.615V67.3381H585.513C585.283 67.8366 584.925 68.2607 584.439 68.6101C583.953 68.9553 583.339 69.1278 582.598 69.1278C581.984 69.1278 581.439 68.9936 580.962 68.7251C580.484 68.4524 580.109 68.0433 579.837 67.4979C579.564 66.9482 579.428 66.2557 579.428 65.4205V59.1818H580.936V65.3182C580.936 66.0341 581.136 66.6051 581.537 67.0312C581.942 67.4574 582.457 67.6705 583.084 67.6705C583.459 67.6705 583.84 67.5746 584.228 67.3828C584.62 67.1911 584.948 66.897 585.212 66.5007C585.481 66.1044 585.615 65.5994 585.615 64.9858ZM589.887 69V59.1818H591.344V60.6648H591.446C591.625 60.179 591.949 59.7848 592.418 59.4822C592.887 59.1797 593.415 59.0284 594.003 59.0284C594.114 59.0284 594.252 59.0305 594.419 59.0348C594.585 59.0391 594.71 59.0455 594.796 59.054V60.5881C594.744 60.5753 594.627 60.5561 594.444 60.5305C594.265 60.5007 594.075 60.4858 593.875 60.4858C593.398 60.4858 592.972 60.5859 592.597 60.7862C592.226 60.9822 591.932 61.255 591.715 61.6044C591.502 61.9496 591.395 62.3437 591.395 62.7869V69H589.887ZM600.401 69.2045C599.455 69.2045 598.639 68.9957 597.953 68.5781C597.271 68.1562 596.745 67.5682 596.374 66.8139C596.008 66.0554 595.825 65.1733 595.825 64.1676C595.825 63.1619 596.008 62.2756 596.374 61.5085C596.745 60.7372 597.261 60.1364 597.921 59.706C598.586 59.2713 599.362 59.054 600.248 59.054C600.759 59.054 601.264 59.1392 601.763 59.3097C602.262 59.4801 602.715 59.7571 603.124 60.1406C603.534 60.5199 603.86 61.0227 604.102 61.6491C604.345 62.2756 604.467 63.0469 604.467 63.9631V64.6023H596.899V63.2983H602.933C602.933 62.7443 602.822 62.25 602.6 61.8153C602.383 61.3807 602.072 61.0376 601.667 60.7862C601.267 60.5348 600.794 60.4091 600.248 60.4091C599.647 60.4091 599.127 60.5582 598.688 60.8565C598.254 61.1506 597.919 61.5341 597.685 62.0071C597.45 62.4801 597.333 62.9872 597.333 63.5284V64.3977C597.333 65.1392 597.461 65.7678 597.717 66.2834C597.977 66.7947 598.337 67.1847 598.797 67.4531C599.257 67.7173 599.792 67.8494 600.401 67.8494C600.798 67.8494 601.156 67.794 601.475 67.6832C601.799 67.5682 602.078 67.3977 602.313 67.1719C602.547 66.9418 602.728 66.6562 602.856 66.3153L604.313 66.7244C604.16 67.2188 603.902 67.6534 603.54 68.0284C603.178 68.3991 602.73 68.6889 602.198 68.8977C601.665 69.1023 601.066 69.2045 600.401 69.2045Z" fill="#5046E5"/>
</g>
<rect width="946" height="128" transform="translate(27 131)" fill="white"/>
<rect width="946" height="64" transform="translate(27 131)" fill="#5046E5"/>
<mask id="path-3-inside-1_1_5" fill="white">
<path d="M27 131H165V195H27V131Z"/>
</mask>
<path d="M27 195H26V196H27V195ZM165 195V194H27V195V196H165V195ZM27 195H28V131H27H26V195H27Z" fill="#101827" mask="url(#path-3-inside-1_1_5)"/>
<path d="M82.0094 158.609V156.909H92.1408V158.609H88.0563V170H86.0875V158.609H82.0094ZM96.3548 156.909V170H94.3796V156.909H96.3548ZM103.469 170H99.2312V156.909H103.603C104.886 156.909 105.988 157.171 106.908 157.695C107.828 158.215 108.534 158.963 109.024 159.939C109.518 160.911 109.765 162.076 109.765 163.435C109.765 164.799 109.516 165.971 109.017 166.951C108.523 167.931 107.807 168.685 106.87 169.214C105.932 169.738 104.799 170 103.469 170ZM101.206 168.274H103.36C104.358 168.274 105.186 168.087 105.847 167.712C106.507 167.332 107.002 166.785 107.33 166.069C107.658 165.349 107.822 164.471 107.822 163.435C107.822 162.408 107.658 161.537 107.33 160.821C107.006 160.105 106.522 159.562 105.879 159.191C105.235 158.82 104.436 158.635 103.482 158.635H101.206V168.274Z" fill="white"/>
<mask id="path-6-inside-2_1_5" fill="white">
<path d="M165 131H329V195H165V131Z"/>
</mask>
<path d="M165 195H164V196H165V195ZM329 195V194H165V195V196H329V195ZM165 195H166V131H165H164V195H165Z" fill="#101827" mask="url(#path-6-inside-2_1_5)"/>
<path d="M226.413 156.909L229.788 162.355H229.89L233.265 156.909H235.132L231.015 163.455L235.132 170H233.265L229.89 164.656H229.788L226.413 170H224.546L228.765 163.455L224.546 156.909H226.413ZM237.195 156.909H239.087L243.536 167.776H243.689L248.138 156.909H250.03V170H248.547V160.054H248.419L244.328 170H242.896L238.805 160.054H238.678V170H237.195V156.909ZM254.794 156.909V170H253.208V156.909H254.794ZM268.353 156.909V170H266.819L259.685 159.722H259.557V170H257.972V156.909H259.506L266.665 167.213H266.793V156.909H268.353Z" fill="white"/>
<mask id="path-9-inside-3_1_5" fill="white">
<path d="M329 131H791V195H329V131Z"/>
</mask>
<path d="M791 195V196H792V195H791ZM329 195H328V196H329V195ZM791 131H790V195H791H792V131H791ZM791 195V194H329V195V196H791V195ZM329 195H330V131H329H328V195H329Z" fill="#101827" mask="url(#path-9-inside-3_1_5)"/>
<path d="M526.084 163.455C526.084 164.835 525.835 166.028 525.336 167.034C524.837 168.04 524.153 168.815 523.284 169.361C522.415 169.906 521.422 170.179 520.305 170.179C519.189 170.179 518.196 169.906 517.327 169.361C516.457 168.815 515.773 168.04 515.275 167.034C514.776 166.028 514.527 164.835 514.527 163.455C514.527 162.074 514.776 160.881 515.275 159.875C515.773 158.869 516.457 158.094 517.327 157.548C518.196 157.003 519.189 156.73 520.305 156.73C521.422 156.73 522.415 157.003 523.284 157.548C524.153 158.094 524.837 158.869 525.336 159.875C525.835 160.881 526.084 162.074 526.084 163.455ZM524.55 163.455C524.55 162.321 524.36 161.364 523.981 160.585C523.606 159.805 523.097 159.214 522.453 158.814C521.814 158.413 521.098 158.213 520.305 158.213C519.513 158.213 518.795 158.413 518.151 158.814C517.512 159.214 517.003 159.805 516.624 160.585C516.249 161.364 516.061 162.321 516.061 163.455C516.061 164.588 516.249 165.545 516.624 166.325C517.003 167.104 517.512 167.695 518.151 168.095C518.795 168.496 519.513 168.696 520.305 168.696C521.098 168.696 521.814 168.496 522.453 168.095C523.097 167.695 523.606 167.104 523.981 166.325C524.36 165.545 524.55 164.588 524.55 163.455ZM532.815 160.182V161.46H527.727V160.182H532.815ZM529.21 157.83H530.718V167.188C530.718 167.614 530.78 167.933 530.903 168.146C531.031 168.355 531.193 168.496 531.389 168.568C531.589 168.636 531.8 168.67 532.022 168.67C532.188 168.67 532.325 168.662 532.431 168.645C532.538 168.624 532.623 168.607 532.687 168.594L532.994 169.949C532.891 169.987 532.749 170.026 532.565 170.064C532.382 170.107 532.15 170.128 531.869 170.128C531.442 170.128 531.025 170.036 530.616 169.853C530.211 169.67 529.874 169.391 529.606 169.016C529.342 168.641 529.21 168.168 529.21 167.597V157.83ZM536.803 164.094V170H535.295V156.909H536.803V161.716H536.931C537.161 161.209 537.506 160.806 537.967 160.508C538.431 160.205 539.049 160.054 539.82 160.054C540.489 160.054 541.075 160.188 541.578 160.457C542.081 160.721 542.471 161.128 542.748 161.678C543.029 162.223 543.17 162.918 543.17 163.761V170H541.661V163.864C541.661 163.084 541.459 162.481 541.054 162.055C540.653 161.624 540.097 161.409 539.386 161.409C538.891 161.409 538.448 161.513 538.056 161.722C537.668 161.931 537.362 162.236 537.136 162.636C536.914 163.037 536.803 163.523 536.803 164.094ZM550.046 170.205C549.1 170.205 548.284 169.996 547.598 169.578C546.916 169.156 546.39 168.568 546.019 167.814C545.653 167.055 545.469 166.173 545.469 165.168C545.469 164.162 545.653 163.276 546.019 162.509C546.39 161.737 546.905 161.136 547.566 160.706C548.231 160.271 549.006 160.054 549.893 160.054C550.404 160.054 550.909 160.139 551.407 160.31C551.906 160.48 552.36 160.757 552.769 161.141C553.178 161.52 553.504 162.023 553.747 162.649C553.99 163.276 554.111 164.047 554.111 164.963V165.602H546.543V164.298H552.577C552.577 163.744 552.466 163.25 552.245 162.815C552.028 162.381 551.716 162.038 551.312 161.786C550.911 161.535 550.438 161.409 549.893 161.409C549.292 161.409 548.772 161.558 548.333 161.857C547.898 162.151 547.564 162.534 547.329 163.007C547.095 163.48 546.978 163.987 546.978 164.528V165.398C546.978 166.139 547.106 166.768 547.361 167.283C547.621 167.795 547.981 168.185 548.442 168.453C548.902 168.717 549.437 168.849 550.046 168.849C550.442 168.849 550.8 168.794 551.12 168.683C551.444 168.568 551.723 168.398 551.957 168.172C552.192 167.942 552.373 167.656 552.501 167.315L553.958 167.724C553.805 168.219 553.547 168.653 553.184 169.028C552.822 169.399 552.375 169.689 551.842 169.898C551.309 170.102 550.711 170.205 550.046 170.205ZM556.406 170V160.182H557.863V161.665H557.966C558.145 161.179 558.469 160.785 558.937 160.482C559.406 160.18 559.934 160.028 560.523 160.028C560.633 160.028 560.772 160.031 560.938 160.035C561.104 160.039 561.23 160.045 561.315 160.054V161.588C561.264 161.575 561.147 161.556 560.964 161.531C560.785 161.501 560.595 161.486 560.395 161.486C559.917 161.486 559.491 161.586 559.116 161.786C558.746 161.982 558.452 162.255 558.234 162.604C558.021 162.95 557.915 163.344 557.915 163.787V170H556.406ZM572.41 170H568.37V156.909H572.589C573.859 156.909 574.946 157.171 575.849 157.695C576.752 158.215 577.445 158.963 577.926 159.939C578.408 160.911 578.649 162.074 578.649 163.429C578.649 164.793 578.406 165.967 577.92 166.951C577.434 167.931 576.727 168.685 575.798 169.214C574.869 169.738 573.74 170 572.41 170ZM569.956 168.594H572.308C573.39 168.594 574.287 168.385 574.999 167.967C575.711 167.55 576.241 166.955 576.591 166.184C576.94 165.413 577.115 164.494 577.115 163.429C577.115 162.372 576.942 161.462 576.597 160.7C576.252 159.933 575.736 159.344 575.05 158.935C574.364 158.522 573.51 158.315 572.487 158.315H569.956V168.594ZM583.993 170.23C583.37 170.23 582.806 170.113 582.299 169.879C581.792 169.64 581.389 169.297 581.091 168.849C580.792 168.398 580.643 167.852 580.643 167.213C580.643 166.651 580.754 166.195 580.975 165.845C581.197 165.491 581.493 165.214 581.864 165.014C582.235 164.814 582.644 164.665 583.091 164.567C583.543 164.464 583.997 164.384 584.453 164.324C585.049 164.247 585.533 164.19 585.904 164.151C586.279 164.109 586.551 164.038 586.722 163.94C586.897 163.842 586.984 163.672 586.984 163.429V163.378C586.984 162.747 586.811 162.257 586.466 161.908C586.125 161.558 585.608 161.384 584.913 161.384C584.193 161.384 583.628 161.541 583.219 161.857C582.81 162.172 582.522 162.509 582.356 162.866L580.924 162.355C581.18 161.759 581.521 161.294 581.947 160.962C582.377 160.625 582.846 160.391 583.353 160.259C583.865 160.122 584.368 160.054 584.862 160.054C585.177 160.054 585.539 160.092 585.949 160.169C586.362 160.241 586.76 160.393 587.144 160.623C587.532 160.853 587.853 161.2 588.109 161.665C588.365 162.129 588.493 162.751 588.493 163.531V170H586.984V168.67H586.907C586.805 168.884 586.635 169.112 586.396 169.354C586.157 169.597 585.84 169.804 585.444 169.974C585.047 170.145 584.564 170.23 583.993 170.23ZM584.223 168.875C584.819 168.875 585.322 168.758 585.731 168.523C586.145 168.289 586.456 167.987 586.664 167.616C586.877 167.245 586.984 166.855 586.984 166.446V165.065C586.92 165.142 586.779 165.212 586.562 165.276C586.349 165.336 586.102 165.389 585.821 165.436C585.544 165.479 585.273 165.517 585.009 165.551C584.749 165.581 584.538 165.607 584.376 165.628C583.984 165.679 583.618 165.762 583.277 165.877C582.94 165.988 582.667 166.156 582.458 166.382C582.254 166.604 582.152 166.906 582.152 167.29C582.152 167.814 582.346 168.21 582.733 168.479C583.125 168.743 583.622 168.875 584.223 168.875ZM595.516 160.182V161.46H590.428V160.182H595.516ZM591.911 157.83H593.419V167.188C593.419 167.614 593.481 167.933 593.605 168.146C593.732 168.355 593.894 168.496 594.09 168.568C594.291 168.636 594.502 168.67 594.723 168.67C594.889 168.67 595.026 168.662 595.132 168.645C595.239 168.624 595.324 168.607 595.388 168.594L595.695 169.949C595.593 169.987 595.45 170.026 595.267 170.064C595.083 170.107 594.851 170.128 594.57 170.128C594.144 170.128 593.726 170.036 593.317 169.853C592.912 169.67 592.575 169.391 592.307 169.016C592.043 168.641 591.911 168.168 591.911 167.597V157.83ZM600.674 170.23C600.052 170.23 599.487 170.113 598.98 169.879C598.473 169.64 598.07 169.297 597.772 168.849C597.474 168.398 597.325 167.852 597.325 167.213C597.325 166.651 597.436 166.195 597.657 165.845C597.879 165.491 598.175 165.214 598.546 165.014C598.916 164.814 599.325 164.665 599.773 164.567C600.225 164.464 600.678 164.384 601.134 164.324C601.731 164.247 602.215 164.19 602.585 164.151C602.96 164.109 603.233 164.038 603.404 163.94C603.578 163.842 603.666 163.672 603.666 163.429V163.378C603.666 162.747 603.493 162.257 603.148 161.908C602.807 161.558 602.289 161.384 601.595 161.384C600.874 161.384 600.31 161.541 599.901 161.857C599.492 162.172 599.204 162.509 599.038 162.866L597.606 162.355C597.862 161.759 598.203 161.294 598.629 160.962C599.059 160.625 599.528 160.391 600.035 160.259C600.546 160.122 601.049 160.054 601.544 160.054C601.859 160.054 602.221 160.092 602.63 160.169C603.044 160.241 603.442 160.393 603.825 160.623C604.213 160.853 604.535 161.2 604.791 161.665C605.046 162.129 605.174 162.751 605.174 163.531V170H603.666V168.67H603.589C603.487 168.884 603.316 169.112 603.078 169.354C602.839 169.597 602.521 169.804 602.125 169.974C601.729 170.145 601.245 170.23 600.674 170.23ZM600.904 168.875C601.501 168.875 602.004 168.758 602.413 168.523C602.826 168.289 603.137 167.987 603.346 167.616C603.559 167.245 603.666 166.855 603.666 166.446V165.065C603.602 165.142 603.461 165.212 603.244 165.276C603.031 165.336 602.784 165.389 602.502 165.436C602.225 165.479 601.955 165.517 601.691 165.551C601.431 165.581 601.22 165.607 601.058 165.628C600.666 165.679 600.299 165.762 599.958 165.877C599.622 165.988 599.349 166.156 599.14 166.382C598.936 166.604 598.833 166.906 598.833 167.29C598.833 167.814 599.027 168.21 599.415 168.479C599.807 168.743 600.303 168.875 600.904 168.875Z" fill="white"/>
<mask id="path-12-inside-4_1_5" fill="white">
<path d="M791 131H973V195H791V131Z"/>
</mask>
<path d="M973 195V196H974V195H973ZM791 195H790V196H791V195ZM973 131H972V195H973H974V131H973ZM973 195V194H791V195V196H973V195ZM791 195H792V131H791H790V195H791Z" fill="#101827" mask="url(#path-12-inside-4_1_5)"/>
<path d="M858.715 156.909L862.09 162.355H862.192L865.567 156.909H867.433L863.317 163.455L867.433 170H865.567L862.192 164.656H862.09L858.715 170H856.848L861.067 163.455L856.848 156.909H858.715ZM869.496 156.909H871.388L875.837 167.776H875.991L880.44 156.909H882.332V170H880.849V160.054H880.721L876.63 170H875.198L871.107 160.054H870.979V170H869.496V156.909ZM886.047 170H884.385L889.192 156.909H890.828L895.635 170H893.973L890.061 158.98H889.959L886.047 170ZM886.661 164.886H893.359V166.293H886.661V164.886ZM898.441 156.909L901.816 162.355H901.918L905.293 156.909H907.16L903.043 163.455L907.16 170H905.293L901.918 164.656H901.816L898.441 170H896.575L900.793 163.455L896.575 156.909H898.441Z" fill="white"/>
<mask id="path-15-inside-5_1_5" fill="white">
<path d="M27 195H165V259H27V195Z"/>
</mask>
<path d="M27 259H26V260H27V259ZM165 259V258H27V259V260H165V259ZM27 259H28V195H27H26V259H27Z" fill="#101827" mask="url(#path-15-inside-5_1_5)"/>
<path d="M86.5022 220.909V234H84.5207V222.891H84.444L81.3119 224.936V223.044L84.5782 220.909H86.5022ZM89.7686 231.443V229.845L95.4255 220.909H96.6847V223.261H95.8857L91.8396 229.666V229.768H99.5931V231.443H89.7686ZM95.9752 234V230.957L95.988 230.229V220.909H97.8609V234H95.9752ZM106.142 234.179C105.341 234.179 104.62 234.026 103.981 233.719C103.346 233.408 102.839 232.982 102.46 232.44C102.081 231.899 101.878 231.281 101.853 230.587H103.77C103.817 231.149 104.066 231.612 104.518 231.974C104.97 232.336 105.511 232.517 106.142 232.517C106.645 232.517 107.09 232.402 107.478 232.172C107.87 231.938 108.177 231.616 108.398 231.207C108.624 230.798 108.737 230.331 108.737 229.807C108.737 229.274 108.622 228.799 108.392 228.381C108.162 227.964 107.844 227.636 107.439 227.397C107.039 227.158 106.579 227.037 106.059 227.033C105.662 227.033 105.264 227.101 104.863 227.237C104.463 227.374 104.139 227.553 103.892 227.774L102.083 227.506L102.818 220.909H110.015V222.603H104.461L104.045 226.266H104.122C104.378 226.018 104.716 225.812 105.138 225.646C105.564 225.479 106.02 225.396 106.506 225.396C107.303 225.396 108.013 225.586 108.635 225.965C109.261 226.344 109.753 226.862 110.111 227.518C110.473 228.17 110.652 228.92 110.648 229.768C110.652 230.616 110.461 231.373 110.073 232.038C109.689 232.702 109.157 233.227 108.475 233.61C107.797 233.989 107.02 234.179 106.142 234.179Z" fill="#2D0F0A"/>
<mask id="path-18-inside-6_1_5" fill="white">
<path d="M165 195H329V259H165V195Z"/>
</mask>
<path d="M165 259H164V260H165V259ZM329 259V258H165V259V260H329V259ZM165 259H166V195H165H164V259H165Z" fill="#101827" mask="url(#path-18-inside-6_1_5)"/>
<path d="M231.793 220.909V234H230.208V222.571H230.131L226.935 224.693V223.082L230.208 220.909H231.793ZM239.828 234.179C238.865 234.179 238.045 233.917 237.367 233.393C236.69 232.864 236.172 232.099 235.814 231.098C235.456 230.092 235.277 228.878 235.277 227.455C235.277 226.04 235.456 224.832 235.814 223.83C236.176 222.825 236.696 222.058 237.374 221.529C238.055 220.996 238.874 220.73 239.828 220.73C240.783 220.73 241.599 220.996 242.276 221.529C242.958 222.058 243.478 222.825 243.836 223.83C244.198 224.832 244.379 226.04 244.379 227.455C244.379 228.878 244.2 230.092 243.842 231.098C243.484 232.099 242.967 232.864 242.289 233.393C241.612 233.917 240.791 234.179 239.828 234.179ZM239.828 232.773C240.783 232.773 241.524 232.312 242.053 231.392C242.581 230.472 242.845 229.159 242.845 227.455C242.845 226.321 242.724 225.356 242.481 224.559C242.242 223.762 241.897 223.155 241.445 222.737C240.998 222.32 240.459 222.111 239.828 222.111C238.882 222.111 238.143 222.577 237.61 223.511C237.077 224.44 236.811 225.754 236.811 227.455C236.811 228.588 236.93 229.551 237.169 230.344C237.408 231.136 237.751 231.739 238.198 232.153C238.65 232.566 239.193 232.773 239.828 232.773ZM251.078 234.179C250.115 234.179 249.295 233.917 248.617 233.393C247.94 232.864 247.422 232.099 247.064 231.098C246.706 230.092 246.527 228.878 246.527 227.455C246.527 226.04 246.706 224.832 247.064 223.83C247.426 222.825 247.946 222.058 248.624 221.529C249.305 220.996 250.124 220.73 251.078 220.73C252.033 220.73 252.849 220.996 253.526 221.529C254.208 222.058 254.728 222.825 255.086 223.83C255.448 224.832 255.629 226.04 255.629 227.455C255.629 228.878 255.45 230.092 255.092 231.098C254.734 232.099 254.217 232.864 253.539 233.393C252.862 233.917 252.041 234.179 251.078 234.179ZM251.078 232.773C252.033 232.773 252.774 232.312 253.303 231.392C253.831 230.472 254.095 229.159 254.095 227.455C254.095 226.321 253.974 225.356 253.731 224.559C253.492 223.762 253.147 223.155 252.695 222.737C252.248 222.32 251.709 222.111 251.078 222.111C250.132 222.111 249.393 222.577 248.86 223.511C248.327 224.44 248.061 225.754 248.061 227.455C248.061 228.588 248.18 229.551 248.419 230.344C248.658 231.136 249.001 231.739 249.448 232.153C249.9 232.566 250.443 232.773 251.078 232.773ZM262.482 234.179C261.638 234.179 260.886 234.034 260.225 233.744C259.569 233.455 259.047 233.052 258.659 232.536C258.276 232.016 258.067 231.413 258.033 230.727H259.643C259.678 231.149 259.822 231.513 260.078 231.82C260.334 232.123 260.668 232.357 261.082 232.523C261.495 232.69 261.953 232.773 262.456 232.773C263.018 232.773 263.517 232.675 263.952 232.479C264.386 232.283 264.727 232.01 264.974 231.661C265.222 231.311 265.345 230.906 265.345 230.446C265.345 229.964 265.226 229.54 264.987 229.174C264.749 228.803 264.399 228.513 263.939 228.305C263.479 228.096 262.916 227.991 262.251 227.991H261.203V226.585H262.251C262.771 226.585 263.227 226.491 263.619 226.304C264.016 226.116 264.325 225.852 264.546 225.511C264.772 225.17 264.885 224.77 264.885 224.31C264.885 223.866 264.787 223.481 264.591 223.153C264.395 222.825 264.118 222.569 263.76 222.386C263.406 222.202 262.989 222.111 262.507 222.111C262.055 222.111 261.629 222.194 261.229 222.36C260.832 222.522 260.509 222.759 260.257 223.07C260.006 223.376 259.869 223.747 259.848 224.182H258.314C258.339 223.496 258.546 222.895 258.934 222.379C259.322 221.859 259.829 221.455 260.455 221.165C261.086 220.875 261.778 220.73 262.533 220.73C263.342 220.73 264.037 220.894 264.616 221.222C265.196 221.546 265.641 221.974 265.952 222.507C266.263 223.04 266.419 223.615 266.419 224.233C266.419 224.97 266.225 225.599 265.837 226.119C265.454 226.638 264.932 226.999 264.271 227.199V227.301C265.098 227.437 265.744 227.789 266.208 228.356C266.673 228.918 266.905 229.615 266.905 230.446C266.905 231.158 266.711 231.797 266.323 232.364C265.94 232.926 265.415 233.369 264.751 233.693C264.086 234.017 263.33 234.179 262.482 234.179Z" fill="#2D0F0A"/>
<mask id="path-21-inside-7_1_5" fill="white">
<path d="M329 195H791V259H329V195Z"/>
</mask>
<path d="M329 259H328V260H329V259ZM791 259V258H329V259V260H791V259ZM329 259H330V195H329H328V259H329Z" fill="#101827" mask="url(#path-21-inside-7_1_5)"/>
<path d="M569 227.685V229.091H551V227.685H569Z" fill="#2D0F0A"/>
<mask id="path-24-inside-8_1_5" fill="white">
<path d="M791 195H973V259H791V195Z"/>
</mask>
<path d="M973 259V260H974V259H973ZM791 259H790V260H791V259ZM973 195H972V259H973H974V195H973ZM973 259V258H791V259V260H973V259ZM791 259H792V195H791H790V259H791Z" fill="#101827" mask="url(#path-24-inside-8_1_5)"/>
<path d="M867.048 220.909V234H865.463V222.571H865.386L862.19 224.693V223.082L865.463 220.909H867.048ZM875.083 234.179C874.12 234.179 873.3 233.917 872.622 233.393C871.945 232.864 871.427 232.099 871.069 231.098C870.711 230.092 870.532 228.878 870.532 227.455C870.532 226.04 870.711 224.832 871.069 223.83C871.431 222.825 871.951 222.058 872.628 221.529C873.31 220.996 874.128 220.73 875.083 220.73C876.038 220.73 876.854 220.996 877.531 221.529C878.213 222.058 878.733 222.825 879.091 223.83C879.453 224.832 879.634 226.04 879.634 227.455C879.634 228.878 879.455 230.092 879.097 231.098C878.739 232.099 878.222 232.864 877.544 233.393C876.866 233.917 876.046 234.179 875.083 234.179ZM875.083 232.773C876.038 232.773 876.779 232.312 877.307 231.392C877.836 230.472 878.1 229.159 878.1 227.455C878.1 226.321 877.979 225.356 877.736 224.559C877.497 223.762 877.152 223.155 876.7 222.737C876.253 222.32 875.714 222.111 875.083 222.111C874.137 222.111 873.398 222.577 872.865 223.511C872.332 224.44 872.066 225.754 872.066 227.455C872.066 228.588 872.185 229.551 872.424 230.344C872.663 231.136 873.006 231.739 873.453 232.153C873.905 232.566 874.448 232.773 875.083 232.773ZM886.333 234.179C885.37 234.179 884.55 233.917 883.872 233.393C883.195 232.864 882.677 232.099 882.319 231.098C881.961 230.092 881.782 228.878 881.782 227.455C881.782 226.04 881.961 224.832 882.319 223.83C882.681 222.825 883.201 222.058 883.878 221.529C884.56 220.996 885.378 220.73 886.333 220.73C887.288 220.73 888.104 220.996 888.781 221.529C889.463 222.058 889.983 222.825 890.341 223.83C890.703 224.832 890.884 226.04 890.884 227.455C890.884 228.878 890.705 230.092 890.347 231.098C889.989 232.099 889.472 232.864 888.794 233.393C888.116 233.917 887.296 234.179 886.333 234.179ZM886.333 232.773C887.288 232.773 888.029 232.312 888.557 231.392C889.086 230.472 889.35 229.159 889.35 227.455C889.35 226.321 889.229 225.356 888.986 224.559C888.747 223.762 888.402 223.155 887.95 222.737C887.503 222.32 886.964 222.111 886.333 222.111C885.387 222.111 884.648 222.577 884.115 223.511C883.582 224.44 883.316 225.754 883.316 227.455C883.316 228.588 883.435 229.551 883.674 230.344C883.913 231.136 884.256 231.739 884.703 232.153C885.155 232.566 885.698 232.773 886.333 232.773ZM897.404 234.179C896.654 234.179 895.979 234.03 895.378 233.732C894.777 233.433 894.295 233.024 893.933 232.504C893.571 231.984 893.373 231.392 893.339 230.727H894.873C894.932 231.32 895.201 231.81 895.678 232.197C896.16 232.581 896.735 232.773 897.404 232.773C897.941 232.773 898.418 232.647 898.836 232.396C899.258 232.144 899.588 231.799 899.827 231.36C900.07 230.917 900.191 230.416 900.191 229.858C900.191 229.287 900.065 228.778 899.814 228.33C899.567 227.879 899.226 227.523 898.791 227.263C898.356 227.003 897.86 226.871 897.302 226.866C896.901 226.862 896.49 226.924 896.068 227.052C895.646 227.175 895.299 227.335 895.026 227.531L893.543 227.352L894.336 220.909H901.137V222.315H895.665L895.205 226.176H895.282C895.55 225.963 895.887 225.786 896.292 225.646C896.697 225.505 897.119 225.435 897.557 225.435C898.359 225.435 899.072 225.626 899.699 226.01C900.329 226.389 900.824 226.909 901.182 227.57C901.544 228.23 901.725 228.984 901.725 229.832C901.725 230.668 901.538 231.413 901.163 232.07C900.792 232.722 900.28 233.237 899.628 233.616C898.976 233.991 898.235 234.179 897.404 234.179Z" fill="#2D0F0A"/>
<path d="M170.731 449.909V463H168.756V449.909H170.731ZM184.173 449.909V463H182.358L175.704 453.399H175.582V463H173.607V449.909H175.435L182.096 459.523H182.217V449.909H184.173ZM194.194 453.348C194.126 452.743 193.845 452.274 193.351 451.942C192.856 451.605 192.234 451.437 191.484 451.437C190.947 451.437 190.483 451.522 190.091 451.692C189.699 451.859 189.394 452.089 189.177 452.383C188.964 452.673 188.857 453.003 188.857 453.374C188.857 453.685 188.929 453.953 189.074 454.179C189.223 454.405 189.417 454.594 189.656 454.748C189.899 454.897 190.159 455.023 190.436 455.125C190.713 455.223 190.979 455.304 191.235 455.368L192.513 455.7C192.931 455.803 193.359 455.941 193.798 456.116C194.237 456.29 194.644 456.521 195.019 456.806C195.394 457.092 195.696 457.445 195.927 457.867C196.161 458.289 196.278 458.794 196.278 459.382C196.278 460.124 196.086 460.782 195.703 461.357C195.324 461.933 194.772 462.386 194.047 462.719C193.327 463.051 192.456 463.217 191.433 463.217C190.453 463.217 189.605 463.062 188.889 462.751C188.173 462.44 187.613 461.999 187.208 461.428C186.803 460.852 186.579 460.17 186.537 459.382H188.518C188.557 459.855 188.71 460.249 188.978 460.565C189.251 460.876 189.598 461.108 190.02 461.261C190.446 461.411 190.913 461.485 191.42 461.485C191.978 461.485 192.475 461.398 192.91 461.223C193.348 461.044 193.694 460.797 193.945 460.482C194.196 460.162 194.322 459.789 194.322 459.363C194.322 458.975 194.211 458.658 193.99 458.411C193.772 458.163 193.476 457.959 193.101 457.797C192.731 457.635 192.311 457.492 191.842 457.369L190.295 456.947C189.247 456.661 188.416 456.241 187.802 455.688C187.193 455.134 186.888 454.401 186.888 453.489C186.888 452.734 187.093 452.076 187.502 451.513C187.911 450.951 188.465 450.514 189.164 450.203C189.863 449.888 190.651 449.73 191.529 449.73C192.415 449.73 193.197 449.886 193.875 450.197C194.557 450.508 195.093 450.936 195.486 451.482C195.878 452.023 196.082 452.645 196.099 453.348H194.194ZM198.638 463V449.909H206.846V451.609H200.614V455.598H206.418V457.292H200.614V461.3H206.922V463H198.638ZM209.484 463V449.909H214.15C215.165 449.909 216.006 450.084 216.675 450.433C217.348 450.783 217.851 451.266 218.184 451.884C218.516 452.498 218.682 453.207 218.682 454.013C218.682 454.814 218.514 455.519 218.177 456.129C217.845 456.734 217.342 457.205 216.669 457.541C216 457.878 215.158 458.046 214.144 458.046H210.609V456.346H213.965C214.604 456.346 215.124 456.254 215.525 456.071C215.929 455.888 216.226 455.621 216.413 455.272C216.601 454.923 216.694 454.503 216.694 454.013C216.694 453.518 216.598 453.09 216.407 452.728C216.219 452.366 215.923 452.089 215.518 451.897C215.118 451.701 214.591 451.603 213.939 451.603H211.459V463H209.484ZM215.946 457.094L219.181 463H216.931L213.76 457.094H215.946ZM220.44 451.609V449.909H230.571V451.609H226.487V463H224.518V451.609H220.44ZM237.977 456.455C237.977 454.852 238.188 453.378 238.609 452.031C239.031 450.685 239.647 449.442 240.457 448.305H242.208C241.893 448.727 241.599 449.244 241.326 449.858C241.053 450.472 240.815 451.145 240.61 451.878C240.406 452.607 240.246 453.363 240.131 454.147C240.016 454.927 239.958 455.696 239.958 456.455C239.958 457.469 240.058 458.496 240.259 459.536C240.459 460.575 240.729 461.54 241.07 462.431C241.411 463.322 241.791 464.048 242.208 464.611H240.457C239.647 463.473 239.031 462.231 238.609 460.884C238.188 459.538 237.977 458.061 237.977 456.455ZM245.751 449.909L248.883 455.029H248.985L252.117 449.909H254.406L250.328 456.455L254.431 463H252.13L248.985 457.95H248.883L245.738 463H243.437L247.611 456.455L243.463 449.909H245.751ZM258.34 449.909V463H256.365V449.909H258.34ZM265.454 463H261.217V449.909H265.589C266.871 449.909 267.973 450.171 268.893 450.695C269.814 451.215 270.519 451.963 271.009 452.939C271.503 453.911 271.751 455.076 271.751 456.435C271.751 457.799 271.501 458.971 271.003 459.951C270.508 460.931 269.793 461.685 268.855 462.214C267.918 462.738 266.784 463 265.454 463ZM263.192 461.274H265.346C266.343 461.274 267.172 461.087 267.832 460.712C268.493 460.332 268.987 459.785 269.315 459.069C269.643 458.349 269.807 457.471 269.807 456.435C269.807 455.408 269.643 454.537 269.315 453.821C268.991 453.105 268.508 452.562 267.864 452.191C267.221 451.82 266.422 451.635 265.467 451.635H263.192V461.274ZM283.758 449.909V463H281.777V451.891H281.7L278.568 453.936V452.044L281.834 449.909H283.758ZM291.857 463.217C290.847 463.213 289.984 462.947 289.268 462.418C288.552 461.89 288.005 461.121 287.625 460.111C287.246 459.101 287.056 457.884 287.056 456.461C287.056 455.042 287.246 453.83 287.625 452.824C288.009 451.818 288.559 451.051 289.274 450.523C289.995 449.994 290.855 449.73 291.857 449.73C292.858 449.73 293.717 449.996 294.433 450.529C295.149 451.058 295.696 451.825 296.076 452.83C296.459 453.832 296.651 455.042 296.651 456.461C296.651 457.888 296.461 459.107 296.082 460.117C295.703 461.123 295.155 461.892 294.439 462.425C293.723 462.953 292.862 463.217 291.857 463.217ZM291.857 461.511C292.743 461.511 293.436 461.078 293.934 460.213C294.437 459.348 294.688 458.097 294.688 456.461C294.688 455.374 294.573 454.456 294.343 453.706C294.117 452.952 293.791 452.381 293.365 451.993C292.943 451.601 292.441 451.405 291.857 451.405C290.975 451.405 290.282 451.839 289.779 452.709C289.277 453.578 289.023 454.829 289.019 456.461C289.019 457.552 289.132 458.474 289.358 459.229C289.588 459.979 289.914 460.548 290.335 460.935C290.757 461.319 291.264 461.511 291.857 461.511ZM303.476 463.217C302.466 463.213 301.603 462.947 300.887 462.418C300.171 461.89 299.624 461.121 299.244 460.111C298.865 459.101 298.676 457.884 298.676 456.461C298.676 455.042 298.865 453.83 299.244 452.824C299.628 451.818 300.178 451.051 300.894 450.523C301.614 449.994 302.475 449.73 303.476 449.73C304.477 449.73 305.336 449.996 306.052 450.529C306.768 451.058 307.315 451.825 307.695 452.83C308.078 453.832 308.27 455.042 308.27 456.461C308.27 457.888 308.08 459.107 307.701 460.117C307.322 461.123 306.774 461.892 306.058 462.425C305.342 462.953 304.482 463.217 303.476 463.217ZM303.476 461.511C304.362 461.511 305.055 461.078 305.553 460.213C306.056 459.348 306.308 458.097 306.308 456.461C306.308 455.374 306.193 454.456 305.962 453.706C305.737 452.952 305.411 452.381 304.984 451.993C304.563 451.601 304.06 451.405 303.476 451.405C302.594 451.405 301.901 451.839 301.399 452.709C300.896 453.578 300.642 454.829 300.638 456.461C300.638 457.552 300.751 458.474 300.977 459.229C301.207 459.979 301.533 460.548 301.955 460.935C302.377 461.319 302.884 461.511 303.476 461.511ZM315.095 463.179C314.217 463.179 313.433 463.028 312.743 462.725C312.057 462.423 311.513 462.003 311.113 461.466C310.717 460.925 310.503 460.298 310.474 459.587H312.481C312.506 459.974 312.636 460.311 312.871 460.597C313.109 460.878 313.42 461.095 313.804 461.249C314.187 461.402 314.614 461.479 315.082 461.479C315.598 461.479 316.054 461.389 316.45 461.21C316.851 461.031 317.164 460.782 317.39 460.462C317.616 460.138 317.729 459.766 317.729 459.344C317.729 458.905 317.616 458.519 317.39 458.187C317.168 457.85 316.842 457.586 316.412 457.394C315.986 457.202 315.47 457.107 314.865 457.107H313.759V455.496H314.865C315.351 455.496 315.777 455.408 316.143 455.234C316.514 455.059 316.804 454.816 317.013 454.505C317.222 454.19 317.326 453.821 317.326 453.399C317.326 452.994 317.234 452.643 317.051 452.344C316.872 452.042 316.616 451.805 316.284 451.635C315.956 451.464 315.568 451.379 315.121 451.379C314.695 451.379 314.296 451.458 313.925 451.616C313.559 451.769 313.261 451.991 313.03 452.281C312.8 452.566 312.677 452.909 312.66 453.31H310.748C310.77 452.602 310.979 451.98 311.375 451.443C311.775 450.906 312.304 450.487 312.96 450.184C313.616 449.881 314.345 449.73 315.146 449.73C315.986 449.73 316.71 449.894 317.32 450.222C317.933 450.546 318.406 450.979 318.739 451.52C319.075 452.061 319.241 452.653 319.237 453.297C319.241 454.03 319.037 454.652 318.623 455.163C318.214 455.675 317.669 456.018 316.987 456.192V456.295C317.856 456.427 318.53 456.772 319.007 457.33C319.489 457.888 319.727 458.581 319.723 459.408C319.727 460.128 319.527 460.773 319.122 461.344C318.722 461.915 318.174 462.365 317.479 462.693C316.785 463.017 315.99 463.179 315.095 463.179ZM325.84 456.455C325.84 458.061 325.629 459.538 325.207 460.884C324.785 462.231 324.17 463.473 323.36 464.611H321.609C321.924 464.189 322.218 463.671 322.491 463.058C322.763 462.444 323.002 461.773 323.207 461.044C323.411 460.311 323.571 459.553 323.686 458.768C323.801 457.984 323.859 457.213 323.859 456.455C323.859 455.445 323.758 454.42 323.558 453.38C323.358 452.34 323.087 451.375 322.746 450.484C322.405 449.594 322.026 448.867 321.609 448.305H323.36C324.17 449.442 324.785 450.685 325.207 452.031C325.629 453.378 325.84 454.852 325.84 456.455Z" fill="#5046E5"/>
<path d="M248.707 273.293C248.317 272.902 247.683 272.902 247.293 273.293L240.929 279.657C240.538 280.047 240.538 280.681 240.929 281.071C241.319 281.462 241.953 281.462 242.343 281.071L248 275.414L253.657 281.071C254.047 281.462 254.681 281.462 255.071 281.071C255.462 280.681 255.462 280.047 255.071 279.657L248.707 273.293ZM248 437H249V274H248H247V437H248Z" fill="black"/>
<path d="M805.035 463H800.797V449.909H805.169C806.451 449.909 807.553 450.171 808.473 450.695C809.394 451.215 810.099 451.963 810.589 452.939C811.084 453.911 811.331 455.076 811.331 456.435C811.331 457.799 811.081 458.971 810.583 459.951C810.089 460.931 809.373 461.685 808.435 462.214C807.498 462.738 806.364 463 805.035 463ZM802.772 461.274H804.926C805.923 461.274 806.752 461.087 807.412 460.712C808.073 460.332 808.567 459.785 808.895 459.069C809.223 458.349 809.388 457.471 809.388 456.435C809.388 455.408 809.223 454.537 808.895 453.821C808.571 453.105 808.088 452.562 807.444 452.191C806.801 451.82 806.002 451.635 805.047 451.635H802.772V461.274ZM813.787 463V449.909H821.994V451.609H815.762V455.598H821.566V457.292H815.762V461.3H822.071V463H813.787ZM824.633 463V449.909H826.608V461.3H832.54V463H824.633ZM834.793 463V449.909H843V451.609H836.768V455.598H842.572V457.292H836.768V461.3H843.077V463H834.793ZM844.993 451.609V449.909H855.124V451.609H851.04V463H849.071V451.609H844.993ZM857.363 463V449.909H865.57V451.609H859.338V455.598H865.142V457.292H859.338V461.3H865.647V463H857.363ZM873.375 456.455C873.375 454.852 873.586 453.378 874.008 452.031C874.43 450.685 875.046 449.442 875.855 448.305H877.607C877.291 448.727 876.997 449.244 876.725 449.858C876.452 450.472 876.213 451.145 876.009 451.878C875.804 452.607 875.644 453.363 875.529 454.147C875.414 454.927 875.357 455.696 875.357 456.455C875.357 457.469 875.457 458.496 875.657 459.536C875.857 460.575 876.128 461.54 876.469 462.431C876.81 463.322 877.189 464.048 877.607 464.611H875.855C875.046 463.473 874.43 462.231 874.008 460.884C873.586 459.538 873.375 458.061 873.375 456.455ZM881.149 449.909L884.282 455.029H884.384L887.516 449.909H889.804L885.726 456.455L889.83 463H887.529L884.384 457.95H884.282L881.137 463H878.835L883.009 456.455L878.861 449.909H881.149ZM893.739 449.909V463H891.763V449.909H893.739ZM900.853 463H896.615V449.909H900.987C902.27 449.909 903.371 450.171 904.292 450.695C905.212 451.215 905.918 451.963 906.408 452.939C906.902 453.911 907.149 455.076 907.149 456.435C907.149 457.799 906.9 458.971 906.401 459.951C905.907 460.931 905.191 461.685 904.253 462.214C903.316 462.738 902.182 463 900.853 463ZM898.59 461.274H900.744C901.741 461.274 902.57 461.087 903.231 460.712C903.891 460.332 904.386 459.785 904.714 459.069C905.042 458.349 905.206 457.471 905.206 456.435C905.206 455.408 905.042 454.537 904.714 453.821C904.39 453.105 903.906 452.562 903.263 452.191C902.619 451.82 901.82 451.635 900.866 451.635H898.59V461.274ZM919.157 449.909V463H917.175V451.891H917.098L913.966 453.936V452.044L917.233 449.909H919.157ZM927.255 463.217C926.245 463.213 925.382 462.947 924.666 462.418C923.951 461.89 923.403 461.121 923.024 460.111C922.644 459.101 922.455 457.884 922.455 456.461C922.455 455.042 922.644 453.83 923.024 452.824C923.407 451.818 923.957 451.051 924.673 450.523C925.393 449.994 926.254 449.73 927.255 449.73C928.257 449.73 929.115 449.996 929.831 450.529C930.547 451.058 931.095 451.825 931.474 452.83C931.858 453.832 932.049 455.042 932.049 456.461C932.049 457.888 931.86 459.107 931.48 460.117C931.101 461.123 930.554 461.892 929.838 462.425C929.122 462.953 928.261 463.217 927.255 463.217ZM927.255 461.511C928.142 461.511 928.834 461.078 929.333 460.213C929.835 459.348 930.087 458.097 930.087 456.461C930.087 455.374 929.972 454.456 929.742 453.706C929.516 452.952 929.19 452.381 928.764 451.993C928.342 451.601 927.839 451.405 927.255 451.405C926.373 451.405 925.681 451.839 925.178 452.709C924.675 453.578 924.421 454.829 924.417 456.461C924.417 457.552 924.53 458.474 924.756 459.229C924.986 459.979 925.312 460.548 925.734 460.935C926.156 461.319 926.663 461.511 927.255 461.511ZM938.874 463.217C937.864 463.213 937.002 462.947 936.286 462.418C935.57 461.89 935.022 461.121 934.643 460.111C934.264 459.101 934.074 457.884 934.074 456.461C934.074 455.042 934.264 453.83 934.643 452.824C935.026 451.818 935.576 451.051 936.292 450.523C937.012 449.994 937.873 449.73 938.874 449.73C939.876 449.73 940.734 449.996 941.45 450.529C942.166 451.058 942.714 451.825 943.093 452.83C943.477 453.832 943.668 455.042 943.668 456.461C943.668 457.888 943.479 459.107 943.1 460.117C942.72 461.123 942.173 461.892 941.457 462.425C940.741 462.953 939.88 463.217 938.874 463.217ZM938.874 461.511C939.761 461.511 940.453 461.078 940.952 460.213C941.455 459.348 941.706 458.097 941.706 456.461C941.706 455.374 941.591 454.456 941.361 453.706C941.135 452.952 940.809 452.381 940.383 451.993C939.961 451.601 939.458 451.405 938.874 451.405C937.992 451.405 937.3 451.839 936.797 452.709C936.294 453.578 936.041 454.829 936.036 456.461C936.036 457.552 936.149 458.474 936.375 459.229C936.605 459.979 936.931 460.548 937.353 460.935C937.775 461.319 938.282 461.511 938.874 461.511ZM950.257 463.179C949.456 463.179 948.736 463.026 948.097 462.719C947.462 462.408 946.954 461.982 946.575 461.44C946.196 460.899 945.994 460.281 945.968 459.587H947.886C947.932 460.149 948.182 460.612 948.633 460.974C949.085 461.336 949.626 461.517 950.257 461.517C950.76 461.517 951.205 461.402 951.593 461.172C951.985 460.938 952.292 460.616 952.513 460.207C952.739 459.798 952.852 459.331 952.852 458.807C952.852 458.274 952.737 457.799 952.507 457.381C952.277 456.964 951.959 456.636 951.555 456.397C951.154 456.158 950.694 456.037 950.174 456.033C949.778 456.033 949.379 456.101 948.979 456.237C948.578 456.374 948.254 456.553 948.007 456.774L946.198 456.506L946.933 449.909H954.131V451.603H948.576L948.16 455.266H948.237C948.493 455.018 948.832 454.812 949.253 454.646C949.68 454.479 950.136 454.396 950.621 454.396C951.418 454.396 952.128 454.586 952.75 454.965C953.376 455.344 953.869 455.862 954.226 456.518C954.589 457.17 954.768 457.92 954.763 458.768C954.768 459.616 954.576 460.373 954.188 461.038C953.805 461.702 953.272 462.227 952.59 462.61C951.913 462.989 951.135 463.179 950.257 463.179ZM960.799 456.455C960.799 458.061 960.588 459.538 960.166 460.884C959.744 462.231 959.129 463.473 958.319 464.611H956.568C956.883 464.189 957.177 463.671 957.45 463.058C957.722 462.444 957.961 461.773 958.166 461.044C958.37 460.311 958.53 459.553 958.645 458.768C958.76 457.984 958.818 457.213 958.818 456.455C958.818 455.445 958.717 454.42 958.517 453.38C958.317 452.34 958.046 451.375 957.705 450.484C957.364 449.594 956.985 448.867 956.568 448.305H958.319C959.129 449.442 959.744 450.685 960.166 452.031C960.588 453.378 960.799 454.852 960.799 456.455Z" fill="#5046E5"/>
<path d="M882.707 273.293C882.317 272.902 881.683 272.902 881.293 273.293L874.929 279.657C874.538 280.047 874.538 280.681 874.929 281.071C875.319 281.462 875.953 281.462 876.343 281.071L882 275.414L887.657 281.071C888.047 281.462 888.681 281.462 889.071 281.071C889.462 280.681 889.462 280.047 889.071 279.657L882.707 273.293ZM882 437H883V274H882H881V437H882Z" fill="black"/>
<defs>
<filter id="filter0_d_1_5" x="360.5" y="35" width="279" height="54" filterUnits="userSpaceOnUse" color-interpolation-filters="sRGB">
<feFlood flood-opacity="0" result="BackgroundImageFix"/>
<feColorMatrix in="SourceAlpha" type="matrix" values="0 0 0 0 0 0 0 0 0 0 0 0 0 0 0 0 0 0 127 0" result="hardAlpha"/>
<feOffset/>
<feGaussianBlur stdDeviation="3"/>
<feComposite in2="hardAlpha" operator="out"/>
<feColorMatrix type="matrix" values="0 0 0 0 0 0 0 0 0 0 0 0 0 0 0 0 0 0 0.15 0"/>
<feBlend mode="normal" in2="BackgroundImageFix" result="effect1_dropShadow_1_5"/>
<feBlend mode="normal" in="SourceGraphic" in2="effect1_dropShadow_1_5" result="shape"/>
</filter>
</defs>
</svg>
