<svg width="817" height="472" viewBox="0 0 817 472" fill="none" xmlns="http://www.w3.org/2000/svg">
<g clip-path="url(#clip0_23_195)">
<rect width="817" height="472" fill="white"/>
<rect x="151.2" y="184.2" width="515.6" height="209.6" rx="18" fill="#A5B4FC" fill-opacity="0.2" stroke="#5046E5" stroke-width="2.4"/>
<rect width="420" height="24" transform="translate(200 97)" fill="#1E1B4B" fill-opacity="0.4"/>
<rect x="201" y="98" width="22" height="22" fill="#1E1B4B" fill-opacity="0.4" stroke="#1E1B4B" stroke-width="2"/>
<rect x="223" y="98" width="22" height="22" stroke="#1E1B4B" stroke-width="2"/>
<rect x="245" y="98" width="22" height="22" stroke="#1E1B4B" stroke-width="2"/>
<rect x="267" y="98" width="22" height="22" stroke="#1E1B4B" stroke-width="2"/>
<rect x="289" y="98" width="22" height="22" stroke="#1E1B4B" stroke-width="2"/>
<rect x="311" y="98" width="22" height="22" stroke="#1E1B4B" stroke-width="2"/>
<rect x="333" y="98" width="22" height="22" stroke="#1E1B4B" stroke-width="2"/>
<rect x="355" y="98" width="22" height="22" stroke="#1E1B4B" stroke-width="2"/>
<rect x="377" y="98" width="22" height="22" stroke="#1E1B4B" stroke-width="2"/>
<rect x="399" y="98" width="22" height="22" stroke="#1E1B4B" stroke-width="2"/>
<rect x="421" y="98" width="22" height="22" stroke="#1E1B4B" stroke-width="2"/>
<rect x="443" y="98" width="22" height="22" stroke="#1E1B4B" stroke-width="2"/>
<rect x="465" y="98" width="22" height="22" stroke="#1E1B4B" stroke-width="2"/>
<rect x="487" y="98" width="22" height="22" stroke="#1E1B4B" stroke-width="2"/>
<rect x="509" y="98" width="22" height="22" stroke="#1E1B4B" stroke-width="2"/>
<rect x="531" y="98" width="22" height="22" stroke="#1E1B4B" stroke-width="2"/>
<rect x="553" y="98" width="22" height="22" stroke="#1E1B4B" stroke-width="2"/>
<rect x="575" y="98" width="22" height="22" stroke="#1E1B4B" stroke-width="2"/>
<rect x="597" y="98" width="22" height="22" stroke="#1E1B4B" stroke-width="2"/>
<rect width="68" height="24" transform="translate(309 236)" fill="white"/>
<rect x="310" y="237" width="22" height="22" fill="#A5B4FC" fill-opacity="0.4" stroke="#4F46E5" stroke-width="2"/>
<rect x="332" y="237" width="22" height="22" fill="#A5B4FC" fill-opacity="0.4" stroke="#4F46E5" stroke-width="2"/>
<rect x="354" y="237" width="22" height="22" fill="#A5B4FC" fill-opacity="0.4" stroke="#4F46E5" stroke-width="2"/>
<rect width="68" height="24" transform="translate(186 236)" fill="white"/>
<rect x="187" y="237" width="22" height="22" fill="#A5B4FC" fill-opacity="0.4" stroke="#4F46E5" stroke-width="2"/>
<rect x="209" y="237" width="22" height="22" fill="#A5B4FC" fill-opacity="0.4" stroke="#4F46E5" stroke-width="2"/>
<rect x="231" y="237" width="22" height="22" fill="#A5B4FC" fill-opacity="0.4" stroke="#4F46E5" stroke-width="2"/>
<rect width="112" height="24" transform="translate(226 345)" fill="white"/>
<rect x="227" y="346" width="22" height="22" fill="#A5B4FC" fill-opacity="0.4" stroke="#4F46E5" stroke-width="2"/>
<rect x="249" y="346" width="22" height="22" fill="#A5B4FC" fill-opacity="0.4" stroke="#4F46E5" stroke-width="2"/>
<rect x="271" y="346" width="22" height="22" fill="#A5B4FC" fill-opacity="0.4" stroke="#4F46E5" stroke-width="2"/>
<rect x="293" y="346" width="22" height="22" fill="#A5B4FC" fill-opacity="0.4" stroke="#4F46E5" stroke-width="2"/>
<rect x="315" y="346" width="22" height="22" fill="#A5B4FC" fill-opacity="0.4" stroke="#4F46E5" stroke-width="2"/>
<path d="M357.344 69.9091H360.246L364.132 79.3949H364.286L368.172 69.9091H371.074V83H368.798V74.0064H368.677L365.059 82.9616H363.359L359.741 73.9872H359.619V83H357.344V69.9091ZM377.901 83.1918C376.916 83.1918 376.066 82.9872 375.35 82.5781C374.639 82.1648 374.091 81.581 373.708 80.8267C373.324 80.0682 373.132 79.1754 373.132 78.1484C373.132 77.1385 373.324 76.2521 373.708 75.4893C374.095 74.7223 374.637 74.1257 375.331 73.6996C376.026 73.2692 376.842 73.054 377.779 73.054C378.384 73.054 378.955 73.152 379.492 73.348C380.034 73.5398 380.511 73.8381 380.924 74.2429C381.342 74.6477 381.67 75.1634 381.909 75.7898C382.147 76.4119 382.267 77.1534 382.267 78.0142V78.7237H374.219V77.1641H380.048C380.044 76.7209 379.948 76.3267 379.761 75.9815C379.573 75.6321 379.311 75.3572 378.975 75.157C378.642 74.9567 378.254 74.8565 377.811 74.8565C377.338 74.8565 376.923 74.9716 376.565 75.2017C376.207 75.4276 375.928 75.7259 375.727 76.0966C375.531 76.4631 375.431 76.8658 375.427 77.3047V78.6662C375.427 79.2372 375.531 79.7273 375.74 80.1364C375.949 80.5412 376.241 80.8523 376.616 81.0696C376.991 81.2827 377.43 81.3892 377.933 81.3892C378.269 81.3892 378.574 81.3423 378.847 81.2486C379.119 81.1506 379.356 81.0078 379.556 80.8203C379.757 80.6328 379.908 80.4006 380.01 80.1236L382.171 80.3665C382.034 80.9375 381.774 81.4361 381.391 81.8622C381.012 82.2841 380.526 82.6122 379.933 82.8466C379.341 83.0767 378.664 83.1918 377.901 83.1918ZM384.224 83V73.1818H386.436V74.8501H386.551C386.755 74.2876 387.094 73.8487 387.567 73.5334C388.04 73.2138 388.605 73.054 389.261 73.054C389.926 73.054 390.486 73.2159 390.942 73.5398C391.402 73.8594 391.726 74.2962 391.914 74.8501H392.016C392.233 74.3047 392.6 73.87 393.115 73.5462C393.635 73.218 394.251 73.054 394.963 73.054C395.866 73.054 396.603 73.3395 397.174 73.9105C397.745 74.4815 398.031 75.3146 398.031 76.4098V83H395.711V76.7678C395.711 76.1584 395.549 75.7131 395.225 75.4318C394.901 75.1463 394.505 75.0036 394.036 75.0036C393.478 75.0036 393.041 75.1783 392.725 75.5277C392.414 75.8729 392.259 76.3224 392.259 76.8764V83H389.99V76.6719C389.99 76.1648 389.836 75.7599 389.529 75.4574C389.227 75.1548 388.831 75.0036 388.341 75.0036C388.008 75.0036 387.706 75.0888 387.433 75.2592C387.16 75.4254 386.943 75.6619 386.781 75.9688C386.619 76.2713 386.538 76.625 386.538 77.0298V83H384.224ZM399.079 71.897V69.9091H409.524V71.897H405.478V83H403.125V71.897H399.079ZM412.924 83.1982C412.302 83.1982 411.742 83.0874 411.243 82.8658C410.749 82.6399 410.357 82.3075 410.067 81.8686C409.782 81.4297 409.639 80.8885 409.639 80.245C409.639 79.6911 409.741 79.233 409.946 78.8707C410.15 78.5085 410.429 78.2188 410.783 78.0014C411.137 77.7841 411.535 77.62 411.978 77.5092C412.426 77.3942 412.888 77.3111 413.365 77.2599C413.941 77.2003 414.407 77.147 414.765 77.1001C415.123 77.049 415.383 76.9723 415.545 76.87C415.711 76.7635 415.794 76.5994 415.794 76.3778V76.3395C415.794 75.858 415.652 75.4851 415.366 75.2209C415.081 74.9567 414.669 74.8246 414.132 74.8246C413.566 74.8246 413.116 74.9482 412.784 75.1953C412.456 75.4425 412.234 75.7344 412.119 76.071L409.958 75.7642C410.129 75.1676 410.41 74.669 410.802 74.2685C411.194 73.8636 411.674 73.5611 412.24 73.3608C412.807 73.1562 413.434 73.054 414.12 73.054C414.593 73.054 415.064 73.1094 415.532 73.2202C416.001 73.331 416.429 73.5142 416.817 73.7699C417.205 74.0213 417.516 74.3643 417.75 74.799C417.989 75.2337 418.108 75.777 418.108 76.429V83H415.884V81.6513H415.807C415.667 81.924 415.468 82.1797 415.213 82.4183C414.961 82.6527 414.644 82.8423 414.26 82.9872C413.881 83.1278 413.436 83.1982 412.924 83.1982ZM413.525 81.4979C413.99 81.4979 414.392 81.4062 414.733 81.223C415.074 81.0355 415.336 80.7884 415.52 80.4815C415.707 80.1747 415.801 79.8402 415.801 79.478V78.321C415.728 78.3807 415.605 78.4361 415.43 78.4872C415.26 78.5384 415.068 78.5831 414.855 78.6214C414.642 78.6598 414.431 78.6939 414.222 78.7237C414.013 78.7536 413.832 78.7791 413.679 78.8004C413.333 78.8473 413.025 78.924 412.752 79.0305C412.479 79.1371 412.264 79.2862 412.106 79.478C411.949 79.6655 411.87 79.9084 411.87 80.2067C411.87 80.6328 412.025 80.9545 412.336 81.1719C412.647 81.3892 413.044 81.4979 413.525 81.4979ZM420.537 83V69.9091H422.851V74.8054H422.947C423.066 74.5668 423.235 74.3132 423.452 74.0447C423.669 73.772 423.963 73.5398 424.334 73.348C424.705 73.152 425.178 73.054 425.753 73.054C426.512 73.054 427.196 73.2479 427.805 73.6357C428.419 74.0192 428.904 74.5881 429.262 75.3423C429.625 76.0923 429.806 77.0128 429.806 78.1037C429.806 79.1818 429.629 80.098 429.275 80.8523C428.922 81.6065 428.44 82.1818 427.831 82.5781C427.221 82.9744 426.531 83.1726 425.76 83.1726C425.197 83.1726 424.73 83.0788 424.36 82.8913C423.989 82.7038 423.691 82.478 423.465 82.2138C423.243 81.9453 423.071 81.6918 422.947 81.4531H422.813V83H420.537ZM422.806 78.0909C422.806 78.7259 422.896 79.282 423.075 79.7592C423.258 80.2365 423.52 80.6094 423.861 80.8778C424.206 81.142 424.624 81.2741 425.114 81.2741C425.625 81.2741 426.054 81.1378 426.399 80.8651C426.744 80.5881 427.004 80.2109 427.179 79.7337C427.358 79.2521 427.447 78.7045 427.447 78.0909C427.447 77.4815 427.36 76.9403 427.185 76.4673C427.01 75.9943 426.75 75.6236 426.405 75.3551C426.06 75.0866 425.63 74.9524 425.114 74.9524C424.62 74.9524 424.2 75.0824 423.855 75.3423C423.51 75.6023 423.248 75.9666 423.069 76.4354C422.894 76.9041 422.806 77.456 422.806 78.0909ZM434.087 69.9091V83H431.773V69.9091H434.087ZM440.813 83.1918C439.828 83.1918 438.978 82.9872 438.262 82.5781C437.551 82.1648 437.003 81.581 436.62 80.8267C436.236 80.0682 436.044 79.1754 436.044 78.1484C436.044 77.1385 436.236 76.2521 436.62 75.4893C437.007 74.7223 437.549 74.1257 438.243 73.6996C438.938 73.2692 439.754 73.054 440.691 73.054C441.297 73.054 441.868 73.152 442.404 73.348C442.946 73.5398 443.423 73.8381 443.836 74.2429C444.254 74.6477 444.582 75.1634 444.821 75.7898C445.059 76.4119 445.179 77.1534 445.179 78.0142V78.7237H437.131V77.1641H442.961C442.956 76.7209 442.86 76.3267 442.673 75.9815C442.485 75.6321 442.223 75.3572 441.887 75.157C441.554 74.9567 441.167 74.8565 440.723 74.8565C440.25 74.8565 439.835 74.9716 439.477 75.2017C439.119 75.4276 438.84 75.7259 438.64 76.0966C438.444 76.4631 438.343 76.8658 438.339 77.3047V78.6662C438.339 79.2372 438.444 79.7273 438.652 80.1364C438.861 80.5412 439.153 80.8523 439.528 81.0696C439.903 81.2827 440.342 81.3892 440.845 81.3892C441.181 81.3892 441.486 81.3423 441.759 81.2486C442.032 81.1506 442.268 81.0078 442.468 80.8203C442.669 80.6328 442.82 80.4006 442.922 80.1236L445.083 80.3665C444.946 80.9375 444.686 81.4361 444.303 81.8622C443.924 82.2841 443.438 82.6122 442.846 82.8466C442.253 83.0767 441.576 83.1918 440.813 83.1918Z" fill="#1E1B4B"/>
<path d="M31.2366 116L27.542 102.909H30.0924L32.4511 112.529H32.5725L35.091 102.909H37.4113L39.9362 112.536H40.0512L42.4099 102.909H44.9603L41.2657 116H38.9262L36.3055 106.815H36.2032L33.5761 116H31.2366ZM45.8872 116V106.182H48.1308V107.818H48.233C48.412 107.251 48.7188 106.815 49.1535 106.508C49.5924 106.197 50.0931 106.041 50.6556 106.041C50.7835 106.041 50.9262 106.048 51.0839 106.06C51.2458 106.069 51.3801 106.084 51.4866 106.105V108.234C51.3886 108.2 51.233 108.17 51.02 108.144C50.8112 108.114 50.6088 108.099 50.4127 108.099C49.9909 108.099 49.6116 108.191 49.2749 108.374C48.9426 108.553 48.6805 108.803 48.4887 109.122C48.297 109.442 48.2011 109.81 48.2011 110.228V116H45.8872ZM53.0239 116V106.182H55.3378V116H53.0239ZM54.1872 104.788C53.8208 104.788 53.5054 104.667 53.2412 104.424C52.977 104.177 52.8449 103.881 52.8449 103.536C52.8449 103.186 52.977 102.89 53.2412 102.647C53.5054 102.4 53.8208 102.276 54.1872 102.276C54.558 102.276 54.8733 102.4 55.1333 102.647C55.3975 102.89 55.5296 103.186 55.5296 103.536C55.5296 103.881 55.3975 104.177 55.1333 104.424C54.8733 104.667 54.558 104.788 54.1872 104.788ZM62.6199 106.182V107.972H56.9758V106.182H62.6199ZM58.3692 103.83H60.6832V113.047C60.6832 113.358 60.73 113.597 60.8238 113.763C60.9218 113.925 61.0496 114.036 61.2073 114.095C61.365 114.155 61.5397 114.185 61.7314 114.185C61.8763 114.185 62.0084 114.174 62.1278 114.153C62.2513 114.131 62.3451 114.112 62.409 114.095L62.7989 115.904C62.6753 115.947 62.4985 115.994 62.2684 116.045C62.0425 116.096 61.7655 116.126 61.4374 116.134C60.8579 116.151 60.3358 116.064 59.8714 115.872C59.4069 115.676 59.0383 115.374 58.7655 114.964C58.4971 114.555 58.365 114.044 58.3692 113.43V103.83ZM68.7963 116.192C67.8119 116.192 66.9617 115.987 66.2458 115.578C65.5342 115.165 64.9866 114.581 64.6031 113.827C64.2195 113.068 64.0278 112.175 64.0278 111.148C64.0278 110.138 64.2195 109.252 64.6031 108.489C64.9909 107.722 65.532 107.126 66.2267 106.7C66.9213 106.269 67.7373 106.054 68.6748 106.054C69.2799 106.054 69.8509 106.152 70.3879 106.348C70.9291 106.54 71.4063 106.838 71.8197 107.243C72.2373 107.648 72.5654 108.163 72.8041 108.79C73.0427 109.412 73.162 110.153 73.162 111.014V111.724H65.1144V110.164H70.944C70.9397 109.721 70.8438 109.327 70.6563 108.982C70.4688 108.632 70.2068 108.357 69.8701 108.157C69.5377 107.957 69.1499 107.857 68.7068 107.857C68.2338 107.857 67.8183 107.972 67.4603 108.202C67.1024 108.428 66.8232 108.726 66.623 109.097C66.4269 109.463 66.3268 109.866 66.3225 110.305V111.666C66.3225 112.237 66.4269 112.727 66.6357 113.136C66.8445 113.541 67.1365 113.852 67.5115 114.07C67.8865 114.283 68.3254 114.389 68.8282 114.389C69.1649 114.389 69.4695 114.342 69.7423 114.249C70.015 114.151 70.2515 114.008 70.4518 113.82C70.6521 113.633 70.8034 113.401 70.9056 113.124L73.0661 113.366C72.9298 113.937 72.6698 114.436 72.2863 114.862C71.907 115.284 71.4213 115.612 70.8289 115.847C70.2366 116.077 69.559 116.192 68.7963 116.192ZM82.8795 108.777L80.7702 109.007C80.7105 108.794 80.6061 108.594 80.4569 108.406C80.3121 108.219 80.116 108.067 79.8689 107.952C79.6217 107.837 79.3192 107.78 78.9612 107.78C78.4797 107.78 78.0748 107.884 77.7467 108.093C77.4229 108.302 77.2631 108.572 77.2673 108.905C77.2631 109.19 77.3675 109.423 77.5805 109.602C77.7979 109.781 78.1558 109.928 78.6544 110.043L80.3291 110.401C81.2581 110.601 81.9484 110.918 82.4001 111.353C82.8561 111.788 83.0862 112.357 83.0905 113.06C83.0862 113.678 82.9051 114.223 82.5471 114.696C82.1934 115.165 81.7013 115.531 81.0706 115.795C80.4399 116.06 79.7155 116.192 78.8973 116.192C77.6956 116.192 76.7282 115.94 75.9953 115.438C75.2623 114.93 74.8256 114.225 74.6849 113.322L76.9413 113.104C77.0436 113.548 77.2609 113.882 77.5933 114.108C77.9257 114.334 78.3582 114.447 78.8909 114.447C79.4406 114.447 79.8817 114.334 80.214 114.108C80.5507 113.882 80.719 113.603 80.719 113.271C80.719 112.989 80.6104 112.757 80.393 112.574C80.18 112.391 79.8476 112.25 79.3959 112.152L77.7211 111.8C76.7794 111.604 76.0827 111.274 75.6309 110.81C75.1792 110.341 74.9555 109.749 74.9598 109.033C74.9555 108.428 75.1196 107.903 75.452 107.46C75.7886 107.013 76.2552 106.668 76.8518 106.425C77.4527 106.178 78.1452 106.054 78.9292 106.054C80.0798 106.054 80.9854 106.299 81.6459 106.789C82.3106 107.279 82.7219 107.942 82.8795 108.777Z" fill="#1E1B4B"/>
<path d="M451.737 159V145.909H460.123V147.897H454.108V151.451H459.548V153.439H454.108V159H451.737ZM464.495 145.909V159H462.181V145.909H464.495ZM473.132 154.871V149.182H475.446V159H473.203V157.255H473.1C472.879 157.805 472.514 158.254 472.007 158.604C471.504 158.953 470.884 159.128 470.147 159.128C469.504 159.128 468.935 158.985 468.441 158.7C467.95 158.41 467.567 157.99 467.29 157.44C467.013 156.886 466.874 156.217 466.874 155.433V149.182H469.188V155.075C469.188 155.697 469.359 156.192 469.7 156.558C470.041 156.925 470.488 157.108 471.042 157.108C471.383 157.108 471.713 157.025 472.033 156.859C472.352 156.692 472.615 156.445 472.819 156.117C473.028 155.785 473.132 155.369 473.132 154.871ZM485.586 151.777L483.476 152.007C483.417 151.794 483.312 151.594 483.163 151.406C483.018 151.219 482.822 151.067 482.575 150.952C482.328 150.837 482.025 150.78 481.667 150.78C481.186 150.78 480.781 150.884 480.453 151.093C480.129 151.302 479.969 151.572 479.973 151.905C479.969 152.19 480.074 152.423 480.287 152.602C480.504 152.781 480.862 152.928 481.36 153.043L483.035 153.401C483.964 153.601 484.654 153.918 485.106 154.353C485.562 154.788 485.792 155.357 485.797 156.06C485.792 156.678 485.611 157.223 485.253 157.696C484.9 158.165 484.407 158.531 483.777 158.795C483.146 159.06 482.422 159.192 481.603 159.192C480.402 159.192 479.434 158.94 478.701 158.438C477.968 157.93 477.532 157.225 477.391 156.322L479.647 156.104C479.75 156.548 479.967 156.882 480.299 157.108C480.632 157.334 481.064 157.447 481.597 157.447C482.147 157.447 482.588 157.334 482.92 157.108C483.257 156.882 483.425 156.603 483.425 156.271C483.425 155.989 483.316 155.757 483.099 155.574C482.886 155.391 482.554 155.25 482.102 155.152L480.427 154.8C479.485 154.604 478.789 154.274 478.337 153.81C477.885 153.341 477.662 152.749 477.666 152.033C477.662 151.428 477.826 150.903 478.158 150.46C478.495 150.013 478.961 149.668 479.558 149.425C480.159 149.178 480.851 149.054 481.635 149.054C482.786 149.054 483.691 149.299 484.352 149.789C485.017 150.279 485.428 150.942 485.586 151.777ZM490.018 153.247V159H487.705V145.909H489.967V150.85H490.082C490.313 150.296 490.668 149.859 491.15 149.54C491.636 149.216 492.254 149.054 493.004 149.054C493.685 149.054 494.28 149.197 494.787 149.482C495.294 149.768 495.686 150.185 495.963 150.735C496.244 151.285 496.385 151.956 496.385 152.749V159H494.071V153.107C494.071 152.446 493.901 151.933 493.56 151.566C493.223 151.195 492.75 151.01 492.141 151.01C491.732 151.01 491.365 151.099 491.041 151.278C490.722 151.453 490.47 151.707 490.287 152.039C490.108 152.371 490.018 152.774 490.018 153.247Z" fill="#4F46E5"/>
<path d="M182.485 206.508C182.425 205.95 182.174 205.515 181.73 205.204C181.291 204.893 180.72 204.737 180.017 204.737C179.523 204.737 179.099 204.812 178.745 204.961C178.392 205.11 178.121 205.312 177.934 205.568C177.746 205.824 177.65 206.116 177.646 206.444C177.646 206.717 177.708 206.953 177.831 207.153C177.959 207.354 178.132 207.524 178.349 207.665C178.566 207.801 178.807 207.916 179.071 208.01C179.335 208.104 179.602 208.183 179.87 208.246L181.098 208.553C181.592 208.668 182.067 208.824 182.523 209.02C182.983 209.216 183.394 209.463 183.757 209.761C184.123 210.06 184.413 210.42 184.626 210.842C184.839 211.263 184.946 211.758 184.946 212.325C184.946 213.092 184.75 213.767 184.358 214.351C183.965 214.93 183.399 215.384 182.657 215.712C181.92 216.036 181.027 216.198 179.979 216.198C178.96 216.198 178.076 216.04 177.326 215.725C176.581 215.41 175.997 214.95 175.575 214.344C175.157 213.739 174.931 213.002 174.897 212.133H177.23C177.264 212.589 177.405 212.968 177.652 213.271C177.899 213.573 178.221 213.799 178.617 213.948C179.018 214.097 179.465 214.172 179.96 214.172C180.475 214.172 180.927 214.095 181.315 213.942C181.707 213.784 182.014 213.567 182.235 213.29C182.457 213.009 182.57 212.68 182.574 212.305C182.57 211.964 182.47 211.683 182.274 211.462C182.078 211.236 181.803 211.048 181.449 210.899C181.1 210.746 180.691 210.609 180.222 210.49L178.733 210.107C177.654 209.83 176.802 209.41 176.176 208.847C175.554 208.281 175.242 207.528 175.242 206.591C175.242 205.82 175.451 205.144 175.869 204.565C176.291 203.985 176.864 203.536 177.588 203.216C178.313 202.892 179.133 202.73 180.049 202.73C180.978 202.73 181.792 202.892 182.491 203.216C183.194 203.536 183.746 203.981 184.147 204.552C184.547 205.119 184.754 205.771 184.767 206.508H182.485ZM194.174 206.508C194.114 205.95 193.863 205.515 193.42 205.204C192.981 204.893 192.41 204.737 191.707 204.737C191.212 204.737 190.788 204.812 190.435 204.961C190.081 205.11 189.81 205.312 189.623 205.568C189.435 205.824 189.34 206.116 189.335 206.444C189.335 206.717 189.397 206.953 189.521 207.153C189.649 207.354 189.821 207.524 190.038 207.665C190.256 207.801 190.497 207.916 190.761 208.01C191.025 208.104 191.291 208.183 191.56 208.246L192.787 208.553C193.281 208.668 193.756 208.824 194.212 209.02C194.673 209.216 195.084 209.463 195.446 209.761C195.813 210.06 196.102 210.42 196.315 210.842C196.528 211.263 196.635 211.758 196.635 212.325C196.635 213.092 196.439 213.767 196.047 214.351C195.655 214.93 195.088 215.384 194.347 215.712C193.609 216.036 192.717 216.198 191.668 216.198C190.65 216.198 189.766 216.04 189.016 215.725C188.27 215.41 187.686 214.95 187.264 214.344C186.847 213.739 186.621 213.002 186.587 212.133H188.92C188.954 212.589 189.095 212.968 189.342 213.271C189.589 213.573 189.911 213.799 190.307 213.948C190.707 214.097 191.155 214.172 191.649 214.172C192.165 214.172 192.617 214.095 193.004 213.942C193.396 213.784 193.703 213.567 193.925 213.29C194.146 213.009 194.259 212.68 194.264 212.305C194.259 211.964 194.159 211.683 193.963 211.462C193.767 211.236 193.492 211.048 193.139 210.899C192.789 210.746 192.38 210.609 191.911 210.49L190.422 210.107C189.344 209.83 188.492 209.41 187.865 208.847C187.243 208.281 186.932 207.528 186.932 206.591C186.932 205.82 187.141 205.144 187.558 204.565C187.98 203.985 188.553 203.536 189.278 203.216C190.002 202.892 190.823 202.73 191.739 202.73C192.668 202.73 193.482 202.892 194.18 203.216C194.884 203.536 195.435 203.981 195.836 204.552C196.237 205.119 196.443 205.771 196.456 206.508H194.174ZM198.174 204.897V202.909H208.619V204.897H204.572V216H202.22V204.897H198.174ZM212.019 216.198C211.397 216.198 210.837 216.087 210.338 215.866C209.844 215.64 209.452 215.308 209.162 214.869C208.876 214.43 208.734 213.888 208.734 213.245C208.734 212.691 208.836 212.233 209.04 211.871C209.245 211.509 209.524 211.219 209.878 211.001C210.231 210.784 210.63 210.62 211.073 210.509C211.521 210.394 211.983 210.311 212.46 210.26C213.035 210.2 213.502 210.147 213.86 210.1C214.218 210.049 214.478 209.972 214.64 209.87C214.806 209.763 214.889 209.599 214.889 209.378V209.339C214.889 208.858 214.746 208.485 214.461 208.221C214.175 207.957 213.764 207.825 213.227 207.825C212.66 207.825 212.211 207.948 211.878 208.195C211.55 208.442 211.329 208.734 211.214 209.071L209.053 208.764C209.224 208.168 209.505 207.669 209.897 207.268C210.289 206.864 210.768 206.561 211.335 206.361C211.902 206.156 212.528 206.054 213.214 206.054C213.687 206.054 214.158 206.109 214.627 206.22C215.096 206.331 215.524 206.514 215.912 206.77C216.3 207.021 216.611 207.364 216.845 207.799C217.084 208.234 217.203 208.777 217.203 209.429V216H214.979V214.651H214.902C214.761 214.924 214.563 215.18 214.307 215.418C214.056 215.653 213.739 215.842 213.355 215.987C212.976 216.128 212.53 216.198 212.019 216.198ZM212.62 214.498C213.084 214.498 213.487 214.406 213.828 214.223C214.169 214.036 214.431 213.788 214.614 213.482C214.802 213.175 214.896 212.84 214.896 212.478V211.321C214.823 211.381 214.699 211.436 214.525 211.487C214.354 211.538 214.163 211.583 213.949 211.621C213.736 211.66 213.525 211.694 213.317 211.724C213.108 211.754 212.927 211.779 212.773 211.8C212.428 211.847 212.119 211.924 211.847 212.031C211.574 212.137 211.359 212.286 211.201 212.478C211.043 212.665 210.964 212.908 210.964 213.207C210.964 213.633 211.12 213.955 211.431 214.172C211.742 214.389 212.138 214.498 212.62 214.498ZM219.632 216V202.909H221.946V207.805H222.042C222.161 207.567 222.329 207.313 222.547 207.045C222.764 206.772 223.058 206.54 223.429 206.348C223.8 206.152 224.273 206.054 224.848 206.054C225.606 206.054 226.29 206.248 226.9 206.636C227.513 207.019 227.999 207.588 228.357 208.342C228.719 209.092 228.9 210.013 228.9 211.104C228.9 212.182 228.724 213.098 228.37 213.852C228.016 214.607 227.535 215.182 226.925 215.578C226.316 215.974 225.626 216.173 224.854 216.173C224.292 216.173 223.825 216.079 223.454 215.891C223.084 215.704 222.785 215.478 222.56 215.214C222.338 214.945 222.165 214.692 222.042 214.453H221.908V216H219.632ZM221.901 211.091C221.901 211.726 221.991 212.282 222.17 212.759C222.353 213.237 222.615 213.609 222.956 213.878C223.301 214.142 223.719 214.274 224.209 214.274C224.72 214.274 225.148 214.138 225.494 213.865C225.839 213.588 226.099 213.211 226.273 212.734C226.452 212.252 226.542 211.705 226.542 211.091C226.542 210.482 226.454 209.94 226.28 209.467C226.105 208.994 225.845 208.624 225.5 208.355C225.155 208.087 224.724 207.952 224.209 207.952C223.714 207.952 223.295 208.082 222.949 208.342C222.604 208.602 222.342 208.967 222.163 209.435C221.989 209.904 221.901 210.456 221.901 211.091ZM233.182 202.909V216H230.868V202.909H233.182ZM239.908 216.192C238.923 216.192 238.073 215.987 237.357 215.578C236.646 215.165 236.098 214.581 235.714 213.827C235.331 213.068 235.139 212.175 235.139 211.148C235.139 210.138 235.331 209.252 235.714 208.489C236.102 207.722 236.643 207.126 237.338 206.7C238.033 206.269 238.849 206.054 239.786 206.054C240.391 206.054 240.962 206.152 241.499 206.348C242.04 206.54 242.518 206.838 242.931 207.243C243.349 207.648 243.677 208.163 243.915 208.79C244.154 209.412 244.273 210.153 244.273 211.014V211.724H236.226V210.164H242.055C242.051 209.721 241.955 209.327 241.768 208.982C241.58 208.632 241.318 208.357 240.981 208.157C240.649 207.957 240.261 207.857 239.818 207.857C239.345 207.857 238.93 207.972 238.572 208.202C238.214 208.428 237.935 208.726 237.734 209.097C237.538 209.463 237.438 209.866 237.434 210.305V211.666C237.434 212.237 237.538 212.727 237.747 213.136C237.956 213.541 238.248 213.852 238.623 214.07C238.998 214.283 239.437 214.389 239.94 214.389C240.276 214.389 240.581 214.342 240.854 214.249C241.126 214.151 241.363 214.008 241.563 213.82C241.763 213.633 241.915 213.401 242.017 213.124L244.177 213.366C244.041 213.937 243.781 214.436 243.398 214.862C243.018 215.284 242.533 215.612 241.94 215.847C241.348 216.077 240.67 216.192 239.908 216.192ZM253.991 208.777L251.881 209.007C251.822 208.794 251.717 208.594 251.568 208.406C251.423 208.219 251.227 208.067 250.98 207.952C250.733 207.837 250.43 207.78 250.073 207.78C249.591 207.78 249.186 207.884 248.858 208.093C248.534 208.302 248.374 208.572 248.379 208.905C248.374 209.19 248.479 209.423 248.692 209.602C248.909 209.781 249.267 209.928 249.766 210.043L251.44 210.401C252.369 210.601 253.06 210.918 253.511 211.353C253.967 211.788 254.198 212.357 254.202 213.06C254.198 213.678 254.016 214.223 253.658 214.696C253.305 215.165 252.813 215.531 252.182 215.795C251.551 216.06 250.827 216.192 250.009 216.192C248.807 216.192 247.84 215.94 247.107 215.438C246.374 214.93 245.937 214.225 245.796 213.322L248.053 213.104C248.155 213.548 248.372 213.882 248.705 214.108C249.037 214.334 249.47 214.447 250.002 214.447C250.552 214.447 250.993 214.334 251.325 214.108C251.662 213.882 251.83 213.603 251.83 213.271C251.83 212.989 251.722 212.757 251.504 212.574C251.291 212.391 250.959 212.25 250.507 212.152L248.832 211.8C247.891 211.604 247.194 211.274 246.742 210.81C246.291 210.341 246.067 209.749 246.071 209.033C246.067 208.428 246.231 207.903 246.563 207.46C246.9 207.013 247.367 206.668 247.963 206.425C248.564 206.178 249.256 206.054 250.041 206.054C251.191 206.054 252.097 206.299 252.757 206.789C253.422 207.279 253.833 207.942 253.991 208.777Z" fill="#4F46E5"/>
<path d="M472.47 228.53C472.763 228.823 473.237 228.823 473.53 228.53L478.303 223.757C478.596 223.464 478.596 222.99 478.303 222.697C478.01 222.404 477.536 222.404 477.243 222.697L473 226.939L468.757 222.697C468.464 222.404 467.99 222.404 467.697 222.697C467.404 222.99 467.404 223.464 467.697 223.757L472.47 228.53ZM473 228H473.75V168H473H472.25V228H473Z" fill="#5046E5"/>
<path d="M473 139.042V127" stroke="#5046E5" stroke-width="1.5"/>
<path d="M241.542 304.326H239.152C239.084 303.934 238.958 303.587 238.775 303.284C238.591 302.977 238.363 302.717 238.091 302.504C237.818 302.291 237.507 302.131 237.157 302.025C236.812 301.914 236.439 301.859 236.039 301.859C235.327 301.859 234.696 302.038 234.147 302.396C233.597 302.749 233.167 303.269 232.856 303.955C232.544 304.637 232.389 305.47 232.389 306.455C232.389 307.456 232.544 308.3 232.856 308.986C233.171 309.668 233.601 310.183 234.147 310.533C234.696 310.878 235.325 311.05 236.032 311.05C236.424 311.05 236.791 310.999 237.132 310.897C237.477 310.79 237.786 310.635 238.059 310.43C238.336 310.226 238.568 309.974 238.755 309.676C238.947 309.378 239.079 309.037 239.152 308.653L241.542 308.666C241.453 309.288 241.259 309.872 240.961 310.418C240.667 310.963 240.281 311.445 239.804 311.862C239.326 312.276 238.768 312.599 238.129 312.834C237.49 313.064 236.78 313.179 236 313.179C234.85 313.179 233.823 312.913 232.919 312.38C232.016 311.847 231.304 311.078 230.785 310.072C230.265 309.067 230.005 307.861 230.005 306.455C230.005 305.044 230.267 303.838 230.791 302.837C231.315 301.831 232.029 301.062 232.932 300.529C233.836 299.996 234.858 299.73 236 299.73C236.729 299.73 237.407 299.832 238.033 300.037C238.66 300.241 239.218 300.542 239.708 300.938C240.198 301.33 240.601 301.812 240.916 302.383C241.236 302.95 241.444 303.597 241.542 304.326ZM247.894 313.192C246.936 313.192 246.105 312.981 245.402 312.559C244.698 312.137 244.153 311.547 243.765 310.788C243.382 310.03 243.19 309.143 243.19 308.129C243.19 307.115 243.382 306.227 243.765 305.464C244.153 304.701 244.698 304.109 245.402 303.687C246.105 303.265 246.936 303.054 247.894 303.054C248.853 303.054 249.684 303.265 250.387 303.687C251.09 304.109 251.634 304.701 252.017 305.464C252.405 306.227 252.599 307.115 252.599 308.129C252.599 309.143 252.405 310.03 252.017 310.788C251.634 311.547 251.09 312.137 250.387 312.559C249.684 312.981 248.853 313.192 247.894 313.192ZM247.907 311.338C248.427 311.338 248.862 311.195 249.211 310.91C249.561 310.62 249.821 310.232 249.991 309.746C250.166 309.261 250.253 308.719 250.253 308.123C250.253 307.522 250.166 306.979 249.991 306.493C249.821 306.003 249.561 305.613 249.211 305.323C248.862 305.033 248.427 304.888 247.907 304.888C247.375 304.888 246.931 305.033 246.578 305.323C246.228 305.613 245.966 306.003 245.791 306.493C245.621 306.979 245.536 307.522 245.536 308.123C245.536 308.719 245.621 309.261 245.791 309.746C245.966 310.232 246.228 310.62 246.578 310.91C246.931 311.195 247.375 311.338 247.907 311.338ZM254.563 313V303.182H256.775V304.85H256.89C257.094 304.288 257.433 303.849 257.906 303.533C258.379 303.214 258.944 303.054 259.6 303.054C260.265 303.054 260.825 303.216 261.281 303.54C261.741 303.859 262.065 304.296 262.253 304.85H262.355C262.572 304.305 262.939 303.87 263.454 303.546C263.974 303.218 264.59 303.054 265.302 303.054C266.205 303.054 266.942 303.339 267.513 303.911C268.084 304.482 268.37 305.315 268.37 306.41V313H266.049V306.768C266.049 306.158 265.888 305.713 265.564 305.432C265.24 305.146 264.843 305.004 264.375 305.004C263.816 305.004 263.38 305.178 263.064 305.528C262.753 305.873 262.598 306.322 262.598 306.876V313H260.329V306.672C260.329 306.165 260.175 305.76 259.868 305.457C259.566 305.155 259.169 305.004 258.679 305.004C258.347 305.004 258.044 305.089 257.772 305.259C257.499 305.425 257.282 305.662 257.12 305.969C256.958 306.271 256.877 306.625 256.877 307.03V313H254.563ZM270.717 316.682V303.182H272.993V304.805H273.127C273.246 304.567 273.415 304.313 273.632 304.045C273.849 303.772 274.143 303.54 274.514 303.348C274.885 303.152 275.358 303.054 275.933 303.054C276.692 303.054 277.376 303.248 277.985 303.636C278.599 304.019 279.084 304.588 279.442 305.342C279.805 306.092 279.986 307.013 279.986 308.104C279.986 309.182 279.809 310.098 279.455 310.852C279.101 311.607 278.62 312.182 278.011 312.578C277.401 312.974 276.711 313.173 275.94 313.173C275.377 313.173 274.91 313.079 274.54 312.891C274.169 312.704 273.871 312.478 273.645 312.214C273.423 311.945 273.251 311.692 273.127 311.453H273.031V316.682H270.717ZM272.986 308.091C272.986 308.726 273.076 309.282 273.255 309.759C273.438 310.237 273.7 310.609 274.041 310.878C274.386 311.142 274.804 311.274 275.294 311.274C275.805 311.274 276.234 311.138 276.579 310.865C276.924 310.588 277.184 310.211 277.359 309.734C277.538 309.252 277.627 308.705 277.627 308.091C277.627 307.482 277.54 306.94 277.365 306.467C277.19 305.994 276.93 305.624 276.585 305.355C276.24 305.087 275.81 304.952 275.294 304.952C274.8 304.952 274.38 305.082 274.035 305.342C273.69 305.602 273.427 305.967 273.248 306.435C273.074 306.904 272.986 307.456 272.986 308.091ZM284.793 313.198C284.17 313.198 283.61 313.087 283.111 312.866C282.617 312.64 282.225 312.308 281.935 311.869C281.65 311.43 281.507 310.888 281.507 310.245C281.507 309.691 281.609 309.233 281.814 308.871C282.018 308.509 282.297 308.219 282.651 308.001C283.005 307.784 283.403 307.62 283.847 307.509C284.294 307.394 284.756 307.311 285.234 307.26C285.809 307.2 286.275 307.147 286.633 307.1C286.991 307.049 287.251 306.972 287.413 306.87C287.579 306.763 287.663 306.599 287.663 306.378V306.339C287.663 305.858 287.52 305.485 287.234 305.221C286.949 304.957 286.538 304.825 286.001 304.825C285.434 304.825 284.984 304.948 284.652 305.195C284.324 305.442 284.102 305.734 283.987 306.071L281.827 305.764C281.997 305.168 282.278 304.669 282.67 304.268C283.062 303.864 283.542 303.561 284.109 303.361C284.675 303.156 285.302 303.054 285.988 303.054C286.461 303.054 286.932 303.109 287.4 303.22C287.869 303.331 288.297 303.514 288.685 303.77C289.073 304.021 289.384 304.364 289.619 304.799C289.857 305.234 289.976 305.777 289.976 306.429V313H287.752V311.651H287.675C287.535 311.924 287.337 312.18 287.081 312.418C286.829 312.653 286.512 312.842 286.128 312.987C285.749 313.128 285.304 313.198 284.793 313.198ZM285.393 311.498C285.858 311.498 286.261 311.406 286.601 311.223C286.942 311.036 287.204 310.788 287.388 310.482C287.575 310.175 287.669 309.84 287.669 309.478V308.321C287.597 308.381 287.473 308.436 287.298 308.487C287.128 308.538 286.936 308.583 286.723 308.621C286.51 308.66 286.299 308.694 286.09 308.724C285.881 308.754 285.7 308.779 285.547 308.8C285.202 308.847 284.893 308.924 284.62 309.031C284.347 309.137 284.132 309.286 283.974 309.478C283.817 309.665 283.738 309.908 283.738 310.207C283.738 310.633 283.893 310.955 284.204 311.172C284.516 311.389 284.912 311.498 285.393 311.498ZM296.586 313.192C295.606 313.192 294.764 312.977 294.061 312.546C293.362 312.116 292.823 311.521 292.444 310.763C292.069 310 291.881 309.122 291.881 308.129C291.881 307.132 292.073 306.252 292.457 305.489C292.84 304.722 293.381 304.126 294.08 303.7C294.783 303.269 295.614 303.054 296.573 303.054C297.37 303.054 298.075 303.201 298.689 303.495C299.307 303.785 299.799 304.196 300.165 304.729C300.532 305.257 300.741 305.875 300.792 306.582H298.58C298.491 306.109 298.278 305.715 297.941 305.4C297.609 305.08 297.163 304.92 296.605 304.92C296.132 304.92 295.717 305.048 295.359 305.304C295.001 305.555 294.722 305.918 294.521 306.391C294.325 306.864 294.227 307.43 294.227 308.091C294.227 308.76 294.325 309.335 294.521 309.817C294.717 310.294 294.992 310.663 295.346 310.923C295.704 311.178 296.123 311.306 296.605 311.306C296.946 311.306 297.251 311.242 297.519 311.114C297.792 310.982 298.02 310.793 298.203 310.545C298.386 310.298 298.512 309.998 298.58 309.644H300.792C300.736 310.339 300.532 310.955 300.178 311.491C299.824 312.024 299.343 312.442 298.734 312.744C298.124 313.043 297.408 313.192 296.586 313.192ZM307.595 303.182V304.972H301.95V303.182H307.595ZM303.344 300.83H305.658V310.047C305.658 310.358 305.705 310.597 305.798 310.763C305.896 310.925 306.024 311.036 306.182 311.095C306.34 311.155 306.514 311.185 306.706 311.185C306.851 311.185 306.983 311.174 307.102 311.153C307.226 311.131 307.32 311.112 307.384 311.095L307.774 312.904C307.65 312.947 307.473 312.994 307.243 313.045C307.017 313.096 306.74 313.126 306.412 313.134C305.832 313.151 305.31 313.064 304.846 312.872C304.381 312.676 304.013 312.374 303.74 311.964C303.472 311.555 303.34 311.044 303.344 310.43V300.83ZM309.53 313V303.182H311.844V313H309.53ZM310.693 301.788C310.327 301.788 310.011 301.667 309.747 301.424C309.483 301.177 309.351 300.881 309.351 300.536C309.351 300.186 309.483 299.89 309.747 299.647C310.011 299.4 310.327 299.276 310.693 299.276C311.064 299.276 311.379 299.4 311.639 299.647C311.903 299.89 312.035 300.186 312.035 300.536C312.035 300.881 311.903 301.177 311.639 301.424C311.379 301.667 311.064 301.788 310.693 301.788ZM318.506 313.192C317.547 313.192 316.716 312.981 316.013 312.559C315.31 312.137 314.764 311.547 314.377 310.788C313.993 310.03 313.801 309.143 313.801 308.129C313.801 307.115 313.993 306.227 314.377 305.464C314.764 304.701 315.31 304.109 316.013 303.687C316.716 303.265 317.547 303.054 318.506 303.054C319.465 303.054 320.296 303.265 320.999 303.687C321.702 304.109 322.245 304.701 322.629 305.464C323.016 306.227 323.21 307.115 323.21 308.129C323.21 309.143 323.016 310.03 322.629 310.788C322.245 311.547 321.702 312.137 320.999 312.559C320.296 312.981 319.465 313.192 318.506 313.192ZM318.519 311.338C319.038 311.338 319.473 311.195 319.823 310.91C320.172 310.62 320.432 310.232 320.602 309.746C320.777 309.261 320.864 308.719 320.864 308.123C320.864 307.522 320.777 306.979 320.602 306.493C320.432 306.003 320.172 305.613 319.823 305.323C319.473 305.033 319.038 304.888 318.519 304.888C317.986 304.888 317.543 305.033 317.189 305.323C316.84 305.613 316.578 306.003 316.403 306.493C316.232 306.979 316.147 307.522 316.147 308.123C316.147 308.719 316.232 309.261 316.403 309.746C316.578 310.232 316.84 310.62 317.189 310.91C317.543 311.195 317.986 311.338 318.519 311.338ZM327.488 307.247V313H325.174V303.182H327.386V304.85H327.501C327.727 304.3 328.087 303.864 328.581 303.54C329.08 303.216 329.696 303.054 330.429 303.054C331.106 303.054 331.696 303.199 332.199 303.489C332.706 303.778 333.098 304.198 333.375 304.748C333.657 305.298 333.795 305.964 333.791 306.749V313H331.477V307.107C331.477 306.45 331.306 305.937 330.965 305.566C330.629 305.195 330.162 305.01 329.566 305.01C329.161 305.01 328.801 305.099 328.485 305.278C328.174 305.453 327.929 305.707 327.75 306.039C327.576 306.371 327.488 306.774 327.488 307.247Z" fill="#4F46E5"/>
<path d="M281.47 337.53C281.763 337.823 282.237 337.823 282.53 337.53L287.303 332.757C287.596 332.464 287.596 331.99 287.303 331.697C287.01 331.404 286.536 331.404 286.243 331.697L282 335.939L277.757 331.697C277.464 331.404 276.99 331.404 276.697 331.697C276.404 331.99 276.404 332.464 276.697 332.757L281.47 337.53ZM282 337H282.75V322H282H281.25V337H282Z" fill="#5046E5"/>
<path d="M323 267V276H281.251H240V267" stroke="#5046E5" stroke-width="1.5"/>
<path d="M282 295V284.972V276" stroke="#5046E5" stroke-width="1.5"/>
<path d="M576 267V276H534.251H493V267" stroke="#5046E5" stroke-width="1.5"/>
<path d="M535 295V284.972V276" stroke="#5046E5" stroke-width="1.5"/>
<path d="M186.53 109.53C186.823 109.237 186.823 108.763 186.53 108.47L181.757 103.697C181.464 103.404 180.99 103.404 180.697 103.697C180.404 103.99 180.404 104.464 180.697 104.757L184.939 109L180.697 113.243C180.404 113.536 180.404 114.01 180.697 114.303C180.99 114.596 181.464 114.596 181.757 114.303L186.53 109.53ZM98 109V109.75H186V109V108.25H98V109Z" fill="black"/>
<rect width="68" height="24" transform="translate(562 236)" fill="white"/>
<rect x="563" y="237" width="22" height="22" fill="#A5B4FC" fill-opacity="0.4" stroke="#4F46E5" stroke-width="2"/>
<rect x="585" y="237" width="22" height="22" fill="#A5B4FC" fill-opacity="0.4" stroke="#4F46E5" stroke-width="2"/>
<rect x="607" y="237" width="22" height="22" fill="#A5B4FC" fill-opacity="0.4" stroke="#4F46E5" stroke-width="2"/>
<rect width="68" height="24" transform="translate(439 236)" fill="white"/>
<rect x="440" y="237" width="22" height="22" fill="#1E1B4B" fill-opacity="0.4" stroke="#1E1B4B" stroke-width="2"/>
<rect x="462" y="237" width="22" height="22" fill="#1E1B4B" fill-opacity="0.4" stroke="#1E1B4B" stroke-width="2"/>
<rect x="484" y="237" width="22" height="22" fill="#1E1B4B" fill-opacity="0.4" stroke="#1E1B4B" stroke-width="2"/>
<rect width="112" height="24" transform="translate(479 345)" fill="white"/>
<rect x="480" y="346" width="22" height="22" fill="#A5B4FC" fill-opacity="0.4" stroke="#4F46E5" stroke-width="2"/>
<rect x="502" y="346" width="22" height="22" fill="#A5B4FC" fill-opacity="0.4" stroke="#4F46E5" stroke-width="2"/>
<rect x="524" y="346" width="22" height="22" fill="#A5B4FC" fill-opacity="0.4" stroke="#4F46E5" stroke-width="2"/>
<rect x="546" y="346" width="22" height="22" fill="#A5B4FC" fill-opacity="0.4" stroke="#4F46E5" stroke-width="2"/>
<rect x="568" y="346" width="22" height="22" fill="#A5B4FC" fill-opacity="0.4" stroke="#4F46E5" stroke-width="2"/>
<path d="M494.542 304.326H492.152C492.084 303.934 491.958 303.587 491.775 303.284C491.591 302.977 491.363 302.717 491.091 302.504C490.818 302.291 490.507 302.131 490.157 302.025C489.812 301.914 489.439 301.859 489.039 301.859C488.327 301.859 487.696 302.038 487.147 302.396C486.597 302.749 486.167 303.269 485.856 303.955C485.544 304.637 485.389 305.47 485.389 306.455C485.389 307.456 485.544 308.3 485.856 308.986C486.171 309.668 486.601 310.183 487.147 310.533C487.696 310.878 488.325 311.05 489.032 311.05C489.424 311.05 489.791 310.999 490.132 310.897C490.477 310.79 490.786 310.635 491.059 310.43C491.336 310.226 491.568 309.974 491.755 309.676C491.947 309.378 492.079 309.037 492.152 308.653L494.542 308.666C494.453 309.288 494.259 309.872 493.961 310.418C493.667 310.963 493.281 311.445 492.804 311.862C492.326 312.276 491.768 312.599 491.129 312.834C490.49 313.064 489.78 313.179 489 313.179C487.85 313.179 486.823 312.913 485.919 312.38C485.016 311.847 484.304 311.078 483.785 310.072C483.265 309.067 483.005 307.861 483.005 306.455C483.005 305.044 483.267 303.838 483.791 302.837C484.315 301.831 485.029 301.062 485.932 300.529C486.836 299.996 487.858 299.73 489 299.73C489.729 299.73 490.407 299.832 491.033 300.037C491.66 300.241 492.218 300.542 492.708 300.938C493.198 301.33 493.601 301.812 493.916 302.383C494.236 302.95 494.444 303.597 494.542 304.326ZM500.894 313.192C499.936 313.192 499.105 312.981 498.402 312.559C497.698 312.137 497.153 311.547 496.765 310.788C496.382 310.03 496.19 309.143 496.19 308.129C496.19 307.115 496.382 306.227 496.765 305.464C497.153 304.701 497.698 304.109 498.402 303.687C499.105 303.265 499.936 303.054 500.894 303.054C501.853 303.054 502.684 303.265 503.387 303.687C504.09 304.109 504.634 304.701 505.017 305.464C505.405 306.227 505.599 307.115 505.599 308.129C505.599 309.143 505.405 310.03 505.017 310.788C504.634 311.547 504.09 312.137 503.387 312.559C502.684 312.981 501.853 313.192 500.894 313.192ZM500.907 311.338C501.427 311.338 501.862 311.195 502.211 310.91C502.561 310.62 502.821 310.232 502.991 309.746C503.166 309.261 503.253 308.719 503.253 308.123C503.253 307.522 503.166 306.979 502.991 306.493C502.821 306.003 502.561 305.613 502.211 305.323C501.862 305.033 501.427 304.888 500.907 304.888C500.375 304.888 499.931 305.033 499.578 305.323C499.228 305.613 498.966 306.003 498.791 306.493C498.621 306.979 498.536 307.522 498.536 308.123C498.536 308.719 498.621 309.261 498.791 309.746C498.966 310.232 499.228 310.62 499.578 310.91C499.931 311.195 500.375 311.338 500.907 311.338ZM507.563 313V303.182H509.775V304.85H509.89C510.094 304.288 510.433 303.849 510.906 303.533C511.379 303.214 511.944 303.054 512.6 303.054C513.265 303.054 513.825 303.216 514.281 303.54C514.741 303.859 515.065 304.296 515.253 304.85H515.355C515.572 304.305 515.939 303.87 516.454 303.546C516.974 303.218 517.59 303.054 518.302 303.054C519.205 303.054 519.942 303.339 520.513 303.911C521.084 304.482 521.37 305.315 521.37 306.41V313H519.049V306.768C519.049 306.158 518.888 305.713 518.564 305.432C518.24 305.146 517.843 305.004 517.375 305.004C516.816 305.004 516.38 305.178 516.064 305.528C515.753 305.873 515.598 306.322 515.598 306.876V313H513.329V306.672C513.329 306.165 513.175 305.76 512.868 305.457C512.566 305.155 512.169 305.004 511.679 305.004C511.347 305.004 511.044 305.089 510.772 305.259C510.499 305.425 510.282 305.662 510.12 305.969C509.958 306.271 509.877 306.625 509.877 307.03V313H507.563ZM523.717 316.682V303.182H525.993V304.805H526.127C526.246 304.567 526.415 304.313 526.632 304.045C526.849 303.772 527.143 303.54 527.514 303.348C527.885 303.152 528.358 303.054 528.933 303.054C529.692 303.054 530.376 303.248 530.985 303.636C531.599 304.019 532.084 304.588 532.442 305.342C532.805 306.092 532.986 307.013 532.986 308.104C532.986 309.182 532.809 310.098 532.455 310.852C532.101 311.607 531.62 312.182 531.011 312.578C530.401 312.974 529.711 313.173 528.94 313.173C528.377 313.173 527.91 313.079 527.54 312.891C527.169 312.704 526.871 312.478 526.645 312.214C526.423 311.945 526.251 311.692 526.127 311.453H526.031V316.682H523.717ZM525.986 308.091C525.986 308.726 526.076 309.282 526.255 309.759C526.438 310.237 526.7 310.609 527.041 310.878C527.386 311.142 527.804 311.274 528.294 311.274C528.805 311.274 529.234 311.138 529.579 310.865C529.924 310.588 530.184 310.211 530.359 309.734C530.538 309.252 530.627 308.705 530.627 308.091C530.627 307.482 530.54 306.94 530.365 306.467C530.19 305.994 529.93 305.624 529.585 305.355C529.24 305.087 528.81 304.952 528.294 304.952C527.8 304.952 527.38 305.082 527.035 305.342C526.69 305.602 526.427 305.967 526.248 306.435C526.074 306.904 525.986 307.456 525.986 308.091ZM537.793 313.198C537.17 313.198 536.61 313.087 536.111 312.866C535.617 312.64 535.225 312.308 534.935 311.869C534.65 311.43 534.507 310.888 534.507 310.245C534.507 309.691 534.609 309.233 534.814 308.871C535.018 308.509 535.297 308.219 535.651 308.001C536.005 307.784 536.403 307.62 536.847 307.509C537.294 307.394 537.756 307.311 538.234 307.26C538.809 307.2 539.275 307.147 539.633 307.1C539.991 307.049 540.251 306.972 540.413 306.87C540.579 306.763 540.663 306.599 540.663 306.378V306.339C540.663 305.858 540.52 305.485 540.234 305.221C539.949 304.957 539.538 304.825 539.001 304.825C538.434 304.825 537.984 304.948 537.652 305.195C537.324 305.442 537.102 305.734 536.987 306.071L534.827 305.764C534.997 305.168 535.278 304.669 535.67 304.268C536.062 303.864 536.542 303.561 537.109 303.361C537.675 303.156 538.302 303.054 538.988 303.054C539.461 303.054 539.932 303.109 540.4 303.22C540.869 303.331 541.297 303.514 541.685 303.77C542.073 304.021 542.384 304.364 542.619 304.799C542.857 305.234 542.976 305.777 542.976 306.429V313H540.752V311.651H540.675C540.535 311.924 540.337 312.18 540.081 312.418C539.829 312.653 539.512 312.842 539.128 312.987C538.749 313.128 538.304 313.198 537.793 313.198ZM538.393 311.498C538.858 311.498 539.261 311.406 539.601 311.223C539.942 311.036 540.204 310.788 540.388 310.482C540.575 310.175 540.669 309.84 540.669 309.478V308.321C540.597 308.381 540.473 308.436 540.298 308.487C540.128 308.538 539.936 308.583 539.723 308.621C539.51 308.66 539.299 308.694 539.09 308.724C538.881 308.754 538.7 308.779 538.547 308.8C538.202 308.847 537.893 308.924 537.62 309.031C537.347 309.137 537.132 309.286 536.974 309.478C536.817 309.665 536.738 309.908 536.738 310.207C536.738 310.633 536.893 310.955 537.204 311.172C537.516 311.389 537.912 311.498 538.393 311.498ZM549.586 313.192C548.606 313.192 547.764 312.977 547.061 312.546C546.362 312.116 545.823 311.521 545.444 310.763C545.069 310 544.881 309.122 544.881 308.129C544.881 307.132 545.073 306.252 545.457 305.489C545.84 304.722 546.381 304.126 547.08 303.7C547.783 303.269 548.614 303.054 549.573 303.054C550.37 303.054 551.075 303.201 551.689 303.495C552.307 303.785 552.799 304.196 553.165 304.729C553.532 305.257 553.741 305.875 553.792 306.582H551.58C551.491 306.109 551.278 305.715 550.941 305.4C550.609 305.08 550.163 304.92 549.605 304.92C549.132 304.92 548.717 305.048 548.359 305.304C548.001 305.555 547.722 305.918 547.521 306.391C547.325 306.864 547.227 307.43 547.227 308.091C547.227 308.76 547.325 309.335 547.521 309.817C547.717 310.294 547.992 310.663 548.346 310.923C548.704 311.178 549.123 311.306 549.605 311.306C549.946 311.306 550.251 311.242 550.519 311.114C550.792 310.982 551.02 310.793 551.203 310.545C551.386 310.298 551.512 309.998 551.58 309.644H553.792C553.736 310.339 553.532 310.955 553.178 311.491C552.824 312.024 552.343 312.442 551.734 312.744C551.124 313.043 550.408 313.192 549.586 313.192ZM560.595 303.182V304.972H554.95V303.182H560.595ZM556.344 300.83H558.658V310.047C558.658 310.358 558.705 310.597 558.798 310.763C558.896 310.925 559.024 311.036 559.182 311.095C559.34 311.155 559.514 311.185 559.706 311.185C559.851 311.185 559.983 311.174 560.102 311.153C560.226 311.131 560.32 311.112 560.384 311.095L560.774 312.904C560.65 312.947 560.473 312.994 560.243 313.045C560.017 313.096 559.74 313.126 559.412 313.134C558.832 313.151 558.31 313.064 557.846 312.872C557.381 312.676 557.013 312.374 556.74 311.964C556.472 311.555 556.34 311.044 556.344 310.43V300.83ZM562.53 313V303.182H564.844V313H562.53ZM563.693 301.788C563.327 301.788 563.011 301.667 562.747 301.424C562.483 301.177 562.351 300.881 562.351 300.536C562.351 300.186 562.483 299.89 562.747 299.647C563.011 299.4 563.327 299.276 563.693 299.276C564.064 299.276 564.379 299.4 564.639 299.647C564.903 299.89 565.035 300.186 565.035 300.536C565.035 300.881 564.903 301.177 564.639 301.424C564.379 301.667 564.064 301.788 563.693 301.788ZM571.506 313.192C570.547 313.192 569.716 312.981 569.013 312.559C568.31 312.137 567.764 311.547 567.377 310.788C566.993 310.03 566.801 309.143 566.801 308.129C566.801 307.115 566.993 306.227 567.377 305.464C567.764 304.701 568.31 304.109 569.013 303.687C569.716 303.265 570.547 303.054 571.506 303.054C572.465 303.054 573.296 303.265 573.999 303.687C574.702 304.109 575.245 304.701 575.629 305.464C576.016 306.227 576.21 307.115 576.21 308.129C576.21 309.143 576.016 310.03 575.629 310.788C575.245 311.547 574.702 312.137 573.999 312.559C573.296 312.981 572.465 313.192 571.506 313.192ZM571.519 311.338C572.038 311.338 572.473 311.195 572.823 310.91C573.172 310.62 573.432 310.232 573.602 309.746C573.777 309.261 573.864 308.719 573.864 308.123C573.864 307.522 573.777 306.979 573.602 306.493C573.432 306.003 573.172 305.613 572.823 305.323C572.473 305.033 572.038 304.888 571.519 304.888C570.986 304.888 570.543 305.033 570.189 305.323C569.84 305.613 569.578 306.003 569.403 306.493C569.232 306.979 569.147 307.522 569.147 308.123C569.147 308.719 569.232 309.261 569.403 309.746C569.578 310.232 569.84 310.62 570.189 310.91C570.543 311.195 570.986 311.338 571.519 311.338ZM580.488 307.247V313H578.174V303.182H580.386V304.85H580.501C580.727 304.3 581.087 303.864 581.581 303.54C582.08 303.216 582.696 303.054 583.429 303.054C584.106 303.054 584.696 303.199 585.199 303.489C585.706 303.778 586.098 304.198 586.375 304.748C586.657 305.298 586.795 305.964 586.791 306.749V313H584.477V307.107C584.477 306.45 584.306 305.937 583.965 305.566C583.629 305.195 583.162 305.01 582.566 305.01C582.161 305.01 581.801 305.099 581.485 305.278C581.174 305.453 580.929 305.707 580.75 306.039C580.576 306.371 580.488 306.774 580.488 307.247Z" fill="#4F46E5"/>
<path d="M534.47 337.53C534.763 337.823 535.237 337.823 535.53 337.53L540.303 332.757C540.596 332.464 540.596 331.99 540.303 331.697C540.01 331.404 539.536 331.404 539.243 331.697L535 335.939L530.757 331.697C530.464 331.404 529.99 331.404 529.697 331.697C529.404 331.99 529.404 332.464 529.697 332.757L534.47 337.53ZM535 337H535.75V322H535H534.25V337H535Z" fill="#5046E5"/>
<rect x="120.2" y="46.2" width="575.6" height="372.6" rx="18" stroke="#1E1B4B" stroke-width="2.4" stroke-dasharray="4.8 4.8"/>
</g>
<defs>
<clipPath id="clip0_23_195">
<rect width="817" height="472" fill="white"/>
</clipPath>
</defs>
</svg>
