<svg width="1000" height="533" viewBox="0 0 1000 533" fill="none" xmlns="http://www.w3.org/2000/svg">
<rect width="1000" height="533" fill="white"/>
<g filter="url(#filter0_d_1_533)">
<rect x="349" y="41" width="302" height="42" rx="21" fill="#E0E7FF" shape-rendering="crispEdges"/>
<path d="M378.749 69V55.9091H383.173C384.2 55.9091 385.039 56.0945 385.691 56.4652C386.347 56.8317 386.833 57.3281 387.148 57.9545C387.464 58.581 387.621 59.2798 387.621 60.0511C387.621 60.8224 387.464 61.5234 387.148 62.1541C386.837 62.7848 386.356 63.2876 385.704 63.6626C385.052 64.0334 384.217 64.2188 383.198 64.2188H380.028V62.8125H383.147C383.85 62.8125 384.415 62.6911 384.841 62.4482C385.267 62.2053 385.576 61.8771 385.768 61.4638C385.964 61.0462 386.062 60.5753 386.062 60.0511C386.062 59.527 385.964 59.0582 385.768 58.6449C385.576 58.2315 385.265 57.9077 384.835 57.6733C384.404 57.4347 383.833 57.3153 383.121 57.3153H380.335V69H378.749ZM393.854 69.2045C392.967 69.2045 392.19 68.9936 391.521 68.5717C390.856 68.1499 390.336 67.5597 389.961 66.8011C389.59 66.0426 389.405 65.1562 389.405 64.142C389.405 63.1193 389.59 62.2266 389.961 61.4638C390.336 60.701 390.856 60.1087 391.521 59.6868C392.19 59.2649 392.967 59.054 393.854 59.054C394.74 59.054 395.516 59.2649 396.18 59.6868C396.849 60.1087 397.369 60.701 397.74 61.4638C398.115 62.2266 398.303 63.1193 398.303 64.142C398.303 65.1562 398.115 66.0426 397.74 66.8011C397.369 67.5597 396.849 68.1499 396.18 68.5717C395.516 68.9936 394.74 69.2045 393.854 69.2045ZM393.854 67.8494C394.527 67.8494 395.081 67.6768 395.516 67.3317C395.95 66.9865 396.272 66.5327 396.481 65.9702C396.69 65.4077 396.794 64.7983 396.794 64.142C396.794 63.4858 396.69 62.8743 396.481 62.3075C396.272 61.7408 395.95 61.2827 395.516 60.9332C395.081 60.5838 394.527 60.4091 393.854 60.4091C393.18 60.4091 392.626 60.5838 392.192 60.9332C391.757 61.2827 391.435 61.7408 391.227 62.3075C391.018 62.8743 390.913 63.4858 390.913 64.142C390.913 64.7983 391.018 65.4077 391.227 65.9702C391.435 66.5327 391.757 66.9865 392.192 67.3317C392.626 67.6768 393.18 67.8494 393.854 67.8494ZM407.56 61.3807L406.205 61.7642C406.119 61.5384 405.994 61.3189 405.828 61.1058C405.666 60.8885 405.444 60.7095 405.163 60.5689C404.882 60.4283 404.521 60.358 404.083 60.358C403.482 60.358 402.981 60.4964 402.58 60.7734C402.184 61.0462 401.986 61.3935 401.986 61.8153C401.986 62.1903 402.122 62.4865 402.395 62.7038C402.668 62.9212 403.094 63.1023 403.673 63.2472L405.131 63.6051C406.009 63.8182 406.663 64.1442 407.093 64.5831C407.524 65.0178 407.739 65.5781 407.739 66.2642C407.739 66.8267 407.577 67.3295 407.253 67.7727C406.933 68.2159 406.486 68.5653 405.911 68.821C405.335 69.0767 404.666 69.2045 403.904 69.2045C402.902 69.2045 402.073 68.9872 401.417 68.5526C400.761 68.1179 400.345 67.483 400.171 66.6477L401.602 66.2898C401.739 66.8182 401.997 67.2145 402.376 67.4787C402.759 67.7429 403.26 67.875 403.878 67.875C404.581 67.875 405.139 67.7259 405.553 67.4276C405.97 67.125 406.179 66.7628 406.179 66.3409C406.179 66 406.06 65.7145 405.821 65.4844C405.583 65.25 405.216 65.0753 404.722 64.9602L403.085 64.5767C402.186 64.3636 401.526 64.0334 401.104 63.5859C400.686 63.1342 400.477 62.5696 400.477 61.892C400.477 61.3381 400.633 60.848 400.944 60.4219C401.259 59.9957 401.688 59.6612 402.229 59.4183C402.774 59.1754 403.392 59.054 404.083 59.054C405.054 59.054 405.817 59.267 406.371 59.6932C406.929 60.1193 407.325 60.6818 407.56 61.3807ZM414.279 59.1818V60.4602H409.191V59.1818H414.279ZM410.674 56.8295H412.183V66.1875C412.183 66.6136 412.245 66.9332 412.368 67.1463C412.496 67.3551 412.658 67.4957 412.854 67.5682C413.054 67.6364 413.265 67.6705 413.487 67.6705C413.653 67.6705 413.789 67.6619 413.896 67.6449C414.002 67.6236 414.088 67.6065 414.152 67.5938L414.458 68.9489C414.356 68.9872 414.213 69.0256 414.03 69.0639C413.847 69.1065 413.615 69.1278 413.333 69.1278C412.907 69.1278 412.49 69.0362 412.081 68.853C411.676 68.6697 411.339 68.3906 411.071 68.0156C410.806 67.6406 410.674 67.1676 410.674 66.5966V56.8295ZM420.406 72.8864C419.678 72.8864 419.051 72.7926 418.527 72.6051C418.003 72.4219 417.566 72.179 417.217 71.8764C416.871 71.5781 416.597 71.2585 416.392 70.9176L417.594 70.0739C417.73 70.2528 417.903 70.4574 418.112 70.6875C418.32 70.9219 418.606 71.1243 418.968 71.2947C419.335 71.4695 419.814 71.5568 420.406 71.5568C421.199 71.5568 421.853 71.3651 422.369 70.9815C422.884 70.598 423.142 69.9972 423.142 69.179V67.1847H423.014C422.903 67.3636 422.746 67.5852 422.541 67.8494C422.341 68.1094 422.051 68.3416 421.672 68.5462C421.297 68.7464 420.79 68.8466 420.151 68.8466C419.358 68.8466 418.646 68.6591 418.016 68.2841C417.389 67.9091 416.893 67.3636 416.526 66.6477C416.164 65.9318 415.983 65.0625 415.983 64.0398C415.983 63.0341 416.16 62.1584 416.513 61.4126C416.867 60.6626 417.359 60.0831 417.99 59.674C418.621 59.2607 419.349 59.054 420.176 59.054C420.815 59.054 421.322 59.1605 421.697 59.3736C422.077 59.5824 422.366 59.821 422.567 60.0895C422.771 60.3537 422.929 60.571 423.04 60.7415H423.193V59.1818H424.651V69.2812C424.651 70.125 424.459 70.8111 424.075 71.3395C423.696 71.8722 423.185 72.2621 422.541 72.5092C421.902 72.7607 421.19 72.8864 420.406 72.8864ZM420.355 67.4915C420.96 67.4915 421.472 67.353 421.889 67.076C422.307 66.799 422.624 66.4006 422.842 65.8807C423.059 65.3608 423.168 64.7386 423.168 64.0142C423.168 63.3068 423.061 62.6825 422.848 62.1413C422.635 61.6001 422.32 61.1761 421.902 60.8693C421.484 60.5625 420.969 60.4091 420.355 60.4091C419.716 60.4091 419.183 60.571 418.757 60.8949C418.335 61.2187 418.018 61.6534 417.805 62.1989C417.596 62.7443 417.491 63.3494 417.491 64.0142C417.491 64.696 417.598 65.299 417.811 65.8232C418.028 66.343 418.348 66.7521 418.77 67.0504C419.196 67.3445 419.724 67.4915 420.355 67.4915ZM427.412 69V59.1818H428.869V60.6648H428.972C429.151 60.179 429.474 59.7848 429.943 59.4822C430.412 59.1797 430.94 59.0284 431.528 59.0284C431.639 59.0284 431.778 59.0305 431.944 59.0348C432.11 59.0391 432.236 59.0455 432.321 59.054V60.5881C432.27 60.5753 432.153 60.5561 431.969 60.5305C431.79 60.5007 431.601 60.4858 431.401 60.4858C430.923 60.4858 430.497 60.5859 430.122 60.7862C429.751 60.9822 429.457 61.255 429.24 61.6044C429.027 61.9496 428.92 62.3437 428.92 62.7869V69H427.412ZM437.927 69.2045C436.981 69.2045 436.165 68.9957 435.479 68.5781C434.797 68.1562 434.271 67.5682 433.9 66.8139C433.533 66.0554 433.35 65.1733 433.35 64.1676C433.35 63.1619 433.533 62.2756 433.9 61.5085C434.271 60.7372 434.786 60.1364 435.447 59.706C436.112 59.2713 436.887 59.054 437.773 59.054C438.285 59.054 438.79 59.1392 439.288 59.3097C439.787 59.4801 440.241 59.7571 440.65 60.1406C441.059 60.5199 441.385 61.0227 441.628 61.6491C441.871 62.2756 441.992 63.0469 441.992 63.9631V64.6023H434.424V63.2983H440.458C440.458 62.7443 440.347 62.25 440.126 61.8153C439.908 61.3807 439.597 61.0376 439.192 60.7862C438.792 60.5348 438.319 60.4091 437.773 60.4091C437.173 60.4091 436.653 60.5582 436.214 60.8565C435.779 61.1506 435.445 61.5341 435.21 62.0071C434.976 62.4801 434.859 62.9872 434.859 63.5284V64.3977C434.859 65.1392 434.987 65.7678 435.242 66.2834C435.502 66.7947 435.862 67.1847 436.322 67.4531C436.783 67.7173 437.317 67.8494 437.927 67.8494C438.323 67.8494 438.681 67.794 439.001 67.6832C439.325 67.5682 439.604 67.3977 439.838 67.1719C440.072 66.9418 440.254 66.6562 440.381 66.3153L441.839 66.7244C441.685 67.2188 441.428 67.6534 441.065 68.0284C440.703 68.3991 440.256 68.6889 439.723 68.8977C439.19 69.1023 438.592 69.2045 437.927 69.2045ZM451.241 61.3807L449.886 61.7642C449.801 61.5384 449.675 61.3189 449.509 61.1058C449.347 60.8885 449.126 60.7095 448.844 60.5689C448.563 60.4283 448.203 60.358 447.764 60.358C447.163 60.358 446.663 60.4964 446.262 60.7734C445.866 61.0462 445.668 61.3935 445.668 61.8153C445.668 62.1903 445.804 62.4865 446.077 62.7038C446.349 62.9212 446.776 63.1023 447.355 63.2472L448.812 63.6051C449.69 63.8182 450.344 64.1442 450.775 64.5831C451.205 65.0178 451.42 65.5781 451.42 66.2642C451.42 66.8267 451.259 67.3295 450.935 67.7727C450.615 68.2159 450.168 68.5653 449.592 68.821C449.017 69.0767 448.348 69.2045 447.585 69.2045C446.584 69.2045 445.755 68.9872 445.099 68.5526C444.442 68.1179 444.027 67.483 443.852 66.6477L445.284 66.2898C445.42 66.8182 445.678 67.2145 446.058 67.4787C446.441 67.7429 446.942 67.875 447.56 67.875C448.263 67.875 448.821 67.7259 449.234 67.4276C449.652 67.125 449.861 66.7628 449.861 66.3409C449.861 66 449.741 65.7145 449.503 65.4844C449.264 65.25 448.898 65.0753 448.403 64.9602L446.767 64.5767C445.868 64.3636 445.207 64.0334 444.786 63.5859C444.368 63.1342 444.159 62.5696 444.159 61.892C444.159 61.3381 444.315 60.848 444.626 60.4219C444.941 59.9957 445.369 59.6612 445.911 59.4183C446.456 59.1754 447.074 59.054 447.764 59.054C448.736 59.054 449.499 59.267 450.053 59.6932C450.611 60.1193 451.007 60.6818 451.241 61.3807ZM458.958 69V55.9091H463.382C464.409 55.9091 465.248 56.0945 465.9 56.4652C466.556 56.8317 467.042 57.3281 467.357 57.9545C467.673 58.581 467.83 59.2798 467.83 60.0511C467.83 60.8224 467.673 61.5234 467.357 62.1541C467.046 62.7848 466.565 63.2876 465.913 63.6626C465.261 64.0334 464.426 64.2188 463.407 64.2188H460.237V62.8125H463.356C464.059 62.8125 464.624 62.6911 465.05 62.4482C465.476 62.2053 465.785 61.8771 465.977 61.4638C466.173 61.0462 466.271 60.5753 466.271 60.0511C466.271 59.527 466.173 59.0582 465.977 58.6449C465.785 58.2315 465.474 57.9077 465.044 57.6733C464.613 57.4347 464.042 57.3153 463.33 57.3153H460.544V69H458.958ZM470.18 69V59.1818H471.637V60.6648H471.739C471.918 60.179 472.242 59.7848 472.711 59.4822C473.18 59.1797 473.708 59.0284 474.296 59.0284C474.407 59.0284 474.545 59.0305 474.711 59.0348C474.878 59.0391 475.003 59.0455 475.089 59.054V60.5881C475.037 60.5753 474.92 60.5561 474.737 60.5305C474.558 60.5007 474.368 60.4858 474.168 60.4858C473.691 60.4858 473.265 60.5859 472.89 60.7862C472.519 60.9822 472.225 61.255 472.008 61.6044C471.795 61.9496 471.688 62.3437 471.688 62.7869V69H470.18ZM476.877 69V59.1818H478.385V69H476.877ZM477.644 57.5455C477.35 57.5455 477.096 57.4453 476.883 57.245C476.674 57.0447 476.57 56.804 476.57 56.5227C476.57 56.2415 476.674 56.0007 476.883 55.8004C477.096 55.6001 477.35 55.5 477.644 55.5C477.938 55.5 478.189 55.6001 478.398 55.8004C478.611 56.0007 478.718 56.2415 478.718 56.5227C478.718 56.804 478.611 57.0447 478.398 57.245C478.189 57.4453 477.938 57.5455 477.644 57.5455ZM481.148 69V59.1818H482.606V60.7159H482.733C482.938 60.1918 483.268 59.7848 483.724 59.495C484.18 59.201 484.728 59.054 485.367 59.054C486.015 59.054 486.554 59.201 486.984 59.495C487.419 59.7848 487.758 60.1918 488.001 60.7159H488.103C488.354 60.2088 488.731 59.8061 489.234 59.5078C489.737 59.2053 490.34 59.054 491.043 59.054C491.921 59.054 492.639 59.3288 493.197 59.8786C493.756 60.424 494.035 61.2741 494.035 62.429V69H492.526V62.429C492.526 61.7045 492.328 61.1868 491.932 60.8757C491.535 60.5646 491.069 60.4091 490.532 60.4091C489.841 60.4091 489.307 60.6179 488.927 61.0355C488.548 61.4489 488.358 61.973 488.358 62.608V69H486.824V62.2756C486.824 61.7173 486.643 61.2678 486.281 60.9268C485.919 60.5817 485.452 60.4091 484.881 60.4091C484.489 60.4091 484.123 60.5135 483.782 60.7223C483.445 60.9311 483.172 61.2209 482.964 61.5916C482.759 61.9581 482.657 62.3821 482.657 62.8636V69H481.148ZM499.682 69.2301C499.06 69.2301 498.495 69.1129 497.988 68.8786C497.481 68.6399 497.078 68.2969 496.78 67.8494C496.482 67.3977 496.333 66.8523 496.333 66.2131C496.333 65.6506 496.443 65.1946 496.665 64.8452C496.887 64.4915 497.183 64.2145 497.553 64.0142C497.924 63.8139 498.333 63.6648 498.781 63.5668C499.232 63.4645 499.686 63.3835 500.142 63.3239C500.739 63.2472 501.222 63.1896 501.593 63.1513C501.968 63.1087 502.241 63.0384 502.411 62.9403C502.586 62.8423 502.673 62.6719 502.673 62.429V62.3778C502.673 61.7472 502.501 61.2571 502.156 60.9077C501.815 60.5582 501.297 60.3835 500.602 60.3835C499.882 60.3835 499.318 60.5412 498.909 60.8565C498.499 61.1719 498.212 61.5085 498.046 61.8665L496.614 61.3551C496.869 60.7585 497.21 60.294 497.637 59.9616C498.067 59.625 498.536 59.3906 499.043 59.2585C499.554 59.1222 500.057 59.054 500.551 59.054C500.867 59.054 501.229 59.0923 501.638 59.169C502.051 59.2415 502.45 59.3928 502.833 59.6229C503.221 59.853 503.543 60.2003 503.798 60.6648C504.054 61.1293 504.182 61.7514 504.182 62.5312V69H502.673V67.6705H502.597C502.494 67.8835 502.324 68.1115 502.085 68.3544C501.847 68.5973 501.529 68.804 501.133 68.9744C500.737 69.1449 500.253 69.2301 499.682 69.2301ZM499.912 67.875C500.509 67.875 501.012 67.7578 501.421 67.5234C501.834 67.2891 502.145 66.9865 502.354 66.6158C502.567 66.245 502.673 65.8551 502.673 65.446V64.0653C502.61 64.142 502.469 64.2124 502.252 64.2763C502.039 64.3359 501.791 64.3892 501.51 64.4361C501.233 64.4787 500.963 64.517 500.698 64.5511C500.438 64.581 500.227 64.6065 500.066 64.6278C499.673 64.679 499.307 64.7621 498.966 64.8771C498.629 64.9879 498.357 65.1562 498.148 65.3821C497.943 65.6037 497.841 65.9062 497.841 66.2898C497.841 66.8139 498.035 67.2102 498.423 67.4787C498.815 67.7429 499.311 67.875 499.912 67.875ZM506.935 69V59.1818H508.393V60.6648H508.495C508.674 60.179 508.998 59.7848 509.467 59.4822C509.935 59.1797 510.464 59.0284 511.052 59.0284C511.163 59.0284 511.301 59.0305 511.467 59.0348C511.634 59.0391 511.759 59.0455 511.844 59.054V60.5881C511.793 60.5753 511.676 60.5561 511.493 60.5305C511.314 60.5007 511.124 60.4858 510.924 60.4858C510.447 60.4858 510.021 60.5859 509.646 60.7862C509.275 60.9822 508.981 61.255 508.763 61.6044C508.55 61.9496 508.444 62.3437 508.444 62.7869V69H506.935ZM514.903 72.6818C514.647 72.6818 514.419 72.6605 514.219 72.6179C514.019 72.5795 513.88 72.5412 513.804 72.5028L514.187 71.1733C514.554 71.267 514.877 71.3011 515.159 71.2756C515.44 71.25 515.689 71.1243 515.907 70.8984C516.128 70.6768 516.331 70.3168 516.514 69.8182L516.795 69.0511L513.164 59.1818H514.801L517.511 67.0057H517.613L520.324 59.1818H521.96L517.792 70.4318C517.605 70.9389 517.373 71.3587 517.096 71.6911C516.819 72.0277 516.497 72.277 516.13 72.4389C515.768 72.6009 515.359 72.6818 514.903 72.6818ZM537.042 59.1818L533.411 69H531.877L528.246 59.1818H529.883L532.593 67.0057H532.695L535.406 59.1818H537.042ZM545.988 61.3807L544.632 61.7642C544.547 61.5384 544.422 61.3189 544.255 61.1058C544.093 60.8885 543.872 60.7095 543.591 60.5689C543.309 60.4283 542.949 60.358 542.51 60.358C541.909 60.358 541.409 60.4964 541.008 60.7734C540.612 61.0462 540.414 61.3935 540.414 61.8153C540.414 62.1903 540.55 62.4865 540.823 62.7038C541.096 62.9212 541.522 63.1023 542.101 63.2472L543.559 63.6051C544.436 63.8182 545.091 64.1442 545.521 64.5831C545.951 65.0178 546.167 65.5781 546.167 66.2642C546.167 66.8267 546.005 67.3295 545.681 67.7727C545.361 68.2159 544.914 68.5653 544.338 68.821C543.763 69.0767 543.094 69.2045 542.331 69.2045C541.33 69.2045 540.501 68.9872 539.845 68.5526C539.189 68.1179 538.773 67.483 538.598 66.6477L540.03 66.2898C540.167 66.8182 540.424 67.2145 540.804 67.4787C541.187 67.7429 541.688 67.875 542.306 67.875C543.009 67.875 543.567 67.7259 543.98 67.4276C544.398 67.125 544.607 66.7628 544.607 66.3409C544.607 66 544.488 65.7145 544.249 65.4844C544.01 65.25 543.644 65.0753 543.15 64.9602L541.513 64.5767C540.614 64.3636 539.953 64.0334 539.532 63.5859C539.114 63.1342 538.905 62.5696 538.905 61.892C538.905 61.3381 539.061 60.848 539.372 60.4219C539.687 59.9957 540.115 59.6612 540.657 59.4183C541.202 59.1754 541.82 59.054 542.51 59.054C543.482 59.054 544.245 59.267 544.799 59.6932C545.357 60.1193 545.753 60.6818 545.988 61.3807ZM560.863 59.1818C560.787 58.5341 560.476 58.0312 559.93 57.6733C559.385 57.3153 558.716 57.1364 557.923 57.1364C557.344 57.1364 556.836 57.2301 556.402 57.4176C555.971 57.6051 555.635 57.8629 555.392 58.1911C555.153 58.5192 555.034 58.892 555.034 59.3097C555.034 59.6591 555.117 59.9595 555.283 60.2109C555.454 60.4581 555.671 60.6648 555.935 60.831C556.199 60.9929 556.476 61.1271 556.766 61.2337C557.056 61.3359 557.322 61.419 557.565 61.483L558.895 61.8409C559.236 61.9304 559.615 62.054 560.032 62.2116C560.454 62.3693 560.857 62.5845 561.241 62.8572C561.628 63.1257 561.948 63.4709 562.199 63.8928C562.451 64.3146 562.577 64.8324 562.577 65.446C562.577 66.1534 562.391 66.7926 562.02 67.3636C561.654 67.9347 561.117 68.3885 560.41 68.7251C559.706 69.0618 558.852 69.2301 557.846 69.2301C556.909 69.2301 556.097 69.0788 555.411 68.7763C554.729 68.4737 554.192 68.0518 553.8 67.5107C553.412 66.9695 553.193 66.3409 553.142 65.625H554.778C554.821 66.1193 554.987 66.5284 555.277 66.8523C555.571 67.1719 555.942 67.4105 556.389 67.5682C556.841 67.7216 557.327 67.7983 557.846 67.7983C558.452 67.7983 558.995 67.7003 559.476 67.5043C559.958 67.304 560.339 67.027 560.621 66.6733C560.902 66.3153 561.042 65.8977 561.042 65.4205C561.042 64.9858 560.921 64.6321 560.678 64.3594C560.435 64.0866 560.116 63.8651 559.719 63.6946C559.323 63.5241 558.895 63.375 558.434 63.2472L556.824 62.7869C555.801 62.4929 554.991 62.0732 554.395 61.5277C553.798 60.9822 553.5 60.2685 553.5 59.3864C553.5 58.6534 553.698 58.0142 554.094 57.4688C554.495 56.919 555.032 56.4929 555.705 56.1903C556.383 55.8835 557.139 55.7301 557.974 55.7301C558.818 55.7301 559.568 55.8814 560.224 56.1839C560.881 56.4822 561.4 56.8913 561.784 57.4112C562.172 57.9311 562.376 58.5213 562.398 59.1818H560.863ZM569.248 59.1818V60.4602H564.16V59.1818H569.248ZM565.643 56.8295H567.152V66.1875C567.152 66.6136 567.213 66.9332 567.337 67.1463C567.465 67.3551 567.627 67.4957 567.823 67.5682C568.023 67.6364 568.234 67.6705 568.456 67.6705C568.622 67.6705 568.758 67.6619 568.865 67.6449C568.971 67.6236 569.056 67.6065 569.12 67.5938L569.427 68.9489C569.325 68.9872 569.182 69.0256 568.999 69.0639C568.816 69.1065 568.583 69.1278 568.302 69.1278C567.876 69.1278 567.458 69.0362 567.049 68.853C566.645 68.6697 566.308 68.3906 566.039 68.0156C565.775 67.6406 565.643 67.1676 565.643 66.5966V56.8295ZM574.407 69.2301C573.784 69.2301 573.22 69.1129 572.713 68.8786C572.206 68.6399 571.803 68.2969 571.505 67.8494C571.206 67.3977 571.057 66.8523 571.057 66.2131C571.057 65.6506 571.168 65.1946 571.39 64.8452C571.611 64.4915 571.907 64.2145 572.278 64.0142C572.649 63.8139 573.058 63.6648 573.505 63.5668C573.957 63.4645 574.411 63.3835 574.867 63.3239C575.463 63.2472 575.947 63.1896 576.318 63.1513C576.693 63.1087 576.966 63.0384 577.136 62.9403C577.311 62.8423 577.398 62.6719 577.398 62.429V62.3778C577.398 61.7472 577.225 61.2571 576.88 60.9077C576.539 60.5582 576.022 60.3835 575.327 60.3835C574.607 60.3835 574.042 60.5412 573.633 60.8565C573.224 61.1719 572.936 61.5085 572.77 61.8665L571.338 61.3551C571.594 60.7585 571.935 60.294 572.361 59.9616C572.792 59.625 573.26 59.3906 573.767 59.2585C574.279 59.1222 574.782 59.054 575.276 59.054C575.591 59.054 575.953 59.0923 576.363 59.169C576.776 59.2415 577.174 59.3928 577.558 59.6229C577.946 59.853 578.267 60.2003 578.523 60.6648C578.779 61.1293 578.907 61.7514 578.907 62.5312V69H577.398V67.6705H577.321C577.219 67.8835 577.049 68.1115 576.81 68.3544C576.571 68.5973 576.254 68.804 575.858 68.9744C575.461 69.1449 574.978 69.2301 574.407 69.2301ZM574.637 67.875C575.233 67.875 575.736 67.7578 576.145 67.5234C576.559 67.2891 576.87 66.9865 577.078 66.6158C577.292 66.245 577.398 65.8551 577.398 65.446V64.0653C577.334 64.142 577.194 64.2124 576.976 64.2763C576.763 64.3359 576.516 64.3892 576.235 64.4361C575.958 64.4787 575.687 64.517 575.423 64.5511C575.163 64.581 574.952 64.6065 574.79 64.6278C574.398 64.679 574.032 64.7621 573.691 64.8771C573.354 64.9879 573.081 65.1562 572.873 65.3821C572.668 65.6037 572.566 65.9062 572.566 66.2898C572.566 66.8139 572.76 67.2102 573.147 67.4787C573.539 67.7429 574.036 67.875 574.637 67.875ZM583.169 63.0938V69H581.66V59.1818H583.117V60.7159H583.245C583.475 60.2173 583.825 59.8168 584.294 59.5142C584.762 59.2074 585.367 59.054 586.109 59.054C586.774 59.054 587.355 59.1903 587.854 59.4631C588.352 59.7315 588.74 60.1406 589.017 60.6903C589.294 61.2358 589.433 61.9261 589.433 62.7614V69H587.924V62.8636C587.924 62.0923 587.724 61.4915 587.323 61.0611C586.923 60.6264 586.373 60.4091 585.674 60.4091C585.193 60.4091 584.762 60.5135 584.383 60.7223C584.008 60.9311 583.712 61.2358 583.494 61.6364C583.277 62.0369 583.169 62.5227 583.169 63.0938ZM595.897 69.2045C595.078 69.2045 594.356 68.9979 593.73 68.5845C593.103 68.1669 592.613 67.5788 592.26 66.8203C591.906 66.0575 591.729 65.1562 591.729 64.1165C591.729 63.0852 591.906 62.1903 592.26 61.4318C592.613 60.6733 593.105 60.0874 593.736 59.674C594.367 59.2607 595.096 59.054 595.922 59.054C596.561 59.054 597.066 59.1605 597.437 59.3736C597.812 59.5824 598.098 59.821 598.294 60.0895C598.494 60.3537 598.65 60.571 598.76 60.7415H598.888V55.9091H600.397V69H598.939V67.4915H598.76C598.65 67.6705 598.492 67.8963 598.287 68.169C598.083 68.4375 597.791 68.6783 597.412 68.8913C597.032 69.1001 596.527 69.2045 595.897 69.2045ZM596.101 67.8494C596.706 67.8494 597.218 67.6918 597.635 67.3764C598.053 67.0568 598.37 66.6158 598.588 66.0533C598.805 65.4865 598.914 64.8324 598.914 64.0909C598.914 63.358 598.807 62.7166 598.594 62.1669C598.381 61.6129 598.066 61.1825 597.648 60.8757C597.23 60.5646 596.715 60.4091 596.101 60.4091C595.462 60.4091 594.929 60.5732 594.503 60.9013C594.081 61.2251 593.764 61.6662 593.551 62.2244C593.342 62.7784 593.238 63.4006 593.238 64.0909C593.238 64.7898 593.344 65.4247 593.557 65.9957C593.775 66.5625 594.094 67.0142 594.516 67.3509C594.942 67.6832 595.471 67.8494 596.101 67.8494ZM603.574 69V55.9091H605.082V60.7415H605.21C605.321 60.571 605.474 60.3537 605.67 60.0895C605.87 59.821 606.156 59.5824 606.527 59.3736C606.902 59.1605 607.409 59.054 608.048 59.054C608.875 59.054 609.603 59.2607 610.234 59.674C610.865 60.0874 611.357 60.6733 611.711 61.4318C612.064 62.1903 612.241 63.0852 612.241 64.1165C612.241 65.1562 612.064 66.0575 611.711 66.8203C611.357 67.5788 610.867 68.1669 610.24 68.5845C609.614 68.9979 608.892 69.2045 608.074 69.2045C607.443 69.2045 606.938 69.1001 606.559 68.8913C606.179 68.6783 605.887 68.4375 605.683 68.169C605.478 67.8963 605.321 67.6705 605.21 67.4915H605.031V69H603.574ZM605.056 64.0909C605.056 64.8324 605.165 65.4865 605.382 66.0533C605.6 66.6158 605.917 67.0568 606.335 67.3764C606.752 67.6918 607.264 67.8494 607.869 67.8494C608.5 67.8494 609.026 67.6832 609.448 67.3509C609.874 67.0142 610.194 66.5625 610.407 65.9957C610.624 65.4247 610.733 64.7898 610.733 64.0909C610.733 63.4006 610.626 62.7784 610.413 62.2244C610.204 61.6662 609.887 61.2251 609.461 60.9013C609.039 60.5732 608.508 60.4091 607.869 60.4091C607.255 60.4091 606.74 60.5646 606.322 60.8757C605.904 61.1825 605.589 61.6129 605.376 62.1669C605.163 62.7166 605.056 63.358 605.056 64.0909ZM615.169 72.6818C614.913 72.6818 614.685 72.6605 614.485 72.6179C614.284 72.5795 614.146 72.5412 614.069 72.5028L614.453 71.1733C614.819 71.267 615.143 71.3011 615.424 71.2756C615.706 71.25 615.955 71.1243 616.172 70.8984C616.394 70.6768 616.596 70.3168 616.779 69.8182L617.061 69.0511L613.43 59.1818H615.066L617.777 67.0057H617.879L620.589 59.1818H622.225L618.058 70.4318C617.87 70.9389 617.638 71.3587 617.361 71.6911C617.084 72.0277 616.762 72.277 616.396 72.4389C616.034 72.6009 615.625 72.6818 615.169 72.6818Z" fill="#5046E5"/>
</g>
<rect x="156" y="142" width="314" height="220" rx="15" stroke="#5046E5" stroke-width="2" stroke-dasharray="4 4"/>
<path d="M265.767 179V165.909H270.676C271.682 165.909 272.525 166.097 273.207 166.472C273.893 166.847 274.411 167.362 274.76 168.018C275.114 168.67 275.291 169.412 275.291 170.243C275.291 171.082 275.114 171.828 274.76 172.48C274.407 173.132 273.885 173.646 273.194 174.021C272.504 174.391 271.654 174.577 270.644 174.577H267.39V172.627H270.324C270.912 172.627 271.394 172.525 271.769 172.32C272.144 172.116 272.421 171.835 272.6 171.477C272.783 171.119 272.875 170.707 272.875 170.243C272.875 169.778 272.783 169.369 272.6 169.016C272.421 168.662 272.142 168.387 271.763 168.191C271.388 167.991 270.904 167.891 270.312 167.891H268.138V179H265.767ZM277.248 179V169.182H279.492V170.818H279.594C279.773 170.251 280.08 169.815 280.515 169.508C280.954 169.197 281.454 169.041 282.017 169.041C282.145 169.041 282.288 169.048 282.445 169.06C282.607 169.069 282.741 169.084 282.848 169.105V171.234C282.75 171.2 282.594 171.17 282.381 171.144C282.172 171.114 281.97 171.099 281.774 171.099C281.352 171.099 280.973 171.191 280.636 171.374C280.304 171.553 280.042 171.803 279.85 172.122C279.658 172.442 279.562 172.81 279.562 173.228V179H277.248ZM284.385 179V169.182H286.699V179H284.385ZM285.549 167.788C285.182 167.788 284.867 167.667 284.603 167.424C284.338 167.177 284.206 166.881 284.206 166.536C284.206 166.186 284.338 165.89 284.603 165.647C284.867 165.4 285.182 165.276 285.549 165.276C285.919 165.276 286.235 165.4 286.495 165.647C286.759 165.89 286.891 166.186 286.891 166.536C286.891 166.881 286.759 167.177 286.495 167.424C286.235 167.667 285.919 167.788 285.549 167.788ZM289.079 179V169.182H291.29V170.85H291.405C291.61 170.288 291.949 169.849 292.422 169.533C292.895 169.214 293.459 169.054 294.116 169.054C294.78 169.054 295.341 169.216 295.797 169.54C296.257 169.859 296.581 170.296 296.768 170.85H296.87C297.088 170.305 297.454 169.87 297.97 169.546C298.49 169.218 299.106 169.054 299.817 169.054C300.721 169.054 301.458 169.339 302.029 169.911C302.6 170.482 302.885 171.315 302.885 172.41V179H300.565V172.768C300.565 172.158 300.403 171.713 300.079 171.432C299.755 171.146 299.359 171.004 298.89 171.004C298.332 171.004 297.895 171.178 297.58 171.528C297.269 171.873 297.113 172.322 297.113 172.876V179H294.844V172.672C294.844 172.165 294.691 171.76 294.384 171.457C294.081 171.155 293.685 171.004 293.195 171.004C292.863 171.004 292.56 171.089 292.287 171.259C292.015 171.425 291.797 171.662 291.635 171.969C291.473 172.271 291.392 172.625 291.392 173.03V179H289.079ZM308.058 179.198C307.436 179.198 306.876 179.087 306.377 178.866C305.883 178.64 305.491 178.308 305.201 177.869C304.915 177.43 304.773 176.888 304.773 176.245C304.773 175.691 304.875 175.233 305.079 174.871C305.284 174.509 305.563 174.219 305.917 174.001C306.271 173.784 306.669 173.62 307.112 173.509C307.56 173.394 308.022 173.311 308.499 173.26C309.074 173.2 309.541 173.147 309.899 173.1C310.257 173.049 310.517 172.972 310.679 172.87C310.845 172.763 310.928 172.599 310.928 172.378V172.339C310.928 171.858 310.785 171.485 310.5 171.221C310.214 170.957 309.803 170.825 309.266 170.825C308.699 170.825 308.25 170.948 307.918 171.195C307.589 171.442 307.368 171.734 307.253 172.071L305.092 171.764C305.263 171.168 305.544 170.669 305.936 170.268C306.328 169.864 306.807 169.561 307.374 169.361C307.941 169.156 308.567 169.054 309.253 169.054C309.726 169.054 310.197 169.109 310.666 169.22C311.135 169.331 311.563 169.514 311.951 169.77C312.339 170.021 312.65 170.364 312.884 170.799C313.123 171.234 313.242 171.777 313.242 172.429V179H311.018V177.651H310.941C310.8 177.924 310.602 178.18 310.347 178.418C310.095 178.653 309.778 178.842 309.394 178.987C309.015 179.128 308.57 179.198 308.058 179.198ZM308.659 177.498C309.123 177.498 309.526 177.406 309.867 177.223C310.208 177.036 310.47 176.788 310.653 176.482C310.841 176.175 310.935 175.84 310.935 175.478V174.321C310.862 174.381 310.739 174.436 310.564 174.487C310.393 174.538 310.202 174.583 309.989 174.621C309.775 174.66 309.565 174.694 309.356 174.724C309.147 174.754 308.966 174.779 308.812 174.8C308.467 174.847 308.158 174.924 307.886 175.031C307.613 175.137 307.398 175.286 307.24 175.478C307.082 175.665 307.003 175.908 307.003 176.207C307.003 176.633 307.159 176.955 307.47 177.172C307.781 177.389 308.177 177.498 308.659 177.498ZM315.569 179V169.182H317.812V170.818H317.915C318.094 170.251 318.4 169.815 318.835 169.508C319.274 169.197 319.775 169.041 320.337 169.041C320.465 169.041 320.608 169.048 320.766 169.06C320.927 169.069 321.062 169.084 321.168 169.105V171.234C321.07 171.2 320.915 171.17 320.702 171.144C320.493 171.114 320.29 171.099 320.094 171.099C319.672 171.099 319.293 171.191 318.957 171.374C318.624 171.553 318.362 171.803 318.17 172.122C317.979 172.442 317.883 172.81 317.883 173.228V179H315.569ZM324.443 182.682C324.127 182.682 323.835 182.656 323.567 182.605C323.303 182.558 323.092 182.503 322.934 182.439L323.471 180.636C323.808 180.734 324.108 180.781 324.372 180.777C324.636 180.773 324.869 180.69 325.069 180.528C325.274 180.37 325.446 180.106 325.587 179.735L325.785 179.205L322.225 169.182H324.679L326.942 176.597H327.044L329.313 169.182H331.774L327.843 180.189C327.66 180.709 327.417 181.154 327.114 181.525C326.812 181.9 326.441 182.185 326.002 182.381C325.568 182.582 325.048 182.682 324.443 182.682ZM342.379 179H337.943V165.909H342.468C343.768 165.909 344.884 166.171 345.818 166.695C346.755 167.215 347.475 167.963 347.978 168.939C348.481 169.915 348.732 171.082 348.732 172.442C348.732 173.805 348.479 174.977 347.972 175.957C347.469 176.937 346.742 177.69 345.792 178.214C344.846 178.738 343.708 179 342.379 179ZM340.314 176.948H342.264C343.176 176.948 343.936 176.782 344.546 176.45C345.155 176.113 345.613 175.612 345.92 174.947C346.227 174.278 346.38 173.443 346.38 172.442C346.38 171.44 346.227 170.609 345.92 169.949C345.613 169.284 345.159 168.788 344.558 168.46C343.962 168.127 343.22 167.961 342.334 167.961H340.314V176.948ZM350.986 179V165.909H355.997C356.943 165.909 357.729 166.058 358.356 166.357C358.986 166.651 359.457 167.053 359.768 167.565C360.084 168.076 360.241 168.656 360.241 169.303C360.241 169.836 360.139 170.292 359.934 170.671C359.73 171.046 359.455 171.351 359.11 171.585C358.765 171.82 358.379 171.988 357.953 172.09V172.218C358.417 172.244 358.863 172.386 359.289 172.646C359.719 172.902 360.071 173.264 360.343 173.733C360.616 174.202 360.753 174.768 360.753 175.433C360.753 176.111 360.589 176.72 360.26 177.261C359.932 177.798 359.438 178.222 358.777 178.533C358.117 178.844 357.286 179 356.285 179H350.986ZM353.357 177.018H355.907C356.768 177.018 357.388 176.854 357.767 176.526C358.151 176.194 358.343 175.768 358.343 175.248C358.343 174.86 358.247 174.511 358.055 174.2C357.863 173.884 357.591 173.637 357.237 173.458C356.883 173.275 356.461 173.183 355.971 173.183H353.357V177.018ZM353.357 171.477H355.703C356.112 171.477 356.481 171.402 356.809 171.253C357.137 171.099 357.395 170.884 357.582 170.607C357.774 170.326 357.87 169.994 357.87 169.61C357.87 169.103 357.691 168.685 357.333 168.357C356.979 168.029 356.453 167.865 355.754 167.865H353.357V171.477Z" fill="#4F46E5"/>
<rect x="155" y="429" width="316" height="62" rx="16" fill="#5046E5"/>
<path d="M266.428 467H263.897L268.506 453.909H271.433L276.048 467H273.517L270.021 456.594H269.918L266.428 467ZM266.511 461.867H273.415V463.772H266.511V461.867ZM277.67 470.682V457.182H279.946V458.805H280.08C280.199 458.567 280.368 458.313 280.585 458.045C280.802 457.772 281.097 457.54 281.467 457.348C281.838 457.152 282.311 457.054 282.886 457.054C283.645 457.054 284.329 457.248 284.938 457.636C285.552 458.019 286.038 458.588 286.396 459.342C286.758 460.092 286.939 461.013 286.939 462.104C286.939 463.182 286.762 464.098 286.408 464.852C286.055 465.607 285.573 466.182 284.964 466.578C284.354 466.974 283.664 467.173 282.893 467.173C282.33 467.173 281.864 467.079 281.493 466.891C281.122 466.704 280.824 466.478 280.598 466.214C280.376 465.945 280.204 465.692 280.08 465.453H279.984V470.682H277.67ZM279.94 462.091C279.94 462.726 280.029 463.282 280.208 463.759C280.391 464.237 280.653 464.609 280.994 464.878C281.339 465.142 281.757 465.274 282.247 465.274C282.758 465.274 283.187 465.138 283.532 464.865C283.877 464.588 284.137 464.211 284.312 463.734C284.491 463.252 284.58 462.705 284.58 462.091C284.58 461.482 284.493 460.94 284.318 460.467C284.143 459.994 283.883 459.624 283.538 459.355C283.193 459.087 282.763 458.952 282.247 458.952C281.753 458.952 281.333 459.082 280.988 459.342C280.643 459.602 280.381 459.967 280.202 460.435C280.027 460.904 279.94 461.456 279.94 462.091ZM288.92 470.682V457.182H291.196V458.805H291.33C291.449 458.567 291.618 458.313 291.835 458.045C292.052 457.772 292.347 457.54 292.717 457.348C293.088 457.152 293.561 457.054 294.136 457.054C294.895 457.054 295.579 457.248 296.188 457.636C296.802 458.019 297.288 458.588 297.646 459.342C298.008 460.092 298.189 461.013 298.189 462.104C298.189 463.182 298.012 464.098 297.658 464.852C297.305 465.607 296.823 466.182 296.214 466.578C295.604 466.974 294.914 467.173 294.143 467.173C293.58 467.173 293.114 467.079 292.743 466.891C292.372 466.704 292.074 466.478 291.848 466.214C291.626 465.945 291.454 465.692 291.33 465.453H291.234V470.682H288.92ZM291.19 462.091C291.19 462.726 291.279 463.282 291.458 463.759C291.641 464.237 291.903 464.609 292.244 464.878C292.589 465.142 293.007 465.274 293.497 465.274C294.008 465.274 294.437 465.138 294.782 464.865C295.127 464.588 295.387 464.211 295.562 463.734C295.741 463.252 295.83 462.705 295.83 462.091C295.83 461.482 295.743 460.94 295.568 460.467C295.393 459.994 295.133 459.624 294.788 459.355C294.443 459.087 294.013 458.952 293.497 458.952C293.003 458.952 292.583 459.082 292.238 459.342C291.893 459.602 291.631 459.967 291.452 460.435C291.277 460.904 291.19 461.456 291.19 462.091ZM302.484 453.909V467H300.17V453.909H302.484ZM304.864 467V457.182H307.178V467H304.864ZM306.027 455.788C305.661 455.788 305.345 455.667 305.081 455.424C304.817 455.177 304.685 454.881 304.685 454.536C304.685 454.186 304.817 453.89 305.081 453.647C305.345 453.4 305.661 453.276 306.027 453.276C306.398 453.276 306.713 453.4 306.973 453.647C307.237 453.89 307.369 454.186 307.369 454.536C307.369 454.881 307.237 455.177 306.973 455.424C306.713 455.667 306.398 455.788 306.027 455.788ZM313.84 467.192C312.86 467.192 312.018 466.977 311.315 466.546C310.616 466.116 310.077 465.521 309.698 464.763C309.323 464 309.135 463.122 309.135 462.129C309.135 461.132 309.327 460.252 309.71 459.489C310.094 458.722 310.635 458.126 311.334 457.7C312.037 457.269 312.868 457.054 313.827 457.054C314.624 457.054 315.329 457.201 315.943 457.495C316.561 457.785 317.053 458.196 317.419 458.729C317.786 459.257 317.995 459.875 318.046 460.582H315.834C315.745 460.109 315.532 459.715 315.195 459.4C314.862 459.08 314.417 458.92 313.859 458.92C313.386 458.92 312.97 459.048 312.612 459.304C312.255 459.555 311.975 459.918 311.775 460.391C311.579 460.864 311.481 461.43 311.481 462.091C311.481 462.76 311.579 463.335 311.775 463.817C311.971 464.294 312.246 464.663 312.6 464.923C312.958 465.178 313.377 465.306 313.859 465.306C314.2 465.306 314.505 465.242 314.773 465.114C315.046 464.982 315.274 464.793 315.457 464.545C315.64 464.298 315.766 463.998 315.834 463.644H318.046C317.99 464.339 317.786 464.955 317.432 465.491C317.078 466.024 316.597 466.442 315.987 466.744C315.378 467.043 314.662 467.192 313.84 467.192ZM322.771 467.198C322.149 467.198 321.589 467.087 321.09 466.866C320.596 466.64 320.204 466.308 319.914 465.869C319.628 465.43 319.486 464.888 319.486 464.245C319.486 463.691 319.588 463.233 319.792 462.871C319.997 462.509 320.276 462.219 320.63 462.001C320.983 461.784 321.382 461.62 321.825 461.509C322.272 461.394 322.735 461.311 323.212 461.26C323.787 461.2 324.254 461.147 324.612 461.1C324.97 461.049 325.23 460.972 325.392 460.87C325.558 460.763 325.641 460.599 325.641 460.378V460.339C325.641 459.858 325.498 459.485 325.213 459.221C324.927 458.957 324.516 458.825 323.979 458.825C323.412 458.825 322.963 458.948 322.63 459.195C322.302 459.442 322.081 459.734 321.966 460.071L319.805 459.764C319.976 459.168 320.257 458.669 320.649 458.268C321.041 457.864 321.52 457.561 322.087 457.361C322.654 457.156 323.28 457.054 323.966 457.054C324.439 457.054 324.91 457.109 325.379 457.22C325.848 457.331 326.276 457.514 326.664 457.77C327.052 458.021 327.363 458.364 327.597 458.799C327.836 459.234 327.955 459.777 327.955 460.429V467H325.731V465.651H325.654C325.513 465.924 325.315 466.18 325.059 466.418C324.808 466.653 324.491 466.842 324.107 466.987C323.728 467.128 323.282 467.198 322.771 467.198ZM323.372 465.498C323.836 465.498 324.239 465.406 324.58 465.223C324.921 465.036 325.183 464.788 325.366 464.482C325.554 464.175 325.647 463.84 325.647 463.478V462.321C325.575 462.381 325.451 462.436 325.277 462.487C325.106 462.538 324.915 462.583 324.701 462.621C324.488 462.66 324.277 462.694 324.069 462.724C323.86 462.754 323.679 462.779 323.525 462.8C323.18 462.847 322.871 462.924 322.598 463.031C322.326 463.137 322.111 463.286 321.953 463.478C321.795 463.665 321.716 463.908 321.716 464.207C321.716 464.633 321.872 464.955 322.183 465.172C322.494 465.389 322.89 465.498 323.372 465.498ZM335.184 457.182V458.972H329.54V457.182H335.184ZM330.934 454.83H333.248V464.047C333.248 464.358 333.294 464.597 333.388 464.763C333.486 464.925 333.614 465.036 333.772 465.095C333.929 465.155 334.104 465.185 334.296 465.185C334.441 465.185 334.573 465.174 334.692 465.153C334.816 465.131 334.91 465.112 334.973 465.095L335.363 466.904C335.24 466.947 335.063 466.994 334.833 467.045C334.607 467.096 334.33 467.126 334.002 467.134C333.422 467.151 332.9 467.064 332.436 466.872C331.971 466.676 331.603 466.374 331.33 465.964C331.062 465.555 330.929 465.044 330.934 464.43V454.83ZM337.12 467V457.182H339.434V467H337.12ZM338.283 455.788C337.916 455.788 337.601 455.667 337.337 455.424C337.073 455.177 336.941 454.881 336.941 454.536C336.941 454.186 337.073 453.89 337.337 453.647C337.601 453.4 337.916 453.276 338.283 453.276C338.654 453.276 338.969 453.4 339.229 453.647C339.493 453.89 339.625 454.186 339.625 454.536C339.625 454.881 339.493 455.177 339.229 455.424C338.969 455.667 338.654 455.788 338.283 455.788ZM346.096 467.192C345.137 467.192 344.306 466.981 343.603 466.559C342.9 466.137 342.354 465.547 341.966 464.788C341.583 464.03 341.391 463.143 341.391 462.129C341.391 461.115 341.583 460.227 341.966 459.464C342.354 458.701 342.9 458.109 343.603 457.687C344.306 457.265 345.137 457.054 346.096 457.054C347.054 457.054 347.885 457.265 348.589 457.687C349.292 458.109 349.835 458.701 350.218 459.464C350.606 460.227 350.8 461.115 350.8 462.129C350.8 463.143 350.606 464.03 350.218 464.788C349.835 465.547 349.292 466.137 348.589 466.559C347.885 466.981 347.054 467.192 346.096 467.192ZM346.108 465.338C346.628 465.338 347.063 465.195 347.412 464.91C347.762 464.62 348.022 464.232 348.192 463.746C348.367 463.261 348.454 462.719 348.454 462.123C348.454 461.522 348.367 460.979 348.192 460.493C348.022 460.003 347.762 459.613 347.412 459.323C347.063 459.033 346.628 458.888 346.108 458.888C345.576 458.888 345.133 459.033 344.779 459.323C344.429 459.613 344.167 460.003 343.993 460.493C343.822 460.979 343.737 461.522 343.737 462.123C343.737 462.719 343.822 463.261 343.993 463.746C344.167 464.232 344.429 464.62 344.779 464.91C345.133 465.195 345.576 465.338 346.108 465.338ZM355.078 461.247V467H352.764V457.182H354.976V458.85H355.091C355.317 458.3 355.677 457.864 356.171 457.54C356.67 457.216 357.285 457.054 358.018 457.054C358.696 457.054 359.286 457.199 359.789 457.489C360.296 457.778 360.688 458.198 360.965 458.748C361.246 459.298 361.385 459.964 361.381 460.749V467H359.067V461.107C359.067 460.45 358.896 459.937 358.555 459.566C358.219 459.195 357.752 459.01 357.155 459.01C356.751 459.01 356.391 459.099 356.075 459.278C355.764 459.453 355.519 459.707 355.34 460.039C355.165 460.371 355.078 460.774 355.078 461.247Z" fill="white"/>
<rect x="530" y="142" width="314" height="220" rx="15" stroke="#1E1B4B" stroke-width="2" stroke-dasharray="4 4"/>
<path d="M644.464 169.508C644.404 168.95 644.153 168.515 643.71 168.204C643.271 167.893 642.7 167.737 641.997 167.737C641.502 167.737 641.078 167.812 640.725 167.961C640.371 168.11 640.1 168.312 639.913 168.568C639.725 168.824 639.63 169.116 639.625 169.444C639.625 169.717 639.687 169.953 639.811 170.153C639.939 170.354 640.111 170.524 640.328 170.665C640.546 170.801 640.787 170.916 641.051 171.01C641.315 171.104 641.581 171.183 641.85 171.246L643.077 171.553C643.571 171.668 644.047 171.824 644.502 172.02C644.963 172.216 645.374 172.463 645.736 172.761C646.103 173.06 646.392 173.42 646.605 173.842C646.819 174.263 646.925 174.758 646.925 175.325C646.925 176.092 646.729 176.767 646.337 177.351C645.945 177.93 645.378 178.384 644.637 178.712C643.9 179.036 643.007 179.198 641.958 179.198C640.94 179.198 640.056 179.04 639.306 178.725C638.56 178.41 637.976 177.95 637.554 177.344C637.137 176.739 636.911 176.002 636.877 175.133H639.21C639.244 175.589 639.385 175.968 639.632 176.271C639.879 176.573 640.201 176.799 640.597 176.948C640.998 177.097 641.445 177.172 641.939 177.172C642.455 177.172 642.907 177.095 643.294 176.942C643.686 176.784 643.993 176.567 644.215 176.29C644.436 176.009 644.549 175.68 644.554 175.305C644.549 174.964 644.449 174.683 644.253 174.462C644.057 174.236 643.782 174.048 643.429 173.899C643.079 173.746 642.67 173.609 642.201 173.49L640.712 173.107C639.634 172.83 638.782 172.41 638.155 171.847C637.533 171.281 637.222 170.528 637.222 169.591C637.222 168.82 637.431 168.144 637.848 167.565C638.27 166.985 638.843 166.536 639.568 166.216C640.292 165.892 641.113 165.73 642.029 165.73C642.958 165.73 643.772 165.892 644.471 166.216C645.174 166.536 645.725 166.981 646.126 167.552C646.527 168.119 646.733 168.771 646.746 169.508H644.464ZM653.84 169.182V170.972H648.195V169.182H653.84ZM649.589 166.83H651.903V176.047C651.903 176.358 651.95 176.597 652.044 176.763C652.142 176.925 652.269 177.036 652.427 177.095C652.585 177.155 652.759 177.185 652.951 177.185C653.096 177.185 653.228 177.174 653.347 177.153C653.471 177.131 653.565 177.112 653.629 177.095L654.019 178.904C653.895 178.947 653.718 178.994 653.488 179.045C653.262 179.096 652.985 179.126 652.657 179.134C652.078 179.151 651.556 179.064 651.091 178.872C650.627 178.676 650.258 178.374 649.985 177.964C649.717 177.555 649.585 177.044 649.589 176.43V166.83ZM658.6 179.198C657.978 179.198 657.418 179.087 656.919 178.866C656.425 178.64 656.033 178.308 655.743 177.869C655.457 177.43 655.315 176.888 655.315 176.245C655.315 175.691 655.417 175.233 655.621 174.871C655.826 174.509 656.105 174.219 656.459 174.001C656.813 173.784 657.211 173.62 657.654 173.509C658.102 173.394 658.564 173.311 659.041 173.26C659.616 173.2 660.083 173.147 660.441 173.1C660.799 173.049 661.059 172.972 661.221 172.87C661.387 172.763 661.47 172.599 661.47 172.378V172.339C661.47 171.858 661.327 171.485 661.042 171.221C660.756 170.957 660.345 170.825 659.808 170.825C659.241 170.825 658.792 170.948 658.46 171.195C658.131 171.442 657.91 171.734 657.795 172.071L655.634 171.764C655.805 171.168 656.086 170.669 656.478 170.268C656.87 169.864 657.349 169.561 657.916 169.361C658.483 169.156 659.109 169.054 659.795 169.054C660.268 169.054 660.739 169.109 661.208 169.22C661.677 169.331 662.105 169.514 662.493 169.77C662.881 170.021 663.192 170.364 663.426 170.799C663.665 171.234 663.784 171.777 663.784 172.429V179H661.56V177.651H661.483C661.342 177.924 661.144 178.18 660.888 178.418C660.637 178.653 660.32 178.842 659.936 178.987C659.557 179.128 659.112 179.198 658.6 179.198ZM659.201 177.498C659.665 177.498 660.068 177.406 660.409 177.223C660.75 177.036 661.012 176.788 661.195 176.482C661.383 176.175 661.477 175.84 661.477 175.478V174.321C661.404 174.381 661.281 174.436 661.106 174.487C660.935 174.538 660.744 174.583 660.531 174.621C660.317 174.66 660.107 174.694 659.898 174.724C659.689 174.754 659.508 174.779 659.354 174.8C659.009 174.847 658.7 174.924 658.428 175.031C658.155 175.137 657.94 175.286 657.782 175.478C657.624 175.665 657.545 175.908 657.545 176.207C657.545 176.633 657.701 176.955 658.012 177.172C658.323 177.389 658.719 177.498 659.201 177.498ZM668.425 173.247V179H666.111V169.182H668.322V170.85H668.438C668.663 170.3 669.023 169.864 669.518 169.54C670.016 169.216 670.632 169.054 671.365 169.054C672.043 169.054 672.633 169.199 673.136 169.489C673.643 169.778 674.035 170.198 674.312 170.748C674.593 171.298 674.732 171.964 674.727 172.749V179H672.413V173.107C672.413 172.45 672.243 171.937 671.902 171.566C671.565 171.195 671.099 171.01 670.502 171.01C670.097 171.01 669.737 171.099 669.422 171.278C669.111 171.453 668.866 171.707 668.687 172.039C668.512 172.371 668.425 172.774 668.425 173.247ZM680.723 179.173C679.952 179.173 679.261 178.974 678.652 178.578C678.043 178.182 677.561 177.607 677.207 176.852C676.854 176.098 676.677 175.182 676.677 174.104C676.677 173.013 676.856 172.092 677.214 171.342C677.576 170.588 678.064 170.019 678.678 169.636C679.291 169.248 679.975 169.054 680.729 169.054C681.305 169.054 681.778 169.152 682.148 169.348C682.519 169.54 682.813 169.772 683.031 170.045C683.248 170.313 683.416 170.567 683.536 170.805H683.631V165.909H685.952V179H683.676V177.453H683.536C683.416 177.692 683.244 177.945 683.018 178.214C682.792 178.478 682.494 178.704 682.123 178.891C681.752 179.079 681.286 179.173 680.723 179.173ZM681.369 177.274C681.859 177.274 682.276 177.142 682.621 176.878C682.967 176.609 683.229 176.237 683.408 175.759C683.587 175.282 683.676 174.726 683.676 174.091C683.676 173.456 683.587 172.904 683.408 172.435C683.233 171.967 682.973 171.602 682.628 171.342C682.287 171.082 681.867 170.952 681.369 170.952C680.853 170.952 680.423 171.087 680.077 171.355C679.732 171.624 679.472 171.994 679.298 172.467C679.123 172.94 679.036 173.482 679.036 174.091C679.036 174.705 679.123 175.252 679.298 175.734C679.477 176.211 679.739 176.588 680.084 176.865C680.433 177.138 680.862 177.274 681.369 177.274ZM688.52 179V165.909H690.834V170.805H690.93C691.049 170.567 691.217 170.313 691.434 170.045C691.652 169.772 691.946 169.54 692.317 169.348C692.687 169.152 693.16 169.054 693.736 169.054C694.494 169.054 695.178 169.248 695.787 169.636C696.401 170.019 696.887 170.588 697.245 171.342C697.607 172.092 697.788 173.013 697.788 174.104C697.788 175.182 697.611 176.098 697.258 176.852C696.904 177.607 696.422 178.182 695.813 178.578C695.204 178.974 694.513 179.173 693.742 179.173C693.18 179.173 692.713 179.079 692.342 178.891C691.971 178.704 691.673 178.478 691.447 178.214C691.226 177.945 691.053 177.692 690.93 177.453H690.795V179H688.52ZM690.789 174.091C690.789 174.726 690.878 175.282 691.057 175.759C691.241 176.237 691.503 176.609 691.844 176.878C692.189 177.142 692.606 177.274 693.096 177.274C693.608 177.274 694.036 177.138 694.381 176.865C694.726 176.588 694.986 176.211 695.161 175.734C695.34 175.252 695.43 174.705 695.43 174.091C695.43 173.482 695.342 172.94 695.167 172.467C694.993 171.994 694.733 171.624 694.388 171.355C694.042 171.087 693.612 170.952 693.096 170.952C692.602 170.952 692.182 171.082 691.837 171.342C691.492 171.602 691.23 171.967 691.051 172.435C690.876 172.904 690.789 173.456 690.789 174.091ZM700.86 182.682C700.544 182.682 700.252 182.656 699.984 182.605C699.72 182.558 699.509 182.503 699.351 182.439L699.888 180.636C700.225 180.734 700.525 180.781 700.789 180.777C701.053 180.773 701.286 180.69 701.486 180.528C701.691 180.37 701.863 180.106 702.004 179.735L702.202 179.205L698.642 169.182H701.096L703.359 176.597H703.461L705.73 169.182H708.191L704.26 180.189C704.077 180.709 703.834 181.154 703.531 181.525C703.229 181.9 702.858 182.185 702.419 182.381C701.985 182.582 701.465 182.682 700.86 182.682ZM718.796 179H714.36V165.909H718.885C720.185 165.909 721.301 166.171 722.235 166.695C723.172 167.215 723.892 167.963 724.395 168.939C724.898 169.915 725.149 171.082 725.149 172.442C725.149 173.805 724.896 174.977 724.389 175.957C723.886 176.937 723.159 177.69 722.209 178.214C721.263 178.738 720.125 179 718.796 179ZM716.731 176.948H718.681C719.593 176.948 720.353 176.782 720.963 176.45C721.572 176.113 722.03 175.612 722.337 174.947C722.644 174.278 722.797 173.443 722.797 172.442C722.797 171.44 722.644 170.609 722.337 169.949C722.03 169.284 721.576 168.788 720.975 168.46C720.379 168.127 719.637 167.961 718.751 167.961H716.731V176.948ZM727.403 179V165.909H732.414C733.36 165.909 734.146 166.058 734.773 166.357C735.403 166.651 735.874 167.053 736.185 167.565C736.501 168.076 736.658 168.656 736.658 169.303C736.658 169.836 736.556 170.292 736.351 170.671C736.147 171.046 735.872 171.351 735.527 171.585C735.182 171.82 734.796 171.988 734.37 172.09V172.218C734.834 172.244 735.28 172.386 735.706 172.646C736.136 172.902 736.488 173.264 736.76 173.733C737.033 174.202 737.17 174.768 737.17 175.433C737.17 176.111 737.006 176.72 736.677 177.261C736.349 177.798 735.855 178.222 735.194 178.533C734.534 178.844 733.703 179 732.702 179H727.403ZM729.774 177.018H732.324C733.185 177.018 733.805 176.854 734.184 176.526C734.568 176.194 734.76 175.768 734.76 175.248C734.76 174.86 734.664 174.511 734.472 174.2C734.28 173.884 734.008 173.637 733.654 173.458C733.3 173.275 732.878 173.183 732.388 173.183H729.774V177.018ZM729.774 171.477H732.12C732.529 171.477 732.898 171.402 733.226 171.253C733.554 171.099 733.812 170.884 733.999 170.607C734.191 170.326 734.287 169.994 734.287 169.61C734.287 169.103 734.108 168.685 733.75 168.357C733.396 168.029 732.87 167.865 732.171 167.865H729.774V171.477Z" fill="#1E1B4B"/>
<rect x="170" y="205" width="22" height="22" stroke="#4F46E5" stroke-width="2"/>
<rect x="192" y="205" width="22" height="22" stroke="#4F46E5" stroke-width="2"/>
<rect x="214" y="205" width="22" height="22" stroke="#4F46E5" stroke-width="2"/>
<rect x="236" y="205" width="22" height="22" stroke="#4F46E5" stroke-width="2"/>
<rect x="258" y="205" width="22" height="22" stroke="#4F46E5" stroke-width="2"/>
<rect x="280" y="205" width="22" height="22" stroke="#4F46E5" stroke-width="2"/>
<rect x="302" y="205" width="22" height="22" stroke="#4F46E5" stroke-width="2"/>
<rect x="324" y="205" width="22" height="22" stroke="#4F46E5" stroke-width="2"/>
<rect x="346" y="205" width="22" height="22" stroke="#4F46E5" stroke-width="2"/>
<rect x="368" y="205" width="22" height="22" stroke="#4F46E5" stroke-width="2"/>
<rect x="390" y="205" width="22" height="22" stroke="#4F46E5" stroke-width="2"/>
<rect x="412" y="205" width="22" height="22" stroke="#4F46E5" stroke-width="2"/>
<rect x="434" y="205" width="22" height="22" stroke="#4F46E5" stroke-width="2"/>
<rect x="544" y="205" width="22" height="22" stroke="#1E1B4B" stroke-width="2"/>
<rect x="566" y="205" width="22" height="22" stroke="#1E1B4B" stroke-width="2"/>
<rect x="588" y="205" width="22" height="22" stroke="#1E1B4B" stroke-width="2"/>
<rect x="610" y="205" width="22" height="22" stroke="#1E1B4B" stroke-width="2"/>
<rect x="632" y="205" width="22" height="22" stroke="#1E1B4B" stroke-width="2"/>
<rect x="654" y="205" width="22" height="22" stroke="#1E1B4B" stroke-width="2"/>
<rect x="676" y="205" width="22" height="22" stroke="#1E1B4B" stroke-width="2"/>
<rect x="698" y="205" width="22" height="22" stroke="#1E1B4B" stroke-width="2"/>
<rect x="720" y="205" width="22" height="22" stroke="#1E1B4B" stroke-width="2"/>
<rect x="742" y="205" width="22" height="22" stroke="#1E1B4B" stroke-width="2"/>
<rect x="764" y="205" width="22" height="22" stroke="#1E1B4B" stroke-width="2"/>
<rect x="786" y="205" width="22" height="22" stroke="#1E1B4B" stroke-width="2"/>
<rect x="808" y="205" width="22" height="22" stroke="#1E1B4B" stroke-width="2"/>
<rect x="251" y="277" width="125" height="43" rx="16" fill="#4F46E5"/>
<path d="M270.687 304L267.505 292.364H268.937L271.369 301.841H271.482L273.96 292.364H275.55L278.028 301.841H278.141L280.573 292.364H282.005L278.823 304H277.369L274.8 294.727H274.71L272.141 304H270.687ZM283.332 304H281.854L286.127 292.364H287.582L291.854 304H290.377L286.9 294.205H286.809L283.332 304ZM283.877 299.455H289.832V300.705H283.877V299.455ZM293.667 304V292.364H295.076V302.75H300.485V304H293.667ZM313.531 295.273C313.462 294.697 313.186 294.25 312.701 293.932C312.216 293.614 311.621 293.455 310.917 293.455C310.402 293.455 309.951 293.538 309.565 293.705C309.182 293.871 308.883 294.1 308.667 294.392C308.455 294.684 308.349 295.015 308.349 295.386C308.349 295.697 308.423 295.964 308.57 296.188C308.722 296.407 308.915 296.591 309.15 296.739C309.385 296.883 309.631 297.002 309.888 297.097C310.146 297.187 310.383 297.261 310.599 297.318L311.781 297.636C312.084 297.716 312.421 297.826 312.792 297.966C313.167 298.106 313.525 298.297 313.866 298.54C314.21 298.778 314.495 299.085 314.718 299.46C314.942 299.835 315.053 300.295 315.053 300.841C315.053 301.47 314.888 302.038 314.559 302.545C314.233 303.053 313.756 303.456 313.127 303.756C312.502 304.055 311.743 304.205 310.849 304.205C310.015 304.205 309.294 304.07 308.684 303.801C308.078 303.532 307.601 303.157 307.252 302.676C306.907 302.195 306.712 301.636 306.667 301H308.121C308.159 301.439 308.307 301.803 308.565 302.091C308.826 302.375 309.156 302.587 309.553 302.727C309.955 302.864 310.387 302.932 310.849 302.932C311.387 302.932 311.87 302.845 312.298 302.67C312.726 302.492 313.065 302.246 313.315 301.932C313.565 301.614 313.69 301.242 313.69 300.818C313.69 300.432 313.582 300.117 313.366 299.875C313.15 299.633 312.866 299.436 312.513 299.284C312.161 299.133 311.781 299 311.371 298.886L309.94 298.477C309.031 298.216 308.311 297.843 307.781 297.358C307.25 296.873 306.985 296.239 306.985 295.455C306.985 294.803 307.161 294.235 307.513 293.75C307.87 293.261 308.347 292.883 308.945 292.614C309.548 292.341 310.22 292.205 310.962 292.205C311.712 292.205 312.379 292.339 312.962 292.608C313.546 292.873 314.008 293.237 314.349 293.699C314.693 294.161 314.875 294.686 314.894 295.273H313.531ZM320.847 304.182C320.006 304.182 319.281 303.996 318.671 303.625C318.065 303.25 317.597 302.727 317.268 302.057C316.942 301.383 316.779 300.598 316.779 299.705C316.779 298.811 316.942 298.023 317.268 297.341C317.597 296.655 318.056 296.121 318.643 295.739C319.234 295.352 319.923 295.159 320.711 295.159C321.165 295.159 321.614 295.235 322.058 295.386C322.501 295.538 322.904 295.784 323.268 296.125C323.631 296.462 323.921 296.909 324.137 297.466C324.353 298.023 324.461 298.708 324.461 299.523V300.091H317.734V298.932H323.097C323.097 298.439 322.999 298 322.802 297.614C322.609 297.227 322.332 296.922 321.972 296.699C321.616 296.475 321.196 296.364 320.711 296.364C320.177 296.364 319.715 296.496 319.325 296.761C318.938 297.023 318.641 297.364 318.433 297.784C318.224 298.205 318.12 298.655 318.12 299.136V299.909C318.12 300.568 318.234 301.127 318.461 301.585C318.692 302.04 319.012 302.386 319.421 302.625C319.83 302.86 320.306 302.977 320.847 302.977C321.2 302.977 321.518 302.928 321.802 302.83C322.09 302.727 322.338 302.576 322.546 302.375C322.754 302.17 322.915 301.917 323.029 301.614L324.325 301.977C324.188 302.417 323.959 302.803 323.637 303.136C323.315 303.466 322.917 303.723 322.444 303.909C321.97 304.091 321.438 304.182 320.847 304.182ZM327.842 298.75V304H326.501V295.273H327.796V296.636H327.91C328.114 296.193 328.425 295.837 328.842 295.568C329.258 295.295 329.796 295.159 330.455 295.159C331.046 295.159 331.563 295.28 332.006 295.523C332.45 295.761 332.794 296.125 333.04 296.614C333.287 297.098 333.41 297.712 333.41 298.455V304H332.069V298.545C332.069 297.86 331.891 297.326 331.535 296.943C331.179 296.557 330.69 296.364 330.069 296.364C329.641 296.364 329.258 296.456 328.921 296.642C328.588 296.828 328.325 297.098 328.131 297.455C327.938 297.811 327.842 298.242 327.842 298.75ZM339.156 304.182C338.428 304.182 337.786 303.998 337.229 303.631C336.673 303.259 336.237 302.737 335.923 302.062C335.608 301.384 335.451 300.583 335.451 299.659C335.451 298.742 335.608 297.947 335.923 297.273C336.237 296.598 336.674 296.078 337.235 295.71C337.796 295.343 338.443 295.159 339.178 295.159C339.746 295.159 340.195 295.254 340.525 295.443C340.858 295.629 341.112 295.841 341.286 296.08C341.464 296.314 341.603 296.508 341.701 296.659H341.815V292.364H343.156V304H341.86V302.659H341.701C341.603 302.818 341.462 303.019 341.281 303.261C341.099 303.5 340.839 303.714 340.502 303.903C340.165 304.089 339.716 304.182 339.156 304.182ZM339.337 302.977C339.875 302.977 340.33 302.837 340.701 302.557C341.072 302.273 341.354 301.881 341.548 301.381C341.741 300.877 341.837 300.295 341.837 299.636C341.837 298.985 341.743 298.415 341.553 297.926C341.364 297.434 341.084 297.051 340.712 296.778C340.341 296.502 339.883 296.364 339.337 296.364C338.769 296.364 338.296 296.509 337.917 296.801C337.542 297.089 337.26 297.481 337.07 297.977C336.885 298.47 336.792 299.023 336.792 299.636C336.792 300.258 336.887 300.822 337.076 301.33C337.269 301.833 337.553 302.235 337.928 302.534C338.307 302.83 338.777 302.977 339.337 302.977ZM349.457 304.182C348.616 304.182 347.89 303.996 347.281 303.625C346.674 303.25 346.207 302.727 345.877 302.057C345.551 301.383 345.388 300.598 345.388 299.705C345.388 298.811 345.551 298.023 345.877 297.341C346.207 296.655 346.665 296.121 347.252 295.739C347.843 295.352 348.532 295.159 349.32 295.159C349.775 295.159 350.224 295.235 350.667 295.386C351.11 295.538 351.513 295.784 351.877 296.125C352.241 296.462 352.531 296.909 352.746 297.466C352.962 298.023 353.07 298.708 353.07 299.523V300.091H346.343V298.932H351.707C351.707 298.439 351.608 298 351.411 297.614C351.218 297.227 350.942 296.922 350.582 296.699C350.226 296.475 349.805 296.364 349.32 296.364C348.786 296.364 348.324 296.496 347.934 296.761C347.548 297.023 347.25 297.364 347.042 297.784C346.834 298.205 346.729 298.655 346.729 299.136V299.909C346.729 300.568 346.843 301.127 347.07 301.585C347.301 302.04 347.621 302.386 348.031 302.625C348.44 302.86 348.915 302.977 349.457 302.977C349.809 302.977 350.127 302.928 350.411 302.83C350.699 302.727 350.947 302.576 351.156 302.375C351.364 302.17 351.525 301.917 351.638 301.614L352.934 301.977C352.798 302.417 352.568 302.803 352.246 303.136C351.924 303.466 351.527 303.723 351.053 303.909C350.58 304.091 350.048 304.182 349.457 304.182ZM355.11 304V295.273H356.406V296.591H356.496C356.656 296.159 356.943 295.809 357.36 295.54C357.777 295.271 358.246 295.136 358.769 295.136C358.868 295.136 358.991 295.138 359.138 295.142C359.286 295.146 359.398 295.152 359.474 295.159V296.523C359.428 296.511 359.324 296.494 359.161 296.472C359.002 296.445 358.834 296.432 358.656 296.432C358.231 296.432 357.853 296.521 357.519 296.699C357.19 296.873 356.928 297.116 356.735 297.426C356.546 297.733 356.451 298.083 356.451 298.477V304H355.11Z" fill="white"/>
<rect x="619" y="277" width="136" height="43" rx="16" fill="#4F46E5"/>
<path d="M638.546 304L635.364 292.364H636.796L639.228 301.841H639.342L641.819 292.364H643.41L645.887 301.841H646.001L648.433 292.364H649.864L646.683 304H645.228L642.66 294.727H642.569L640.001 304H638.546ZM651.191 304H649.714L653.987 292.364H655.441L659.714 304H658.237L654.759 294.205H654.668L651.191 304ZM651.737 299.455H657.691V300.705H651.737V299.455ZM661.526 304V292.364H662.935V302.75H668.344V304H661.526ZM675.026 304V292.364H678.958C679.867 292.364 680.613 292.519 681.197 292.83C681.78 293.136 682.212 293.559 682.492 294.097C682.772 294.634 682.913 295.246 682.913 295.932C682.913 296.617 682.772 297.225 682.492 297.756C682.212 298.286 681.782 298.703 681.202 299.006C680.623 299.305 679.882 299.455 678.981 299.455H675.799V298.182H678.935C679.557 298.182 680.057 298.091 680.435 297.909C680.818 297.727 681.094 297.47 681.265 297.136C681.439 296.799 681.526 296.398 681.526 295.932C681.526 295.466 681.439 295.059 681.265 294.71C681.091 294.362 680.812 294.093 680.43 293.903C680.047 293.71 679.541 293.614 678.913 293.614H676.435V304H675.026ZM680.504 298.773L683.367 304H681.731L678.913 298.773H680.504ZM688.644 304.182C687.803 304.182 687.078 303.996 686.468 303.625C685.862 303.25 685.394 302.727 685.065 302.057C684.739 301.383 684.576 300.598 684.576 299.705C684.576 298.811 684.739 298.023 685.065 297.341C685.394 296.655 685.853 296.121 686.44 295.739C687.031 295.352 687.72 295.159 688.508 295.159C688.962 295.159 689.411 295.235 689.854 295.386C690.298 295.538 690.701 295.784 691.065 296.125C691.428 296.462 691.718 296.909 691.934 297.466C692.15 298.023 692.258 298.708 692.258 299.523V300.091H685.531V298.932H690.894C690.894 298.439 690.796 298 690.599 297.614C690.406 297.227 690.129 296.922 689.769 296.699C689.413 296.475 688.993 296.364 688.508 296.364C687.974 296.364 687.512 296.496 687.121 296.761C686.735 297.023 686.438 297.364 686.229 297.784C686.021 298.205 685.917 298.655 685.917 299.136V299.909C685.917 300.568 686.031 301.127 686.258 301.585C686.489 302.04 686.809 302.386 687.218 302.625C687.627 302.86 688.103 302.977 688.644 302.977C688.996 302.977 689.315 302.928 689.599 302.83C689.887 302.727 690.135 302.576 690.343 302.375C690.551 302.17 690.712 301.917 690.826 301.614L692.121 301.977C691.985 302.417 691.756 302.803 691.434 303.136C691.112 303.466 690.714 303.723 690.241 303.909C689.767 304.091 689.235 304.182 688.644 304.182ZM697.843 304.182C697.025 304.182 696.32 303.989 695.729 303.602C695.138 303.216 694.684 302.684 694.366 302.006C694.048 301.328 693.888 300.553 693.888 299.682C693.888 298.795 694.051 298.013 694.377 297.335C694.707 296.653 695.165 296.121 695.752 295.739C696.343 295.352 697.032 295.159 697.82 295.159C698.434 295.159 698.987 295.273 699.479 295.5C699.972 295.727 700.375 296.045 700.69 296.455C701.004 296.864 701.199 297.341 701.275 297.886H699.934C699.832 297.489 699.604 297.136 699.252 296.83C698.904 296.519 698.434 296.364 697.843 296.364C697.32 296.364 696.862 296.5 696.468 296.773C696.078 297.042 695.773 297.422 695.553 297.915C695.337 298.403 695.229 298.977 695.229 299.636C695.229 300.311 695.335 300.898 695.548 301.398C695.763 301.898 696.067 302.286 696.457 302.562C696.851 302.839 697.313 302.977 697.843 302.977C698.192 302.977 698.508 302.917 698.792 302.795C699.076 302.674 699.317 302.5 699.513 302.273C699.71 302.045 699.851 301.773 699.934 301.455H701.275C701.199 301.97 701.012 302.434 700.712 302.847C700.417 303.256 700.025 303.581 699.536 303.824C699.051 304.062 698.487 304.182 697.843 304.182ZM706.894 304.182C706.053 304.182 705.328 303.996 704.718 303.625C704.112 303.25 703.644 302.727 703.315 302.057C702.989 301.383 702.826 300.598 702.826 299.705C702.826 298.811 702.989 298.023 703.315 297.341C703.644 296.655 704.103 296.121 704.69 295.739C705.281 295.352 705.97 295.159 706.758 295.159C707.212 295.159 707.661 295.235 708.104 295.386C708.548 295.538 708.951 295.784 709.315 296.125C709.678 296.462 709.968 296.909 710.184 297.466C710.4 298.023 710.508 298.708 710.508 299.523V300.091H703.781V298.932H709.144C709.144 298.439 709.046 298 708.849 297.614C708.656 297.227 708.379 296.922 708.019 296.699C707.663 296.475 707.243 296.364 706.758 296.364C706.224 296.364 705.762 296.496 705.371 296.761C704.985 297.023 704.688 297.364 704.479 297.784C704.271 298.205 704.167 298.655 704.167 299.136V299.909C704.167 300.568 704.281 301.127 704.508 301.585C704.739 302.04 705.059 302.386 705.468 302.625C705.877 302.86 706.353 302.977 706.894 302.977C707.246 302.977 707.565 302.928 707.849 302.83C708.137 302.727 708.385 302.576 708.593 302.375C708.801 302.17 708.962 301.917 709.076 301.614L710.371 301.977C710.235 302.417 710.006 302.803 709.684 303.136C709.362 303.466 708.964 303.723 708.491 303.909C708.017 304.091 707.485 304.182 706.894 304.182ZM712.548 304V295.273H713.888V304H712.548ZM713.229 293.818C712.968 293.818 712.743 293.729 712.553 293.551C712.368 293.373 712.275 293.159 712.275 292.909C712.275 292.659 712.368 292.445 712.553 292.267C712.743 292.089 712.968 292 713.229 292C713.491 292 713.714 292.089 713.9 292.267C714.089 292.445 714.184 292.659 714.184 292.909C714.184 293.159 714.089 293.373 713.9 293.551C713.714 293.729 713.491 293.818 713.229 293.818ZM723.481 295.273L720.254 304H718.89L715.663 295.273H717.117L719.526 302.227H719.617L722.026 295.273H723.481ZM728.597 304.182C727.756 304.182 727.031 303.996 726.421 303.625C725.815 303.25 725.347 302.727 725.018 302.057C724.692 301.383 724.529 300.598 724.529 299.705C724.529 298.811 724.692 298.023 725.018 297.341C725.347 296.655 725.806 296.121 726.393 295.739C726.984 295.352 727.673 295.159 728.461 295.159C728.915 295.159 729.364 295.235 729.808 295.386C730.251 295.538 730.654 295.784 731.018 296.125C731.381 296.462 731.671 296.909 731.887 297.466C732.103 298.023 732.211 298.708 732.211 299.523V300.091H725.484V298.932H730.847C730.847 298.439 730.749 298 730.552 297.614C730.359 297.227 730.082 296.922 729.722 296.699C729.366 296.475 728.946 296.364 728.461 296.364C727.927 296.364 727.465 296.496 727.075 296.761C726.688 297.023 726.391 297.364 726.183 297.784C725.974 298.205 725.87 298.655 725.87 299.136V299.909C725.87 300.568 725.984 301.127 726.211 301.585C726.442 302.04 726.762 302.386 727.171 302.625C727.58 302.86 728.056 302.977 728.597 302.977C728.95 302.977 729.268 302.928 729.552 302.83C729.84 302.727 730.088 302.576 730.296 302.375C730.504 302.17 730.665 301.917 730.779 301.614L732.075 301.977C731.938 302.417 731.709 302.803 731.387 303.136C731.065 303.466 730.667 303.723 730.194 303.909C729.72 304.091 729.188 304.182 728.597 304.182ZM734.251 304V295.273H735.546V296.591H735.637C735.796 296.159 736.084 295.809 736.501 295.54C736.917 295.271 737.387 295.136 737.91 295.136C738.008 295.136 738.131 295.138 738.279 295.142C738.427 295.146 738.539 295.152 738.614 295.159V296.523C738.569 296.511 738.465 296.494 738.302 296.472C738.143 296.445 737.974 296.432 737.796 296.432C737.372 296.432 736.993 296.521 736.66 296.699C736.33 296.873 736.069 297.116 735.876 297.426C735.686 297.733 735.592 298.083 735.592 298.477V304H734.251Z" fill="white"/>
<path d="M310.793 272.207C311.183 272.598 311.817 272.598 312.207 272.207L318.571 265.843C318.962 265.453 318.962 264.819 318.571 264.429C318.181 264.038 317.547 264.038 317.157 264.429L311.5 270.086L305.843 264.429C305.453 264.038 304.819 264.038 304.429 264.429C304.038 264.819 304.038 265.453 304.429 265.843L310.793 272.207ZM311.5 236H310.5V271.5H311.5H312.5V236H311.5Z" fill="black"/>
<path d="M613.707 299.707C614.098 299.317 614.098 298.683 613.707 298.293L607.343 291.929C606.953 291.538 606.319 291.538 605.929 291.929C605.538 292.319 605.538 292.953 605.929 293.343L611.586 299L605.929 304.657C605.538 305.047 605.538 305.681 605.929 306.071C606.319 306.462 606.953 306.462 607.343 306.071L613.707 299.707ZM384 299V300H613V299V298H384V299Z" fill="black"/>
<path d="M687.707 235.293C687.317 234.902 686.683 234.902 686.293 235.293L679.929 241.657C679.538 242.047 679.538 242.681 679.929 243.071C680.319 243.462 680.953 243.462 681.343 243.071L687 237.414L692.657 243.071C693.047 243.462 693.681 243.462 694.071 243.071C694.462 242.681 694.462 242.047 694.071 241.657L687.707 235.293ZM687 271.5H688V236H687H686V271.5H687Z" fill="black"/>
<path d="M298.707 373.293C298.317 372.902 297.683 372.902 297.293 373.293L290.929 379.657C290.538 380.047 290.538 380.681 290.929 381.071C291.319 381.462 291.953 381.462 292.343 381.071L298 375.414L303.657 381.071C304.047 381.462 304.681 381.462 305.071 381.071C305.462 380.681 305.462 380.047 305.071 379.657L298.707 373.293ZM298 374H297V417.5H298H299V374H298Z" fill="black"/>
<path d="M327.293 418.207C327.683 418.598 328.317 418.598 328.707 418.207L335.071 411.843C335.462 411.453 335.462 410.819 335.071 410.429C334.681 410.038 334.047 410.038 333.657 410.429L328 416.086L322.343 410.429C321.953 410.038 321.319 410.038 320.929 410.429C320.538 410.819 320.538 411.453 320.929 411.843L327.293 418.207ZM328 417.5H329V374H328H327V417.5H328Z" fill="black"/>
<path d="M687 459V460H688V459H687ZM479.293 458.293C478.902 458.683 478.902 459.317 479.293 459.707L485.657 466.071C486.047 466.462 486.681 466.462 487.071 466.071C487.462 465.681 487.462 465.047 487.071 464.657L481.414 459L487.071 453.343C487.462 452.953 487.462 452.319 487.071 451.929C486.681 451.538 486.047 451.538 485.657 451.929L479.293 458.293ZM687 374H686V374.494H687H688V374H687ZM687 375.483H686V376.471H687H688V375.483H687ZM687 377.459H686V378.448H687H688V377.459H687ZM687 379.436H686V380.424H687H688V379.436H687ZM687 381.413H686V382.401H687H688V381.413H687ZM687 383.39H686V384.378H687H688V383.39H687ZM687 385.366H686V386.355H687H688V385.366H687ZM687 387.343H686V388.331H687H688V387.343H687ZM687 389.32H686V390.308H687H688V389.32H687ZM687 391.297H686V392.285H687H688V391.297H687ZM687 393.273H686V394.262H687H688V393.273H687ZM687 395.25H686V396.238H687H688V395.25H687ZM687 397.227H686V398.215H687H688V397.227H687ZM687 399.203H686V400.192H687H688V399.203H687ZM687 401.18H686V402.169H687H688V401.18H687ZM687 403.157H686V404.145H687H688V403.157H687ZM687 405.134H686V406.122H687H688V405.134H687ZM687 407.11H686V408.099H687H688V407.11H687ZM687 409.087H686V410.076H687H688V409.087H687ZM687 411.064H686V412.052H687H688V411.064H687ZM687 413.041H686V414.029H687H688V413.041H687ZM687 415.017H686V416.006H687H688V415.017H687ZM687 416.994H686V417.983H687H688V416.994H687ZM687 418.971H686V419.959H687H688V418.971H687ZM687 420.948H686V421.936H687H688V420.948H687ZM687 422.924H686V423.913H687H688V422.924H687ZM687 424.901H686V425.89H687H688V424.901H687ZM687 426.878H686V427.866H687H688V426.878H687ZM687 428.855H686V429.843H687H688V428.855H687ZM687 430.831H686V431.82H687H688V430.831H687ZM687 432.808H686V433.797H687H688V432.808H687ZM687 434.785H686V435.773H687H688V434.785H687ZM687 436.762H686V437.75H687H688V436.762H687ZM687 438.738H686V439.727H687H688V438.738H687ZM687 440.715H686V441.704H687H688V440.715H687ZM687 442.692H686V443.68H687H688V442.692H687ZM687 444.669H686V445.657H687H688V444.669H687ZM687 446.645H686V447.634H687H688V446.645H687ZM687 448.622H686V449.611H687H688V448.622H687ZM687 450.599H686V451.587H687H688V450.599H687ZM687 452.576H686V453.564H687H688V452.576H687ZM687 454.552H686V455.541H687H688V454.552H687ZM687 456.529H686V457.517H687L688 457.517V456.529H687ZM687 458.506H686V459H687H688V458.506H687ZM687 459V458H686.502V459V460H687V459ZM685.507 459V458H684.512V459V460H685.507V459ZM683.517 459V458H682.522V459V460H683.517V459ZM681.526 459V458H680.531V459V460H681.526V459ZM679.536 459V458H678.541V459V460H679.536V459ZM677.546 459V458H676.55V459V460H677.546V459ZM675.555 459V458H674.56V459V460H675.555V459ZM673.565 459V458H672.57V459V460H673.565V459ZM671.575 459V458H670.579V459V460H671.575V459ZM669.584 459V458H668.589V459V460H669.584V459ZM667.594 459V458H666.599V459V460H667.594V459ZM665.603 459V458H664.608V459V460H665.603V459ZM663.613 459V458H662.618V459V460H663.613V459ZM661.623 459V458H660.627V459V460H661.623V459ZM659.632 459V458H658.637V459V460H659.632V459ZM657.642 459V458H656.647V459V460H657.642V459ZM655.651 459V458H654.656V459V460H655.651V459ZM653.661 459V458H652.666V459V460H653.661V459ZM651.671 459V458H650.675V459V460H651.671V459ZM649.68 459V458H648.685V459V460H649.68V459ZM647.69 459V458H646.695V459V460H647.69V459ZM645.7 459V458H644.704V459V460H645.7V459ZM643.709 459V458H642.714V459V460H643.709V459ZM641.719 459V458H640.724V459V460H641.719V459ZM639.728 459V458H638.733V459V460H639.728V459ZM637.738 459V458H636.743V459V460H637.738V459ZM635.748 459V458H634.752V459V460H635.748V459ZM633.757 459V458H632.762V459V460H633.757V459ZM631.767 459V458H630.772V459V460H631.767V459ZM629.776 459V458H628.781V459V460H629.776V459ZM627.786 459V458H626.791V459V460H627.786V459ZM625.796 459V458H624.8V459V460H625.796V459ZM623.805 459V458H622.81V459V460H623.805V459ZM621.815 459V458H620.82V459V460H621.815V459ZM619.824 459V458H618.829V459V460H619.824V459ZM617.834 459V458H616.839V459V460H617.834V459ZM615.844 459V458H614.849V459V460H615.844V459ZM613.853 459V458H612.858V459V460H613.853V459ZM611.863 459V458H610.868V459V460H611.863V459ZM609.873 459V458H608.877V459V460H609.873V459ZM607.882 459V458H606.887V459V460H607.882V459ZM605.892 459V458H604.897V459V460H605.892V459ZM603.901 459V458H602.906V459V460H603.901V459ZM601.911 459V458H600.916V459V460H601.911V459ZM599.921 459V458H598.925V459V460H599.921V459ZM597.93 459V458H596.935V459V460H597.93V459ZM595.94 459V458H594.945V459V460H595.94V459ZM593.949 459V458H592.954V459V460H593.949V459ZM591.959 459V458H590.964V459V460H591.959V459ZM589.969 459V458H588.973V459V460H589.969V459ZM587.978 459V458H586.983V459V460H587.978V459ZM585.988 459V458H584.993V459V460H585.988V459ZM583.998 459V458H583.002V459V460H583.998V459ZM582.007 459V458H581.012V459V460H582.007V459ZM580.017 459V458H579.022V459V460H580.017V459ZM578.026 459V458H577.031V459V460H578.026V459ZM576.036 459V458H575.041V459V460H576.036V459ZM574.046 459V458H573.05V459V460H574.046V459ZM572.055 459V458H571.06V459V460H572.055V459ZM570.065 459V458H569.07V459V460H570.065V459ZM568.074 459V458H567.079V459V460H568.074V459ZM566.084 459V458H565.089V459V460H566.084V459ZM564.094 459V458H563.098V459V460H564.094V459ZM562.103 459V458H561.108V459V460H562.103V459ZM560.113 459V458H559.118V459V460H560.113V459ZM558.122 459V458H557.127V459V460H558.122V459ZM556.132 459V458H555.137V459V460H556.132V459ZM554.142 459V458H553.147V459V460H554.142V459ZM552.151 459V458H551.156V459V460H552.151V459ZM550.161 459V458H549.166V459V460H550.161V459ZM548.171 459V458H547.175V459V460H548.171V459ZM546.18 459V458H545.185V459V460H546.18V459ZM544.19 459V458H543.195V459V460H544.19V459ZM542.199 459V458H541.204V459V460H542.199V459ZM540.209 459V458H539.214V459V460H540.209V459ZM538.219 459V458H537.223V459V460H538.219V459ZM536.228 459V458H535.233V459V460H536.228V459ZM534.238 459V458H533.243V459V460H534.238V459ZM532.247 459V458H531.252V459V460H532.247V459ZM530.257 459V458H529.262V459V460H530.257V459ZM528.267 459V458H527.271V459V460H528.267V459ZM526.276 459V458H525.281V459V460H526.276V459ZM524.286 459V458H523.291V459V460H524.286V459ZM522.296 459V458H521.3V459V460H522.296V459ZM520.305 459V458H519.31V459V460H520.305V459ZM518.315 459V458H517.32V459V460H518.315V459ZM516.324 459V458H515.329V459V460H516.324V459ZM514.334 459V458H513.339V459V460H514.334V459ZM512.344 459V458H511.348V459V460H512.344V459ZM510.353 459V458H509.358V459V460H510.353V459ZM508.363 459V458H507.368V459V460H508.363V459ZM506.372 459V458H505.377V459V460H506.372V459ZM504.382 459V458H503.387V459V460H504.382V459ZM502.392 459V458H501.396V459V460H502.392V459ZM500.401 459V458H499.406V459V460H500.401V459ZM498.411 459V458H497.416V459V460H498.411V459ZM496.421 459V458H495.425V459V460H496.421V459ZM494.43 459V458H493.435V459V460H494.43V459ZM492.44 459V458H491.445V459V460H492.44V459ZM490.449 459V458H489.454V459V460H490.449V459ZM488.459 459V458H487.464V459V460H488.459V459ZM486.469 459V458H485.473V459V460H486.469V459ZM484.478 459V458H483.483V459V460H484.478V459ZM482.488 459V458H481.493V459V460H482.488V459ZM480.497 459V458H480V459V460H480.497V459Z" fill="black"/>
<path d="M550.477 450V439.818H553.917C554.713 439.818 555.366 439.954 555.876 440.226C556.387 440.494 556.765 440.864 557.01 441.335C557.255 441.805 557.378 442.34 557.378 442.94C557.378 443.54 557.255 444.072 557.01 444.536C556.765 445 556.388 445.365 555.881 445.63C555.374 445.892 554.726 446.023 553.937 446.023H551.153V444.909H553.898C554.441 444.909 554.879 444.83 555.21 444.67C555.545 444.511 555.787 444.286 555.936 443.994C556.088 443.699 556.165 443.348 556.165 442.94C556.165 442.533 556.088 442.176 555.936 441.871C555.783 441.567 555.54 441.331 555.205 441.165C554.87 440.996 554.428 440.912 553.878 440.912H551.71V450H550.477ZM555.27 445.426L557.775 450H556.344L553.878 445.426H555.27ZM562.393 450.159C561.657 450.159 561.022 449.997 560.489 449.672C559.958 449.344 559.549 448.886 559.261 448.3C558.976 447.71 558.833 447.024 558.833 446.241C558.833 445.459 558.976 444.77 559.261 444.173C559.549 443.573 559.95 443.106 560.464 442.771C560.981 442.433 561.584 442.264 562.273 442.264C562.671 442.264 563.064 442.33 563.452 442.463C563.839 442.596 564.192 442.811 564.511 443.109C564.829 443.404 565.082 443.795 565.271 444.283C565.46 444.77 565.555 445.37 565.555 446.082V446.58H559.668V445.565H564.362C564.362 445.134 564.275 444.75 564.103 444.412C563.934 444.074 563.692 443.807 563.377 443.612C563.066 443.416 562.698 443.318 562.273 443.318C561.806 443.318 561.402 443.434 561.06 443.666C560.722 443.895 560.462 444.193 560.28 444.561C560.098 444.929 560.006 445.323 560.006 445.744V446.42C560.006 446.997 560.106 447.486 560.305 447.887C560.507 448.285 560.787 448.588 561.145 448.797C561.503 449.002 561.919 449.105 562.393 449.105C562.701 449.105 562.979 449.062 563.228 448.976C563.48 448.886 563.697 448.754 563.879 448.578C564.062 448.399 564.202 448.177 564.302 447.912L565.435 448.23C565.316 448.615 565.116 448.953 564.834 449.244C564.552 449.533 564.204 449.758 563.79 449.92C563.375 450.08 562.91 450.159 562.393 450.159ZM569.587 450.179C569.103 450.179 568.664 450.088 568.269 449.906C567.875 449.72 567.562 449.453 567.33 449.105C567.098 448.754 566.982 448.33 566.982 447.832C566.982 447.395 567.068 447.04 567.24 446.768C567.412 446.493 567.643 446.278 567.931 446.122C568.219 445.966 568.538 445.85 568.886 445.774C569.237 445.695 569.59 445.632 569.945 445.585C570.409 445.526 570.785 445.481 571.073 445.451C571.365 445.418 571.577 445.363 571.71 445.287C571.845 445.211 571.913 445.078 571.913 444.889V444.849C571.913 444.359 571.779 443.978 571.511 443.706C571.246 443.434 570.843 443.298 570.303 443.298C569.742 443.298 569.303 443.421 568.985 443.666C568.667 443.911 568.443 444.173 568.314 444.452L567.2 444.054C567.399 443.59 567.664 443.229 567.996 442.97C568.33 442.708 568.695 442.526 569.089 442.423C569.487 442.317 569.878 442.264 570.263 442.264C570.508 442.264 570.79 442.294 571.108 442.354C571.429 442.41 571.739 442.528 572.038 442.707C572.339 442.886 572.589 443.156 572.788 443.517C572.987 443.878 573.087 444.362 573.087 444.969V450H571.913V448.966H571.854C571.774 449.132 571.642 449.309 571.456 449.498C571.27 449.687 571.023 449.848 570.715 449.98C570.407 450.113 570.031 450.179 569.587 450.179ZM569.766 449.125C570.23 449.125 570.621 449.034 570.939 448.852C571.26 448.669 571.502 448.434 571.665 448.146C571.83 447.857 571.913 447.554 571.913 447.236V446.162C571.864 446.222 571.754 446.276 571.585 446.326C571.42 446.372 571.227 446.414 571.009 446.45C570.793 446.483 570.583 446.513 570.377 446.54C570.175 446.563 570.011 446.583 569.885 446.599C569.58 446.639 569.295 446.704 569.03 446.793C568.768 446.879 568.556 447.01 568.393 447.186C568.234 447.358 568.155 447.594 568.155 447.892C568.155 448.3 568.306 448.608 568.607 448.817C568.912 449.022 569.298 449.125 569.766 449.125ZM578.112 450.159C577.475 450.159 576.914 449.998 576.426 449.677C575.939 449.352 575.558 448.895 575.283 448.305C575.008 447.711 574.87 447.01 574.87 446.202C574.87 445.4 575.008 444.704 575.283 444.114C575.558 443.524 575.941 443.068 576.431 442.746C576.922 442.425 577.489 442.264 578.132 442.264C578.629 442.264 579.021 442.347 579.31 442.513C579.602 442.675 579.824 442.861 579.976 443.07C580.132 443.275 580.253 443.444 580.339 443.577H580.438V439.818H581.612V450H580.478V448.827H580.339C580.253 448.966 580.13 449.142 579.971 449.354C579.812 449.562 579.585 449.75 579.29 449.915C578.995 450.078 578.602 450.159 578.112 450.159ZM578.271 449.105C578.741 449.105 579.139 448.982 579.464 448.737C579.789 448.489 580.036 448.146 580.205 447.708C580.374 447.267 580.458 446.759 580.458 446.182C580.458 445.612 580.375 445.113 580.21 444.685C580.044 444.254 579.799 443.92 579.474 443.681C579.149 443.439 578.748 443.318 578.271 443.318C577.774 443.318 577.359 443.446 577.028 443.701C576.7 443.953 576.453 444.296 576.287 444.73C576.125 445.161 576.044 445.645 576.044 446.182C576.044 446.725 576.126 447.219 576.292 447.663C576.461 448.104 576.71 448.455 577.038 448.717C577.369 448.976 577.78 449.105 578.271 449.105ZM596.611 444.909C596.611 445.983 596.417 446.911 596.029 447.693C595.642 448.475 595.11 449.079 594.433 449.503C593.757 449.927 592.985 450.139 592.117 450.139C591.248 450.139 590.476 449.927 589.8 449.503C589.124 449.079 588.592 448.475 588.204 447.693C587.816 446.911 587.622 445.983 587.622 444.909C587.622 443.835 587.816 442.907 588.204 442.125C588.592 441.343 589.124 440.74 589.8 440.315C590.476 439.891 591.248 439.679 592.117 439.679C592.985 439.679 593.757 439.891 594.433 440.315C595.11 440.74 595.642 441.343 596.029 442.125C596.417 442.907 596.611 443.835 596.611 444.909ZM595.418 444.909C595.418 444.027 595.27 443.283 594.975 442.677C594.684 442.07 594.288 441.611 593.787 441.3C593.29 440.988 592.733 440.832 592.117 440.832C591.5 440.832 590.942 440.988 590.441 441.3C589.944 441.611 589.548 442.07 589.253 442.677C588.961 443.283 588.816 444.027 588.816 444.909C588.816 445.791 588.961 446.535 589.253 447.141C589.548 447.748 589.944 448.207 590.441 448.518C590.942 448.83 591.5 448.986 592.117 448.986C592.733 448.986 593.29 448.83 593.787 448.518C594.288 448.207 594.684 447.748 594.975 447.141C595.27 446.535 595.418 445.791 595.418 444.909ZM599.698 445.406V450H598.525V442.364H599.659V443.557H599.758C599.937 443.169 600.209 442.857 600.573 442.622C600.938 442.384 601.409 442.264 601.985 442.264C602.502 442.264 602.955 442.37 603.343 442.582C603.73 442.791 604.032 443.109 604.247 443.537C604.463 443.961 604.57 444.498 604.57 445.148V450H603.397V445.227C603.397 444.627 603.241 444.16 602.93 443.825C602.618 443.487 602.191 443.318 601.647 443.318C601.273 443.318 600.938 443.399 600.643 443.562C600.351 443.724 600.121 443.961 599.952 444.273C599.783 444.584 599.698 444.962 599.698 445.406ZM607.888 439.818V450H606.714V439.818H607.888ZM610.792 452.864C610.594 452.864 610.416 452.847 610.26 452.814C610.105 452.784 609.997 452.754 609.937 452.724L610.236 451.69C610.521 451.763 610.773 451.79 610.991 451.77C611.21 451.75 611.404 451.652 611.573 451.477C611.745 451.304 611.903 451.024 612.045 450.636L612.264 450.04L609.44 442.364H610.713L612.821 448.449H612.9L615.008 442.364H616.281L613.04 451.114C612.894 451.508 612.713 451.835 612.498 452.093C612.282 452.355 612.032 452.549 611.747 452.675C611.465 452.801 611.147 452.864 610.792 452.864Z" fill="black"/>
<defs>
<filter id="filter0_d_1_533" x="343" y="35" width="314" height="54" filterUnits="userSpaceOnUse" color-interpolation-filters="sRGB">
<feFlood flood-opacity="0" result="BackgroundImageFix"/>
<feColorMatrix in="SourceAlpha" type="matrix" values="0 0 0 0 0 0 0 0 0 0 0 0 0 0 0 0 0 0 127 0" result="hardAlpha"/>
<feOffset/>
<feGaussianBlur stdDeviation="3"/>
<feComposite in2="hardAlpha" operator="out"/>
<feColorMatrix type="matrix" values="0 0 0 0 0 0 0 0 0 0 0 0 0 0 0 0 0 0 0.15 0"/>
<feBlend mode="normal" in2="BackgroundImageFix" result="effect1_dropShadow_1_533"/>
<feBlend mode="normal" in="SourceGraphic" in2="effect1_dropShadow_1_533" result="shape"/>
</filter>
</defs>
</svg>
