<svg xmlns="http://www.w3.org/2000/svg" width="855" height="305" viewBox="0 0 1920 696" preserveAspectRatio="none"><defs><filter id="blur" x="-721" y="-798" width="3103" height="3009" filterUnits="userSpaceOnUse"><feGaussianBlur stdDeviation="73.35"/></filter><filter id="grain" x="-721" y="-798" width="3103" height="3009" filterUnits="userSpaceOnUse" primitiveUnits="userSpaceOnUse" color-interpolation-filters="linearRGB">
				<feTurbulence type="fractalNoise" baseFrequency=".2" numOctaves="4" seed="15" stitchTiles="no-stitch" x="0" y="0" width="1920" height="696" result="turbulence"/>
				<feSpecularLighting surfaceScale="10" specularConstant="1.21" specularExponent="20" lighting-color="#fff" x="0" y="0" width="1920" height="696" in="turbulence" result="specularLighting">
					<feDistantLight azimuth="3" elevation="100"/>
				</feSpecularLighting>
			</filter></defs><rect width="1920" height="696" fill="#C7D2FE"/><path d="M 589.94 1188.77 L 248.44 1555.27 L -168.03 1732.87 L -568.50 1441.43 L -574.07 933.42 L -250.80 784.88 L 363.00 678.60 Z" fill="#818CF8" fill-opacity="1" filter="url(#blur)"/><path d="M 1482.40 770.20 L 1373.93 1339.15 L 889.91 1440.12 L 599.38 1294.55 L 368.19 1159.79 L 293.60 935.49 L 466.60 553.19 L 874.18 318.68 L 1193.33 420.19 Z" fill="#4F46E5" fill-opacity="1" filter="url(#blur)"/><path d="M 1192.45 -112.85 L 1095.34 332.78 L 609.11 464.33 L 298.60 110.62 L -144.43 77.79 L -21.06 -283.17 L 129.54 -616.32 L 505.75 -650.47 L 772.41 -426.61 Z" fill="#6366F1" fill-opacity="1" filter="url(#blur)"/><path d="M 2032.43 273.04 L 2184.03 835.96 L 1639.75 646.40 L 1244.46 499.20 L 1056.08 392.91 L 967.19 276.12 L 1363.57 239.64 L 1759.55 322.55 Z" fill="#A5B4FC" fill-opacity="1" filter="url(#blur)"/><path d="M 775.78 387.42 L 696.72 524.73 L 513.16 569.09 L 450.59 415.08 L 523.04 281.60 L 682.43 306.11 Z" fill="#A5B4FC" fill-opacity="1" filter="url(#blur)"/><path d="M 2235.03 1671.70 L 2064.42 2024.96 L 1711.16 2063.85 L 1416.96 1965.91 L 1302.77 1671.70 L 1388.42 1348.96 L 1711.16 1183.90 L 1857.33 1368.94 Z" fill="#818CF8" fill-opacity="1" filter="url(#blur)"/><rect width="1920" height="696" fill="#FFFFFF" filter="url(#grain)" opacity="0.28"/></svg>