<svg xmlns="http://www.w3.org/2000/svg" width="855" height="305" viewBox="0 0 1920 696" preserveAspectRatio="none"><defs><filter id="blur" x="-696" y="-772" width="3053" height="2968" filterUnits="userSpaceOnUse"><feGaussianBlur stdDeviation="81.8"/></filter><filter id="grain" x="-696" y="-772" width="3053" height="2968" filterUnits="userSpaceOnUse" primitiveUnits="userSpaceOnUse" color-interpolation-filters="linearRGB">
				<feTurbulence type="fractalNoise" baseFrequency=".2" numOctaves="4" seed="15" stitchTiles="no-stitch" x="0" y="0" width="1920" height="696" result="turbulence"/>
				<feSpecularLighting surfaceScale="10" specularConstant="1.21" specularExponent="20" lighting-color="#fff" x="0" y="0" width="1920" height="696" in="turbulence" result="specularLighting">
					<feDistantLight azimuth="3" elevation="100"/>
				</feSpecularLighting>
			</filter></defs><rect width="1920" height="696" fill="#4F46E5"/><path d="M 538.63 1188.70 L 224.45 1525.88 L -158.70 1689.27 L -527.14 1421.15 L -532.26 953.78 L -234.85 817.12 L 329.85 719.35 Z" fill="#818CF8" fill-opacity="1" filter="url(#blur)"/><path d="M 1430.84 781.75 L 1331.06 1305.19 L 885.75 1398.08 L 618.46 1264.15 L 405.77 1140.17 L 337.15 933.82 L 496.31 582.10 L 871.28 366.35 L 1164.90 459.74 Z" fill="#6366F1" fill-opacity="1" filter="url(#blur)"/><path d="M 1136.50 -113.63 L 1047.16 296.35 L 599.83 417.37 L 314.16 91.96 L -93.43 61.76 L 20.07 -270.33 L 158.63 -576.83 L 504.74 -608.24 L 750.06 -402.30 Z" fill="#A5B4FC" fill-opacity="1" filter="url(#blur)"/><path d="M 1992.31 286.06 L 2131.77 803.94 L 1631.04 629.54 L 1267.37 494.12 L 1094.07 396.34 L 1012.28 288.89 L 1376.95 255.32 L 1741.26 331.60 Z" fill="#818CF8" fill-opacity="1" filter="url(#blur)"/><path d="M 762.28 389.55 L 689.54 515.88 L 520.66 556.68 L 463.10 415.00 L 529.75 292.19 L 676.39 314.74 Z" fill="#818CF8" fill-opacity="1" filter="url(#blur)"/><path d="M 2193.10 1670.97 L 2036.13 1995.96 L 1711.14 2031.74 L 1440.48 1941.63 L 1335.42 1670.97 L 1414.22 1374.04 L 1711.14 1222.18 L 1845.61 1392.43 Z" fill="#818CF8" fill-opacity="1" filter="url(#blur)"/><rect width="1920" height="696" fill="#FFFFFF" filter="url(#grain)" opacity="0.29"/></svg>