<svg width="1000" height="583" viewBox="0 0 1000 583" fill="none" xmlns="http://www.w3.org/2000/svg">
<rect width="1000" height="583" fill="white"/>
<g filter="url(#filter0_d_57_239)">
<rect x="381" y="41" width="238" height="42" rx="21" fill="#E0E7FF" shape-rendering="crispEdges"/>
<path d="M410.97 69V55.9091H418.871V57.3153H412.555V61.7386H418.461V63.1449H412.555V67.5938H418.973V69H410.97ZM421.012 57.3153V55.9091H430.83V57.3153H426.714V69H425.128V57.3153H421.012ZM433.277 69V55.9091H434.862V67.5938H440.947V69H433.277ZM448.464 69V55.9091H452.887C453.914 55.9091 454.754 56.0945 455.406 56.4652C456.062 56.8317 456.548 57.3281 456.863 57.9545C457.179 58.581 457.336 59.2798 457.336 60.0511C457.336 60.8224 457.179 61.5234 456.863 62.1541C456.552 62.7848 456.071 63.2876 455.419 63.6626C454.767 64.0334 453.931 64.2188 452.913 64.2188H449.743V62.8125H452.862C453.565 62.8125 454.13 62.6911 454.556 62.4482C454.982 62.2053 455.291 61.8771 455.483 61.4638C455.679 61.0462 455.777 60.5753 455.777 60.0511C455.777 59.527 455.679 59.0582 455.483 58.6449C455.291 58.2315 454.98 57.9077 454.549 57.6733C454.119 57.4347 453.548 57.3153 452.836 57.3153H450.049V69H448.464ZM459.685 69V59.1818H461.194V69H459.685ZM460.452 57.5455C460.158 57.5455 459.905 57.4453 459.692 57.245C459.483 57.0447 459.379 56.804 459.379 56.5227C459.379 56.2415 459.483 56.0007 459.692 55.8004C459.905 55.6001 460.158 55.5 460.452 55.5C460.746 55.5 460.998 55.6001 461.207 55.8004C461.42 56.0007 461.526 56.2415 461.526 56.5227C461.526 56.804 461.42 57.0447 461.207 57.245C460.998 57.4453 460.746 57.5455 460.452 57.5455ZM463.957 72.6818V59.1818H465.414V60.7415H465.593C465.704 60.571 465.857 60.3537 466.053 60.0895C466.254 59.821 466.539 59.5824 466.91 59.3736C467.285 59.1605 467.792 59.054 468.431 59.054C469.258 59.054 469.987 59.2607 470.617 59.674C471.248 60.0874 471.74 60.6733 472.094 61.4318C472.448 62.1903 472.624 63.0852 472.624 64.1165C472.624 65.1562 472.448 66.0575 472.094 66.8203C471.74 67.5788 471.25 68.1669 470.624 68.5845C469.997 68.9979 469.275 69.2045 468.457 69.2045C467.826 69.2045 467.321 69.1001 466.942 68.8913C466.563 68.6783 466.271 68.4375 466.066 68.169C465.862 67.8963 465.704 67.6705 465.593 67.4915H465.465V72.6818H463.957ZM465.44 64.0909C465.44 64.8324 465.548 65.4865 465.766 66.0533C465.983 66.6158 466.301 67.0568 466.718 67.3764C467.136 67.6918 467.647 67.8494 468.252 67.8494C468.883 67.8494 469.409 67.6832 469.831 67.3509C470.257 67.0142 470.577 66.5625 470.79 65.9957C471.007 65.4247 471.116 64.7898 471.116 64.0909C471.116 63.4006 471.009 62.7784 470.796 62.2244C470.588 61.6662 470.27 61.2251 469.844 60.9013C469.422 60.5732 468.892 60.4091 468.252 60.4091C467.639 60.4091 467.123 60.5646 466.705 60.8757C466.288 61.1825 465.972 61.6129 465.759 62.1669C465.546 62.7166 465.44 63.358 465.44 64.0909ZM479.042 69.2045C478.096 69.2045 477.28 68.9957 476.594 68.5781C475.912 68.1562 475.386 67.5682 475.015 66.8139C474.649 66.0554 474.465 65.1733 474.465 64.1676C474.465 63.1619 474.649 62.2756 475.015 61.5085C475.386 60.7372 475.901 60.1364 476.562 59.706C477.227 59.2713 478.002 59.054 478.889 59.054C479.4 59.054 479.905 59.1392 480.404 59.3097C480.902 59.4801 481.356 59.7571 481.765 60.1406C482.174 60.5199 482.5 61.0227 482.743 61.6491C482.986 62.2756 483.107 63.0469 483.107 63.9631V64.6023H475.539V63.2983H481.573C481.573 62.7443 481.463 62.25 481.241 61.8153C481.024 61.3807 480.713 61.0376 480.308 60.7862C479.907 60.5348 479.434 60.4091 478.889 60.4091C478.288 60.4091 477.768 60.5582 477.329 60.8565C476.894 61.1506 476.56 61.5341 476.325 62.0071C476.091 62.4801 475.974 62.9872 475.974 63.5284V64.3977C475.974 65.1392 476.102 65.7678 476.357 66.2834C476.617 66.7947 476.977 67.1847 477.438 67.4531C477.898 67.7173 478.433 67.8494 479.042 67.8494C479.438 67.8494 479.796 67.794 480.116 67.6832C480.44 67.5682 480.719 67.3977 480.953 67.1719C481.188 66.9418 481.369 66.6562 481.497 66.3153L482.954 66.7244C482.801 67.2188 482.543 67.6534 482.181 68.0284C481.818 68.3991 481.371 68.6889 480.838 68.8977C480.306 69.1023 479.707 69.2045 479.042 69.2045ZM486.911 55.9091V69H485.402V55.9091H486.911ZM489.674 69V59.1818H491.182V69H489.674ZM490.441 57.5455C490.147 57.5455 489.893 57.4453 489.68 57.245C489.471 57.0447 489.367 56.804 489.367 56.5227C489.367 56.2415 489.471 56.0007 489.68 55.8004C489.893 55.6001 490.147 55.5 490.441 55.5C490.735 55.5 490.986 55.6001 491.195 55.8004C491.408 56.0007 491.515 56.2415 491.515 56.5227C491.515 56.804 491.408 57.0447 491.195 57.245C490.986 57.4453 490.735 57.5455 490.441 57.5455ZM495.454 63.0938V69H493.945V59.1818H495.403V60.7159H495.53C495.76 60.2173 496.11 59.8168 496.579 59.5142C497.047 59.2074 497.653 59.054 498.394 59.054C499.059 59.054 499.64 59.1903 500.139 59.4631C500.638 59.7315 501.025 60.1406 501.302 60.6903C501.579 61.2358 501.718 61.9261 501.718 62.7614V69H500.209V62.8636C500.209 62.0923 500.009 61.4915 499.608 61.0611C499.208 60.6264 498.658 60.4091 497.959 60.4091C497.478 60.4091 497.047 60.5135 496.668 60.7223C496.293 60.9311 495.997 61.2358 495.78 61.6364C495.562 62.0369 495.454 62.5227 495.454 63.0938ZM508.591 69.2045C507.645 69.2045 506.829 68.9957 506.143 68.5781C505.461 68.1562 504.935 67.5682 504.564 66.8139C504.197 66.0554 504.014 65.1733 504.014 64.1676C504.014 63.1619 504.197 62.2756 504.564 61.5085C504.935 60.7372 505.45 60.1364 506.111 59.706C506.776 59.2713 507.551 59.054 508.438 59.054C508.949 59.054 509.454 59.1392 509.952 59.3097C510.451 59.4801 510.905 59.7571 511.314 60.1406C511.723 60.5199 512.049 61.0227 512.292 61.6491C512.535 62.2756 512.656 63.0469 512.656 63.9631V64.6023H505.088V63.2983H511.122C511.122 62.7443 511.011 62.25 510.79 61.8153C510.572 61.3807 510.261 61.0376 509.857 60.7862C509.456 60.5348 508.983 60.4091 508.438 60.4091C507.837 60.4091 507.317 60.5582 506.878 60.8565C506.443 61.1506 506.109 61.5341 505.874 62.0071C505.64 62.4801 505.523 62.9872 505.523 63.5284V64.3977C505.523 65.1392 505.651 65.7678 505.906 66.2834C506.166 66.7947 506.526 67.1847 506.987 67.4531C507.447 67.7173 507.982 67.8494 508.591 67.8494C508.987 67.8494 509.345 67.794 509.665 67.6832C509.989 67.5682 510.268 67.3977 510.502 67.1719C510.737 66.9418 510.918 66.6562 511.045 66.3153L512.503 66.7244C512.349 67.2188 512.092 67.6534 511.729 68.0284C511.367 68.3991 510.92 68.6889 510.387 68.8977C509.854 69.1023 509.256 69.2045 508.591 69.2045ZM520.218 69V55.9091H528.119V57.3153H521.803V61.7386H527.71V63.1449H521.803V67.5938H528.221V69H520.218ZM531.896 59.1818L534.249 63.196L536.601 59.1818H538.339L535.169 64.0909L538.339 69H536.601L534.249 65.1903L531.896 69H530.158L533.277 64.0909L530.158 59.1818H531.896ZM543.381 69.2301C542.759 69.2301 542.194 69.1129 541.687 68.8786C541.18 68.6399 540.778 68.2969 540.479 67.8494C540.181 67.3977 540.032 66.8523 540.032 66.2131C540.032 65.6506 540.143 65.1946 540.364 64.8452C540.586 64.4915 540.882 64.2145 541.253 64.0142C541.623 63.8139 542.032 63.6648 542.48 63.5668C542.932 63.4645 543.385 63.3835 543.841 63.3239C544.438 63.2472 544.922 63.1896 545.292 63.1513C545.667 63.1087 545.94 63.0384 546.111 62.9403C546.285 62.8423 546.373 62.6719 546.373 62.429V62.3778C546.373 61.7472 546.2 61.2571 545.855 60.9077C545.514 60.5582 544.996 60.3835 544.302 60.3835C543.581 60.3835 543.017 60.5412 542.608 60.8565C542.199 61.1719 541.911 61.5085 541.745 61.8665L540.313 61.3551C540.569 60.7585 540.91 60.294 541.336 59.9616C541.766 59.625 542.235 59.3906 542.742 59.2585C543.253 59.1222 543.756 59.054 544.251 59.054C544.566 59.054 544.928 59.0923 545.337 59.169C545.751 59.2415 546.149 59.3928 546.532 59.6229C546.92 59.853 547.242 60.2003 547.498 60.6648C547.753 61.1293 547.881 61.7514 547.881 62.5312V69H546.373V67.6705H546.296C546.194 67.8835 546.023 68.1115 545.785 68.3544C545.546 68.5973 545.229 68.804 544.832 68.9744C544.436 69.1449 543.952 69.2301 543.381 69.2301ZM543.611 67.875C544.208 67.875 544.711 67.7578 545.12 67.5234C545.533 67.2891 545.844 66.9865 546.053 66.6158C546.266 66.245 546.373 65.8551 546.373 65.446V64.0653C546.309 64.142 546.168 64.2124 545.951 64.2763C545.738 64.3359 545.491 64.3892 545.209 64.4361C544.932 64.4787 544.662 64.517 544.398 64.5511C544.138 64.581 543.927 64.6065 543.765 64.6278C543.373 64.679 543.006 64.7621 542.665 64.8771C542.329 64.9879 542.056 65.1562 541.847 65.3821C541.643 65.6037 541.54 65.9062 541.54 66.2898C541.54 66.8139 541.734 67.2102 542.122 67.4787C542.514 67.7429 543.01 67.875 543.611 67.875ZM550.635 69V59.1818H552.092V60.7159H552.22C552.424 60.1918 552.755 59.7848 553.211 59.495C553.667 59.201 554.214 59.054 554.853 59.054C555.501 59.054 556.04 59.201 556.471 59.495C556.905 59.7848 557.244 60.1918 557.487 60.7159H557.589C557.841 60.2088 558.218 59.8061 558.721 59.5078C559.223 59.2053 559.826 59.054 560.529 59.054C561.407 59.054 562.125 59.3288 562.684 59.8786C563.242 60.424 563.521 61.2741 563.521 62.429V69H562.012V62.429C562.012 61.7045 561.814 61.1868 561.418 60.8757C561.022 60.5646 560.555 60.4091 560.018 60.4091C559.328 60.4091 558.793 60.6179 558.414 61.0355C558.034 61.4489 557.845 61.973 557.845 62.608V69H556.311V62.2756C556.311 61.7173 556.13 61.2678 555.767 60.9268C555.405 60.5817 554.939 60.4091 554.368 60.4091C553.975 60.4091 553.609 60.5135 553.268 60.7223C552.931 60.9311 552.659 61.2209 552.45 61.5916C552.245 61.9581 552.143 62.3821 552.143 62.8636V69H550.635ZM566.279 72.6818V59.1818H567.737V60.7415H567.915C568.026 60.571 568.18 60.3537 568.376 60.0895C568.576 59.821 568.862 59.5824 569.232 59.3736C569.607 59.1605 570.114 59.054 570.754 59.054C571.58 59.054 572.309 59.2607 572.94 59.674C573.57 60.0874 574.063 60.6733 574.416 61.4318C574.77 62.1903 574.947 63.0852 574.947 64.1165C574.947 65.1562 574.77 66.0575 574.416 66.8203C574.063 67.5788 573.572 68.1669 572.946 68.5845C572.32 68.9979 571.597 69.2045 570.779 69.2045C570.148 69.2045 569.643 69.1001 569.264 68.8913C568.885 68.6783 568.593 68.4375 568.388 68.169C568.184 67.8963 568.026 67.6705 567.915 67.4915H567.788V72.6818H566.279ZM567.762 64.0909C567.762 64.8324 567.871 65.4865 568.088 66.0533C568.305 66.6158 568.623 67.0568 569.04 67.3764C569.458 67.6918 569.969 67.8494 570.575 67.8494C571.205 67.8494 571.732 67.6832 572.153 67.3509C572.58 67.0142 572.899 66.5625 573.112 65.9957C573.33 65.4247 573.438 64.7898 573.438 64.0909C573.438 63.4006 573.332 62.7784 573.119 62.2244C572.91 61.6662 572.592 61.2251 572.166 60.9013C571.744 60.5732 571.214 60.4091 570.575 60.4091C569.961 60.4091 569.445 60.5646 569.028 60.8757C568.61 61.1825 568.295 61.6129 568.082 62.1669C567.869 62.7166 567.762 63.358 567.762 64.0909ZM578.756 55.9091V69H577.248V55.9091H578.756ZM585.636 69.2045C584.69 69.2045 583.874 68.9957 583.188 68.5781C582.506 68.1562 581.98 67.5682 581.609 66.8139C581.242 66.0554 581.059 65.1733 581.059 64.1676C581.059 63.1619 581.242 62.2756 581.609 61.5085C581.98 60.7372 582.495 60.1364 583.156 59.706C583.82 59.2713 584.596 59.054 585.482 59.054C585.994 59.054 586.499 59.1392 586.997 59.3097C587.496 59.4801 587.95 59.7571 588.359 60.1406C588.768 60.5199 589.094 61.0227 589.337 61.6491C589.58 62.2756 589.701 63.0469 589.701 63.9631V64.6023H582.133V63.2983H588.167C588.167 62.7443 588.056 62.25 587.835 61.8153C587.617 61.3807 587.306 61.0376 586.901 60.7862C586.501 60.5348 586.028 60.4091 585.482 60.4091C584.882 60.4091 584.362 60.5582 583.923 60.8565C583.488 61.1506 583.154 61.5341 582.919 62.0071C582.685 62.4801 582.568 62.9872 582.568 63.5284V64.3977C582.568 65.1392 582.695 65.7678 582.951 66.2834C583.211 66.7947 583.571 67.1847 584.031 67.4531C584.492 67.7173 585.026 67.8494 585.636 67.8494C586.032 67.8494 586.39 67.794 586.71 67.6832C587.034 67.5682 587.313 67.3977 587.547 67.1719C587.781 66.9418 587.963 66.6562 588.09 66.3153L589.548 66.7244C589.394 67.2188 589.137 67.6534 588.774 68.0284C588.412 68.3991 587.965 68.6889 587.432 68.8977C586.899 69.1023 586.301 69.2045 585.636 69.2045Z" fill="#5046E5"/>
</g>
<rect x="99" y="137" width="314" height="102" rx="15" stroke="#5046E5" stroke-width="2"/>
<rect x="99" y="449" width="314" height="102" rx="15" stroke="#FCA5A5" stroke-width="2"/>
<rect x="588" y="251" width="314" height="185" rx="15" stroke="#5046E5" stroke-width="2" stroke-dasharray="4 4"/>
<path d="M192.818 162.455C192.818 163.852 192.563 165.054 192.051 166.06C191.54 167.061 190.839 167.832 189.948 168.374C189.062 168.911 188.054 169.179 186.925 169.179C185.791 169.179 184.779 168.911 183.889 168.374C183.002 167.832 182.304 167.059 181.792 166.053C181.281 165.048 181.025 163.848 181.025 162.455C181.025 161.057 181.281 159.857 181.792 158.856C182.304 157.85 183.002 157.079 183.889 156.542C184.779 156.001 185.791 155.73 186.925 155.73C188.054 155.73 189.062 156.001 189.948 156.542C190.839 157.079 191.54 157.85 192.051 158.856C192.563 159.857 192.818 161.057 192.818 162.455ZM190.862 162.455C190.862 161.389 190.69 160.492 190.345 159.763C190.004 159.031 189.535 158.477 188.938 158.102C188.346 157.722 187.675 157.533 186.925 157.533C186.171 157.533 185.497 157.722 184.905 158.102C184.313 158.477 183.844 159.031 183.499 159.763C183.158 160.492 182.987 161.389 182.987 162.455C182.987 163.52 183.158 164.419 183.499 165.152C183.844 165.881 184.313 166.435 184.905 166.814C185.497 167.189 186.171 167.376 186.925 167.376C187.675 167.376 188.346 167.189 188.938 166.814C189.535 166.435 190.004 165.881 190.345 165.152C190.69 164.419 190.862 163.52 190.862 162.455ZM195.128 169V159.182H196.975V160.741H197.077C197.256 160.213 197.571 159.798 198.023 159.495C198.479 159.188 198.995 159.035 199.57 159.035C199.689 159.035 199.83 159.039 199.992 159.048C200.158 159.056 200.288 159.067 200.382 159.08V160.908C200.305 160.886 200.169 160.863 199.973 160.837C199.777 160.808 199.581 160.793 199.385 160.793C198.933 160.793 198.53 160.888 198.177 161.08C197.827 161.268 197.55 161.53 197.346 161.866C197.141 162.199 197.039 162.578 197.039 163.004V169H195.128ZM202.036 169V159.182H203.947V169H202.036ZM203.001 157.667C202.669 157.667 202.383 157.556 202.144 157.335C201.91 157.109 201.793 156.84 201.793 156.529C201.793 156.214 201.91 155.945 202.144 155.724C202.383 155.498 202.669 155.385 203.001 155.385C203.333 155.385 203.617 155.498 203.851 155.724C204.09 155.945 204.209 156.214 204.209 156.529C204.209 156.84 204.09 157.109 203.851 157.335C203.617 157.556 203.333 157.667 203.001 157.667ZM210.635 172.886C209.855 172.886 209.184 172.784 208.621 172.58C208.063 172.375 207.607 172.104 207.253 171.768C206.9 171.431 206.635 171.063 206.461 170.662L208.103 169.984C208.218 170.172 208.372 170.37 208.564 170.579C208.76 170.792 209.024 170.973 209.356 171.122C209.693 171.271 210.125 171.346 210.654 171.346C211.378 171.346 211.977 171.169 212.45 170.815C212.923 170.466 213.16 169.908 213.16 169.141V167.21H213.038C212.923 167.419 212.757 167.651 212.54 167.907C212.326 168.163 212.032 168.384 211.657 168.572C211.282 168.759 210.794 168.853 210.194 168.853C209.418 168.853 208.719 168.672 208.097 168.31C207.479 167.943 206.989 167.404 206.627 166.692C206.269 165.977 206.09 165.097 206.09 164.053C206.09 163.009 206.267 162.114 206.62 161.368C206.978 160.622 207.468 160.051 208.091 159.655C208.713 159.254 209.418 159.054 210.206 159.054C210.816 159.054 211.308 159.156 211.683 159.361C212.058 159.561 212.35 159.795 212.559 160.064C212.772 160.332 212.936 160.569 213.051 160.773H213.191V159.182H215.064V169.217C215.064 170.061 214.868 170.754 214.476 171.295C214.084 171.836 213.554 172.237 212.885 172.496C212.22 172.756 211.47 172.886 210.635 172.886ZM210.616 167.268C211.165 167.268 211.63 167.14 212.009 166.884C212.392 166.624 212.682 166.254 212.878 165.772C213.079 165.286 213.179 164.705 213.179 164.027C213.179 163.366 213.081 162.785 212.885 162.282C212.689 161.779 212.401 161.387 212.022 161.106C211.642 160.82 211.174 160.678 210.616 160.678C210.04 160.678 209.561 160.827 209.177 161.125C208.794 161.419 208.504 161.82 208.308 162.327C208.116 162.834 208.02 163.401 208.02 164.027C208.02 164.67 208.118 165.235 208.314 165.721C208.51 166.207 208.8 166.586 209.184 166.859C209.571 167.131 210.049 167.268 210.616 167.268ZM217.628 169V159.182H219.539V169H217.628ZM218.593 157.667C218.26 157.667 217.975 157.556 217.736 157.335C217.502 157.109 217.385 156.84 217.385 156.529C217.385 156.214 217.502 155.945 217.736 155.724C217.975 155.498 218.26 155.385 218.593 155.385C218.925 155.385 219.209 155.498 219.443 155.724C219.682 155.945 219.801 156.214 219.801 156.529C219.801 156.84 219.682 157.109 219.443 157.335C219.209 157.556 218.925 157.667 218.593 157.667ZM224.021 163.17V169H222.11V159.182H223.945V160.78H224.066C224.292 160.26 224.646 159.842 225.127 159.527C225.613 159.212 226.224 159.054 226.962 159.054C227.631 159.054 228.217 159.195 228.719 159.476C229.222 159.753 229.612 160.166 229.889 160.716C230.166 161.266 230.305 161.945 230.305 162.755V169H228.393V162.985C228.393 162.273 228.208 161.717 227.837 161.317C227.467 160.912 226.957 160.71 226.31 160.71C225.866 160.71 225.472 160.805 225.127 160.997C224.786 161.189 224.516 161.47 224.315 161.841C224.119 162.207 224.021 162.651 224.021 163.17ZM235.725 169.217C235.103 169.217 234.54 169.102 234.038 168.872C233.535 168.638 233.136 168.299 232.842 167.856C232.552 167.413 232.408 166.869 232.408 166.226C232.408 165.672 232.514 165.216 232.727 164.858C232.94 164.5 233.228 164.217 233.59 164.008C233.952 163.799 234.357 163.641 234.805 163.535C235.252 163.428 235.708 163.347 236.172 163.292C236.761 163.224 237.238 163.168 237.604 163.126C237.971 163.079 238.237 163.004 238.403 162.902C238.57 162.8 238.653 162.634 238.653 162.403V162.359C238.653 161.8 238.495 161.368 238.18 161.061C237.869 160.754 237.404 160.601 236.786 160.601C236.143 160.601 235.636 160.744 235.265 161.029C234.898 161.31 234.645 161.624 234.504 161.969L232.708 161.56C232.921 160.963 233.232 160.482 233.641 160.115C234.055 159.744 234.53 159.476 235.067 159.31C235.604 159.139 236.168 159.054 236.761 159.054C237.153 159.054 237.568 159.101 238.007 159.195C238.45 159.284 238.864 159.45 239.247 159.693C239.635 159.936 239.952 160.283 240.199 160.735C240.447 161.183 240.57 161.764 240.57 162.48V169H238.704V167.658H238.627C238.503 167.905 238.318 168.148 238.071 168.386C237.824 168.625 237.506 168.823 237.119 168.981C236.731 169.138 236.266 169.217 235.725 169.217ZM236.141 167.683C236.669 167.683 237.121 167.579 237.496 167.37C237.875 167.161 238.163 166.888 238.359 166.552C238.559 166.211 238.659 165.847 238.659 165.459V164.193C238.591 164.261 238.459 164.325 238.263 164.385C238.071 164.44 237.851 164.489 237.604 164.532C237.357 164.57 237.116 164.607 236.882 164.641C236.648 164.67 236.452 164.696 236.294 164.717C235.923 164.764 235.584 164.843 235.278 164.954C234.975 165.065 234.732 165.224 234.549 165.433C234.37 165.638 234.28 165.911 234.28 166.251C234.28 166.724 234.455 167.082 234.805 167.325C235.154 167.564 235.599 167.683 236.141 167.683ZM245.027 155.909V169H243.116V155.909H245.027ZM256.753 169H252.515V155.909H256.888C258.17 155.909 259.272 156.171 260.192 156.695C261.113 157.215 261.818 157.963 262.308 158.939C262.802 159.911 263.049 161.076 263.049 162.435C263.049 163.799 262.8 164.971 262.302 165.951C261.807 166.931 261.091 167.685 260.154 168.214C259.216 168.738 258.083 169 256.753 169ZM254.491 167.274H256.645C257.642 167.274 258.471 167.087 259.131 166.712C259.792 166.332 260.286 165.785 260.614 165.069C260.942 164.349 261.106 163.471 261.106 162.435C261.106 161.408 260.942 160.537 260.614 159.821C260.29 159.105 259.807 158.562 259.163 158.191C258.52 157.82 257.721 157.635 256.766 157.635H254.491V167.274ZM268.209 169.217C267.587 169.217 267.025 169.102 266.522 168.872C266.019 168.638 265.621 168.299 265.327 167.856C265.037 167.413 264.892 166.869 264.892 166.226C264.892 165.672 264.998 165.216 265.212 164.858C265.425 164.5 265.712 164.217 266.074 164.008C266.437 163.799 266.842 163.641 267.289 163.535C267.736 163.428 268.192 163.347 268.657 163.292C269.245 163.224 269.722 163.168 270.089 163.126C270.455 163.079 270.722 163.004 270.888 162.902C271.054 162.8 271.137 162.634 271.137 162.403V162.359C271.137 161.8 270.979 161.368 270.664 161.061C270.353 160.754 269.888 160.601 269.271 160.601C268.627 160.601 268.12 160.744 267.749 161.029C267.383 161.31 267.129 161.624 266.989 161.969L265.192 161.56C265.405 160.963 265.717 160.482 266.126 160.115C266.539 159.744 267.014 159.476 267.551 159.31C268.088 159.139 268.653 159.054 269.245 159.054C269.637 159.054 270.052 159.101 270.491 159.195C270.935 159.284 271.348 159.45 271.731 159.693C272.119 159.936 272.437 160.283 272.684 160.735C272.931 161.183 273.055 161.764 273.055 162.48V169H271.188V167.658H271.111C270.988 167.905 270.802 168.148 270.555 168.386C270.308 168.625 269.991 168.823 269.603 168.981C269.215 169.138 268.751 169.217 268.209 169.217ZM268.625 167.683C269.153 167.683 269.605 167.579 269.98 167.37C270.359 167.161 270.647 166.888 270.843 166.552C271.043 166.211 271.143 165.847 271.143 165.459V164.193C271.075 164.261 270.943 164.325 270.747 164.385C270.555 164.44 270.336 164.489 270.089 164.532C269.842 164.57 269.601 164.607 269.366 164.641C269.132 164.67 268.936 164.696 268.778 164.717C268.408 164.764 268.069 164.843 267.762 164.954C267.459 165.065 267.217 165.224 267.033 165.433C266.854 165.638 266.765 165.911 266.765 166.251C266.765 166.724 266.94 167.082 267.289 167.325C267.638 167.564 268.084 167.683 268.625 167.683ZM280.183 159.182V160.716H274.82V159.182H280.183ZM276.259 156.83H278.17V166.117C278.17 166.488 278.225 166.767 278.336 166.955C278.447 167.138 278.59 167.263 278.764 167.332C278.943 167.396 279.137 167.428 279.346 167.428C279.499 167.428 279.634 167.417 279.749 167.396C279.864 167.374 279.953 167.357 280.017 167.344L280.362 168.923C280.252 168.966 280.094 169.009 279.889 169.051C279.685 169.098 279.429 169.124 279.122 169.128C278.619 169.136 278.151 169.047 277.716 168.859C277.281 168.672 276.93 168.382 276.661 167.99C276.393 167.598 276.259 167.106 276.259 166.513V156.83ZM285.155 169.217C284.533 169.217 283.97 169.102 283.467 168.872C282.964 168.638 282.566 168.299 282.272 167.856C281.982 167.413 281.837 166.869 281.837 166.226C281.837 165.672 281.944 165.216 282.157 164.858C282.37 164.5 282.658 164.217 283.02 164.008C283.382 163.799 283.787 163.641 284.234 163.535C284.682 163.428 285.138 163.347 285.602 163.292C286.19 163.224 286.668 163.168 287.034 163.126C287.4 163.079 287.667 163.004 287.833 162.902C287.999 162.8 288.082 162.634 288.082 162.403V162.359C288.082 161.8 287.925 161.368 287.609 161.061C287.298 160.754 286.834 160.601 286.216 160.601C285.572 160.601 285.065 160.744 284.695 161.029C284.328 161.31 284.074 161.624 283.934 161.969L282.138 161.56C282.351 160.963 282.662 160.482 283.071 160.115C283.484 159.744 283.959 159.476 284.496 159.31C285.033 159.139 285.598 159.054 286.19 159.054C286.582 159.054 286.998 159.101 287.437 159.195C287.88 159.284 288.293 159.45 288.677 159.693C289.065 159.936 289.382 160.283 289.629 160.735C289.876 161.183 290 161.764 290 162.48V169H288.133V167.658H288.057C287.933 167.905 287.748 168.148 287.501 168.386C287.253 168.625 286.936 168.823 286.548 168.981C286.16 169.138 285.696 169.217 285.155 169.217ZM285.57 167.683C286.099 167.683 286.55 167.579 286.925 167.37C287.305 167.161 287.592 166.888 287.788 166.552C287.989 166.211 288.089 165.847 288.089 165.459V164.193C288.021 164.261 287.888 164.325 287.692 164.385C287.501 164.44 287.281 164.489 287.034 164.532C286.787 164.57 286.546 164.607 286.312 164.641C286.077 164.67 285.881 164.696 285.724 164.717C285.353 164.764 285.014 164.843 284.707 164.954C284.405 165.065 284.162 165.224 283.979 165.433C283.8 165.638 283.71 165.911 283.71 166.251C283.71 166.724 283.885 167.082 284.234 167.325C284.584 167.564 285.029 167.683 285.57 167.683ZM292.699 169V155.909H294.61V160.773H294.725C294.836 160.569 294.996 160.332 295.205 160.064C295.413 159.795 295.703 159.561 296.074 159.361C296.445 159.156 296.935 159.054 297.544 159.054C298.337 159.054 299.044 159.254 299.666 159.655C300.288 160.055 300.776 160.633 301.13 161.387C301.488 162.141 301.667 163.049 301.667 164.11C301.667 165.171 301.49 166.081 301.136 166.839C300.783 167.594 300.297 168.175 299.679 168.585C299.061 168.989 298.356 169.192 297.563 169.192C296.967 169.192 296.479 169.092 296.1 168.891C295.725 168.691 295.43 168.457 295.217 168.188C295.004 167.92 294.84 167.681 294.725 167.472H294.565V169H292.699ZM294.572 164.091C294.572 164.781 294.672 165.386 294.872 165.906C295.073 166.426 295.362 166.833 295.742 167.127C296.121 167.417 296.585 167.562 297.135 167.562C297.706 167.562 298.183 167.411 298.567 167.108C298.95 166.801 299.24 166.386 299.436 165.862C299.636 165.337 299.737 164.747 299.737 164.091C299.737 163.443 299.639 162.862 299.443 162.346C299.251 161.83 298.961 161.423 298.573 161.125C298.19 160.827 297.71 160.678 297.135 160.678C296.581 160.678 296.112 160.82 295.729 161.106C295.35 161.391 295.062 161.79 294.866 162.301C294.67 162.812 294.572 163.409 294.572 164.091ZM306.67 169.217C306.048 169.217 305.486 169.102 304.983 168.872C304.48 168.638 304.082 168.299 303.788 167.856C303.498 167.413 303.353 166.869 303.353 166.226C303.353 165.672 303.459 165.216 303.672 164.858C303.886 164.5 304.173 164.217 304.535 164.008C304.898 163.799 305.302 163.641 305.75 163.535C306.197 163.428 306.653 163.347 307.118 163.292C307.706 163.224 308.183 163.168 308.55 163.126C308.916 163.079 309.182 163.004 309.349 162.902C309.515 162.8 309.598 162.634 309.598 162.403V162.359C309.598 161.8 309.44 161.368 309.125 161.061C308.814 160.754 308.349 160.601 307.731 160.601C307.088 160.601 306.581 160.744 306.21 161.029C305.844 161.31 305.59 161.624 305.449 161.969L303.653 161.56C303.866 160.963 304.177 160.482 304.587 160.115C305 159.744 305.475 159.476 306.012 159.31C306.549 159.139 307.114 159.054 307.706 159.054C308.098 159.054 308.513 159.101 308.952 159.195C309.396 159.284 309.809 159.45 310.192 159.693C310.58 159.936 310.898 160.283 311.145 160.735C311.392 161.183 311.516 161.764 311.516 162.48V169H309.649V167.658H309.572C309.449 167.905 309.263 168.148 309.016 168.386C308.769 168.625 308.452 168.823 308.064 168.981C307.676 169.138 307.212 169.217 306.67 169.217ZM307.086 167.683C307.614 167.683 308.066 167.579 308.441 167.37C308.82 167.161 309.108 166.888 309.304 166.552C309.504 166.211 309.604 165.847 309.604 165.459V164.193C309.536 164.261 309.404 164.325 309.208 164.385C309.016 164.44 308.797 164.489 308.55 164.532C308.302 164.57 308.062 164.607 307.827 164.641C307.593 164.67 307.397 164.696 307.239 164.717C306.869 164.764 306.53 164.843 306.223 164.954C305.92 165.065 305.677 165.224 305.494 165.433C305.315 165.638 305.226 165.911 305.226 166.251C305.226 166.724 305.4 167.082 305.75 167.325C306.099 167.564 306.545 167.683 307.086 167.683ZM321.418 161.579L319.686 161.886C319.614 161.664 319.499 161.453 319.341 161.253C319.188 161.053 318.979 160.888 318.715 160.761C318.45 160.633 318.12 160.569 317.724 160.569C317.183 160.569 316.731 160.69 316.369 160.933C316.006 161.172 315.825 161.481 315.825 161.86C315.825 162.188 315.947 162.452 316.19 162.653C316.433 162.853 316.825 163.017 317.366 163.145L318.926 163.503C319.829 163.712 320.502 164.033 320.945 164.468C321.389 164.903 321.61 165.467 321.61 166.162C321.61 166.75 321.44 167.274 321.099 167.734C320.762 168.19 320.291 168.548 319.686 168.808C319.085 169.068 318.389 169.198 317.596 169.198C316.497 169.198 315.6 168.964 314.905 168.495C314.21 168.022 313.784 167.351 313.627 166.482L315.474 166.2C315.589 166.682 315.825 167.046 316.183 167.293C316.541 167.536 317.008 167.658 317.583 167.658C318.21 167.658 318.71 167.528 319.085 167.268C319.46 167.004 319.648 166.682 319.648 166.303C319.648 165.996 319.533 165.738 319.303 165.529C319.077 165.32 318.729 165.163 318.261 165.056L316.599 164.692C315.683 164.483 315.005 164.151 314.566 163.695C314.131 163.239 313.914 162.661 313.914 161.962C313.914 161.383 314.076 160.876 314.4 160.441C314.724 160.006 315.171 159.668 315.742 159.425C316.313 159.178 316.967 159.054 317.705 159.054C318.766 159.054 319.601 159.284 320.21 159.744C320.82 160.2 321.222 160.812 321.418 161.579ZM327.943 169.198C326.976 169.198 326.143 168.991 325.444 168.578C324.749 168.161 324.212 167.575 323.833 166.82C323.458 166.062 323.271 165.173 323.271 164.155C323.271 163.149 323.458 162.263 323.833 161.496C324.212 160.729 324.741 160.13 325.418 159.7C326.1 159.269 326.897 159.054 327.809 159.054C328.363 159.054 328.9 159.146 329.42 159.329C329.94 159.512 330.406 159.8 330.82 160.192C331.233 160.584 331.559 161.093 331.797 161.719C332.036 162.342 332.155 163.098 332.155 163.989V164.666H324.351V163.234H330.283C330.283 162.732 330.18 162.286 329.976 161.898C329.771 161.506 329.484 161.197 329.113 160.972C328.746 160.746 328.316 160.633 327.822 160.633C327.285 160.633 326.816 160.765 326.415 161.029C326.019 161.289 325.712 161.63 325.495 162.052C325.282 162.469 325.175 162.923 325.175 163.413V164.532C325.175 165.188 325.29 165.746 325.521 166.207C325.755 166.667 326.081 167.018 326.498 167.261C326.916 167.5 327.404 167.619 327.962 167.619C328.324 167.619 328.655 167.568 328.953 167.466C329.251 167.359 329.509 167.202 329.726 166.993C329.944 166.784 330.11 166.526 330.225 166.219L332.034 166.545C331.889 167.078 331.629 167.545 331.254 167.945C330.883 168.342 330.417 168.651 329.854 168.872C329.296 169.089 328.659 169.198 327.943 169.198Z" fill="#1E1B4B"/>
<path d="M186.172 467.609V465.909H196.303V467.609H192.218V479H190.25V467.609H186.172ZM199.91 479.217C199.287 479.217 198.725 479.102 198.222 478.872C197.719 478.638 197.321 478.299 197.027 477.856C196.737 477.413 196.592 476.869 196.592 476.226C196.592 475.672 196.699 475.216 196.912 474.858C197.125 474.5 197.412 474.217 197.775 474.008C198.137 473.799 198.542 473.641 198.989 473.535C199.437 473.428 199.893 473.347 200.357 473.292C200.945 473.224 201.422 473.168 201.789 473.126C202.155 473.079 202.422 473.004 202.588 472.902C202.754 472.8 202.837 472.634 202.837 472.403V472.359C202.837 471.8 202.68 471.368 202.364 471.061C202.053 470.754 201.589 470.601 200.971 470.601C200.327 470.601 199.82 470.744 199.449 471.029C199.083 471.31 198.829 471.624 198.689 471.969L196.893 471.56C197.106 470.963 197.417 470.482 197.826 470.115C198.239 469.744 198.714 469.476 199.251 469.31C199.788 469.139 200.353 469.054 200.945 469.054C201.337 469.054 201.753 469.101 202.192 469.195C202.635 469.284 203.048 469.45 203.432 469.693C203.819 469.936 204.137 470.283 204.384 470.735C204.631 471.183 204.755 471.764 204.755 472.48V479H202.888V477.658H202.812C202.688 477.905 202.503 478.148 202.256 478.386C202.008 478.625 201.691 478.823 201.303 478.981C200.915 479.138 200.451 479.217 199.91 479.217ZM200.325 477.683C200.854 477.683 201.305 477.579 201.68 477.37C202.059 477.161 202.347 476.888 202.543 476.552C202.743 476.211 202.844 475.847 202.844 475.459V474.193C202.775 474.261 202.643 474.325 202.447 474.385C202.256 474.44 202.036 474.489 201.789 474.532C201.542 474.57 201.301 474.607 201.067 474.641C200.832 474.67 200.636 474.696 200.479 474.717C200.108 474.764 199.769 474.843 199.462 474.954C199.16 475.065 198.917 475.224 198.733 475.433C198.555 475.638 198.465 475.911 198.465 476.251C198.465 476.724 198.64 477.082 198.989 477.325C199.339 477.564 199.784 477.683 200.325 477.683ZM207.3 479V469.182H209.148V470.741H209.25C209.429 470.213 209.744 469.798 210.196 469.495C210.652 469.188 211.168 469.035 211.743 469.035C211.862 469.035 212.003 469.039 212.165 469.048C212.331 469.056 212.461 469.067 212.555 469.08V470.908C212.478 470.886 212.342 470.863 212.146 470.837C211.95 470.808 211.754 470.793 211.558 470.793C211.106 470.793 210.703 470.888 210.349 471.08C210 471.268 209.723 471.53 209.518 471.866C209.314 472.199 209.212 472.578 209.212 473.004V479H207.3ZM217.974 482.886C217.194 482.886 216.523 482.784 215.96 482.58C215.402 482.375 214.946 482.104 214.592 481.768C214.238 481.431 213.974 481.063 213.8 480.662L215.442 479.984C215.557 480.172 215.711 480.37 215.903 480.579C216.099 480.792 216.363 480.973 216.695 481.122C217.032 481.271 217.464 481.346 217.993 481.346C218.717 481.346 219.316 481.169 219.789 480.815C220.262 480.466 220.498 479.908 220.498 479.141V477.21H220.377C220.262 477.419 220.096 477.651 219.878 477.907C219.665 478.163 219.371 478.384 218.996 478.572C218.621 478.759 218.133 478.853 217.532 478.853C216.757 478.853 216.058 478.672 215.436 478.31C214.818 477.943 214.328 477.404 213.966 476.692C213.608 475.977 213.429 475.097 213.429 474.053C213.429 473.009 213.606 472.114 213.959 471.368C214.317 470.622 214.807 470.051 215.43 469.655C216.052 469.254 216.757 469.054 217.545 469.054C218.155 469.054 218.647 469.156 219.022 469.361C219.397 469.561 219.689 469.795 219.898 470.064C220.111 470.332 220.275 470.569 220.39 470.773H220.53V469.182H222.403V479.217C222.403 480.061 222.207 480.754 221.815 481.295C221.423 481.836 220.893 482.237 220.224 482.496C219.559 482.756 218.809 482.886 217.974 482.886ZM217.954 477.268C218.504 477.268 218.969 477.14 219.348 476.884C219.731 476.624 220.021 476.254 220.217 475.772C220.417 475.286 220.518 474.705 220.518 474.027C220.518 473.366 220.42 472.785 220.224 472.282C220.028 471.779 219.74 471.387 219.361 471.106C218.981 470.82 218.513 470.678 217.954 470.678C217.379 470.678 216.9 470.827 216.516 471.125C216.133 471.419 215.843 471.82 215.647 472.327C215.455 472.834 215.359 473.401 215.359 474.027C215.359 474.67 215.457 475.235 215.653 475.721C215.849 476.207 216.139 476.586 216.523 476.859C216.91 477.131 217.388 477.268 217.954 477.268ZM229.198 479.198C228.231 479.198 227.398 478.991 226.699 478.578C226.004 478.161 225.467 477.575 225.088 476.82C224.713 476.062 224.525 475.173 224.525 474.155C224.525 473.149 224.713 472.263 225.088 471.496C225.467 470.729 225.996 470.13 226.673 469.7C227.355 469.269 228.152 469.054 229.064 469.054C229.618 469.054 230.155 469.146 230.675 469.329C231.194 469.512 231.661 469.8 232.074 470.192C232.488 470.584 232.814 471.093 233.052 471.719C233.291 472.342 233.41 473.098 233.41 473.989V474.666H225.606V473.234H231.537C231.537 472.732 231.435 472.286 231.231 471.898C231.026 471.506 230.738 471.197 230.368 470.972C230.001 470.746 229.571 470.633 229.077 470.633C228.54 470.633 228.071 470.765 227.67 471.029C227.274 471.289 226.967 471.63 226.75 472.052C226.537 472.469 226.43 472.923 226.43 473.413V474.532C226.43 475.188 226.545 475.746 226.775 476.207C227.01 476.667 227.336 477.018 227.753 477.261C228.171 477.5 228.659 477.619 229.217 477.619C229.579 477.619 229.91 477.568 230.208 477.466C230.506 477.359 230.764 477.202 230.981 476.993C231.199 476.784 231.365 476.526 231.48 476.219L233.289 476.545C233.144 477.078 232.884 477.545 232.509 477.945C232.138 478.342 231.672 478.651 231.109 478.872C230.551 479.089 229.914 479.198 229.198 479.198ZM240.114 469.182V470.716H234.751V469.182H240.114ZM236.189 466.83H238.1V476.117C238.1 476.488 238.156 476.767 238.267 476.955C238.377 477.138 238.52 477.263 238.695 477.332C238.874 477.396 239.068 477.428 239.277 477.428C239.43 477.428 239.564 477.417 239.679 477.396C239.794 477.374 239.884 477.357 239.948 477.344L240.293 478.923C240.182 478.966 240.025 479.009 239.82 479.051C239.615 479.098 239.36 479.124 239.053 479.128C238.55 479.136 238.081 479.047 237.647 478.859C237.212 478.672 236.86 478.382 236.592 477.99C236.324 477.598 236.189 477.106 236.189 476.513V466.83ZM251.383 479H247.145V465.909H251.517C252.8 465.909 253.902 466.171 254.822 466.695C255.743 467.215 256.448 467.963 256.938 468.939C257.432 469.911 257.679 471.076 257.679 472.435C257.679 473.799 257.43 474.971 256.931 475.951C256.437 476.931 255.721 477.685 254.784 478.214C253.846 478.738 252.713 479 251.383 479ZM249.12 477.274H251.275C252.272 477.274 253.1 477.087 253.761 476.712C254.422 476.332 254.916 475.785 255.244 475.069C255.572 474.349 255.736 473.471 255.736 472.435C255.736 471.408 255.572 470.537 255.244 469.821C254.92 469.105 254.436 468.562 253.793 468.191C253.15 467.82 252.35 467.635 251.396 467.635H249.12V477.274ZM262.839 479.217C262.217 479.217 261.655 479.102 261.152 478.872C260.649 478.638 260.251 478.299 259.956 477.856C259.667 477.413 259.522 476.869 259.522 476.226C259.522 475.672 259.628 475.216 259.841 474.858C260.055 474.5 260.342 474.217 260.704 474.008C261.067 473.799 261.471 473.641 261.919 473.535C262.366 473.428 262.822 473.347 263.287 473.292C263.875 473.224 264.352 473.168 264.719 473.126C265.085 473.079 265.351 473.004 265.518 472.902C265.684 472.8 265.767 472.634 265.767 472.403V472.359C265.767 471.8 265.609 471.368 265.294 471.061C264.983 470.754 264.518 470.601 263.9 470.601C263.257 470.601 262.75 470.744 262.379 471.029C262.013 471.31 261.759 471.624 261.618 471.969L259.822 471.56C260.035 470.963 260.346 470.482 260.756 470.115C261.169 469.744 261.644 469.476 262.181 469.31C262.718 469.139 263.282 469.054 263.875 469.054C264.267 469.054 264.682 469.101 265.121 469.195C265.564 469.284 265.978 469.45 266.361 469.693C266.749 469.936 267.067 470.283 267.314 470.735C267.561 471.183 267.684 471.764 267.684 472.48V479H265.818V477.658H265.741C265.618 477.905 265.432 478.148 265.185 478.386C264.938 478.625 264.621 478.823 264.233 478.981C263.845 479.138 263.381 479.217 262.839 479.217ZM263.255 477.683C263.783 477.683 264.235 477.579 264.61 477.37C264.989 477.161 265.277 476.888 265.473 476.552C265.673 476.211 265.773 475.847 265.773 475.459V474.193C265.705 474.261 265.573 474.325 265.377 474.385C265.185 474.44 264.966 474.489 264.719 474.532C264.471 474.57 264.231 474.607 263.996 474.641C263.762 474.67 263.566 474.696 263.408 474.717C263.037 474.764 262.699 474.843 262.392 474.954C262.089 475.065 261.846 475.224 261.663 475.433C261.484 475.638 261.395 475.911 261.395 476.251C261.395 476.724 261.569 477.082 261.919 477.325C262.268 477.564 262.714 477.683 263.255 477.683ZM274.813 469.182V470.716H269.45V469.182H274.813ZM270.888 466.83H272.8V476.117C272.8 476.488 272.855 476.767 272.966 476.955C273.077 477.138 273.219 477.263 273.394 477.332C273.573 477.396 273.767 477.428 273.976 477.428C274.129 477.428 274.263 477.417 274.379 477.396C274.494 477.374 274.583 477.357 274.647 477.344L274.992 478.923C274.881 478.966 274.724 479.009 274.519 479.051C274.315 479.098 274.059 479.124 273.752 479.128C273.249 479.136 272.781 479.047 272.346 478.859C271.911 478.672 271.56 478.382 271.291 477.99C271.023 477.598 270.888 477.106 270.888 476.513V466.83ZM279.785 479.217C279.162 479.217 278.6 479.102 278.097 478.872C277.594 478.638 277.196 478.299 276.902 477.856C276.612 477.413 276.467 476.869 276.467 476.226C276.467 475.672 276.574 475.216 276.787 474.858C277 474.5 277.287 474.217 277.65 474.008C278.012 473.799 278.417 473.641 278.864 473.535C279.312 473.428 279.768 473.347 280.232 473.292C280.82 473.224 281.297 473.168 281.664 473.126C282.03 473.079 282.297 473.004 282.463 472.902C282.629 472.8 282.712 472.634 282.712 472.403V472.359C282.712 471.8 282.555 471.368 282.239 471.061C281.928 470.754 281.464 470.601 280.846 470.601C280.202 470.601 279.695 470.744 279.324 471.029C278.958 471.31 278.704 471.624 278.564 471.969L276.768 471.56C276.981 470.963 277.292 470.482 277.701 470.115C278.114 469.744 278.589 469.476 279.126 469.31C279.663 469.139 280.228 469.054 280.82 469.054C281.212 469.054 281.628 469.101 282.067 469.195C282.51 469.284 282.923 469.45 283.307 469.693C283.694 469.936 284.012 470.283 284.259 470.735C284.506 471.183 284.63 471.764 284.63 472.48V479H282.763V477.658H282.687C282.563 477.905 282.378 478.148 282.131 478.386C281.883 478.625 281.566 478.823 281.178 478.981C280.79 479.138 280.326 479.217 279.785 479.217ZM280.2 477.683C280.729 477.683 281.18 477.579 281.555 477.37C281.934 477.161 282.222 476.888 282.418 476.552C282.618 476.211 282.719 475.847 282.719 475.459V474.193C282.65 474.261 282.518 474.325 282.322 474.385C282.131 474.44 281.911 474.489 281.664 474.532C281.417 474.57 281.176 474.607 280.942 474.641C280.707 474.67 280.511 474.696 280.354 474.717C279.983 474.764 279.644 474.843 279.337 474.954C279.035 475.065 278.792 475.224 278.608 475.433C278.43 475.638 278.34 475.911 278.34 476.251C278.34 476.724 278.515 477.082 278.864 477.325C279.214 477.564 279.659 477.683 280.2 477.683ZM287.329 479V465.909H289.24V470.773H289.355C289.466 470.569 289.626 470.332 289.835 470.064C290.043 469.795 290.333 469.561 290.704 469.361C291.075 469.156 291.565 469.054 292.174 469.054C292.967 469.054 293.674 469.254 294.296 469.655C294.918 470.055 295.406 470.633 295.76 471.387C296.118 472.141 296.297 473.049 296.297 474.11C296.297 475.171 296.12 476.081 295.766 476.839C295.413 477.594 294.927 478.175 294.309 478.585C293.691 478.989 292.986 479.192 292.193 479.192C291.597 479.192 291.109 479.092 290.729 478.891C290.354 478.691 290.06 478.457 289.847 478.188C289.634 477.92 289.47 477.681 289.355 477.472H289.195V479H287.329ZM289.202 474.091C289.202 474.781 289.302 475.386 289.502 475.906C289.702 476.426 289.992 476.833 290.371 477.127C290.751 477.417 291.215 477.562 291.765 477.562C292.336 477.562 292.813 477.411 293.197 477.108C293.58 476.801 293.87 476.386 294.066 475.862C294.266 475.337 294.366 474.747 294.366 474.091C294.366 473.443 294.268 472.862 294.072 472.346C293.881 471.83 293.591 471.423 293.203 471.125C292.82 470.827 292.34 470.678 291.765 470.678C291.211 470.678 290.742 470.82 290.359 471.106C289.979 471.391 289.692 471.79 289.496 472.301C289.3 472.812 289.202 473.409 289.202 474.091ZM301.3 479.217C300.678 479.217 300.116 479.102 299.613 478.872C299.11 478.638 298.711 478.299 298.417 477.856C298.128 477.413 297.983 476.869 297.983 476.226C297.983 475.672 298.089 475.216 298.302 474.858C298.515 474.5 298.803 474.217 299.165 474.008C299.528 473.799 299.932 473.641 300.38 473.535C300.827 473.428 301.283 473.347 301.748 473.292C302.336 473.224 302.813 473.168 303.18 473.126C303.546 473.079 303.812 473.004 303.979 472.902C304.145 472.8 304.228 472.634 304.228 472.403V472.359C304.228 471.8 304.07 471.368 303.755 471.061C303.444 470.754 302.979 470.601 302.361 470.601C301.718 470.601 301.211 470.744 300.84 471.029C300.474 471.31 300.22 471.624 300.079 471.969L298.283 471.56C298.496 470.963 298.807 470.482 299.216 470.115C299.63 469.744 300.105 469.476 300.642 469.31C301.179 469.139 301.743 469.054 302.336 469.054C302.728 469.054 303.143 469.101 303.582 469.195C304.025 469.284 304.439 469.45 304.822 469.693C305.21 469.936 305.528 470.283 305.775 470.735C306.022 471.183 306.145 471.764 306.145 472.48V479H304.279V477.658H304.202C304.079 477.905 303.893 478.148 303.646 478.386C303.399 478.625 303.081 478.823 302.694 478.981C302.306 479.138 301.841 479.217 301.3 479.217ZM301.716 477.683C302.244 477.683 302.696 477.579 303.071 477.37C303.45 477.161 303.738 476.888 303.934 476.552C304.134 476.211 304.234 475.847 304.234 475.459V474.193C304.166 474.261 304.034 474.325 303.838 474.385C303.646 474.44 303.427 474.489 303.18 474.532C302.932 474.57 302.692 474.607 302.457 474.641C302.223 474.67 302.027 474.696 301.869 474.717C301.498 474.764 301.16 474.843 300.853 474.954C300.55 475.065 300.307 475.224 300.124 475.433C299.945 475.638 299.856 475.911 299.856 476.251C299.856 476.724 300.03 477.082 300.38 477.325C300.729 477.564 301.175 477.683 301.716 477.683ZM316.048 471.579L314.316 471.886C314.244 471.664 314.129 471.453 313.971 471.253C313.817 471.053 313.609 470.888 313.344 470.761C313.08 470.633 312.75 470.569 312.354 470.569C311.813 470.569 311.361 470.69 310.999 470.933C310.636 471.172 310.455 471.481 310.455 471.86C310.455 472.188 310.577 472.452 310.82 472.653C311.063 472.853 311.455 473.017 311.996 473.145L313.555 473.503C314.459 473.712 315.132 474.033 315.575 474.468C316.018 474.903 316.24 475.467 316.24 476.162C316.24 476.75 316.07 477.274 315.729 477.734C315.392 478.19 314.921 478.548 314.316 478.808C313.715 479.068 313.018 479.198 312.226 479.198C311.126 479.198 310.229 478.964 309.535 478.495C308.84 478.022 308.414 477.351 308.256 476.482L310.104 476.2C310.219 476.682 310.455 477.046 310.813 477.293C311.171 477.536 311.638 477.658 312.213 477.658C312.839 477.658 313.34 477.528 313.715 477.268C314.09 477.004 314.278 476.682 314.278 476.303C314.278 475.996 314.163 475.738 313.933 475.529C313.707 475.32 313.359 475.163 312.891 475.056L311.229 474.692C310.313 474.483 309.635 474.151 309.196 473.695C308.761 473.239 308.544 472.661 308.544 471.962C308.544 471.383 308.706 470.876 309.03 470.441C309.354 470.006 309.801 469.668 310.372 469.425C310.943 469.178 311.597 469.054 312.335 469.054C313.396 469.054 314.231 469.284 314.84 469.744C315.45 470.2 315.852 470.812 316.048 471.579ZM322.573 479.198C321.606 479.198 320.773 478.991 320.074 478.578C319.379 478.161 318.842 477.575 318.463 476.82C318.088 476.062 317.9 475.173 317.9 474.155C317.9 473.149 318.088 472.263 318.463 471.496C318.842 470.729 319.371 470.13 320.048 469.7C320.73 469.269 321.527 469.054 322.439 469.054C322.993 469.054 323.53 469.146 324.05 469.329C324.569 469.512 325.036 469.8 325.449 470.192C325.863 470.584 326.189 471.093 326.427 471.719C326.666 472.342 326.785 473.098 326.785 473.989V474.666H318.981V473.234H324.912C324.912 472.732 324.81 472.286 324.606 471.898C324.401 471.506 324.113 471.197 323.743 470.972C323.376 470.746 322.946 470.633 322.452 470.633C321.915 470.633 321.446 470.765 321.045 471.029C320.649 471.289 320.342 471.63 320.125 472.052C319.912 472.469 319.805 472.923 319.805 473.413V474.532C319.805 475.188 319.92 475.746 320.15 476.207C320.385 476.667 320.711 477.018 321.128 477.261C321.546 477.5 322.034 477.619 322.592 477.619C322.954 477.619 323.285 477.568 323.583 477.466C323.881 477.359 324.139 477.202 324.356 476.993C324.574 476.784 324.74 476.526 324.855 476.219L326.664 476.545C326.519 477.078 326.259 477.545 325.884 477.945C325.513 478.342 325.047 478.651 324.484 478.872C323.926 479.089 323.289 479.198 322.573 479.198Z" fill="#1E1B4B"/>
<rect x="113" y="189" width="22" height="22" stroke="#4F46E5" stroke-width="2"/>
<rect x="135" y="189" width="22" height="22" stroke="#4F46E5" stroke-width="2"/>
<rect x="157" y="189" width="22" height="22" stroke="#4F46E5" stroke-width="2"/>
<rect x="179" y="189" width="22" height="22" stroke="#4F46E5" stroke-width="2"/>
<rect x="201" y="189" width="22" height="22" stroke="#4F46E5" stroke-width="2"/>
<rect x="223" y="189" width="22" height="22" stroke="#4F46E5" stroke-width="2"/>
<rect x="245" y="189" width="22" height="22" stroke="#4F46E5" stroke-width="2"/>
<rect x="267" y="189" width="22" height="22" stroke="#4F46E5" stroke-width="2"/>
<rect x="289" y="189" width="22" height="22" stroke="#4F46E5" stroke-width="2"/>
<rect x="311" y="189" width="22" height="22" stroke="#4F46E5" stroke-width="2"/>
<rect x="333" y="189" width="22" height="22" stroke="#4F46E5" stroke-width="2"/>
<rect x="355" y="189" width="22" height="22" stroke="#4F46E5" stroke-width="2"/>
<rect x="377" y="189" width="22" height="22" stroke="#4F46E5" stroke-width="2"/>
<rect x="605" y="299" width="22" height="22" stroke="#4F46E5" stroke-width="2"/>
<rect x="627" y="299" width="22" height="22" stroke="#4F46E5" stroke-width="2"/>
<rect x="649" y="299" width="22" height="22" stroke="#4F46E5" stroke-width="2"/>
<rect x="671" y="299" width="22" height="22" stroke="#4F46E5" stroke-width="2"/>
<rect x="693" y="299" width="22" height="22" stroke="#4F46E5" stroke-width="2"/>
<rect x="715" y="299" width="22" height="22" stroke="#4F46E5" stroke-width="2"/>
<rect x="737" y="299" width="22" height="22" stroke="#4F46E5" stroke-width="2"/>
<rect x="759" y="299" width="22" height="22" stroke="#4F46E5" stroke-width="2"/>
<rect x="781" y="299" width="22" height="22" stroke="#4F46E5" stroke-width="2"/>
<rect x="803" y="299" width="22" height="22" stroke="#4F46E5" stroke-width="2"/>
<rect x="825" y="299" width="22" height="22" stroke="#4F46E5" stroke-width="2"/>
<rect x="847" y="299" width="22" height="22" stroke="#4F46E5" stroke-width="2"/>
<rect x="869" y="299" width="22" height="22" stroke="#4F46E5" stroke-width="2"/>
<rect x="626" y="397" width="22" height="22" stroke="#FCA5A5" stroke-width="2"/>
<rect x="648" y="397" width="22" height="22" stroke="#FCA5A5" stroke-width="2"/>
<rect x="670" y="397" width="22" height="22" stroke="#FCA5A5" stroke-width="2"/>
<rect x="637" y="375" width="22" height="22" stroke="#FCA5A5" stroke-width="2"/>
<rect x="659" y="375" width="22" height="22" stroke="#FCA5A5" stroke-width="2"/>
<rect x="712" y="397" width="22" height="22" stroke="#FCA5A5" stroke-width="2"/>
<rect x="734" y="397" width="22" height="22" stroke="#FCA5A5" stroke-width="2"/>
<rect x="756" y="397" width="22" height="22" stroke="#FCA5A5" stroke-width="2"/>
<rect x="723" y="375" width="22" height="22" stroke="#FCA5A5" stroke-width="2"/>
<rect x="745" y="375" width="22" height="22" stroke="#FCA5A5" stroke-width="2"/>
<rect x="798" y="397" width="22" height="22" stroke="#FCA5A5" stroke-width="2"/>
<rect x="820" y="397" width="22" height="22" stroke="#FCA5A5" stroke-width="2"/>
<rect x="842" y="397" width="22" height="22" stroke="#FCA5A5" stroke-width="2"/>
<rect x="809" y="375" width="22" height="22" stroke="#FCA5A5" stroke-width="2"/>
<rect x="831" y="375" width="22" height="22" stroke="#FCA5A5" stroke-width="2"/>
<rect x="137" y="516" width="22" height="22" stroke="#FCA5A5" stroke-width="2"/>
<rect x="159" y="516" width="22" height="22" stroke="#FCA5A5" stroke-width="2"/>
<rect x="181" y="516" width="22" height="22" stroke="#FCA5A5" stroke-width="2"/>
<rect x="148" y="494" width="22" height="22" stroke="#FCA5A5" stroke-width="2"/>
<rect x="170" y="494" width="22" height="22" stroke="#FCA5A5" stroke-width="2"/>
<rect x="223" y="516" width="22" height="22" stroke="#FCA5A5" stroke-width="2"/>
<rect x="245" y="516" width="22" height="22" stroke="#FCA5A5" stroke-width="2"/>
<rect x="267" y="516" width="22" height="22" stroke="#FCA5A5" stroke-width="2"/>
<rect x="234" y="494" width="22" height="22" stroke="#FCA5A5" stroke-width="2"/>
<rect x="256" y="494" width="22" height="22" stroke="#FCA5A5" stroke-width="2"/>
<rect x="309" y="516" width="22" height="22" stroke="#FCA5A5" stroke-width="2"/>
<rect x="331" y="516" width="22" height="22" stroke="#FCA5A5" stroke-width="2"/>
<rect x="353" y="516" width="22" height="22" stroke="#FCA5A5" stroke-width="2"/>
<rect x="320" y="494" width="22" height="22" stroke="#FCA5A5" stroke-width="2"/>
<rect x="342" y="494" width="22" height="22" stroke="#FCA5A5" stroke-width="2"/>
<path d="M744.5 187.5H745.5V186.5H744.5V187.5ZM743.793 236.207C744.183 236.598 744.817 236.598 745.207 236.207L751.571 229.843C751.962 229.453 751.962 228.819 751.571 228.429C751.181 228.038 750.547 228.038 750.157 228.429L744.5 234.086L738.843 228.429C738.453 228.038 737.819 228.038 737.429 228.429C737.038 228.819 737.038 229.453 737.429 229.843L743.793 236.207ZM422 187.5V188.5H744.5V187.5V186.5H422V187.5ZM744.5 187.5H743.5V235.5H744.5H745.5V187.5H744.5Z" fill="#1E1B4B"/>
<path d="M422.293 500.707C421.902 500.317 421.902 499.683 422.293 499.293L428.657 492.929C429.047 492.538 429.681 492.538 430.071 492.929C430.462 493.319 430.462 493.953 430.071 494.343L424.414 500L430.071 505.657C430.462 506.047 430.462 506.681 430.071 507.071C429.681 507.462 429.047 507.462 428.657 507.071L422.293 500.707ZM745.5 500H746.5V501H745.5V500ZM423 500V499H745.5V500V501H423V500ZM745.5 500H744.5V452H745.5H746.5V500H745.5Z" fill="#1E1B4B"/>
<path d="M559.724 178V167.818H565.869V168.912H560.957V172.352H565.551V173.446H560.957V176.906H565.949V178H559.724ZM568.807 170.364L570.637 173.486L572.466 170.364H573.819L571.353 174.182L573.819 178H572.466L570.637 175.037L568.807 178H567.455L569.881 174.182L567.455 170.364H568.807ZM578.814 170.364V171.358H574.856V170.364H578.814ZM576.01 168.534H577.183V175.812C577.183 176.144 577.231 176.393 577.327 176.558C577.427 176.721 577.553 176.83 577.705 176.886C577.861 176.939 578.025 176.966 578.197 176.966C578.327 176.966 578.433 176.959 578.516 176.946C578.598 176.929 578.665 176.916 578.714 176.906L578.953 177.96C578.873 177.99 578.762 178.02 578.62 178.05C578.477 178.083 578.297 178.099 578.078 178.099C577.747 178.099 577.422 178.028 577.104 177.886C576.789 177.743 576.527 177.526 576.318 177.234C576.113 176.943 576.01 176.575 576.01 176.131V168.534ZM580.579 178V170.364H581.712V171.517H581.792C581.931 171.139 582.183 170.833 582.547 170.597C582.912 170.362 583.323 170.244 583.78 170.244C583.867 170.244 583.974 170.246 584.104 170.249C584.233 170.253 584.331 170.258 584.397 170.264V171.457C584.357 171.447 584.266 171.433 584.123 171.413C583.984 171.389 583.837 171.378 583.681 171.378C583.31 171.378 582.978 171.456 582.687 171.612C582.398 171.764 582.17 171.976 582.001 172.248C581.835 172.516 581.752 172.823 581.752 173.168V178H580.579ZM588.035 178.179C587.551 178.179 587.112 178.088 586.717 177.906C586.323 177.72 586.01 177.453 585.778 177.105C585.546 176.754 585.43 176.33 585.43 175.832C585.43 175.395 585.516 175.04 585.688 174.768C585.861 174.493 586.091 174.278 586.379 174.122C586.668 173.966 586.986 173.85 587.334 173.774C587.685 173.695 588.038 173.632 588.393 173.585C588.857 173.526 589.233 173.481 589.521 173.451C589.813 173.418 590.025 173.363 590.158 173.287C590.294 173.211 590.362 173.078 590.362 172.889V172.849C590.362 172.359 590.227 171.978 589.959 171.706C589.694 171.434 589.291 171.298 588.751 171.298C588.191 171.298 587.752 171.421 587.433 171.666C587.115 171.911 586.891 172.173 586.762 172.452L585.649 172.054C585.847 171.59 586.113 171.229 586.444 170.97C586.779 170.708 587.143 170.526 587.538 170.423C587.935 170.317 588.327 170.264 588.711 170.264C588.956 170.264 589.238 170.294 589.556 170.354C589.878 170.41 590.188 170.528 590.486 170.707C590.787 170.886 591.038 171.156 591.237 171.517C591.435 171.878 591.535 172.362 591.535 172.969V178H590.362V176.966H590.302C590.222 177.132 590.09 177.309 589.904 177.498C589.719 177.687 589.472 177.848 589.163 177.98C588.855 178.113 588.479 178.179 588.035 178.179ZM588.214 177.125C588.678 177.125 589.069 177.034 589.387 176.852C589.709 176.669 589.951 176.434 590.113 176.146C590.279 175.857 590.362 175.554 590.362 175.236V174.162C590.312 174.222 590.203 174.276 590.033 174.326C589.868 174.372 589.676 174.414 589.457 174.45C589.241 174.483 589.031 174.513 588.825 174.54C588.623 174.563 588.459 174.583 588.333 174.599C588.028 174.639 587.743 174.704 587.478 174.793C587.216 174.879 587.004 175.01 586.842 175.186C586.683 175.358 586.603 175.594 586.603 175.892C586.603 176.3 586.754 176.608 587.055 176.817C587.36 177.022 587.747 177.125 588.214 177.125ZM596.779 178.159C596.063 178.159 595.446 177.99 594.929 177.652C594.412 177.314 594.014 176.848 593.736 176.255C593.458 175.662 593.318 174.984 593.318 174.222C593.318 173.446 593.461 172.762 593.746 172.168C594.034 171.572 594.435 171.106 594.949 170.771C595.466 170.433 596.069 170.264 596.759 170.264C597.296 170.264 597.78 170.364 598.21 170.562C598.641 170.761 598.994 171.04 599.269 171.398C599.545 171.756 599.715 172.173 599.782 172.651H598.608C598.519 172.303 598.32 171.994 598.012 171.726C597.707 171.454 597.296 171.318 596.779 171.318C596.321 171.318 595.92 171.437 595.576 171.676C595.234 171.911 594.967 172.245 594.775 172.675C594.586 173.103 594.492 173.605 594.492 174.182C594.492 174.772 594.585 175.286 594.77 175.723C594.959 176.161 595.224 176.5 595.566 176.742C595.91 176.984 596.315 177.105 596.779 177.105C597.084 177.105 597.36 177.052 597.609 176.946C597.858 176.84 598.068 176.688 598.24 176.489C598.413 176.29 598.535 176.051 598.608 175.773H599.782C599.715 176.223 599.551 176.629 599.289 176.991C599.031 177.349 598.688 177.634 598.26 177.846C597.836 178.055 597.342 178.159 596.779 178.159ZM604.818 170.364V171.358H600.86V170.364H604.818ZM602.014 168.534H603.187V175.812C603.187 176.144 603.235 176.393 603.331 176.558C603.431 176.721 603.557 176.83 603.709 176.886C603.865 176.939 604.029 176.966 604.201 176.966C604.331 176.966 604.437 176.959 604.519 176.946C604.602 176.929 604.669 176.916 604.718 176.906L604.957 177.96C604.877 177.99 604.766 178.02 604.624 178.05C604.481 178.083 604.301 178.099 604.082 178.099C603.751 178.099 603.426 178.028 603.108 177.886C602.793 177.743 602.531 177.526 602.322 177.234C602.117 176.943 602.014 176.575 602.014 176.131V168.534Z" fill="black"/>
<path d="M559.427 178V167.818H566.049V169.364H561.272V172.129H565.706V173.675H561.272V176.454H566.089V178H559.427ZM568.876 170.364L570.705 173.486L572.535 170.364H573.887L571.421 174.182L573.887 178H572.535L570.705 175.037L568.876 178H567.523L569.949 174.182L567.523 170.364H568.876ZM578.882 170.364V171.358H574.925V170.364H578.882ZM576.078 168.534H577.252V175.812C577.252 176.144 577.3 176.393 577.396 176.558C577.495 176.721 577.621 176.83 577.774 176.886C577.929 176.939 578.093 176.966 578.266 176.966C578.395 176.966 578.501 176.959 578.584 176.946C578.667 176.929 578.733 176.916 578.783 176.906L579.021 177.96C578.942 177.99 578.831 178.02 578.688 178.05C578.546 178.083 578.365 178.099 578.146 178.099C577.815 178.099 577.49 178.028 577.172 177.886C576.857 177.743 576.595 177.526 576.386 177.234C576.181 176.943 576.078 176.575 576.078 176.131V168.534ZM580.647 178V170.364H581.781V171.517H581.86C581.999 171.139 582.251 170.833 582.616 170.597C582.98 170.362 583.391 170.244 583.849 170.244C583.935 170.244 584.043 170.246 584.172 170.249C584.301 170.253 584.399 170.258 584.465 170.264V171.457C584.426 171.447 584.334 171.433 584.192 171.413C584.053 171.389 583.905 171.378 583.749 171.378C583.378 171.378 583.047 171.456 582.755 171.612C582.467 171.764 582.238 171.976 582.069 172.248C581.903 172.516 581.82 172.823 581.82 173.168V178H580.647ZM588.103 178.179C587.619 178.179 587.18 178.088 586.786 177.906C586.391 177.72 586.078 177.453 585.846 177.105C585.614 176.754 585.498 176.33 585.498 175.832C585.498 175.395 585.584 175.04 585.757 174.768C585.929 174.493 586.159 174.278 586.448 174.122C586.736 173.966 587.054 173.85 587.402 173.774C587.754 173.695 588.107 173.632 588.461 173.585C588.925 173.526 589.301 173.481 589.59 173.451C589.881 173.418 590.094 173.363 590.226 173.287C590.362 173.211 590.43 173.078 590.43 172.889V172.849C590.43 172.359 590.296 171.978 590.027 171.706C589.762 171.434 589.359 171.298 588.819 171.298C588.259 171.298 587.82 171.421 587.502 171.666C587.184 171.911 586.96 172.173 586.831 172.452L585.717 172.054C585.916 171.59 586.181 171.229 586.512 170.97C586.847 170.708 587.212 170.526 587.606 170.423C588.004 170.317 588.395 170.264 588.779 170.264C589.025 170.264 589.306 170.294 589.625 170.354C589.946 170.41 590.256 170.528 590.554 170.707C590.856 170.886 591.106 171.156 591.305 171.517C591.504 171.878 591.603 172.362 591.603 172.969V178H590.43V176.966H590.37C590.291 177.132 590.158 177.309 589.973 177.498C589.787 177.687 589.54 177.848 589.232 177.98C588.924 178.113 588.547 178.179 588.103 178.179ZM588.282 177.125C588.746 177.125 589.137 177.034 589.456 176.852C589.777 176.669 590.019 176.434 590.181 176.146C590.347 175.857 590.43 175.554 590.43 175.236V174.162C590.38 174.222 590.271 174.276 590.102 174.326C589.936 174.372 589.744 174.414 589.525 174.45C589.31 174.483 589.099 174.513 588.894 174.54C588.692 174.563 588.527 174.583 588.402 174.599C588.097 174.639 587.812 174.704 587.546 174.793C587.285 174.879 587.072 175.01 586.91 175.186C586.751 175.358 586.671 175.594 586.671 175.892C586.671 176.3 586.822 176.608 587.124 176.817C587.429 177.022 587.815 177.125 588.282 177.125ZM596.847 178.159C596.131 178.159 595.515 177.99 594.998 177.652C594.481 177.314 594.083 176.848 593.804 176.255C593.526 175.662 593.387 174.984 593.387 174.222C593.387 173.446 593.529 172.762 593.814 172.168C594.103 171.572 594.504 171.106 595.017 170.771C595.535 170.433 596.138 170.264 596.827 170.264C597.364 170.264 597.848 170.364 598.279 170.562C598.71 170.761 599.063 171.04 599.338 171.398C599.613 171.756 599.784 172.173 599.85 172.651H598.677C598.587 172.303 598.388 171.994 598.08 171.726C597.775 171.454 597.364 171.318 596.847 171.318C596.39 171.318 595.989 171.437 595.644 171.676C595.303 171.911 595.036 172.245 594.843 172.675C594.655 173.103 594.56 173.605 594.56 174.182C594.56 174.772 594.653 175.286 594.839 175.723C595.027 176.161 595.293 176.5 595.634 176.742C595.979 176.984 596.383 177.105 596.847 177.105C597.152 177.105 597.429 177.052 597.677 176.946C597.926 176.84 598.136 176.688 598.309 176.489C598.481 176.29 598.604 176.051 598.677 175.773H599.85C599.784 176.223 599.62 176.629 599.358 176.991C599.099 177.349 598.756 177.634 598.329 177.846C597.904 178.055 597.41 178.159 596.847 178.159ZM604.886 170.364V171.358H600.929V170.364H604.886ZM602.082 168.534H603.255V175.812C603.255 176.144 603.303 176.393 603.4 176.558C603.499 176.721 603.625 176.83 603.777 176.886C603.933 176.939 604.097 176.966 604.27 176.966C604.399 176.966 604.505 176.959 604.588 176.946C604.671 176.929 604.737 176.916 604.787 176.906L605.025 177.96C604.946 177.99 604.835 178.02 604.692 178.05C604.55 178.083 604.369 178.099 604.15 178.099C603.819 178.099 603.494 178.028 603.176 177.886C602.861 177.743 602.599 177.526 602.39 177.234C602.185 176.943 602.082 176.575 602.082 176.131V168.534Z" fill="black"/>
<path d="M566.945 490V479.818H569.097V488.225H573.462V490H566.945ZM578.179 490.159C577.49 490.159 576.885 489.995 576.364 489.667C575.847 489.339 575.443 488.88 575.151 488.29C574.863 487.7 574.719 487.01 574.719 486.222C574.719 485.426 574.863 484.732 575.151 484.138C575.443 483.545 575.847 483.085 576.364 482.756C576.885 482.428 577.49 482.264 578.179 482.264C578.868 482.264 579.472 482.428 579.989 482.756C580.509 483.085 580.913 483.545 581.202 484.138C581.493 484.732 581.639 485.426 581.639 486.222C581.639 487.01 581.493 487.7 581.202 488.29C580.913 488.88 580.509 489.339 579.989 489.667C579.472 489.995 578.868 490.159 578.179 490.159ZM578.179 489.105C578.703 489.105 579.134 488.971 579.472 488.702C579.81 488.434 580.06 488.081 580.222 487.643C580.385 487.206 580.466 486.732 580.466 486.222C580.466 485.711 580.385 485.236 580.222 484.795C580.06 484.354 579.81 483.998 579.472 483.726C579.134 483.454 578.703 483.318 578.179 483.318C577.655 483.318 577.225 483.454 576.886 483.726C576.548 483.998 576.298 484.354 576.136 484.795C575.973 485.236 575.892 485.711 575.892 486.222C575.892 486.732 575.973 487.206 576.136 487.643C576.298 488.081 576.548 488.434 576.886 488.702C577.225 488.971 577.655 489.105 578.179 489.105ZM585.677 490.179C585.194 490.179 584.754 490.088 584.36 489.906C583.966 489.72 583.652 489.453 583.42 489.105C583.188 488.754 583.072 488.33 583.072 487.832C583.072 487.395 583.159 487.04 583.331 486.768C583.503 486.493 583.734 486.278 584.022 486.122C584.31 485.966 584.628 485.85 584.976 485.774C585.328 485.695 585.681 485.632 586.035 485.585C586.499 485.526 586.876 485.481 587.164 485.451C587.456 485.418 587.668 485.363 587.8 485.287C587.936 485.211 588.004 485.078 588.004 484.889V484.849C588.004 484.359 587.87 483.978 587.601 483.706C587.336 483.434 586.934 483.298 586.393 483.298C585.833 483.298 585.394 483.421 585.076 483.666C584.758 483.911 584.534 484.173 584.405 484.452L583.291 484.054C583.49 483.59 583.755 483.229 584.087 482.97C584.421 482.708 584.786 482.526 585.18 482.423C585.578 482.317 585.969 482.264 586.354 482.264C586.599 482.264 586.881 482.294 587.199 482.354C587.52 482.41 587.83 482.528 588.128 482.707C588.43 482.886 588.68 483.156 588.879 483.517C589.078 483.878 589.177 484.362 589.177 484.969V490H588.004V488.966H587.945C587.865 489.132 587.732 489.309 587.547 489.498C587.361 489.687 587.114 489.848 586.806 489.98C586.498 490.113 586.122 490.179 585.677 490.179ZM585.856 489.125C586.32 489.125 586.712 489.034 587.03 488.852C587.351 488.669 587.593 488.434 587.756 488.146C587.921 487.857 588.004 487.554 588.004 487.236V486.162C587.954 486.222 587.845 486.276 587.676 486.326C587.51 486.372 587.318 486.414 587.099 486.45C586.884 486.483 586.673 486.513 586.468 486.54C586.266 486.563 586.102 486.583 585.976 486.599C585.671 486.639 585.386 486.704 585.121 486.793C584.859 486.879 584.647 487.01 584.484 487.186C584.325 487.358 584.246 487.594 584.246 487.892C584.246 488.3 584.396 488.608 584.698 488.817C585.003 489.022 585.389 489.125 585.856 489.125ZM594.203 490.159C593.566 490.159 593.004 489.998 592.517 489.677C592.03 489.352 591.649 488.895 591.374 488.305C591.099 487.711 590.961 487.01 590.961 486.202C590.961 485.4 591.099 484.704 591.374 484.114C591.649 483.524 592.032 483.068 592.522 482.746C593.013 482.425 593.579 482.264 594.222 482.264C594.72 482.264 595.112 482.347 595.401 482.513C595.692 482.675 595.914 482.861 596.067 483.07C596.223 483.275 596.344 483.444 596.43 483.577H596.529V479.818H597.703V490H596.569V488.827H596.43C596.344 488.966 596.221 489.142 596.062 489.354C595.903 489.562 595.676 489.75 595.381 489.915C595.086 490.078 594.693 490.159 594.203 490.159ZM594.362 489.105C594.832 489.105 595.23 488.982 595.555 488.737C595.88 488.489 596.127 488.146 596.296 487.708C596.465 487.267 596.549 486.759 596.549 486.182C596.549 485.612 596.466 485.113 596.301 484.685C596.135 484.254 595.89 483.92 595.565 483.681C595.24 483.439 594.839 483.318 594.362 483.318C593.864 483.318 593.45 483.446 593.119 483.701C592.791 483.953 592.544 484.296 592.378 484.73C592.216 485.161 592.134 485.645 592.134 486.182C592.134 486.725 592.217 487.219 592.383 487.663C592.552 488.104 592.801 488.455 593.129 488.717C593.46 488.976 593.871 489.105 594.362 489.105Z" fill="black"/>
<path d="M710.79 269.593V267.818H719.152V269.593H716.035V278H713.907V269.593H710.79ZM720.718 278V270.364H721.852V271.517H721.931C722.071 271.139 722.323 270.833 722.687 270.597C723.052 270.362 723.463 270.244 723.92 270.244C724.006 270.244 724.114 270.246 724.243 270.249C724.373 270.253 724.47 270.258 724.537 270.264V271.457C724.497 271.447 724.406 271.433 724.263 271.413C724.124 271.389 723.976 271.378 723.821 271.378C723.449 271.378 723.118 271.456 722.826 271.612C722.538 271.764 722.309 271.976 722.14 272.248C721.975 272.516 721.892 272.823 721.892 273.168V278H720.718ZM728.175 278.179C727.691 278.179 727.251 278.088 726.857 277.906C726.463 277.72 726.149 277.453 725.917 277.105C725.685 276.754 725.569 276.33 725.569 275.832C725.569 275.395 725.656 275.04 725.828 274.768C726 274.493 726.231 274.278 726.519 274.122C726.807 273.966 727.126 273.85 727.474 273.774C727.825 273.695 728.178 273.632 728.532 273.585C728.997 273.526 729.373 273.481 729.661 273.451C729.953 273.418 730.165 273.363 730.297 273.287C730.433 273.211 730.501 273.078 730.501 272.889V272.849C730.501 272.359 730.367 271.978 730.099 271.706C729.833 271.434 729.431 271.298 728.89 271.298C728.33 271.298 727.891 271.421 727.573 271.666C727.255 271.911 727.031 272.173 726.902 272.452L725.788 272.054C725.987 271.59 726.252 271.229 726.584 270.97C726.918 270.708 727.283 270.526 727.677 270.423C728.075 270.317 728.466 270.264 728.851 270.264C729.096 270.264 729.378 270.294 729.696 270.354C730.017 270.41 730.327 270.528 730.626 270.707C730.927 270.886 731.177 271.156 731.376 271.517C731.575 271.878 731.675 272.362 731.675 272.969V278H730.501V276.966H730.442C730.362 277.132 730.229 277.309 730.044 277.498C729.858 277.687 729.611 277.848 729.303 277.98C728.995 278.113 728.619 278.179 728.175 278.179ZM728.354 277.125C728.818 277.125 729.209 277.034 729.527 276.852C729.848 276.669 730.09 276.434 730.253 276.146C730.418 275.857 730.501 275.554 730.501 275.236V274.162C730.452 274.222 730.342 274.276 730.173 274.326C730.007 274.372 729.815 274.414 729.596 274.45C729.381 274.483 729.171 274.513 728.965 274.54C728.763 274.563 728.599 274.583 728.473 274.599C728.168 274.639 727.883 274.704 727.618 274.793C727.356 274.879 727.144 275.01 726.981 275.186C726.822 275.358 726.743 275.594 726.743 275.892C726.743 276.3 726.894 276.608 727.195 276.817C727.5 277.022 727.886 277.125 728.354 277.125ZM734.989 273.406V278H733.816V270.364H734.95V271.557H735.049C735.228 271.169 735.5 270.857 735.864 270.622C736.229 270.384 736.7 270.264 737.276 270.264C737.793 270.264 738.246 270.37 738.634 270.582C739.021 270.791 739.323 271.109 739.538 271.537C739.754 271.961 739.862 272.498 739.862 273.148V278H738.688V273.227C738.688 272.627 738.532 272.16 738.221 271.825C737.909 271.487 737.482 271.318 736.938 271.318C736.564 271.318 736.229 271.399 735.934 271.562C735.642 271.724 735.412 271.961 735.243 272.273C735.074 272.584 734.989 272.962 734.989 273.406ZM747.415 272.074L746.361 272.372C746.294 272.196 746.197 272.026 746.067 271.86C745.941 271.691 745.769 271.552 745.55 271.442C745.331 271.333 745.051 271.278 744.71 271.278C744.243 271.278 743.853 271.386 743.542 271.602C743.233 271.814 743.079 272.084 743.079 272.412C743.079 272.704 743.185 272.934 743.398 273.103C743.61 273.272 743.941 273.413 744.392 273.526L745.525 273.804C746.208 273.97 746.717 274.223 747.052 274.565C747.386 274.903 747.554 275.339 747.554 275.872C747.554 276.31 747.428 276.701 747.176 277.045C746.927 277.39 746.579 277.662 746.132 277.861C745.684 278.06 745.164 278.159 744.571 278.159C743.792 278.159 743.147 277.99 742.637 277.652C742.126 277.314 741.803 276.82 741.667 276.17L742.781 275.892C742.887 276.303 743.088 276.611 743.383 276.817C743.681 277.022 744.07 277.125 744.551 277.125C745.098 277.125 745.532 277.009 745.854 276.777C746.178 276.542 746.341 276.26 746.341 275.932C746.341 275.667 746.248 275.445 746.062 275.266C745.877 275.083 745.592 274.947 745.207 274.858L743.934 274.56C743.235 274.394 742.721 274.137 742.393 273.789C742.068 273.438 741.906 272.999 741.906 272.472C741.906 272.041 742.027 271.66 742.269 271.328C742.514 270.997 742.847 270.737 743.268 270.548C743.693 270.359 744.173 270.264 744.71 270.264C745.466 270.264 746.059 270.43 746.49 270.761C746.924 271.093 747.232 271.53 747.415 272.074ZM752.721 270.364V271.358H748.604V270.364H752.721ZM749.837 278V269.31C749.837 268.872 749.94 268.508 750.145 268.216C750.351 267.924 750.618 267.705 750.946 267.56C751.274 267.414 751.62 267.341 751.985 267.341C752.273 267.341 752.508 267.364 752.691 267.411C752.873 267.457 753.009 267.5 753.098 267.54L752.76 268.554C752.701 268.534 752.618 268.509 752.512 268.479C752.409 268.45 752.273 268.435 752.104 268.435C751.716 268.435 751.436 268.532 751.264 268.728C751.095 268.924 751.01 269.21 751.01 269.588V278H749.837ZM757.153 278.159C756.463 278.159 755.858 277.995 755.338 277.667C754.821 277.339 754.417 276.88 754.125 276.29C753.837 275.7 753.692 275.01 753.692 274.222C753.692 273.426 753.837 272.732 754.125 272.138C754.417 271.545 754.821 271.085 755.338 270.756C755.858 270.428 756.463 270.264 757.153 270.264C757.842 270.264 758.445 270.428 758.962 270.756C759.483 271.085 759.887 271.545 760.175 272.138C760.467 272.732 760.613 273.426 760.613 274.222C760.613 275.01 760.467 275.7 760.175 276.29C759.887 276.88 759.483 277.339 758.962 277.667C758.445 277.995 757.842 278.159 757.153 278.159ZM757.153 277.105C757.676 277.105 758.107 276.971 758.445 276.702C758.783 276.434 759.034 276.081 759.196 275.643C759.358 275.206 759.44 274.732 759.44 274.222C759.44 273.711 759.358 273.236 759.196 272.795C759.034 272.354 758.783 271.998 758.445 271.726C758.107 271.454 757.676 271.318 757.153 271.318C756.629 271.318 756.198 271.454 755.86 271.726C755.522 271.998 755.272 272.354 755.109 272.795C754.947 273.236 754.866 273.711 754.866 274.222C754.866 274.732 754.947 275.206 755.109 275.643C755.272 276.081 755.522 276.434 755.86 276.702C756.198 276.971 756.629 277.105 757.153 277.105ZM762.404 278V270.364H763.537V271.517H763.617C763.756 271.139 764.008 270.833 764.373 270.597C764.737 270.362 765.148 270.244 765.606 270.244C765.692 270.244 765.8 270.246 765.929 270.249C766.058 270.253 766.156 270.258 766.222 270.264V271.457C766.182 271.447 766.091 271.433 765.949 271.413C765.809 271.389 765.662 271.378 765.506 271.378C765.135 271.378 764.804 271.456 764.512 271.612C764.224 271.764 763.995 271.976 763.826 272.248C763.66 272.516 763.577 272.823 763.577 273.168V278H762.404ZM767.613 278V270.364H768.746V271.557H768.846C769.005 271.149 769.262 270.833 769.616 270.607C769.971 270.379 770.397 270.264 770.894 270.264C771.398 270.264 771.817 270.379 772.152 270.607C772.49 270.833 772.754 271.149 772.942 271.557H773.022C773.218 271.162 773.511 270.849 773.902 270.617C774.293 270.382 774.762 270.264 775.309 270.264C775.992 270.264 776.55 270.478 776.984 270.906C777.419 271.33 777.636 271.991 777.636 272.889V278H776.462V272.889C776.462 272.326 776.308 271.923 776 271.681C775.692 271.439 775.329 271.318 774.911 271.318C774.374 271.318 773.958 271.481 773.663 271.805C773.368 272.127 773.221 272.535 773.221 273.028V278H772.028V272.77C772.028 272.336 771.887 271.986 771.605 271.721C771.323 271.452 770.96 271.318 770.516 271.318C770.211 271.318 769.926 271.399 769.661 271.562C769.399 271.724 769.187 271.95 769.025 272.238C768.866 272.523 768.786 272.853 768.786 273.227V278H767.613Z" fill="black"/>
<path d="M743.293 366.207C743.683 366.598 744.317 366.598 744.707 366.207L751.071 359.843C751.462 359.453 751.462 358.819 751.071 358.429C750.681 358.038 750.047 358.038 749.657 358.429L744 364.086L738.343 358.429C737.953 358.038 737.319 358.038 736.929 358.429C736.538 358.819 736.538 359.453 736.929 359.843L743.293 366.207ZM744 331H743V365.5H744H745V331H744Z" fill="#5D5D5D"/>
<defs>
<filter id="filter0_d_57_239" x="375" y="35" width="250" height="54" filterUnits="userSpaceOnUse" color-interpolation-filters="sRGB">
<feFlood flood-opacity="0" result="BackgroundImageFix"/>
<feColorMatrix in="SourceAlpha" type="matrix" values="0 0 0 0 0 0 0 0 0 0 0 0 0 0 0 0 0 0 127 0" result="hardAlpha"/>
<feOffset/>
<feGaussianBlur stdDeviation="3"/>
<feComposite in2="hardAlpha" operator="out"/>
<feColorMatrix type="matrix" values="0 0 0 0 0 0 0 0 0 0 0 0 0 0 0 0 0 0 0.15 0"/>
<feBlend mode="normal" in2="BackgroundImageFix" result="effect1_dropShadow_57_239"/>
<feBlend mode="normal" in="SourceGraphic" in2="effect1_dropShadow_57_239" result="shape"/>
</filter>
</defs>
</svg>
