<svg width="1000" height="423" viewBox="0 0 1000 423" fill="none" xmlns="http://www.w3.org/2000/svg">
<g clip-path="url(#clip0_60_478)">
<rect width="1000" height="423" fill="white"/>
<g filter="url(#filter0_d_60_478)">
<rect x="392" y="41" width="216" height="42" rx="21" fill="#E0E7FF" shape-rendering="crispEdges"/>
<path d="M421.93 69V55.9091H423.515V67.5938H429.6V69H421.93ZM435.839 69.2045C434.953 69.2045 434.175 68.9936 433.506 68.5717C432.841 68.1499 432.321 67.5597 431.946 66.8011C431.576 66.0426 431.39 65.1562 431.39 64.142C431.39 63.1193 431.576 62.2266 431.946 61.4638C432.321 60.701 432.841 60.1087 433.506 59.6868C434.175 59.2649 434.953 59.054 435.839 59.054C436.725 59.054 437.501 59.2649 438.166 59.6868C438.835 60.1087 439.355 60.701 439.725 61.4638C440.1 62.2266 440.288 63.1193 440.288 64.142C440.288 65.1562 440.1 66.0426 439.725 66.8011C439.355 67.5597 438.835 68.1499 438.166 68.5717C437.501 68.9936 436.725 69.2045 435.839 69.2045ZM435.839 67.8494C436.512 67.8494 437.066 67.6768 437.501 67.3317C437.936 66.9865 438.257 66.5327 438.466 65.9702C438.675 65.4077 438.779 64.7983 438.779 64.142C438.779 63.4858 438.675 62.8743 438.466 62.3075C438.257 61.7408 437.936 61.2827 437.501 60.9332C437.066 60.5838 436.512 60.4091 435.839 60.4091C435.166 60.4091 434.612 60.5838 434.177 60.9332C433.742 61.2827 433.421 61.7408 433.212 62.3075C433.003 62.8743 432.899 63.4858 432.899 64.142C432.899 64.7983 433.003 65.4077 433.212 65.9702C433.421 66.5327 433.742 66.9865 434.177 67.3317C434.612 67.6768 435.166 67.8494 435.839 67.8494ZM446.554 72.8864C445.825 72.8864 445.199 72.7926 444.674 72.6051C444.15 72.4219 443.714 72.179 443.364 71.8764C443.019 71.5781 442.744 71.2585 442.54 70.9176L443.741 70.0739C443.878 70.2528 444.05 70.4574 444.259 70.6875C444.468 70.9219 444.753 71.1243 445.116 71.2947C445.482 71.4695 445.961 71.5568 446.554 71.5568C447.346 71.5568 448 71.3651 448.516 70.9815C449.032 70.598 449.29 69.9972 449.29 69.179V67.1847H449.162C449.051 67.3636 448.893 67.5852 448.689 67.8494C448.488 68.1094 448.199 68.3416 447.819 68.5462C447.444 68.7464 446.937 68.8466 446.298 68.8466C445.505 68.8466 444.794 68.6591 444.163 68.2841C443.537 67.9091 443.04 67.3636 442.674 66.6477C442.312 65.9318 442.13 65.0625 442.13 64.0398C442.13 63.0341 442.307 62.1584 442.661 61.4126C443.015 60.6626 443.507 60.0831 444.138 59.674C444.768 59.2607 445.497 59.054 446.324 59.054C446.963 59.054 447.47 59.1605 447.845 59.3736C448.224 59.5824 448.514 59.821 448.714 60.0895C448.919 60.3537 449.076 60.571 449.187 60.7415H449.341V59.1818H450.798V69.2812C450.798 70.125 450.606 70.8111 450.223 71.3395C449.843 71.8722 449.332 72.2621 448.689 72.5092C448.049 72.7607 447.338 72.8864 446.554 72.8864ZM446.503 67.4915C447.108 67.4915 447.619 67.353 448.037 67.076C448.454 66.799 448.772 66.4006 448.989 65.8807C449.206 65.3608 449.315 64.7386 449.315 64.0142C449.315 63.3068 449.209 62.6825 448.995 62.1413C448.782 61.6001 448.467 61.1761 448.049 60.8693C447.632 60.5625 447.116 60.4091 446.503 60.4091C445.863 60.4091 445.331 60.571 444.905 60.8949C444.483 61.2187 444.165 61.6534 443.952 62.1989C443.743 62.7443 443.639 63.3494 443.639 64.0142C443.639 64.696 443.745 65.299 443.959 65.8232C444.176 66.343 444.495 66.7521 444.917 67.0504C445.343 67.3445 445.872 67.4915 446.503 67.4915ZM453.559 69V59.1818H455.068V69H453.559ZM454.326 57.5455C454.032 57.5455 453.779 57.4453 453.566 57.245C453.357 57.0447 453.253 56.804 453.253 56.5227C453.253 56.2415 453.357 56.0007 453.566 55.8004C453.779 55.6001 454.032 55.5 454.326 55.5C454.62 55.5 454.872 55.6001 455.081 55.8004C455.294 56.0007 455.4 56.2415 455.4 56.5227C455.4 56.804 455.294 57.0447 455.081 57.245C454.872 57.4453 454.62 57.5455 454.326 57.5455ZM461.82 69.2045C460.899 69.2045 460.106 68.9872 459.442 68.5526C458.777 68.1179 458.266 67.5192 457.908 66.7564C457.55 65.9936 457.371 65.1222 457.371 64.142C457.371 63.1449 457.554 62.2649 457.92 61.5021C458.291 60.7351 458.807 60.1364 459.467 59.706C460.132 59.2713 460.908 59.054 461.794 59.054C462.484 59.054 463.106 59.1818 463.66 59.4375C464.214 59.6932 464.668 60.0511 465.022 60.5114C465.376 60.9716 465.595 61.5085 465.68 62.1222H464.172C464.057 61.6747 463.801 61.2784 463.405 60.9332C463.013 60.5838 462.484 60.4091 461.82 60.4091C461.231 60.4091 460.716 60.5625 460.273 60.8693C459.834 61.1719 459.491 61.6001 459.244 62.1541C459.001 62.7038 458.879 63.3494 458.879 64.0909C458.879 64.8494 458.998 65.5099 459.237 66.0724C459.48 66.6349 459.821 67.0717 460.26 67.3828C460.703 67.6939 461.223 67.8494 461.82 67.8494C462.212 67.8494 462.567 67.7812 462.887 67.6449C463.207 67.5085 463.477 67.3125 463.699 67.0568C463.92 66.8011 464.078 66.4943 464.172 66.1364H465.68C465.595 66.7159 465.384 67.2379 465.047 67.7024C464.715 68.1626 464.274 68.5291 463.724 68.8018C463.179 69.0703 462.544 69.2045 461.82 69.2045ZM470.775 69.2301C470.153 69.2301 469.588 69.1129 469.081 68.8786C468.574 68.6399 468.171 68.2969 467.873 67.8494C467.574 67.3977 467.425 66.8523 467.425 66.2131C467.425 65.6506 467.536 65.1946 467.758 64.8452C467.979 64.4915 468.275 64.2145 468.646 64.0142C469.017 63.8139 469.426 63.6648 469.873 63.5668C470.325 63.4645 470.779 63.3835 471.235 63.3239C471.832 63.2472 472.315 63.1896 472.686 63.1513C473.061 63.1087 473.334 63.0384 473.504 62.9403C473.679 62.8423 473.766 62.6719 473.766 62.429V62.3778C473.766 61.7472 473.594 61.2571 473.248 60.9077C472.908 60.5582 472.39 60.3835 471.695 60.3835C470.975 60.3835 470.41 60.5412 470.001 60.8565C469.592 61.1719 469.305 61.5085 469.138 61.8665L467.707 61.3551C467.962 60.7585 468.303 60.294 468.729 59.9616C469.16 59.625 469.628 59.3906 470.136 59.2585C470.647 59.1222 471.15 59.054 471.644 59.054C471.959 59.054 472.322 59.0923 472.731 59.169C473.144 59.2415 473.543 59.3928 473.926 59.6229C474.314 59.853 474.636 60.2003 474.891 60.6648C475.147 61.1293 475.275 61.7514 475.275 62.5312V69H473.766V67.6705H473.69C473.587 67.8835 473.417 68.1115 473.178 68.3544C472.94 68.5973 472.622 68.804 472.226 68.9744C471.829 69.1449 471.346 69.2301 470.775 69.2301ZM471.005 67.875C471.601 67.875 472.104 67.7578 472.513 67.5234C472.927 67.2891 473.238 66.9865 473.447 66.6158C473.66 66.245 473.766 65.8551 473.766 65.446V64.0653C473.702 64.142 473.562 64.2124 473.344 64.2763C473.131 64.3359 472.884 64.3892 472.603 64.4361C472.326 64.4787 472.055 64.517 471.791 64.5511C471.531 64.581 471.32 64.6065 471.158 64.6278C470.766 64.679 470.4 64.7621 470.059 64.8771C469.722 64.9879 469.449 65.1562 469.241 65.3821C469.036 65.6037 468.934 65.9062 468.934 66.2898C468.934 66.8139 469.128 67.2102 469.516 67.4787C469.908 67.7429 470.404 67.875 471.005 67.875ZM479.537 55.9091V69H478.028V55.9091H479.537ZM487.567 69V55.9091H491.99C493.013 55.9091 493.852 56.0838 494.508 56.4332C495.165 56.7784 495.65 57.2536 495.966 57.8587C496.281 58.4638 496.439 59.152 496.439 59.9233C496.439 60.6946 496.281 61.3786 495.966 61.9751C495.65 62.5717 495.167 63.0405 494.515 63.3814C493.863 63.718 493.03 63.8864 492.016 63.8864H488.436V62.4545H491.964C492.663 62.4545 493.226 62.3523 493.652 62.1477C494.082 61.9432 494.393 61.6534 494.585 61.2784C494.781 60.8991 494.879 60.4474 494.879 59.9233C494.879 59.3991 494.781 58.9411 494.585 58.549C494.389 58.157 494.076 57.8544 493.646 57.6413C493.215 57.424 492.646 57.3153 491.939 57.3153H489.152V69H487.567ZM493.729 63.1193L496.95 69H495.109L491.939 63.1193H493.729ZM502.887 69.2045C501.941 69.2045 501.125 68.9957 500.439 68.5781C499.757 68.1562 499.231 67.5682 498.86 66.8139C498.493 66.0554 498.31 65.1733 498.31 64.1676C498.31 63.1619 498.493 62.2756 498.86 61.5085C499.231 60.7372 499.746 60.1364 500.407 59.706C501.071 59.2713 501.847 59.054 502.733 59.054C503.245 59.054 503.75 59.1392 504.248 59.3097C504.747 59.4801 505.201 59.7571 505.61 60.1406C506.019 60.5199 506.345 61.0227 506.588 61.6491C506.831 62.2756 506.952 63.0469 506.952 63.9631V64.6023H499.384V63.2983H505.418C505.418 62.7443 505.307 62.25 505.086 61.8153C504.868 61.3807 504.557 61.0376 504.152 60.7862C503.752 60.5348 503.279 60.4091 502.733 60.4091C502.133 60.4091 501.613 60.5582 501.174 60.8565C500.739 61.1506 500.405 61.5341 500.17 62.0071C499.936 62.4801 499.819 62.9872 499.819 63.5284V64.3977C499.819 65.1392 499.946 65.7678 500.202 66.2834C500.462 66.7947 500.822 67.1847 501.282 67.4531C501.743 67.7173 502.277 67.8494 502.887 67.8494C503.283 67.8494 503.641 67.794 503.961 67.6832C504.285 67.5682 504.564 67.3977 504.798 67.1719C505.032 66.9418 505.214 66.6562 505.341 66.3153L506.799 66.7244C506.645 67.2188 506.388 67.6534 506.025 68.0284C505.663 68.3991 505.216 68.6889 504.683 68.8977C504.15 69.1023 503.552 69.2045 502.887 69.2045ZM509.247 72.6818V59.1818H510.704V60.7415H510.883C510.994 60.571 511.147 60.3537 511.343 60.0895C511.544 59.821 511.829 59.5824 512.2 59.3736C512.575 59.1605 513.082 59.054 513.721 59.054C514.548 59.054 515.277 59.2607 515.907 59.674C516.538 60.0874 517.03 60.6733 517.384 61.4318C517.738 62.1903 517.915 63.0852 517.915 64.1165C517.915 65.1562 517.738 66.0575 517.384 66.8203C517.03 67.5788 516.54 68.1669 515.914 68.5845C515.287 68.9979 514.565 69.2045 513.747 69.2045C513.116 69.2045 512.611 69.1001 512.232 68.8913C511.853 68.6783 511.561 68.4375 511.356 68.169C511.152 67.8963 510.994 67.6705 510.883 67.4915H510.755V72.6818H509.247ZM510.73 64.0909C510.73 64.8324 510.839 65.4865 511.056 66.0533C511.273 66.6158 511.591 67.0568 512.008 67.3764C512.426 67.6918 512.937 67.8494 513.542 67.8494C514.173 67.8494 514.699 67.6832 515.121 67.3509C515.547 67.0142 515.867 66.5625 516.08 65.9957C516.297 65.4247 516.406 64.7898 516.406 64.0909C516.406 63.4006 516.299 62.7784 516.086 62.2244C515.878 61.6662 515.56 61.2251 515.134 60.9013C514.712 60.5732 514.182 60.4091 513.542 60.4091C512.929 60.4091 512.413 60.5646 511.995 60.8757C511.578 61.1825 511.263 61.6129 511.049 62.1669C510.836 62.7166 510.73 63.358 510.73 64.0909ZM521.724 55.9091V69H520.216V55.9091H521.724ZM524.487 69V59.1818H525.996V69H524.487ZM525.254 57.5455C524.96 57.5455 524.707 57.4453 524.494 57.245C524.285 57.0447 524.18 56.804 524.18 56.5227C524.18 56.2415 524.285 56.0007 524.494 55.8004C524.707 55.6001 524.96 55.5 525.254 55.5C525.548 55.5 525.8 55.6001 526.008 55.8004C526.222 56.0007 526.328 56.2415 526.328 56.5227C526.328 56.804 526.222 57.0447 526.008 57.245C525.8 57.4453 525.548 57.5455 525.254 57.5455ZM532.747 69.2045C531.827 69.2045 531.034 68.9872 530.369 68.5526C529.705 68.1179 529.193 67.5192 528.835 66.7564C528.477 65.9936 528.298 65.1222 528.298 64.142C528.298 63.1449 528.482 62.2649 528.848 61.5021C529.219 60.7351 529.734 60.1364 530.395 59.706C531.06 59.2713 531.835 59.054 532.722 59.054C533.412 59.054 534.034 59.1818 534.588 59.4375C535.142 59.6932 535.596 60.0511 535.95 60.5114C536.303 60.9716 536.523 61.5085 536.608 62.1222H535.1C534.984 61.6747 534.729 61.2784 534.332 60.9332C533.94 60.5838 533.412 60.4091 532.747 60.4091C532.159 60.4091 531.644 60.5625 531.2 60.8693C530.761 61.1719 530.418 61.6001 530.171 62.1541C529.928 62.7038 529.807 63.3494 529.807 64.0909C529.807 64.8494 529.926 65.5099 530.165 66.0724C530.408 66.6349 530.749 67.0717 531.188 67.3828C531.631 67.6939 532.151 67.8494 532.747 67.8494C533.139 67.8494 533.495 67.7812 533.815 67.6449C534.134 67.5085 534.405 67.3125 534.627 67.0568C534.848 66.8011 535.006 66.4943 535.1 66.1364H536.608C536.523 66.7159 536.312 67.2379 535.975 67.7024C535.643 68.1626 535.202 68.5291 534.652 68.8018C534.107 69.0703 533.472 69.2045 532.747 69.2045ZM541.703 69.2301C541.08 69.2301 540.516 69.1129 540.009 68.8786C539.502 68.6399 539.099 68.2969 538.801 67.8494C538.502 67.3977 538.353 66.8523 538.353 66.2131C538.353 65.6506 538.464 65.1946 538.685 64.8452C538.907 64.4915 539.203 64.2145 539.574 64.0142C539.945 63.8139 540.354 63.6648 540.801 63.5668C541.253 63.4645 541.707 63.3835 542.163 63.3239C542.759 63.2472 543.243 63.1896 543.614 63.1513C543.989 63.1087 544.261 63.0384 544.432 62.9403C544.607 62.8423 544.694 62.6719 544.694 62.429V62.3778C544.694 61.7472 544.521 61.2571 544.176 60.9077C543.835 60.5582 543.318 60.3835 542.623 60.3835C541.903 60.3835 541.338 60.5412 540.929 60.8565C540.52 61.1719 540.232 61.5085 540.066 61.8665L538.634 61.3551C538.89 60.7585 539.231 60.294 539.657 59.9616C540.087 59.625 540.556 59.3906 541.063 59.2585C541.575 59.1222 542.078 59.054 542.572 59.054C542.887 59.054 543.249 59.0923 543.658 59.169C544.072 59.2415 544.47 59.3928 544.854 59.6229C545.242 59.853 545.563 60.2003 545.819 60.6648C546.075 61.1293 546.203 61.7514 546.203 62.5312V69H544.694V67.6705H544.617C544.515 67.8835 544.345 68.1115 544.106 68.3544C543.867 68.5973 543.55 68.804 543.153 68.9744C542.757 69.1449 542.274 69.2301 541.703 69.2301ZM541.933 67.875C542.529 67.875 543.032 67.7578 543.441 67.5234C543.854 67.2891 544.166 66.9865 544.374 66.6158C544.587 66.245 544.694 65.8551 544.694 65.446V64.0653C544.63 64.142 544.489 64.2124 544.272 64.2763C544.059 64.3359 543.812 64.3892 543.531 64.4361C543.254 64.4787 542.983 64.517 542.719 64.5511C542.459 64.581 542.248 64.6065 542.086 64.6278C541.694 64.679 541.328 64.7621 540.987 64.8771C540.65 64.9879 540.377 65.1562 540.168 65.3821C539.964 65.6037 539.862 65.9062 539.862 66.2898C539.862 66.8139 540.055 67.2102 540.443 67.4787C540.835 67.7429 541.332 67.875 541.933 67.875ZM553.226 59.1818V60.4602H548.138V59.1818H553.226ZM549.621 56.8295H551.129V66.1875C551.129 66.6136 551.191 66.9332 551.315 67.1463C551.442 67.3551 551.604 67.4957 551.8 67.5682C552.001 67.6364 552.212 67.6705 552.433 67.6705C552.599 67.6705 552.736 67.6619 552.842 67.6449C552.949 67.6236 553.034 67.6065 553.098 67.5938L553.405 68.9489C553.302 68.9872 553.16 69.0256 552.976 69.0639C552.793 69.1065 552.561 69.1278 552.28 69.1278C551.854 69.1278 551.436 69.0362 551.027 68.853C550.622 68.6697 550.285 68.3906 550.017 68.0156C549.753 67.6406 549.621 67.1676 549.621 66.5966V56.8295ZM555.495 69V59.1818H557.003V69H555.495ZM556.262 57.5455C555.968 57.5455 555.714 57.4453 555.501 57.245C555.293 57.0447 555.188 56.804 555.188 56.5227C555.188 56.2415 555.293 56.0007 555.501 55.8004C555.714 55.6001 555.968 55.5 556.262 55.5C556.556 55.5 556.807 55.6001 557.016 55.8004C557.229 56.0007 557.336 56.2415 557.336 56.5227C557.336 56.804 557.229 57.0447 557.016 57.245C556.807 57.4453 556.556 57.5455 556.262 57.5455ZM563.755 69.2045C562.869 69.2045 562.091 68.9936 561.422 68.5717C560.757 68.1499 560.237 67.5597 559.862 66.8011C559.492 66.0426 559.306 65.1562 559.306 64.142C559.306 63.1193 559.492 62.2266 559.862 61.4638C560.237 60.701 560.757 60.1087 561.422 59.6868C562.091 59.2649 562.869 59.054 563.755 59.054C564.641 59.054 565.417 59.2649 566.082 59.6868C566.751 60.1087 567.271 60.701 567.641 61.4638C568.016 62.2266 568.204 63.1193 568.204 64.142C568.204 65.1562 568.016 66.0426 567.641 66.8011C567.271 67.5597 566.751 68.1499 566.082 68.5717C565.417 68.9936 564.641 69.2045 563.755 69.2045ZM563.755 67.8494C564.428 67.8494 564.982 67.6768 565.417 67.3317C565.852 66.9865 566.173 66.5327 566.382 65.9702C566.591 65.4077 566.695 64.7983 566.695 64.142C566.695 63.4858 566.591 62.8743 566.382 62.3075C566.173 61.7408 565.852 61.2827 565.417 60.9332C564.982 60.5838 564.428 60.4091 563.755 60.4091C563.082 60.4091 562.528 60.5838 562.093 60.9332C561.658 61.2827 561.337 61.7408 561.128 62.3075C560.919 62.8743 560.815 63.4858 560.815 64.142C560.815 64.7983 560.919 65.4077 561.128 65.9702C561.337 66.5327 561.658 66.9865 562.093 67.3317C562.528 67.6768 563.082 67.8494 563.755 67.8494ZM572.015 63.0938V69H570.507V59.1818H571.964V60.7159H572.092C572.322 60.2173 572.671 59.8168 573.14 59.5142C573.609 59.2074 574.214 59.054 574.956 59.054C575.62 59.054 576.202 59.1903 576.701 59.4631C577.199 59.7315 577.587 60.1406 577.864 60.6903C578.141 61.2358 578.279 61.9261 578.279 62.7614V69H576.771V62.8636C576.771 62.0923 576.571 61.4915 576.17 61.0611C575.769 60.6264 575.22 60.4091 574.521 60.4091C574.039 60.4091 573.609 60.5135 573.23 60.7223C572.855 60.9311 572.559 61.2358 572.341 61.6364C572.124 62.0369 572.015 62.5227 572.015 63.0938Z" fill="#5046E5"/>
</g>
<rect x="87" y="142" width="314" height="220" rx="15" stroke="#5046E5" stroke-width="2"/>
<path d="M198.633 179V165.909H203.056C204.083 165.909 204.923 166.094 205.575 166.465C206.231 166.832 206.717 167.328 207.032 167.955C207.348 168.581 207.505 169.28 207.505 170.051C207.505 170.822 207.348 171.523 207.032 172.154C206.721 172.785 206.24 173.288 205.588 173.663C204.936 174.033 204.1 174.219 203.082 174.219H199.911V172.812H203.031C203.734 172.812 204.299 172.691 204.725 172.448C205.151 172.205 205.46 171.877 205.652 171.464C205.848 171.046 205.946 170.575 205.946 170.051C205.946 169.527 205.848 169.058 205.652 168.645C205.46 168.232 205.149 167.908 204.718 167.673C204.288 167.435 203.717 167.315 203.005 167.315H200.218V179H198.633ZM209.854 179V169.182H211.312V170.665H211.414C211.593 170.179 211.917 169.785 212.386 169.482C212.854 169.18 213.383 169.028 213.971 169.028C214.082 169.028 214.22 169.031 214.386 169.035C214.552 169.039 214.678 169.045 214.763 169.054V170.588C214.712 170.575 214.595 170.556 214.412 170.531C214.233 170.501 214.043 170.486 213.843 170.486C213.366 170.486 212.94 170.586 212.565 170.786C212.194 170.982 211.9 171.255 211.682 171.604C211.469 171.95 211.363 172.344 211.363 172.787V179H209.854ZM216.552 179V169.182H218.06V179H216.552ZM217.319 167.545C217.025 167.545 216.771 167.445 216.558 167.245C216.349 167.045 216.245 166.804 216.245 166.523C216.245 166.241 216.349 166.001 216.558 165.8C216.771 165.6 217.025 165.5 217.319 165.5C217.613 165.5 217.864 165.6 218.073 165.8C218.286 166.001 218.392 166.241 218.392 166.523C218.392 166.804 218.286 167.045 218.073 167.245C217.864 167.445 217.613 167.545 217.319 167.545ZM220.823 179V169.182H222.28V170.716H222.408C222.613 170.192 222.943 169.785 223.399 169.495C223.855 169.201 224.403 169.054 225.042 169.054C225.69 169.054 226.229 169.201 226.659 169.495C227.094 169.785 227.432 170.192 227.675 170.716H227.778C228.029 170.209 228.406 169.806 228.909 169.508C229.412 169.205 230.015 169.054 230.718 169.054C231.596 169.054 232.314 169.329 232.872 169.879C233.43 170.424 233.709 171.274 233.709 172.429V179H232.201V172.429C232.201 171.705 232.003 171.187 231.606 170.876C231.21 170.565 230.744 170.409 230.207 170.409C229.516 170.409 228.981 170.618 228.602 171.036C228.223 171.449 228.033 171.973 228.033 172.608V179H226.499V172.276C226.499 171.717 226.318 171.268 225.956 170.927C225.594 170.582 225.127 170.409 224.556 170.409C224.164 170.409 223.797 170.513 223.457 170.722C223.12 170.931 222.847 171.221 222.638 171.592C222.434 171.958 222.332 172.382 222.332 172.864V179H220.823ZM239.357 179.23C238.735 179.23 238.17 179.113 237.663 178.879C237.156 178.64 236.753 178.297 236.455 177.849C236.157 177.398 236.007 176.852 236.007 176.213C236.007 175.651 236.118 175.195 236.34 174.845C236.561 174.491 236.858 174.214 237.228 174.014C237.599 173.814 238.008 173.665 238.456 173.567C238.907 173.464 239.361 173.384 239.817 173.324C240.414 173.247 240.897 173.19 241.268 173.151C241.643 173.109 241.916 173.038 242.086 172.94C242.261 172.842 242.348 172.672 242.348 172.429V172.378C242.348 171.747 242.176 171.257 241.831 170.908C241.49 170.558 240.972 170.384 240.277 170.384C239.557 170.384 238.992 170.541 238.583 170.857C238.174 171.172 237.887 171.509 237.72 171.866L236.289 171.355C236.544 170.759 236.885 170.294 237.311 169.962C237.742 169.625 238.21 169.391 238.718 169.259C239.229 169.122 239.732 169.054 240.226 169.054C240.541 169.054 240.904 169.092 241.313 169.169C241.726 169.241 242.125 169.393 242.508 169.623C242.896 169.853 243.218 170.2 243.473 170.665C243.729 171.129 243.857 171.751 243.857 172.531V179H242.348V177.67H242.272C242.169 177.884 241.999 178.112 241.76 178.354C241.522 178.597 241.204 178.804 240.808 178.974C240.411 179.145 239.928 179.23 239.357 179.23ZM239.587 177.875C240.184 177.875 240.686 177.758 241.095 177.523C241.509 177.289 241.82 176.987 242.029 176.616C242.242 176.245 242.348 175.855 242.348 175.446V174.065C242.284 174.142 242.144 174.212 241.926 174.276C241.713 174.336 241.466 174.389 241.185 174.436C240.908 174.479 240.637 174.517 240.373 174.551C240.113 174.581 239.902 174.607 239.74 174.628C239.348 174.679 238.982 174.762 238.641 174.877C238.304 174.988 238.032 175.156 237.823 175.382C237.618 175.604 237.516 175.906 237.516 176.29C237.516 176.814 237.71 177.21 238.098 177.479C238.49 177.743 238.986 177.875 239.587 177.875ZM246.61 179V169.182H248.068V170.665H248.17C248.349 170.179 248.673 169.785 249.141 169.482C249.61 169.18 250.139 169.028 250.727 169.028C250.837 169.028 250.976 169.031 251.142 169.035C251.308 169.039 251.434 169.045 251.519 169.054V170.588C251.468 170.575 251.351 170.556 251.168 170.531C250.989 170.501 250.799 170.486 250.599 170.486C250.122 170.486 249.695 170.586 249.32 170.786C248.95 170.982 248.656 171.255 248.438 171.604C248.225 171.95 248.119 172.344 248.119 172.787V179H246.61ZM254.578 182.682C254.322 182.682 254.094 182.661 253.894 182.618C253.694 182.58 253.555 182.541 253.478 182.503L253.862 181.173C254.228 181.267 254.552 181.301 254.834 181.276C255.115 181.25 255.364 181.124 255.581 180.898C255.803 180.677 256.005 180.317 256.189 179.818L256.47 179.051L252.839 169.182H254.476L257.186 177.006H257.288L259.998 169.182H261.635L257.467 180.432C257.28 180.939 257.047 181.359 256.77 181.691C256.493 182.028 256.172 182.277 255.805 182.439C255.443 182.601 255.034 182.682 254.578 182.682ZM272.933 179H268.893V165.909H273.112C274.381 165.909 275.468 166.171 276.372 166.695C277.275 167.215 277.967 167.963 278.449 168.939C278.93 169.911 279.171 171.074 279.171 172.429C279.171 173.793 278.928 174.967 278.443 175.951C277.957 176.931 277.249 177.685 276.32 178.214C275.391 178.738 274.262 179 272.933 179ZM270.478 177.594H272.83C273.913 177.594 274.81 177.385 275.521 176.967C276.233 176.55 276.764 175.955 277.113 175.184C277.462 174.413 277.637 173.494 277.637 172.429C277.637 171.372 277.465 170.462 277.119 169.7C276.774 168.933 276.259 168.344 275.573 167.935C274.886 167.522 274.032 167.315 273.009 167.315H270.478V177.594ZM281.83 179V165.909H286.407C287.319 165.909 288.071 166.067 288.663 166.382C289.256 166.693 289.697 167.113 289.987 167.641C290.276 168.165 290.421 168.747 290.421 169.386C290.421 169.949 290.321 170.413 290.121 170.78C289.925 171.146 289.665 171.436 289.341 171.649C289.021 171.862 288.674 172.02 288.299 172.122V172.25C288.7 172.276 289.102 172.416 289.507 172.672C289.912 172.928 290.251 173.294 290.524 173.771C290.796 174.249 290.933 174.832 290.933 175.523C290.933 176.179 290.783 176.769 290.485 177.293C290.187 177.817 289.716 178.233 289.073 178.54C288.429 178.847 287.592 179 286.56 179H281.83ZM283.416 177.594H286.56C287.596 177.594 288.331 177.393 288.766 176.993C289.205 176.588 289.424 176.098 289.424 175.523C289.424 175.08 289.311 174.67 289.085 174.295C288.859 173.916 288.538 173.614 288.12 173.388C287.703 173.158 287.208 173.043 286.637 173.043H283.416V177.594ZM283.416 171.662H286.356C286.833 171.662 287.264 171.568 287.647 171.381C288.035 171.193 288.342 170.929 288.568 170.588C288.798 170.247 288.913 169.847 288.913 169.386C288.913 168.811 288.712 168.323 288.312 167.923C287.911 167.518 287.276 167.315 286.407 167.315H283.416V171.662Z" fill="#1E1B4B"/>
<rect x="598" y="142" width="314" height="220" rx="15" stroke="#9590EF" stroke-width="2" stroke-dasharray="4 4"/>
<path d="M710.935 179V165.909H715.358C716.381 165.909 717.22 166.084 717.877 166.433C718.533 166.778 719.019 167.254 719.334 167.859C719.649 168.464 719.807 169.152 719.807 169.923C719.807 170.695 719.649 171.379 719.334 171.975C719.019 172.572 718.535 173.04 717.883 173.381C717.231 173.718 716.398 173.886 715.384 173.886H711.804V172.455H715.333C716.031 172.455 716.594 172.352 717.02 172.148C717.45 171.943 717.762 171.653 717.953 171.278C718.149 170.899 718.247 170.447 718.247 169.923C718.247 169.399 718.149 168.941 717.953 168.549C717.757 168.157 717.444 167.854 717.014 167.641C716.583 167.424 716.014 167.315 715.307 167.315H712.52V179H710.935ZM717.097 173.119L720.318 179H718.477L715.307 173.119H717.097ZM726.255 179.205C725.309 179.205 724.493 178.996 723.807 178.578C723.125 178.156 722.599 177.568 722.228 176.814C721.862 176.055 721.678 175.173 721.678 174.168C721.678 173.162 721.862 172.276 722.228 171.509C722.599 170.737 723.114 170.136 723.775 169.706C724.44 169.271 725.215 169.054 726.102 169.054C726.613 169.054 727.118 169.139 727.616 169.31C728.115 169.48 728.569 169.757 728.978 170.141C729.387 170.52 729.713 171.023 729.956 171.649C730.199 172.276 730.32 173.047 730.32 173.963V174.602H722.752V173.298H728.786C728.786 172.744 728.675 172.25 728.454 171.815C728.237 171.381 727.925 171.038 727.521 170.786C727.12 170.535 726.647 170.409 726.102 170.409C725.501 170.409 724.981 170.558 724.542 170.857C724.107 171.151 723.773 171.534 723.538 172.007C723.304 172.48 723.187 172.987 723.187 173.528V174.398C723.187 175.139 723.315 175.768 723.57 176.283C723.83 176.795 724.19 177.185 724.651 177.453C725.111 177.717 725.646 177.849 726.255 177.849C726.651 177.849 727.009 177.794 727.329 177.683C727.653 177.568 727.932 177.398 728.166 177.172C728.401 176.942 728.582 176.656 728.71 176.315L730.167 176.724C730.013 177.219 729.756 177.653 729.393 178.028C729.031 178.399 728.584 178.689 728.051 178.898C727.518 179.102 726.92 179.205 726.255 179.205ZM732.615 182.682V169.182H734.072V170.741H734.251C734.362 170.571 734.516 170.354 734.712 170.089C734.912 169.821 735.197 169.582 735.568 169.374C735.943 169.161 736.45 169.054 737.089 169.054C737.916 169.054 738.645 169.261 739.276 169.674C739.906 170.087 740.398 170.673 740.752 171.432C741.106 172.19 741.283 173.085 741.283 174.116C741.283 175.156 741.106 176.058 740.752 176.82C740.398 177.579 739.908 178.167 739.282 178.585C738.656 178.998 737.933 179.205 737.115 179.205C736.484 179.205 735.979 179.1 735.6 178.891C735.221 178.678 734.929 178.437 734.724 178.169C734.52 177.896 734.362 177.67 734.251 177.491H734.124V182.682H732.615ZM734.098 174.091C734.098 174.832 734.207 175.487 734.424 176.053C734.641 176.616 734.959 177.057 735.376 177.376C735.794 177.692 736.305 177.849 736.911 177.849C737.541 177.849 738.067 177.683 738.489 177.351C738.915 177.014 739.235 176.562 739.448 175.996C739.665 175.425 739.774 174.79 739.774 174.091C739.774 173.401 739.668 172.778 739.455 172.224C739.246 171.666 738.928 171.225 738.502 170.901C738.08 170.573 737.55 170.409 736.911 170.409C736.297 170.409 735.781 170.565 735.364 170.876C734.946 171.183 734.631 171.613 734.418 172.167C734.205 172.717 734.098 173.358 734.098 174.091ZM745.092 165.909V179H743.584V165.909H745.092ZM747.855 179V169.182H749.364V179H747.855ZM748.622 167.545C748.328 167.545 748.075 167.445 747.862 167.245C747.653 167.045 747.548 166.804 747.548 166.523C747.548 166.241 747.653 166.001 747.862 165.8C748.075 165.6 748.328 165.5 748.622 165.5C748.916 165.5 749.168 165.6 749.377 165.8C749.59 166.001 749.696 166.241 749.696 166.523C749.696 166.804 749.59 167.045 749.377 167.245C749.168 167.445 748.916 167.545 748.622 167.545ZM756.115 179.205C755.195 179.205 754.402 178.987 753.738 178.553C753.073 178.118 752.561 177.519 752.203 176.756C751.846 175.994 751.667 175.122 751.667 174.142C751.667 173.145 751.85 172.265 752.216 171.502C752.587 170.735 753.103 170.136 753.763 169.706C754.428 169.271 755.203 169.054 756.09 169.054C756.78 169.054 757.402 169.182 757.956 169.438C758.51 169.693 758.964 170.051 759.318 170.511C759.672 170.972 759.891 171.509 759.976 172.122H758.468C758.353 171.675 758.097 171.278 757.701 170.933C757.309 170.584 756.78 170.409 756.115 170.409C755.527 170.409 755.012 170.562 754.569 170.869C754.13 171.172 753.787 171.6 753.539 172.154C753.297 172.704 753.175 173.349 753.175 174.091C753.175 174.849 753.294 175.51 753.533 176.072C753.776 176.635 754.117 177.072 754.556 177.383C754.999 177.694 755.519 177.849 756.115 177.849C756.507 177.849 756.863 177.781 757.183 177.645C757.502 177.509 757.773 177.312 757.995 177.057C758.216 176.801 758.374 176.494 758.468 176.136H759.976C759.891 176.716 759.68 177.238 759.343 177.702C759.011 178.163 758.57 178.529 758.02 178.802C757.475 179.07 756.84 179.205 756.115 179.205ZM765.071 179.23C764.449 179.23 763.884 179.113 763.377 178.879C762.87 178.64 762.467 178.297 762.169 177.849C761.87 177.398 761.721 176.852 761.721 176.213C761.721 175.651 761.832 175.195 762.054 174.845C762.275 174.491 762.571 174.214 762.942 174.014C763.313 173.814 763.722 173.665 764.169 173.567C764.621 173.464 765.075 173.384 765.531 173.324C766.127 173.247 766.611 173.19 766.982 173.151C767.357 173.109 767.63 173.038 767.8 172.94C767.975 172.842 768.062 172.672 768.062 172.429V172.378C768.062 171.747 767.89 171.257 767.544 170.908C767.203 170.558 766.686 170.384 765.991 170.384C765.271 170.384 764.706 170.541 764.297 170.857C763.888 171.172 763.6 171.509 763.434 171.866L762.002 171.355C762.258 170.759 762.599 170.294 763.025 169.962C763.456 169.625 763.924 169.391 764.431 169.259C764.943 169.122 765.446 169.054 765.94 169.054C766.255 169.054 766.618 169.092 767.027 169.169C767.44 169.241 767.838 169.393 768.222 169.623C768.61 169.853 768.931 170.2 769.187 170.665C769.443 171.129 769.571 171.751 769.571 172.531V179H768.062V177.67H767.985C767.883 177.884 767.713 178.112 767.474 178.354C767.235 178.597 766.918 178.804 766.522 178.974C766.125 179.145 765.642 179.23 765.071 179.23ZM765.301 177.875C765.897 177.875 766.4 177.758 766.809 177.523C767.223 177.289 767.534 176.987 767.743 176.616C767.956 176.245 768.062 175.855 768.062 175.446V174.065C767.998 174.142 767.858 174.212 767.64 174.276C767.427 174.336 767.18 174.389 766.899 174.436C766.622 174.479 766.351 174.517 766.087 174.551C765.827 174.581 765.616 174.607 765.454 174.628C765.062 174.679 764.696 174.762 764.355 174.877C764.018 174.988 763.745 175.156 763.537 175.382C763.332 175.604 763.23 175.906 763.23 176.29C763.23 176.814 763.424 177.21 763.811 177.479C764.203 177.743 764.7 177.875 765.301 177.875ZM781.631 179H777.591V165.909H781.81C783.08 165.909 784.166 166.171 785.07 166.695C785.973 167.215 786.666 167.963 787.147 168.939C787.629 169.911 787.869 171.074 787.869 172.429C787.869 173.793 787.627 174.967 787.141 175.951C786.655 176.931 785.948 177.685 785.019 178.214C784.09 178.738 782.96 179 781.631 179ZM779.176 177.594H781.529C782.611 177.594 783.508 177.385 784.22 176.967C784.931 176.55 785.462 175.955 785.811 175.184C786.161 174.413 786.335 173.494 786.335 172.429C786.335 171.372 786.163 170.462 785.818 169.7C785.472 168.933 784.957 168.344 784.271 167.935C783.585 167.522 782.73 167.315 781.708 167.315H779.176V177.594ZM790.529 179V165.909H795.105C796.017 165.909 796.769 166.067 797.362 166.382C797.954 166.693 798.395 167.113 798.685 167.641C798.975 168.165 799.119 168.747 799.119 169.386C799.119 169.949 799.019 170.413 798.819 170.78C798.623 171.146 798.363 171.436 798.039 171.649C797.72 171.862 797.372 172.02 796.997 172.122V172.25C797.398 172.276 797.801 172.416 798.205 172.672C798.61 172.928 798.949 173.294 799.222 173.771C799.494 174.249 799.631 174.832 799.631 175.523C799.631 176.179 799.482 176.769 799.183 177.293C798.885 177.817 798.414 178.233 797.771 178.54C797.127 178.847 796.29 179 795.259 179H790.529ZM792.114 177.594H795.259C796.294 177.594 797.029 177.393 797.464 176.993C797.903 176.588 798.122 176.098 798.122 175.523C798.122 175.08 798.009 174.67 797.784 174.295C797.558 173.916 797.236 173.614 796.818 173.388C796.401 173.158 795.906 173.043 795.335 173.043H792.114V177.594ZM792.114 171.662H795.054C795.531 171.662 795.962 171.568 796.345 171.381C796.733 171.193 797.04 170.929 797.266 170.588C797.496 170.247 797.611 169.847 797.611 169.386C797.611 168.811 797.411 168.323 797.01 167.923C796.61 167.518 795.975 167.315 795.105 167.315H792.114V171.662Z" fill="#1E1B4B"/>
<rect x="101" y="205" width="22" height="22" stroke="#4F46E5" stroke-width="2"/>
<rect x="123" y="205" width="22" height="22" stroke="#4F46E5" stroke-width="2"/>
<rect x="145" y="205" width="22" height="22" stroke="#4F46E5" stroke-width="2"/>
<rect x="167" y="205" width="22" height="22" stroke="#4F46E5" stroke-width="2"/>
<rect x="189" y="205" width="22" height="22" stroke="#4F46E5" stroke-width="2"/>
<rect x="211" y="205" width="22" height="22" stroke="#4F46E5" stroke-width="2"/>
<rect x="233" y="205" width="22" height="22" stroke="#4F46E5" stroke-width="2"/>
<rect x="255" y="205" width="22" height="22" stroke="#4F46E5" stroke-width="2"/>
<rect x="277" y="205" width="22" height="22" stroke="#4F46E5" stroke-width="2"/>
<rect x="299" y="205" width="22" height="22" stroke="#4F46E5" stroke-width="2"/>
<rect x="321" y="205" width="22" height="22" stroke="#4F46E5" stroke-width="2"/>
<rect x="343" y="205" width="22" height="22" stroke="#4F46E5" stroke-width="2"/>
<rect x="365" y="205" width="22" height="22" stroke="#4F46E5" stroke-width="2"/>
<g opacity="0.6">
<rect x="612" y="205" width="22" height="22" stroke="#4F46E5" stroke-width="2"/>
<rect x="634" y="205" width="22" height="22" stroke="#4F46E5" stroke-width="2"/>
<rect x="656" y="205" width="22" height="22" stroke="#4F46E5" stroke-width="2"/>
<rect x="678" y="205" width="22" height="22" stroke="#4F46E5" stroke-width="2"/>
<rect x="700" y="205" width="22" height="22" stroke="#4F46E5" stroke-width="2"/>
<rect x="722" y="205" width="22" height="22" stroke="#4F46E5" stroke-width="2"/>
<rect x="744" y="205" width="22" height="22" stroke="#4F46E5" stroke-width="2"/>
<rect x="766" y="205" width="22" height="22" stroke="#4F46E5" stroke-width="2"/>
<rect x="788" y="205" width="22" height="22" stroke="#4F46E5" stroke-width="2"/>
<rect x="810" y="205" width="22" height="22" stroke="#4F46E5" stroke-width="2"/>
<rect x="832" y="205" width="22" height="22" stroke="#4F46E5" stroke-width="2"/>
<rect x="854" y="205" width="22" height="22" stroke="#4F46E5" stroke-width="2"/>
<rect x="876" y="205" width="22" height="22" stroke="#4F46E5" stroke-width="2"/>
</g>
<rect x="182" y="277" width="125" height="43" rx="16" fill="#4F46E5"/>
<path d="M201.687 304L198.505 292.364H199.937L202.369 301.841H202.482L204.96 292.364H206.55L209.028 301.841H209.141L211.573 292.364H213.005L209.823 304H208.369L205.8 294.727H205.71L203.141 304H201.687ZM214.332 304H212.854L217.127 292.364H218.582L222.854 304H221.377L217.9 294.205H217.809L214.332 304ZM214.877 299.455H220.832V300.705H214.877V299.455ZM224.667 304V292.364H226.076V302.75H231.485V304H224.667ZM244.531 295.273C244.462 294.697 244.186 294.25 243.701 293.932C243.216 293.614 242.621 293.455 241.917 293.455C241.402 293.455 240.951 293.538 240.565 293.705C240.182 293.871 239.883 294.1 239.667 294.392C239.455 294.684 239.349 295.015 239.349 295.386C239.349 295.697 239.423 295.964 239.57 296.188C239.722 296.407 239.915 296.591 240.15 296.739C240.385 296.883 240.631 297.002 240.888 297.097C241.146 297.187 241.383 297.261 241.599 297.318L242.781 297.636C243.084 297.716 243.421 297.826 243.792 297.966C244.167 298.106 244.525 298.297 244.866 298.54C245.21 298.778 245.495 299.085 245.718 299.46C245.942 299.835 246.053 300.295 246.053 300.841C246.053 301.47 245.888 302.038 245.559 302.545C245.233 303.053 244.756 303.456 244.127 303.756C243.502 304.055 242.743 304.205 241.849 304.205C241.015 304.205 240.294 304.07 239.684 303.801C239.078 303.532 238.601 303.157 238.252 302.676C237.907 302.195 237.712 301.636 237.667 301H239.121C239.159 301.439 239.307 301.803 239.565 302.091C239.826 302.375 240.156 302.587 240.553 302.727C240.955 302.864 241.387 302.932 241.849 302.932C242.387 302.932 242.87 302.845 243.298 302.67C243.726 302.492 244.065 302.246 244.315 301.932C244.565 301.614 244.69 301.242 244.69 300.818C244.69 300.432 244.582 300.117 244.366 299.875C244.15 299.633 243.866 299.436 243.513 299.284C243.161 299.133 242.781 299 242.371 298.886L240.94 298.477C240.031 298.216 239.311 297.843 238.781 297.358C238.25 296.873 237.985 296.239 237.985 295.455C237.985 294.803 238.161 294.235 238.513 293.75C238.87 293.261 239.347 292.883 239.945 292.614C240.548 292.341 241.22 292.205 241.962 292.205C242.712 292.205 243.379 292.339 243.962 292.608C244.546 292.873 245.008 293.237 245.349 293.699C245.693 294.161 245.875 294.686 245.894 295.273H244.531ZM251.847 304.182C251.006 304.182 250.281 303.996 249.671 303.625C249.065 303.25 248.597 302.727 248.268 302.057C247.942 301.383 247.779 300.598 247.779 299.705C247.779 298.811 247.942 298.023 248.268 297.341C248.597 296.655 249.056 296.121 249.643 295.739C250.234 295.352 250.923 295.159 251.711 295.159C252.165 295.159 252.614 295.235 253.058 295.386C253.501 295.538 253.904 295.784 254.268 296.125C254.631 296.462 254.921 296.909 255.137 297.466C255.353 298.023 255.461 298.708 255.461 299.523V300.091H248.734V298.932H254.097C254.097 298.439 253.999 298 253.802 297.614C253.609 297.227 253.332 296.922 252.972 296.699C252.616 296.475 252.196 296.364 251.711 296.364C251.177 296.364 250.715 296.496 250.325 296.761C249.938 297.023 249.641 297.364 249.433 297.784C249.224 298.205 249.12 298.655 249.12 299.136V299.909C249.12 300.568 249.234 301.127 249.461 301.585C249.692 302.04 250.012 302.386 250.421 302.625C250.83 302.86 251.306 302.977 251.847 302.977C252.2 302.977 252.518 302.928 252.802 302.83C253.09 302.727 253.338 302.576 253.546 302.375C253.754 302.17 253.915 301.917 254.029 301.614L255.325 301.977C255.188 302.417 254.959 302.803 254.637 303.136C254.315 303.466 253.917 303.723 253.444 303.909C252.97 304.091 252.438 304.182 251.847 304.182ZM258.842 298.75V304H257.501V295.273H258.796V296.636H258.91C259.114 296.193 259.425 295.837 259.842 295.568C260.258 295.295 260.796 295.159 261.455 295.159C262.046 295.159 262.563 295.28 263.006 295.523C263.45 295.761 263.794 296.125 264.04 296.614C264.287 297.098 264.41 297.712 264.41 298.455V304H263.069V298.545C263.069 297.86 262.891 297.326 262.535 296.943C262.179 296.557 261.69 296.364 261.069 296.364C260.641 296.364 260.258 296.456 259.921 296.642C259.588 296.828 259.325 297.098 259.131 297.455C258.938 297.811 258.842 298.242 258.842 298.75ZM270.156 304.182C269.428 304.182 268.786 303.998 268.229 303.631C267.673 303.259 267.237 302.737 266.923 302.062C266.608 301.384 266.451 300.583 266.451 299.659C266.451 298.742 266.608 297.947 266.923 297.273C267.237 296.598 267.674 296.078 268.235 295.71C268.796 295.343 269.443 295.159 270.178 295.159C270.746 295.159 271.195 295.254 271.525 295.443C271.858 295.629 272.112 295.841 272.286 296.08C272.464 296.314 272.603 296.508 272.701 296.659H272.815V292.364H274.156V304H272.86V302.659H272.701C272.603 302.818 272.462 303.019 272.281 303.261C272.099 303.5 271.839 303.714 271.502 303.903C271.165 304.089 270.716 304.182 270.156 304.182ZM270.337 302.977C270.875 302.977 271.33 302.837 271.701 302.557C272.072 302.273 272.354 301.881 272.548 301.381C272.741 300.877 272.837 300.295 272.837 299.636C272.837 298.985 272.743 298.415 272.553 297.926C272.364 297.434 272.084 297.051 271.712 296.778C271.341 296.502 270.883 296.364 270.337 296.364C269.769 296.364 269.296 296.509 268.917 296.801C268.542 297.089 268.26 297.481 268.07 297.977C267.885 298.47 267.792 299.023 267.792 299.636C267.792 300.258 267.887 300.822 268.076 301.33C268.269 301.833 268.553 302.235 268.928 302.534C269.307 302.83 269.777 302.977 270.337 302.977ZM280.457 304.182C279.616 304.182 278.89 303.996 278.281 303.625C277.674 303.25 277.207 302.727 276.877 302.057C276.551 301.383 276.388 300.598 276.388 299.705C276.388 298.811 276.551 298.023 276.877 297.341C277.207 296.655 277.665 296.121 278.252 295.739C278.843 295.352 279.532 295.159 280.32 295.159C280.775 295.159 281.224 295.235 281.667 295.386C282.11 295.538 282.513 295.784 282.877 296.125C283.241 296.462 283.531 296.909 283.746 297.466C283.962 298.023 284.07 298.708 284.07 299.523V300.091H277.343V298.932H282.707C282.707 298.439 282.608 298 282.411 297.614C282.218 297.227 281.942 296.922 281.582 296.699C281.226 296.475 280.805 296.364 280.32 296.364C279.786 296.364 279.324 296.496 278.934 296.761C278.548 297.023 278.25 297.364 278.042 297.784C277.834 298.205 277.729 298.655 277.729 299.136V299.909C277.729 300.568 277.843 301.127 278.07 301.585C278.301 302.04 278.621 302.386 279.031 302.625C279.44 302.86 279.915 302.977 280.457 302.977C280.809 302.977 281.127 302.928 281.411 302.83C281.699 302.727 281.947 302.576 282.156 302.375C282.364 302.17 282.525 301.917 282.638 301.614L283.934 301.977C283.798 302.417 283.568 302.803 283.246 303.136C282.924 303.466 282.527 303.723 282.053 303.909C281.58 304.091 281.048 304.182 280.457 304.182ZM286.11 304V295.273H287.406V296.591H287.496C287.656 296.159 287.943 295.809 288.36 295.54C288.777 295.271 289.246 295.136 289.769 295.136C289.868 295.136 289.991 295.138 290.138 295.142C290.286 295.146 290.398 295.152 290.474 295.159V296.523C290.428 296.511 290.324 296.494 290.161 296.472C290.002 296.445 289.834 296.432 289.656 296.432C289.231 296.432 288.853 296.521 288.519 296.699C288.19 296.873 287.928 297.116 287.735 297.426C287.546 297.733 287.451 298.083 287.451 298.477V304H286.11Z" fill="white"/>
<rect x="687" y="277" width="136" height="43" rx="16" fill="#4F46E5"/>
<path d="M706.546 304L703.364 292.364H704.796L707.228 301.841H707.342L709.819 292.364H711.41L713.887 301.841H714.001L716.433 292.364H717.864L714.683 304H713.228L710.66 294.727H710.569L708.001 304H706.546ZM719.191 304H717.714L721.987 292.364H723.441L727.714 304H726.237L722.759 294.205H722.668L719.191 304ZM719.737 299.455H725.691V300.705H719.737V299.455ZM729.526 304V292.364H730.935V302.75H736.344V304H729.526ZM743.026 304V292.364H746.958C747.867 292.364 748.613 292.519 749.197 292.83C749.78 293.136 750.212 293.559 750.492 294.097C750.772 294.634 750.913 295.246 750.913 295.932C750.913 296.617 750.772 297.225 750.492 297.756C750.212 298.286 749.782 298.703 749.202 299.006C748.623 299.305 747.882 299.455 746.981 299.455H743.799V298.182H746.935C747.557 298.182 748.057 298.091 748.435 297.909C748.818 297.727 749.094 297.47 749.265 297.136C749.439 296.799 749.526 296.398 749.526 295.932C749.526 295.466 749.439 295.059 749.265 294.71C749.091 294.362 748.812 294.093 748.43 293.903C748.047 293.71 747.541 293.614 746.913 293.614H744.435V304H743.026ZM748.504 298.773L751.367 304H749.731L746.913 298.773H748.504ZM756.644 304.182C755.803 304.182 755.078 303.996 754.468 303.625C753.862 303.25 753.394 302.727 753.065 302.057C752.739 301.383 752.576 300.598 752.576 299.705C752.576 298.811 752.739 298.023 753.065 297.341C753.394 296.655 753.853 296.121 754.44 295.739C755.031 295.352 755.72 295.159 756.508 295.159C756.962 295.159 757.411 295.235 757.854 295.386C758.298 295.538 758.701 295.784 759.065 296.125C759.428 296.462 759.718 296.909 759.934 297.466C760.15 298.023 760.258 298.708 760.258 299.523V300.091H753.531V298.932H758.894C758.894 298.439 758.796 298 758.599 297.614C758.406 297.227 758.129 296.922 757.769 296.699C757.413 296.475 756.993 296.364 756.508 296.364C755.974 296.364 755.512 296.496 755.121 296.761C754.735 297.023 754.438 297.364 754.229 297.784C754.021 298.205 753.917 298.655 753.917 299.136V299.909C753.917 300.568 754.031 301.127 754.258 301.585C754.489 302.04 754.809 302.386 755.218 302.625C755.627 302.86 756.103 302.977 756.644 302.977C756.996 302.977 757.315 302.928 757.599 302.83C757.887 302.727 758.135 302.576 758.343 302.375C758.551 302.17 758.712 301.917 758.826 301.614L760.121 301.977C759.985 302.417 759.756 302.803 759.434 303.136C759.112 303.466 758.714 303.723 758.241 303.909C757.767 304.091 757.235 304.182 756.644 304.182ZM765.843 304.182C765.025 304.182 764.32 303.989 763.729 303.602C763.138 303.216 762.684 302.684 762.366 302.006C762.048 301.328 761.888 300.553 761.888 299.682C761.888 298.795 762.051 298.013 762.377 297.335C762.707 296.653 763.165 296.121 763.752 295.739C764.343 295.352 765.032 295.159 765.82 295.159C766.434 295.159 766.987 295.273 767.479 295.5C767.972 295.727 768.375 296.045 768.69 296.455C769.004 296.864 769.199 297.341 769.275 297.886H767.934C767.832 297.489 767.604 297.136 767.252 296.83C766.904 296.519 766.434 296.364 765.843 296.364C765.32 296.364 764.862 296.5 764.468 296.773C764.078 297.042 763.773 297.422 763.553 297.915C763.337 298.403 763.229 298.977 763.229 299.636C763.229 300.311 763.335 300.898 763.548 301.398C763.763 301.898 764.067 302.286 764.457 302.562C764.851 302.839 765.313 302.977 765.843 302.977C766.192 302.977 766.508 302.917 766.792 302.795C767.076 302.674 767.317 302.5 767.513 302.273C767.71 302.045 767.851 301.773 767.934 301.455H769.275C769.199 301.97 769.012 302.434 768.712 302.847C768.417 303.256 768.025 303.581 767.536 303.824C767.051 304.062 766.487 304.182 765.843 304.182ZM774.894 304.182C774.053 304.182 773.328 303.996 772.718 303.625C772.112 303.25 771.644 302.727 771.315 302.057C770.989 301.383 770.826 300.598 770.826 299.705C770.826 298.811 770.989 298.023 771.315 297.341C771.644 296.655 772.103 296.121 772.69 295.739C773.281 295.352 773.97 295.159 774.758 295.159C775.212 295.159 775.661 295.235 776.104 295.386C776.548 295.538 776.951 295.784 777.315 296.125C777.678 296.462 777.968 296.909 778.184 297.466C778.4 298.023 778.508 298.708 778.508 299.523V300.091H771.781V298.932H777.144C777.144 298.439 777.046 298 776.849 297.614C776.656 297.227 776.379 296.922 776.019 296.699C775.663 296.475 775.243 296.364 774.758 296.364C774.224 296.364 773.762 296.496 773.371 296.761C772.985 297.023 772.688 297.364 772.479 297.784C772.271 298.205 772.167 298.655 772.167 299.136V299.909C772.167 300.568 772.281 301.127 772.508 301.585C772.739 302.04 773.059 302.386 773.468 302.625C773.877 302.86 774.353 302.977 774.894 302.977C775.246 302.977 775.565 302.928 775.849 302.83C776.137 302.727 776.385 302.576 776.593 302.375C776.801 302.17 776.962 301.917 777.076 301.614L778.371 301.977C778.235 302.417 778.006 302.803 777.684 303.136C777.362 303.466 776.964 303.723 776.491 303.909C776.017 304.091 775.485 304.182 774.894 304.182ZM780.548 304V295.273H781.888V304H780.548ZM781.229 293.818C780.968 293.818 780.743 293.729 780.553 293.551C780.368 293.373 780.275 293.159 780.275 292.909C780.275 292.659 780.368 292.445 780.553 292.267C780.743 292.089 780.968 292 781.229 292C781.491 292 781.714 292.089 781.9 292.267C782.089 292.445 782.184 292.659 782.184 292.909C782.184 293.159 782.089 293.373 781.9 293.551C781.714 293.729 781.491 293.818 781.229 293.818ZM791.481 295.273L788.254 304H786.89L783.663 295.273H785.117L787.526 302.227H787.617L790.026 295.273H791.481ZM796.597 304.182C795.756 304.182 795.031 303.996 794.421 303.625C793.815 303.25 793.347 302.727 793.018 302.057C792.692 301.383 792.529 300.598 792.529 299.705C792.529 298.811 792.692 298.023 793.018 297.341C793.347 296.655 793.806 296.121 794.393 295.739C794.984 295.352 795.673 295.159 796.461 295.159C796.915 295.159 797.364 295.235 797.808 295.386C798.251 295.538 798.654 295.784 799.018 296.125C799.381 296.462 799.671 296.909 799.887 297.466C800.103 298.023 800.211 298.708 800.211 299.523V300.091H793.484V298.932H798.847C798.847 298.439 798.749 298 798.552 297.614C798.359 297.227 798.082 296.922 797.722 296.699C797.366 296.475 796.946 296.364 796.461 296.364C795.927 296.364 795.465 296.496 795.075 296.761C794.688 297.023 794.391 297.364 794.183 297.784C793.974 298.205 793.87 298.655 793.87 299.136V299.909C793.87 300.568 793.984 301.127 794.211 301.585C794.442 302.04 794.762 302.386 795.171 302.625C795.58 302.86 796.056 302.977 796.597 302.977C796.95 302.977 797.268 302.928 797.552 302.83C797.84 302.727 798.088 302.576 798.296 302.375C798.504 302.17 798.665 301.917 798.779 301.614L800.075 301.977C799.938 302.417 799.709 302.803 799.387 303.136C799.065 303.466 798.667 303.723 798.194 303.909C797.72 304.091 797.188 304.182 796.597 304.182ZM802.251 304V295.273H803.546V296.591H803.637C803.796 296.159 804.084 295.809 804.501 295.54C804.917 295.271 805.387 295.136 805.91 295.136C806.008 295.136 806.131 295.138 806.279 295.142C806.427 295.146 806.539 295.152 806.614 295.159V296.523C806.569 296.511 806.465 296.494 806.302 296.472C806.143 296.445 805.974 296.432 805.796 296.432C805.372 296.432 804.993 296.521 804.66 296.699C804.33 296.873 804.069 297.116 803.876 297.426C803.686 297.733 803.592 298.083 803.592 298.477V304H802.251Z" fill="white"/>
<path d="M241.793 272.207C242.183 272.598 242.817 272.598 243.207 272.207L249.571 265.843C249.962 265.453 249.962 264.819 249.571 264.429C249.181 264.038 248.547 264.038 248.157 264.429L242.5 270.086L236.843 264.429C236.453 264.038 235.819 264.038 235.429 264.429C235.038 264.819 235.038 265.453 235.429 265.843L241.793 272.207ZM242.5 236H241.5V271.5H242.5H243.5V236H242.5Z" fill="black"/>
<path d="M677.707 299.707C678.098 299.317 678.098 298.683 677.707 298.293L671.343 291.929C670.953 291.538 670.319 291.538 669.929 291.929C669.538 292.319 669.538 292.953 669.929 293.343L675.586 299L669.929 304.657C669.538 305.047 669.538 305.681 669.929 306.071C670.319 306.462 670.953 306.462 671.343 306.071L677.707 299.707ZM318 299L318 300L677 300L677 299L677 298L318 298L318 299Z" fill="black"/>
<path d="M755.707 235.293C755.317 234.902 754.683 234.902 754.293 235.293L747.929 241.657C747.538 242.047 747.538 242.681 747.929 243.071C748.319 243.462 748.953 243.462 749.343 243.071L755 237.414L760.657 243.071C761.047 243.462 761.681 243.462 762.071 243.071C762.462 242.681 762.462 242.047 762.071 241.657L755.707 235.293ZM755 271.5H756V236H755H754V271.5H755Z" fill="black"/>
<path d="M438.407 286V275.818H440.251V284.454H444.735V286H438.407ZM449.508 286.159C448.819 286.159 448.214 285.995 447.694 285.667C447.176 285.339 446.772 284.88 446.48 284.29C446.192 283.7 446.048 283.01 446.048 282.222C446.048 281.426 446.192 280.732 446.48 280.138C446.772 279.545 447.176 279.085 447.694 278.756C448.214 278.428 448.819 278.264 449.508 278.264C450.198 278.264 450.801 278.428 451.318 278.756C451.838 279.085 452.243 279.545 452.531 280.138C452.823 280.732 452.968 281.426 452.968 282.222C452.968 283.01 452.823 283.7 452.531 284.29C452.243 284.88 451.838 285.339 451.318 285.667C450.801 285.995 450.198 286.159 449.508 286.159ZM449.508 285.105C450.032 285.105 450.463 284.971 450.801 284.702C451.139 284.434 451.389 284.081 451.551 283.643C451.714 283.206 451.795 282.732 451.795 282.222C451.795 281.711 451.714 281.236 451.551 280.795C451.389 280.354 451.139 279.998 450.801 279.726C450.463 279.454 450.032 279.318 449.508 279.318C448.984 279.318 448.554 279.454 448.216 279.726C447.877 279.998 447.627 280.354 447.465 280.795C447.302 281.236 447.221 281.711 447.221 282.222C447.221 282.732 447.302 283.206 447.465 283.643C447.627 284.081 447.877 284.434 448.216 284.702C448.554 284.971 448.984 285.105 449.508 285.105ZM457.842 289.023C457.275 289.023 456.788 288.95 456.38 288.804C455.972 288.661 455.633 288.473 455.361 288.237C455.093 288.005 454.879 287.757 454.72 287.491L455.654 286.835C455.76 286.974 455.895 287.134 456.057 287.312C456.219 287.495 456.441 287.652 456.723 287.785C457.008 287.921 457.381 287.989 457.842 287.989C458.458 287.989 458.967 287.839 459.368 287.541C459.769 287.243 459.97 286.776 459.97 286.139V284.588H459.87C459.784 284.727 459.661 284.9 459.502 285.105C459.347 285.307 459.121 285.488 458.826 285.647C458.535 285.803 458.14 285.881 457.643 285.881C457.026 285.881 456.473 285.735 455.982 285.443C455.495 285.152 455.109 284.727 454.824 284.17C454.542 283.614 454.401 282.937 454.401 282.142C454.401 281.36 454.539 280.679 454.814 280.099C455.089 279.515 455.472 279.065 455.963 278.746C456.453 278.425 457.02 278.264 457.663 278.264C458.16 278.264 458.554 278.347 458.846 278.513C459.141 278.675 459.366 278.861 459.522 279.07C459.681 279.275 459.804 279.444 459.89 279.577H460.009V278.364H461.143V286.219C461.143 286.875 460.994 287.409 460.695 287.82C460.401 288.234 460.003 288.537 459.502 288.729C459.005 288.925 458.452 289.023 457.842 289.023ZM457.802 284.827C458.273 284.827 458.67 284.719 458.995 284.504C459.32 284.288 459.567 283.978 459.736 283.574C459.905 283.17 459.99 282.686 459.99 282.122C459.99 281.572 459.907 281.086 459.741 280.665C459.575 280.245 459.33 279.915 459.005 279.676C458.68 279.437 458.279 279.318 457.802 279.318C457.305 279.318 456.891 279.444 456.559 279.696C456.231 279.948 455.984 280.286 455.818 280.71C455.656 281.134 455.575 281.605 455.575 282.122C455.575 282.652 455.658 283.121 455.823 283.529C455.992 283.933 456.241 284.252 456.569 284.484C456.901 284.712 457.311 284.827 457.802 284.827ZM463.291 286V278.364H464.464V286H463.291ZM463.887 277.091C463.659 277.091 463.461 277.013 463.296 276.857C463.133 276.701 463.052 276.514 463.052 276.295C463.052 276.077 463.133 275.889 463.296 275.734C463.461 275.578 463.659 275.5 463.887 275.5C464.116 275.5 464.311 275.578 464.474 275.734C464.64 275.889 464.722 276.077 464.722 276.295C464.722 276.514 464.64 276.701 464.474 276.857C464.311 277.013 464.116 277.091 463.887 277.091ZM469.715 286.159C468.999 286.159 468.383 285.99 467.866 285.652C467.349 285.314 466.951 284.848 466.673 284.255C466.394 283.662 466.255 282.984 466.255 282.222C466.255 281.446 466.397 280.762 466.683 280.168C466.971 279.572 467.372 279.106 467.886 278.771C468.403 278.433 469.006 278.264 469.695 278.264C470.232 278.264 470.716 278.364 471.147 278.562C471.578 278.761 471.931 279.04 472.206 279.398C472.481 279.756 472.652 280.173 472.718 280.651H471.545C471.455 280.303 471.256 279.994 470.948 279.726C470.643 279.454 470.232 279.318 469.715 279.318C469.258 279.318 468.857 279.437 468.512 279.676C468.171 279.911 467.904 280.245 467.712 280.675C467.523 281.103 467.428 281.605 467.428 282.182C467.428 282.772 467.521 283.286 467.707 283.723C467.896 284.161 468.161 284.5 468.502 284.742C468.847 284.984 469.251 285.105 469.715 285.105C470.02 285.105 470.297 285.052 470.545 284.946C470.794 284.84 471.004 284.688 471.177 284.489C471.349 284.29 471.472 284.051 471.545 283.773H472.718C472.652 284.223 472.488 284.629 472.226 284.991C471.967 285.349 471.624 285.634 471.197 285.846C470.772 286.055 470.279 286.159 469.715 286.159ZM476.68 286.179C476.196 286.179 475.757 286.088 475.363 285.906C474.969 285.72 474.655 285.453 474.423 285.105C474.191 284.754 474.075 284.33 474.075 283.832C474.075 283.395 474.161 283.04 474.334 282.768C474.506 282.493 474.737 282.278 475.025 282.122C475.313 281.966 475.631 281.85 475.979 281.774C476.331 281.695 476.684 281.632 477.038 281.585C477.502 281.526 477.879 281.481 478.167 281.451C478.459 281.418 478.671 281.363 478.803 281.287C478.939 281.211 479.007 281.078 479.007 280.889V280.849C479.007 280.359 478.873 279.978 478.604 279.706C478.339 279.434 477.937 279.298 477.396 279.298C476.836 279.298 476.397 279.421 476.079 279.666C475.761 279.911 475.537 280.173 475.408 280.452L474.294 280.054C474.493 279.59 474.758 279.229 475.089 278.97C475.424 278.708 475.789 278.526 476.183 278.423C476.581 278.317 476.972 278.264 477.357 278.264C477.602 278.264 477.884 278.294 478.202 278.354C478.523 278.41 478.833 278.528 479.131 278.707C479.433 278.886 479.683 279.156 479.882 279.517C480.081 279.878 480.18 280.362 480.18 280.969V286H479.007V284.966H478.947C478.868 285.132 478.735 285.309 478.55 285.498C478.364 285.687 478.117 285.848 477.809 285.98C477.501 286.113 477.125 286.179 476.68 286.179ZM476.859 285.125C477.323 285.125 477.714 285.034 478.033 284.852C478.354 284.669 478.596 284.434 478.759 284.146C478.924 283.857 479.007 283.554 479.007 283.236V282.162C478.957 282.222 478.848 282.276 478.679 282.326C478.513 282.372 478.321 282.414 478.102 282.45C477.887 282.483 477.676 282.513 477.471 282.54C477.269 282.563 477.105 282.583 476.979 282.599C476.674 282.639 476.389 282.704 476.124 282.793C475.862 282.879 475.65 283.01 475.487 283.186C475.328 283.358 475.249 283.594 475.249 283.892C475.249 284.3 475.399 284.608 475.701 284.817C476.006 285.022 476.392 285.125 476.859 285.125ZM483.495 275.818V286H482.322V275.818H483.495ZM489.512 286V275.818H493.33C494.112 275.818 494.769 275.954 495.299 276.226C495.833 276.498 496.235 276.879 496.507 277.369C496.782 277.857 496.92 278.425 496.92 279.075C496.92 279.728 496.781 280.294 496.502 280.775C496.227 281.252 495.821 281.622 495.284 281.884C494.747 282.142 494.088 282.271 493.305 282.271H490.586V280.74H493.057C493.514 280.74 493.889 280.677 494.18 280.551C494.472 280.422 494.688 280.235 494.827 279.989C494.969 279.741 495.04 279.436 495.04 279.075C495.04 278.713 494.969 278.405 494.827 278.15C494.684 277.891 494.467 277.696 494.175 277.563C493.884 277.427 493.508 277.359 493.047 277.359H491.357V286H489.512ZM494.772 281.386L497.293 286H495.234L492.759 281.386H494.772ZM501.889 286.159C501.153 286.159 500.518 285.997 499.985 285.672C499.454 285.344 499.045 284.886 498.757 284.3C498.472 283.71 498.329 283.024 498.329 282.241C498.329 281.459 498.472 280.77 498.757 280.173C499.045 279.573 499.446 279.106 499.96 278.771C500.477 278.433 501.08 278.264 501.77 278.264C502.167 278.264 502.56 278.33 502.948 278.463C503.336 278.596 503.689 278.811 504.007 279.109C504.325 279.404 504.578 279.795 504.767 280.283C504.956 280.77 505.051 281.37 505.051 282.082V282.58H499.164V281.565H503.858C503.858 281.134 503.771 280.75 503.599 280.412C503.43 280.074 503.188 279.807 502.873 279.612C502.562 279.416 502.194 279.318 501.77 279.318C501.302 279.318 500.898 279.434 500.556 279.666C500.218 279.895 499.958 280.193 499.776 280.561C499.594 280.929 499.502 281.323 499.502 281.744V282.42C499.502 282.997 499.602 283.486 499.801 283.887C500.003 284.285 500.283 284.588 500.641 284.797C500.999 285.002 501.415 285.105 501.889 285.105C502.197 285.105 502.475 285.062 502.724 284.976C502.976 284.886 503.193 284.754 503.375 284.578C503.558 284.399 503.699 284.177 503.798 283.912L504.931 284.23C504.812 284.615 504.612 284.953 504.33 285.244C504.048 285.533 503.7 285.758 503.286 285.92C502.872 286.08 502.406 286.159 501.889 286.159ZM506.836 288.864V278.364H507.969V279.577H508.108C508.194 279.444 508.314 279.275 508.466 279.07C508.622 278.861 508.844 278.675 509.132 278.513C509.424 278.347 509.819 278.264 510.316 278.264C510.959 278.264 511.525 278.425 512.016 278.746C512.507 279.068 512.889 279.524 513.164 280.114C513.44 280.704 513.577 281.4 513.577 282.202C513.577 283.01 513.44 283.711 513.164 284.305C512.889 284.895 512.508 285.352 512.021 285.677C511.534 285.998 510.972 286.159 510.336 286.159C509.845 286.159 509.452 286.078 509.157 285.915C508.862 285.75 508.635 285.562 508.476 285.354C508.317 285.142 508.194 284.966 508.108 284.827H508.009V288.864H506.836ZM507.989 282.182C507.989 282.759 508.074 283.267 508.243 283.708C508.412 284.146 508.658 284.489 508.983 284.737C509.308 284.982 509.706 285.105 510.176 285.105C510.667 285.105 511.076 284.976 511.404 284.717C511.736 284.455 511.984 284.104 512.15 283.663C512.319 283.219 512.404 282.725 512.404 282.182C512.404 281.645 512.321 281.161 512.155 280.73C511.993 280.296 511.746 279.953 511.414 279.701C511.086 279.446 510.674 279.318 510.176 279.318C509.699 279.318 509.298 279.439 508.973 279.681C508.649 279.92 508.403 280.254 508.238 280.685C508.072 281.113 507.989 281.612 507.989 282.182ZM516.54 275.818V286H515.367V275.818H516.54ZM518.689 286V278.364H519.862V286H518.689ZM519.286 277.091C519.057 277.091 518.86 277.013 518.694 276.857C518.532 276.701 518.45 276.514 518.45 276.295C518.45 276.077 518.532 275.889 518.694 275.734C518.86 275.578 519.057 275.5 519.286 275.5C519.514 275.5 519.71 275.578 519.872 275.734C520.038 275.889 520.121 276.077 520.121 276.295C520.121 276.514 520.038 276.701 519.872 276.857C519.71 277.013 519.514 277.091 519.286 277.091ZM525.114 286.159C524.398 286.159 523.781 285.99 523.264 285.652C522.747 285.314 522.349 284.848 522.071 284.255C521.793 283.662 521.653 282.984 521.653 282.222C521.653 281.446 521.796 280.762 522.081 280.168C522.369 279.572 522.77 279.106 523.284 278.771C523.801 278.433 524.404 278.264 525.094 278.264C525.631 278.264 526.115 278.364 526.545 278.562C526.976 278.761 527.329 279.04 527.604 279.398C527.879 279.756 528.05 280.173 528.116 280.651H526.943C526.854 280.303 526.655 279.994 526.347 279.726C526.042 279.454 525.631 279.318 525.114 279.318C524.656 279.318 524.255 279.437 523.911 279.676C523.569 279.911 523.302 280.245 523.11 280.675C522.921 281.103 522.827 281.605 522.827 282.182C522.827 282.772 522.92 283.286 523.105 283.723C523.294 284.161 523.559 284.5 523.901 284.742C524.245 284.984 524.65 285.105 525.114 285.105C525.419 285.105 525.695 285.052 525.944 284.946C526.192 284.84 526.403 284.688 526.575 284.489C526.748 284.29 526.87 284.051 526.943 283.773H528.116C528.05 284.223 527.886 284.629 527.624 284.991C527.366 285.349 527.023 285.634 526.595 285.846C526.171 286.055 525.677 286.159 525.114 286.159ZM532.079 286.179C531.595 286.179 531.156 286.088 530.761 285.906C530.367 285.72 530.054 285.453 529.822 285.105C529.59 284.754 529.474 284.33 529.474 283.832C529.474 283.395 529.56 283.04 529.732 282.768C529.905 282.493 530.135 282.278 530.423 282.122C530.712 281.966 531.03 281.85 531.378 281.774C531.729 281.695 532.082 281.632 532.437 281.585C532.901 281.526 533.277 281.481 533.565 281.451C533.857 281.418 534.069 281.363 534.202 281.287C534.338 281.211 534.406 281.078 534.406 280.889V280.849C534.406 280.359 534.271 279.978 534.003 279.706C533.738 279.434 533.335 279.298 532.795 279.298C532.235 279.298 531.795 279.421 531.477 279.666C531.159 279.911 530.935 280.173 530.806 280.452L529.692 280.054C529.891 279.59 530.156 279.229 530.488 278.97C530.823 278.708 531.187 278.526 531.582 278.423C531.979 278.317 532.371 278.264 532.755 278.264C533 278.264 533.282 278.294 533.6 278.354C533.922 278.41 534.232 278.528 534.53 278.707C534.831 278.886 535.082 279.156 535.281 279.517C535.479 279.878 535.579 280.362 535.579 280.969V286H534.406V284.966H534.346C534.266 285.132 534.134 285.309 533.948 285.498C533.763 285.687 533.516 285.848 533.207 285.98C532.899 286.113 532.523 286.179 532.079 286.179ZM532.258 285.125C532.722 285.125 533.113 285.034 533.431 284.852C533.753 284.669 533.995 284.434 534.157 284.146C534.323 283.857 534.406 283.554 534.406 283.236V282.162C534.356 282.222 534.246 282.276 534.077 282.326C533.912 282.372 533.719 282.414 533.501 282.45C533.285 282.483 533.075 282.513 532.869 282.54C532.667 282.563 532.503 282.583 532.377 282.599C532.072 282.639 531.787 282.704 531.522 282.793C531.26 282.879 531.048 283.01 530.886 283.186C530.727 283.358 530.647 283.594 530.647 283.892C530.647 284.3 530.798 284.608 531.099 284.817C531.404 285.022 531.79 285.125 532.258 285.125ZM541.041 278.364V279.358H537.084V278.364H541.041ZM538.237 276.534H539.411V283.812C539.411 284.144 539.459 284.393 539.555 284.558C539.654 284.721 539.78 284.83 539.933 284.886C540.088 284.939 540.253 284.966 540.425 284.966C540.554 284.966 540.66 284.959 540.743 284.946C540.826 284.929 540.892 284.916 540.942 284.906L541.181 285.96C541.101 285.99 540.99 286.02 540.847 286.05C540.705 286.083 540.524 286.099 540.306 286.099C539.974 286.099 539.649 286.028 539.331 285.886C539.016 285.743 538.754 285.526 538.546 285.234C538.34 284.943 538.237 284.575 538.237 284.131V276.534ZM542.806 286V278.364H543.98V286H542.806ZM543.403 277.091C543.174 277.091 542.977 277.013 542.811 276.857C542.649 276.701 542.568 276.514 542.568 276.295C542.568 276.077 542.649 275.889 542.811 275.734C542.977 275.578 543.174 275.5 543.403 275.5C543.632 275.5 543.827 275.578 543.99 275.734C544.155 275.889 544.238 276.077 544.238 276.295C544.238 276.514 544.155 276.701 543.99 276.857C543.827 277.013 543.632 277.091 543.403 277.091ZM549.231 286.159C548.541 286.159 547.937 285.995 547.416 285.667C546.899 285.339 546.495 284.88 546.203 284.29C545.915 283.7 545.771 283.01 545.771 282.222C545.771 281.426 545.915 280.732 546.203 280.138C546.495 279.545 546.899 279.085 547.416 278.756C547.937 278.428 548.541 278.264 549.231 278.264C549.92 278.264 550.523 278.428 551.04 278.756C551.561 279.085 551.965 279.545 552.254 280.138C552.545 280.732 552.691 281.426 552.691 282.222C552.691 283.01 552.545 283.7 552.254 284.29C551.965 284.88 551.561 285.339 551.04 285.667C550.523 285.995 549.92 286.159 549.231 286.159ZM549.231 285.105C549.754 285.105 550.185 284.971 550.523 284.702C550.862 284.434 551.112 284.081 551.274 283.643C551.437 283.206 551.518 282.732 551.518 282.222C551.518 281.711 551.437 281.236 551.274 280.795C551.112 280.354 550.862 279.998 550.523 279.726C550.185 279.454 549.754 279.318 549.231 279.318C548.707 279.318 548.276 279.454 547.938 279.726C547.6 279.998 547.35 280.354 547.188 280.795C547.025 281.236 546.944 281.711 546.944 282.222C546.944 282.732 547.025 283.206 547.188 283.643C547.35 284.081 547.6 284.434 547.938 284.702C548.276 284.971 548.707 285.105 549.231 285.105ZM555.655 281.406V286H554.482V278.364H555.616V279.557H555.715C555.894 279.169 556.166 278.857 556.53 278.622C556.895 278.384 557.366 278.264 557.942 278.264C558.459 278.264 558.912 278.37 559.3 278.582C559.687 278.791 559.989 279.109 560.204 279.537C560.42 279.961 560.528 280.498 560.528 281.148V286H559.354V281.227C559.354 280.627 559.198 280.16 558.887 279.825C558.575 279.487 558.148 279.318 557.604 279.318C557.23 279.318 556.895 279.399 556.6 279.562C556.308 279.724 556.078 279.961 555.909 280.273C555.74 280.584 555.655 280.962 555.655 281.406Z" fill="black"/>
</g>
<defs>
<filter id="filter0_d_60_478" x="386" y="35" width="228" height="54" filterUnits="userSpaceOnUse" color-interpolation-filters="sRGB">
<feFlood flood-opacity="0" result="BackgroundImageFix"/>
<feColorMatrix in="SourceAlpha" type="matrix" values="0 0 0 0 0 0 0 0 0 0 0 0 0 0 0 0 0 0 127 0" result="hardAlpha"/>
<feOffset/>
<feGaussianBlur stdDeviation="3"/>
<feComposite in2="hardAlpha" operator="out"/>
<feColorMatrix type="matrix" values="0 0 0 0 0 0 0 0 0 0 0 0 0 0 0 0 0 0 0.15 0"/>
<feBlend mode="normal" in2="BackgroundImageFix" result="effect1_dropShadow_60_478"/>
<feBlend mode="normal" in="SourceGraphic" in2="effect1_dropShadow_60_478" result="shape"/>
</filter>
<clipPath id="clip0_60_478">
<rect width="1000" height="423" fill="white"/>
</clipPath>
</defs>
</svg>
